<?xml version="1.0" standalone="no"?>
<!DOCTYPE svg PUBLIC "-//W3C//DTD SVG 1.1//EN" "http://www.w3.org/Graphics/SVG/1.1/DTD/svg11.dtd" >
<svg>
<metadata>
Created by FontForge 20090914 at Tue Dec 25 09:38:41 2018
 By www-data
Slava Meskhi, Eka Khorbaladze. PH GCI&#239;&#191;&#191;Paata Koridze, 1998
</metadata>
<defs>
<font id="BodoniGeorgianNormal" horiz-adv-x="1024" >
  <font-face 
    font-family="_Bodoni (Georgian)"
    font-weight="400"
    font-stretch="normal"
    units-per-em="2048"
    panose-1="2 11 5 0 0 0 0 0 0 0"
    ascent="1638"
    descent="-410"
    cap-height="1342"
    bbox="-17 -580.004 4707 1755"
    underline-thickness="50"
    underline-position="-75"
    unicode-range="U+0020-U+2122"
  />
<missing-glyph 
d="M128 0v1512h768v-1512h-768zM256 128h512v1256h-512v-1256z" />
    <glyph glyph-name=".notdef" 
d="M128 0v1512h768v-1512h-768zM256 128h512v1256h-512v-1256z" />
    <glyph glyph-name="space" unicode=" " 
 />
    <glyph glyph-name="exclam" unicode="!" horiz-adv-x="613" 
d="M191 92c0 31.333 11.166 58.333 33.499 81s49.166 34 80.499 34h17c2.66699 -0.666992 7.33398 -2 14.001 -4c56.667 -17.333 85 -54.333 85 -111c0 -32.667 -11.333 -59 -34 -79c-21.333 -22.667 -48.666 -34 -81.999 -34c-30 0 -53.667 9 -71 27
c-27.333 23.333 -41 47.333 -41 72c-1.33301 4 -2 8.66699 -2 14zM229.999 918l-19 100c-2.66699 12 -4.66699 23 -6 33c-1.33301 4 -2 8 -2 12c-2 4 -3.33301 7.33301 -4 10c-18 70.667 -27 120 -27 148c0 76 26.667 121 80 135c9.33301 4 19 6.66699 29 8h24
c25.333 0 47.333 -4 66 -12c46.667 -20 70 -63.667 70 -131v-21c-3.33301 -35.333 -8.66602 -66.666 -15.999 -93.999c-16.667 -60 -30.334 -123.333 -41.001 -190c-3.33301 -17.333 -7.66602 -44 -12.999 -80c-12.667 -98 -21.667 -223.667 -27 -377
c-1.33301 -40.667 -2 -79 -2 -115h-71v58c-1.33301 11.333 -3 29 -5 53c-1.33301 45.333 -4 108.666 -8 189.999c-2.66699 38.667 -7.33398 90 -14.001 154v18c-3.33301 15.333 -8 49 -14 101z" />
    <glyph glyph-name="quotedbl" unicode="&#x22;" horiz-adv-x="809" 
d="M297 1364l-57 -452h-80l-58 452h195zM660 1364l-60 -452h-78l-59 452h197z" />
    <glyph glyph-name="numbersign" unicode="#" horiz-adv-x="1835" 
d="M1147 -121h-180l70 364h-383l-70 -364h-181l68 364h-357l35 185h359l74 389h-359l35 185h359l69 362h181l-70 -362h385l70 362h180l-69 -362h358l-35 -184l-358 -1l-76 -389h358l-35 -185h-358zM1071 428l74 389h-383l-74 -389h383z" />
    <glyph glyph-name="dollar" unicode="$" horiz-adv-x="1086" 
d="M90 2l-3.99609 426.002h27c40 -100.667 93 -187.5 159 -260.5s146.667 -119.167 242 -138.5v551l-86 24c-100.667 28 -171.667 73.333 -213 136s-65.666 125.334 -72.999 188.001c0 10 -0.666992 25 -2 45c0 4 -0.5 11 -1.5 21s-1.5 17.333 -1.5 22c0 118 39 206 117 264
c73.333 54.667 156 82 248 82h12v152h60v-158h19l16 -4c29.333 -4 77.666 -19.667 144.999 -47c28 -11.333 47.667 -17 59 -17c10 0 19 3 27 9c7.33301 4 17 15.333 29 34c1.33301 3.33301 2.66602 7 3.99902 11h32l9 -324h-29c-60 134.667 -136.333 224.667 -229 270
c-8.66699 4.66699 -22.334 11 -41.001 19c-10 3.33301 -23.667 6.66602 -41 9.99902v-508l121 -33c152.667 -42 248.334 -128 287.001 -258c12 -40.667 18 -86.334 18 -137.001c0 -122.667 -36.833 -220.334 -110.5 -293.001s-171.834 -109 -294.501 -109h-21v-182h-59
l-1 186c-70 11.333 -130 29.333 -180 54l-16 8c-18.667 10 -47.334 21 -86.001 33h-6c-48.667 0 -77.334 -25.333 -86.001 -76h-50zM574.004 563.002l-0.000976562 -542c6.66699 -1.33301 13.334 -2 20.001 -2h27h8c71.333 4 131.666 27.667 180.999 71
c52.667 46.667 79 104.667 79 174v33c-7.33301 62 -29 114.667 -65 158c-31.333 38 -82.666 66 -153.999 84zM514.003 826.002v499.001c-5.33301 1.33301 -10.666 2 -15.999 2h-21c-68.667 0 -126.334 -23 -173.001 -69s-70 -103.333 -70 -172
c0 -98.667 45.667 -170.334 137 -215.001c34.667 -17.333 73 -30.333 115 -39z" />
    <glyph glyph-name="percent" unicode="%" horiz-adv-x="1729" 
d="M471 -195l-63 29l854 1692l65 -29zM966 297c0 85.333 27.333 159 82 221c57.333 64.667 128 97 212 97s155 -32.333 213 -97c56 -62 84 -135.667 84 -221c0 -84.667 -28 -158 -84 -220c-58 -64 -129 -96 -213 -96s-154.333 32 -211 96c-55.333 62 -83 135.333 -83 220z
M1114 340l-0.000976562 -86.001c0 -129.333 35.333 -208 106 -236c12.667 -5.33301 27.334 -8 44.001 -8h16c86 12.667 129 94 129 244v86c0 139.333 -38 219.333 -114 240c-3.33301 0.666992 -8.33301 2 -15 4h-16c-54 0 -94.333 -29 -121 -87
c-19.333 -43.333 -29 -95.666 -29 -156.999zM171.999 1047c0 85.333 27.666 159.499 82.999 222.499s125.333 94.5 210 94.5s155.334 -31.5 212.001 -94.5s85 -137.167 85 -222.5c0 -90 -29.5 -165.5 -88.5 -226.5s-128.5 -91.5 -208.5 -91.5c-84 0 -154.333 32.333 -211 97
c-54.667 62.667 -82 136.334 -82 221.001zM319.998 1090l0.000976562 -86c0 -122.667 31.333 -200 94 -232c16 -8 34.333 -12 55 -12h17c85.333 10.667 128 92 128 244v86c0 82 -11.5 140.333 -34.5 175s-49.5 56 -79.5 64c-3.33301 0.666992 -8 2 -14 4h-17
c-52.667 0 -92.334 -29.333 -119.001 -88c-20 -44 -30 -95.667 -30 -155z" />
    <glyph glyph-name="ampersand" unicode="&#x26;" horiz-adv-x="1532" 
d="M1174 672l4.00391 0.00390625h2h53c60.667 0 118 10.333 172 31c34 12.667 51 34.334 51 65.001c0 10 -1 17.333 -3 22s-4.33301 7 -7 7h-6c-3.33301 0 -6 -0.666992 -8 -2h-6c-18.667 -9.33301 -38 -14 -58 -14c-59.333 0 -96 29.333 -110 88v16
c-1.33301 4 -2 8.66699 -2 14c0 4 0.666992 9 2 15c0 4 1.33301 8.66699 4 14c14 46.667 49.333 70 106 70c51.333 0 86.666 -17.5 105.999 -52.5s29 -78.5 29 -130.5c0 -99.333 -39 -180 -117 -242c-72 -57.333 -159 -86 -261 -86h-25c2.66699 -12 4.66699 -25.333 6 -40
v-45c0 -26.667 -0.666992 -47.334 -2 -62.001c-1.33301 -12 -5.33301 -33 -12 -63c-46 -198 -180.667 -297 -404 -297c-71.333 0 -140 6 -206 18c-264.667 48 -397 177.667 -397 389c0 160 94 270 282 330c57.333 18 122.666 31 195.999 39v10
c-207.333 42 -311 142.333 -311 301c0 75.333 28.333 138.666 85 189.999c48 44 112 75 192 93c41.333 9.33301 83.666 14 126.999 14c107.333 0 188 -20.5 242 -61.5s87.333 -87.167 100 -138.5c1.33301 -8.66699 2.66602 -16.334 3.99902 -23.001v-23
c0 -3.33301 0 -4.66602 0 -3.99902c-3.33301 -87.333 -43.666 -131 -120.999 -131c-60.667 0 -100.334 30 -119.001 90c-1.33301 7.33301 -2.33301 13.666 -3 18.999s-1 10.666 -1 15.999c0 22 13 46 39 72l43 43c4 5.33301 6 11.333 6 18c0 4 -0.666992 9.66699 -2 17
c-22 44.667 -76.667 67 -164 67c-136.667 0 -205 -65.333 -205 -196v-135c0 -107.333 37 -173.666 111 -198.999c5.33301 -2 17.666 -4.66699 36.999 -8c12.667 -2.66699 23.667 -4.66699 33 -6h16c5.33301 -2 10.5 -3.33301 15.5 -4s10.167 -1 15.5 -1h92v-45h-160
c-98 0 -166.333 -21 -205 -63c-50.667 -54.667 -78.667 -121.667 -84 -201c-1.33301 -20 -2 -39 -2 -57v-23v-12c4 -88.667 34.5 -170.5 91.5 -245.5s148.167 -112.5 273.5 -112.5c114.667 0 195.834 27.667 243.501 83s77.167 117.666 88.5 186.999
c3.33301 21.333 5.33301 37.666 6 48.999v45c0 44 -2.66699 79.333 -8 106l-115 2h-25c-127.333 0 -208.333 -19.667 -243 -59c-11.333 -12.667 -17 -25 -17 -37c0 -13.333 2 -22 6 -26c1.33301 -1.33301 2.66602 -2 3.99902 -2h15c3.33301 0 6 0.333008 8 1s4 1.66699 6 3
c28 8 45 12 51 12c34 0 61 -11.333 81 -34s30 -51 30 -85v-10c-1.33301 -4 -2 -8 -2 -12c-14.667 -52 -51 -78 -109 -78h-2c-3.33301 0 -4.66602 0 -3.99902 0c-44.667 2 -78.667 22.667 -102 62c-19.333 33.333 -29 74 -29 122c0 97.333 38.667 177.333 116 240
c72 58.667 157.667 88 257 88h8z" />
    <glyph glyph-name="quotesingle" unicode="'" horiz-adv-x="447" 
d="M322 1364l-60 -452h-77l-60 452h197z" />
    <glyph glyph-name="parenleft" unicode="(" horiz-adv-x="1000" 
d="M709 -449l-36.999 -21.999c-74 77.333 -140.333 168 -199 272c-85.333 152 -142.333 312 -171 480c-10 59.333 -15 111 -15 155c0 86.667 23.333 216.667 70 390c46 171.333 151 353.333 315 546l41 -18c-30.667 -48 -59.334 -100 -86.001 -156
c-28 -59.333 -48.667 -109.666 -62 -150.999c-27.333 -86 -46 -183.667 -56 -293c-10 -113.333 -15 -219.333 -15 -318c0 -252.667 34.667 -477.334 104 -674.001c28.667 -80.667 65.667 -150.334 111 -209.001v-2z" />
    <glyph glyph-name="parenright" unicode=")" horiz-adv-x="1000" 
d="M328 -471l-37 21.999c48 62.667 85.667 133 113 211c25.333 72 46.333 152.667 63 242c26 140 39 284 39 432c0 124.667 -4 230.667 -12 318c-8.66699 94.667 -28.5 192 -59.5 292s-80.167 202.667 -147.5 308l41 18c256.667 -300 385 -612 385 -936
c0 -54 -4 -105.667 -12 -155c-6.66699 -41.333 -19.667 -94.666 -39 -159.999c-70 -236 -181.333 -432.667 -334 -590v-2z" />
    <glyph glyph-name="asterisk" unicode="*" horiz-adv-x="1022" 
d="M604 1000l-0.000976562 -39.002c7.33301 -2.66699 14.333 -4.66699 21 -6c11.333 -6 32.333 -11.667 63 -17c34 -8 83.333 -23.667 148 -47c28.667 -14 43 -40 43 -78c0 -53.333 -30.667 -80 -92 -80c-6 0 -11.667 0.833008 -17 2.5s-10 3.83398 -14 6.50098
c-17.333 8 -47.666 34 -90.999 78l-89 90l-35 -21c10.667 -70 28.334 -137.667 53.001 -203c0.666992 -2.66699 2 -6 4 -10v-16c0 -12.667 -2.66699 -25 -8 -37c-16 -35.333 -42 -53 -78 -53c-50 0 -78.667 26.333 -86 79v19c14 48 32.667 121.667 56 221l-35 21
c-43.333 -46.667 -100 -101.334 -170 -164.001c-4.66699 -3.33301 -11 -6.33301 -19 -9s-15.333 -4 -22 -4c-24.667 0 -46.334 7.33301 -65.001 22s-28 34 -28 58c0 34.667 16.667 61.334 50 80.001c17.333 9.33301 49.333 19.666 96 30.999
c5.33301 1.33301 20.333 5.33301 45 12c12.667 2 34.667 8.33301 66 19l18 6v39c-6.66699 2.66699 -12.667 5.33398 -18 8.00098c-14.667 2.66699 -36 8 -64 16c-56 10 -105.333 25.667 -148 47c-30 14 -45 39.333 -45 76c0 24 9.33301 43.333 28 58s40.334 22 65.001 22
c8 0 15.333 -0.666992 22 -2c10.667 -4 23.667 -12.667 39 -26c32 -34 82 -83.333 150 -148l35 20c-16 90 -28.333 146 -37 168c-10.667 26.667 -17 44.667 -19 54v18c2.66699 20.667 11.667 39 27 55c13.333 16.667 33 25 59 25c34 0 60 -17.667 78 -53
c5.33301 -14.667 8 -27 8 -37v-15c-2.66699 -8 -10.667 -27.667 -24 -59c-10 -23.333 -21 -75.333 -33 -156l35 -20c44.667 48 104.667 104 180 168c8 5.33301 18.333 8 31 8c24 0 45.333 -6.16699 64 -18.5s28 -32.833 28 -61.5c0 -35.333 -17 -62.333 -51 -81
c-17.333 -10 -50.333 -20.667 -99 -32c-22.667 -5.33301 -56.667 -14 -102 -26l-10.5 -4c-3.66699 -1.33301 -7.83398 -2.66602 -12.501 -3.99902z" />
    <glyph glyph-name="plus" unicode="+" horiz-adv-x="1430" 
d="M101 690h570v572h87v-572h571v-86h-571v-569h-87v569h-570v86z" />
    <glyph glyph-name="comma" unicode="," horiz-adv-x="672" 
d="M289 -312l-25 33.001c22.667 17.333 44.334 39.333 65.001 66c43.333 54.667 68.666 103 75.999 145c2 10.667 3 23 3 37v6c0 1.33301 -0.666992 2.66602 -2 3.99902c-1.33301 7.33301 -3.33301 13 -6 17c-4.66699 4 -9 6 -13 6c-9.33301 0 -19.333 -2.66699 -30 -8
c-1.33301 -1.33301 -2.83301 -2.33301 -4.5 -3s-3.16699 -1 -4.5 -1c-12.667 -7.33301 -27.667 -11 -45 -11c-30 0 -54.667 10.667 -74 32s-29 47 -29 77c0 36.667 13.667 65 41 85c24.667 18.667 55.667 28 93 28c5.33301 0 14.333 -1.33301 27 -4
c34 -11.333 63.333 -38 88 -80c14.667 -26 22 -61.667 22 -107c0 -98.667 -43 -188.667 -129 -270c-5.33301 -6 -13.333 -14.333 -24 -25l-29 -24v-3z" />
    <glyph glyph-name="hyphen" unicode="-" horiz-adv-x="719" 
d="M143 372v93h433v-93h-433z" />
    <glyph glyph-name="hyphen" unicode="&#x2010;" horiz-adv-x="719" 
d="M143 372v93h433v-93h-433z" />
    <glyph glyph-name="period" unicode="." horiz-adv-x="631" 
d="M200 92c0 60 33.665 98.332 100.998 114.999h15c32.667 0 59.834 -11.333 81.501 -34s32.5 -49.667 32.5 -81v-14c-7.33301 -29.333 -20.833 -53.166 -40.5 -71.499s-44.167 -27.5 -73.5 -27.5c-33.333 0 -60.666 11.333 -81.999 34c-22.667 20 -34 46.333 -34 79z" />
    <glyph glyph-name="slash" unicode="/" horiz-adv-x="991" 
d="M129 -516l-72 24l805 1897l72 -26z" />
    <glyph glyph-name="zero" unicode="0" horiz-adv-x="1096" 
d="M86 672c0 97.333 15.001 196.333 45.001 297c78.667 263.333 216.667 395 414 395c151.333 0 270.666 -81.667 357.999 -245c71.333 -133.333 107 -282.333 107 -447c0 -190.667 -37.833 -343.334 -113.5 -458.001s-157.167 -186.667 -244.5 -216
c-37.333 -12.667 -73 -19 -107 -19c-32 0 -66 6.33301 -102 19c-121.333 42.667 -214 135.334 -278 278.001c-52.667 118.667 -79 250.667 -79 396zM316.001 887v-429.999c0 -110 13 -211.667 39 -305c24.667 -90 88.667 -135 192 -135c100.667 0 168.334 52 203.001 156
c20.667 61.333 31 156 31 284v430c0 123.333 -11 216.666 -33 279.999c-35.333 105.333 -102.333 158 -201 158s-165.334 -52.333 -200.001 -157c-20.667 -62 -31 -155.667 -31 -281z" />
    <glyph glyph-name="one" unicode="1" horiz-adv-x="981" 
d="M400 41v1215c0 13.333 -3.83301 22.333 -11.5 27s-16.167 7 -25.5 7h-82c-8 0 -16.333 -0.666992 -25 -2h-26c-8.66699 -1.33301 -15.667 -2 -21 -2l-2 50c50 2.66699 135.333 8 256 16c19.333 0.666992 48 2 86 4l84 8l-4 -119v-1204h158v-41h-545v41h158z" />
    <glyph glyph-name="two" unicode="2" horiz-adv-x="1102" 
d="M934 402l46.999 0.0078125l-18 -402h-849v129l355 332c54 50 93.667 89.667 119 119c94.667 107.333 148 225.333 160 354c1.33301 14 2 23 2 27v55c-1.33301 8 -2 16.333 -2 25c-2.66699 27.333 -11.667 70.333 -27 129c-17.333 41.333 -42.666 76.666 -75.999 105.999
c-35.333 31.333 -89 47 -161 47c-43.333 0 -86 -11 -128 -33c-49.333 -25.333 -74 -58 -74 -98c0 -20.667 4.33301 -35.667 13 -45c6.66699 -9.33301 15.334 -17.333 26.001 -24h4v-5c16.667 -8.66699 31 -21.334 43 -38.001c2.66699 -4.66699 5.66699 -8.33398 9 -11.001
c3.33301 -6.66699 7.33301 -18.334 12 -35.001c1.33301 -9.33301 2 -19.333 2 -30c0 -66.667 -30 -107 -90 -121c-6.66699 -2.66699 -13.334 -4.33398 -20.001 -5.00098s-13.667 -1 -21 -1c-40 0 -73.333 15.667 -100 47c-24.667 29.333 -37 64.666 -37 105.999
c0 98 44.333 180 133 246c81.333 60 172.333 90 273 90c208 0 347 -84.667 417 -254c16 -38.667 25.667 -70.667 29 -96c2.66699 -12.667 4 -22.334 4 -29.001v-57c-0.666992 -6.66699 -2 -16.334 -4 -29.001c-18 -113.333 -102 -226 -252 -338l-45 -34l-445 -340h566
c50 0 84.333 15 103 45c12.667 20 22 58.667 28 116c0 8.66699 0.333008 17 1 25s1.66699 17 3 27z" />
    <glyph glyph-name="three" unicode="3" horiz-adv-x="1090" 
d="M611 766l-0.00195312 -10.002c103.333 -10.667 189 -48.667 257 -114c71.333 -68.667 107 -153.667 107 -255c0 -56.667 -12.333 -112.667 -37 -168c-71.333 -160 -222 -240 -452 -240c-188.667 0 -311.667 61.667 -369 185c-16.667 36 -25 69.333 -25 100
c0 44 11.333 81.333 34 112c25.333 33.333 59.333 50 102 50c38 0 69 -12.667 93 -38s36 -57 36 -95c0 -35.333 -13.667 -64.666 -41 -87.999c-4.66699 -4 -9 -7 -13 -9s-7.33301 -4 -10 -6s-4.66699 -3.66699 -6 -5c-2.66699 -3.33301 -5.33398 -5.66602 -8.00098 -6.99902
c-19.333 -12 -29 -26.333 -29 -43c0 -4 0.666992 -7.33301 2 -10c0 -26.667 25.333 -53.334 76 -80.001c35.333 -18.667 78.333 -28 129 -28h10c11.333 0 23 0.666992 35 2l37 4l78 41c5.33301 4 11.333 9.33301 18 16c4.66699 4 12.334 11.667 23.001 23
c38.667 48 58 117.667 58 209v231c0 22.667 -4.33301 46 -13 70c-28 78.667 -89.667 118 -185 118c-19.333 0 -42.333 -3.33301 -69 -10c-5.33301 -1.33301 -10.5 -2.33301 -15.5 -3s-9.5 -1.66699 -13.5 -3l-27 -4c-9.33301 -1.33301 -19.333 -2 -30 -2
c-3.33301 0 -6 0.666992 -8 2c-12 0 -21.667 4.66699 -29 14c-5.33301 5.33301 -8 13.666 -8 24.999v10c1.33301 10.667 6 21 14 31c8 8 20.333 12 37 12c18 0 35 -2.66699 51 -8c38.667 -6.66699 71.334 -10 98.001 -10c54 0 94 13.167 120 39.5s43 53.166 51 80.499
c6.66699 22 10 51.667 10 89v135c0 100 -42.333 162.667 -127 188c-28 5.33301 -53.333 8 -76 8c-47.333 0 -82.333 -4.66699 -105 -14c-34 -14 -53.667 -31.667 -59 -53c-2.66699 -7.33301 -4 -13 -4 -17s1 -8 3 -12s17.333 -20.333 46 -49
c2.66699 -2.66699 5.33398 -4.66699 8.00098 -6c6 -7.33301 14.333 -19 25 -35c4 -9.33301 6 -19.666 6 -30.999v-16c-1.33301 -5.33301 -2.66602 -11.666 -3.99902 -18.999c-18.667 -60 -58.334 -90 -119.001 -90c-79.333 0 -119 46 -119 138
c0 6.66699 0.666992 13.334 2 20.001c0 9.33301 0.666992 17 2 23c15.333 70 59.333 122.667 132 158c58.667 28 128 42 208 42c41.333 0 81 -4 119 -12c190 -40 285 -135 285 -285c0 -89.333 -28.333 -157 -85 -203s-132 -78.667 -226 -98z" />
    <glyph glyph-name="four" unicode="4" horiz-adv-x="1114" 
d="M574 41v342h-465v53l571 938h109v-909h211v-82h-211v-342h157v-41h-544v41h172zM574 465v643l-402 -643h402z" />
    <glyph glyph-name="five" unicode="5" horiz-adv-x="1116" 
d="M279 1145l-27.998 -353.999l6 4l4 4c56 43.333 107 69.333 153 78c42.667 8 78 12 106 12c233.333 0 379.666 -95.667 438.999 -287c8 -26 13.333 -47.667 16 -65s4 -38 4 -62c0 -79.333 -13 -153 -39 -221c-69.333 -182.667 -214.666 -274 -435.999 -274
c-98 0 -182 21 -252 63c-84 50.667 -126 121.667 -126 213c0 42.667 12.333 79.334 37 110.001s57.667 46 99 46c83.333 0 125 -38.333 125 -115c0 -22.667 -2 -40.334 -6 -53.001c-5.33301 -14.667 -15 -28.334 -29 -41.001c-2 -1.33301 -3.66699 -2.66602 -5 -3.99902
l-4 -4c-2.66699 -2.66699 -6 -5.33398 -10 -8.00098c-8 -6.66699 -19.667 -17.667 -35 -33c-6.66699 -8 -10 -17 -10 -27c0 -5.33301 1.33301 -12 4 -20c5.33301 -26.667 27.666 -50 66.999 -70c24.667 -13.333 59.334 -20 104.001 -20c164 0 250 98.333 258 295v47v219
c0 91.333 -32 163 -96 215c-32.667 26.667 -83.334 40 -152.001 40c-50.667 0 -95.667 -11.333 -135 -34s-74 -54.667 -104 -96l-26 4l44 657c98 -42 197.667 -64.333 299 -67h21h16c102 0 199.667 22.333 293 67l20 -26c-34.667 -80 -127.334 -139.667 -278.001 -179
c-66.667 -17.333 -133 -26 -199 -26c-8 0 -15.333 0.666992 -22 2h-25c-10 0 -27.667 2 -53 6c-5.33301 0 -12.833 0.666992 -22.5 2s-17.167 2 -22.5 2z" />
    <glyph glyph-name="six" unicode="6" horiz-adv-x="1104" 
d="M346 926l-3.99805 -245.996c22.667 52 61.667 93.333 117 124c51.333 28 106.666 42 165.999 42h24c104 -18.667 189.333 -63.667 256 -135c71.333 -76.667 107 -177 107 -301c0 -129.333 -45 -233 -135 -311c-92 -80 -192.333 -120 -301 -120
c-60 0 -117.333 11.333 -172 34c-193.333 80.667 -290 284 -290 610c0 109.333 10.333 209.666 31 300.999c66 293.333 222 440 468 440c118.667 0 207.334 -23 266.001 -69s88 -98.667 88 -158v-12c0 -6 -0.666992 -11 -2 -15c-10.667 -74.667 -51 -112 -121 -112
c-58.667 0 -97.667 23.667 -117 71c-2.66699 6.66699 -4 13.667 -4 21c-1.33301 5.33301 -2 10.666 -2 15.999c0 8.66699 1 17 3 25s5 16 9 24c4 11.333 7.66699 19.666 11 24.999c0 2 0.333008 3.83301 1 5.5s1.66699 3.16699 3 4.5c2 5.33301 6 13.666 12 24.999
c8 24 12 40.333 12 49c0 20 -16 35.5 -48 46.5s-69 16.5 -111 16.5c-157.333 0 -245 -96 -263 -288c-0.666992 -12.667 -1.33398 -32 -2.00098 -58c-0.666992 -12.667 -1.33398 -31 -2.00098 -55zM342.002 525.004l-0.000976562 -236.001
c0 -125.333 48.667 -208.666 146 -249.999c34.667 -14.667 68 -22 100 -22c90 0 149.667 49.667 179 149c10.667 36 16 82.333 16 139v201c0 195.333 -65 293 -195 293c-71.333 0 -130.666 -28.333 -177.999 -85c-45.333 -53.333 -68 -116.333 -68 -189z" />
    <glyph glyph-name="seven" unicode="7" horiz-adv-x="1065" 
d="M172 1002l-44.002 0.00195312l55 340h733c13.333 0 20 -8.33301 20 -25c0 -45.333 -47.667 -189.333 -143 -432c-67.333 -171.333 -113.666 -319.333 -138.999 -444c-9.33301 -46.667 -18.333 -103.334 -27 -170.001c-12.667 -100 -21.667 -176.667 -27 -230l-4 -41h-221
c12.667 147.333 62.334 312.666 149.001 495.999c12 25.333 29.333 58 52 98l45 80l74 129c10 18 29.667 57.667 59 119c38.667 80.667 68 155 88 223h-535c-39.333 0 -68 -9.66699 -86 -29c-14 -14.667 -27.667 -42.667 -41 -84c-1.33301 -4.66699 -4 -14.667 -8 -30z" />
    <glyph glyph-name="eight" unicode="8" horiz-adv-x="1084" 
d="M408 705l-107 69c-16.667 13.333 -40.334 36 -71.001 68c-52 65.333 -78 131.666 -78 198.999c0 32 4.66699 62 14 90c26 78.667 76 138.334 150 179.001c65.333 36 142.333 54 231 54c120.667 0 214.334 -27.333 281.001 -82s100 -118 100 -190
c0 -132 -87.333 -233 -262 -303l100 -66l37 -24c121.333 -93.333 182 -197.333 182 -312s-39.833 -210.5 -119.5 -287.5s-177.5 -116.833 -293.5 -119.5h-7h-6c-122.667 0 -226.667 28.333 -312 85c-98.667 65.333 -148 156.333 -148 273c0 144 103 266.333 309 367z
M684 529l-223 145.001c-63.333 -34.667 -111.666 -82.334 -144.999 -143.001c-30 -54.667 -47.333 -117 -52 -187v-8c-1.33301 -2.66699 -2 -5.33398 -2 -8.00098v-27c0 -3.33301 0.666992 -6 2 -8v-8v-8c7.33301 -86 39.666 -150.833 96.999 -194.5s122 -65.5 194 -65.5
c85.333 0 151.5 25.5 198.5 76.5s70.5 109.5 70.5 175.5c0 112.667 -46.667 199.334 -140 260.001zM436 934.001l181 -114.999c58.667 28.667 102.334 67.667 131.001 117c22 38 33 85 33 141c0 74 -21 133.833 -63 179.5s-99.667 68.5 -173 68.5
c-64.667 0 -119.334 -13.333 -164.001 -40c-53.333 -32.667 -80 -79.334 -80 -140.001c0 -68 33 -129.333 99 -184c6 -6.66699 18 -15.667 36 -27z" />
    <glyph glyph-name="nine" unicode="9" horiz-adv-x="1098" 
d="M764 416l3.99805 246c-21.333 -52 -60 -93.333 -116 -124c-51.333 -28 -106.666 -42 -165.999 -42c-10 0 -19 0.666992 -27 2c-88 0 -173.333 46.333 -256 139c-69.333 77.333 -104 176.333 -104 297c0 121.333 42.333 223.333 127 306s187.667 124 309 124
c64.667 0 123.334 -11.667 176.001 -35c72.667 -32.667 138.334 -93.5 197.001 -182.5s88 -230.833 88 -425.5c0 -109.333 -11 -211 -33 -305c-68 -290.667 -223 -436 -465 -436c-180.667 0 -294 54 -340 162c-6 13.333 -9.33301 24 -10 32
c-2.66699 8.66699 -4 19.667 -4 33c0 38 10.667 70 32 96c23.333 28.667 53.333 43 90 43c36 0 62.667 -7.33301 80 -22c21.333 -18 35.666 -42 42.999 -72v-16c0 -5.33301 -0.666992 -12.333 -2 -21l-8 -24c-1.33301 -4 -3 -8.5 -5 -13.5s-4.33301 -9.5 -7 -13.5v-6l-4 -4
c-16.667 -35.333 -25 -60 -25 -74c0 -20 17.333 -35.833 52 -47.5s70.667 -17.5 108 -17.5c108.667 0 183 42.333 223 127c26.667 56 41 147.333 43 274zM767.998 1053c0 78 -21.332 141.999 -63.999 191.999c-44.667 53.333 -105.334 80 -182.001 80
c-92 0 -151 -49 -177 -147c-11.333 -42.667 -17 -87.667 -17 -135v-207c0 -73.333 12.833 -140.166 38.5 -200.499s77.5 -90.5 155.5 -90.5c68 0 125.333 25.333 172 76c44 47.333 68.667 106 74 176v12v244z" />
    <glyph glyph-name="colon" unicode=":" horiz-adv-x="631" 
d="M200 92c0 31.333 11.498 58.332 34.498 80.999s50.167 34 81.5 34h16c2.66699 -0.666992 7.33398 -2 14.001 -4c56 -17.333 84 -54.333 84 -111c0 -31.333 -10.667 -57.666 -32 -78.999c-23.333 -22.667 -50.666 -34 -81.999 -34c-28.667 0 -52.667 9 -72 27
c-27.333 25.333 -41 49.333 -41 72c-2 4 -3 8.66699 -3 14zM199.998 780.999c0 59.333 33.668 97.332 101.001 113.999h15c31.333 0 58.166 -11.167 80.499 -33.5s33.5 -49.166 33.5 -80.499v-15c-7.33301 -30 -20.5 -54.167 -39.5 -72.5s-43.833 -27.5 -74.5 -27.5
c-32 0 -59.333 11 -82 33s-34 49.333 -34 82z" />
    <glyph glyph-name="semicolon" unicode=";" horiz-adv-x="672" 
d="M289 -312l-25 33c22.667 17.333 44.334 39.333 65.001 66c43.333 54.667 68.666 103 75.999 145c2 10.667 3 23 3 37v6c0 1.33301 -0.666992 2.66602 -2 3.99902c-1.33301 7.33301 -3.33301 13 -6 17c-4.66699 4 -9 6 -13 6c-9.33301 0 -19.333 -2.66699 -30 -8
c-1.33301 -1.33301 -2.83301 -2.33301 -4.5 -3s-3.16699 -1 -4.5 -1c-12.667 -7.33301 -27.667 -11 -45 -11c-30 0 -54.667 10.667 -74 32s-29 47 -29 77c0 75.333 44.667 113 134 113c16.667 0 35 -5.33301 55 -16c54.667 -29.333 82 -87.666 82 -174.999
c0 -98.667 -43 -188.667 -129 -270c-5.33301 -6 -13.333 -14.333 -24 -25l-29 -24v-3zM227 781c0 30 11.666 56.5 34.999 79.5s50 34.5 80 34.5h17c2.66699 -0.666992 7.33398 -2 14.001 -4c56 -17.333 84 -54 84 -110c0 -33.333 -10.833 -60.833 -32.5 -82.5
s-49.167 -32.5 -82.5 -32.5c-54 0 -91 28 -111 84c-1.33301 5.33301 -2.33301 10.333 -3 15s-1 10 -1 16z" />
    <glyph glyph-name="less" unicode="&#x3c;" horiz-adv-x="1090" 
d="M28 674l945 545l59 -111l-752 -434l752 -434l-59 -111z" />
    <glyph glyph-name="equal" unicode="=" horiz-adv-x="1430" 
d="M100 547h1229v-86h-1229v86zM100 834h1229v-86h-1229v86z" />
    <glyph glyph-name="greater" unicode="&#x3e;" horiz-adv-x="1090" 
d="M1061 674l-944 -545l-60 111l752 434l-752 434l60 111z" />
    <glyph glyph-name="question" unicode="?" horiz-adv-x="1073" 
d="M373 92c0 31.333 11.3311 58.332 33.998 80.999s49.667 34 81 34h16c2.66699 -0.666992 7.33398 -2 14.001 -4c56 -17.333 84 -54.333 84 -111c0 -31.333 -10.667 -57.666 -32 -78.999c-23.333 -22.667 -50.666 -34 -81.999 -34c-28.667 0 -52.667 9 -72 27
c-27.333 25.333 -41 49.333 -41 72c-1.33301 4 -2 8.66699 -2 14zM524.998 329.999l-47.999 0.000976562v31c0 148.667 41 300 123 454c1.33301 2 3.33301 5.66699 6 11c1.33301 1.33301 3 4 5 8c22.667 36.667 41.667 74.667 57 114c10.667 28 16 63.667 16 107v49
c-0.666992 13.333 -3.33398 29.666 -8.00098 48.999c-17.333 114.667 -80 172 -188 172c-54.667 0 -102.667 -14.333 -144 -43c-45.333 -31.333 -71.333 -73 -78 -125c-2.66699 -12.667 -4 -22.667 -4 -30c0 -26 17.667 -39 53 -39h37c28.667 0 51.334 -9.66699 68.001 -29
s25 -43.333 25 -72c0 -50.667 -25.333 -84.667 -76 -102c-20 -4 -33.667 -6 -41 -6c-17.333 0 -34.5 6.16699 -51.5 18.5s-34 34.5 -51 66.5s-25.5 72.667 -25.5 122c0 83.333 28.333 151 85 203c55.333 50 125 75 209 75c218 0 343.667 -87.333 377 -262
c1.33301 -13.333 2 -26.333 2 -39c0 -112 -43.667 -218.333 -131 -319c-8.66699 -10 -22.334 -24.333 -41.001 -43l-33 -33c-44.667 -44.667 -81.667 -96.667 -111 -156c-21.333 -42.667 -32 -91.667 -32 -147v-35z" />
    <glyph glyph-name="at" unicode="@" horiz-adv-x="1923" 
d="M1508 1164l-169.998 -564c-26 -86 -39 -143.333 -39 -172c0 -56.667 18.333 -96 55 -118c13.333 -8 27.666 -12 42.999 -12c31.333 0 64 7.33301 98 22c94 40.667 168.667 114 224 220c50 96 75 198.667 75 308c0 224 -81.333 403.667 -244 539
c-152 126.667 -342.333 190 -571 190c-233.333 0 -429.333 -84.667 -588 -254c-155.333 -166.667 -233 -367.334 -233 -602.001c0 -217.333 76.333 -415.333 229 -594s352 -268 598 -268h2c160.667 0 300 31.333 418 94c47.333 24.667 91.666 55.334 132.999 92.001l45 -58
c-183.333 -133.333 -380.666 -200 -591.999 -200c-260.667 0 -481.334 90.833 -662.001 272.5s-271 402.834 -271 663.501v12v13c6 254.667 96.833 468.5 272.5 641.5s390.5 259.5 644.5 259.5c250 0 458.333 -70 625 -210c177.333 -148.667 266 -345.667 266 -591v-22
c-4 -155.333 -47 -290.333 -129 -405c-92 -130 -212 -195 -360 -195c-84 0 -151 25 -201 75c-16.667 16.667 -30.334 34.667 -41.001 54c-89.333 -72.667 -185.666 -109 -288.999 -109c-104.667 0 -187.334 39.333 -248.001 118c-54.667 71.333 -82 161 -82 269
c0 155.333 52.5 288.666 157.5 399.999s234.833 167 389.5 167c72 0 135.667 -24.333 191 -73c12.667 -12.667 30.334 -32.667 53.001 -60l31 97h170zM1118 447l140.002 491.002c-18.667 107.333 -72.667 171.666 -162 192.999c-4 0.666992 -10.333 2 -19 4h-18
c-13.333 0 -27 -1.33301 -41 -4c-84.667 -25.333 -158.334 -89 -221.001 -191c-54.667 -88.667 -82 -196.334 -82 -323.001c0 -80.667 11 -151 33 -211c20.667 -57.333 67.667 -86 141 -86c76 0 145 33.333 207 100c9.33301 10 16.666 19 21.999 27z" />
    <glyph glyph-name="A" unicode="A" horiz-adv-x="1264" 
d="M883 41l-152 413.999h-401l-74 -182c-2 -4 -4.66699 -10.333 -8 -19l-8 -20c-4 -8.66699 -8.83301 -22.667 -14.5 -42s-8.5 -37.666 -8.5 -54.999c0 -60 43.667 -92 131 -96v-41h-348v41c44.667 3.33301 83 22 115 56c16 18 29.667 37.667 41 59l8 12
c0.666992 2.66699 2 6.66699 4 12l453 1162h37l467 -1301h139v-41h-563v41h182zM718 495.999l-177 508l-201 -508h378z" />
    <glyph glyph-name="B" unicode="B" horiz-adv-x="1362" 
d="M86 1342l621.001 -0.000976562c237.333 0 388 -60.333 452 -181c19.333 -36.667 29 -78 29 -124c0 -84.667 -39.667 -154.334 -119 -209.001c-64 -44.667 -143 -74 -237 -88c-8.66699 -1.33301 -16.334 -2 -23.001 -2c-8 -2 -16 -3.66699 -24 -5v-10
c232 -37.333 378 -113.666 438 -228.999c20.667 -40 31 -83.667 31 -131v-2c0 -3.33301 0 -4.66602 0 -3.99902c-2 -128 -60.667 -223 -176 -285c-90 -48 -205 -72 -345 -72h-647v41h157v1260h-157v41zM473.001 40.999l232 -0.000976562c193.333 0 290 103 290 309
c0 112.667 -23 193.334 -69 242.001s-98.667 81.667 -158 99c-26.667 8 -49 12.667 -67 14c-14.667 1.33301 -36 2 -64 2h-164v-666zM473.001 747.998h150.001c186 0 286.667 79.667 302 239c1.33301 14 2 22.333 2 25v22c0 162 -70 250.333 -210 265
c-12.667 1.33301 -24.334 2 -35.001 2h-209v-553z" />
    <glyph glyph-name="D" unicode="D" horiz-adv-x="1473" 
d="M86 1342h598c218.667 0 382 -54.667 490 -164c126.667 -128 197 -272.667 211 -434c1.33301 -15.333 2 -38 2 -68c0 -188.667 -60.333 -347.667 -181 -477c-124 -132.667 -279.333 -199 -466 -199h-654v41h157v1262h-157v39zM473 41l277 -0.000976562
c140.667 0 237.667 58 291 174c46.667 100.667 75 228.334 85 383.001c1.33301 6 2 16.333 2 31v29c0 266 -38 440 -114 522s-183.333 123 -322 123h-219v-1262z" />
    <glyph glyph-name="E" unicode="E" horiz-adv-x="1231" 
d="M243 41l-0.000976562 1262h-157v39h1010l22 -387h-49c-14.667 110 -48.167 195.5 -100.5 256.5s-131.5 91.5 -237.5 91.5h-258v-565h74c16.667 0 29.667 0.666992 39 2c16 0.666992 29.667 2.66699 41 6c30 8.66699 59 30 87 64s46 91.667 54 173h41v-536h-41v10l-4 8
c-14.667 88.667 -34.5 149.5 -59.5 182.5s-73.5 49.5 -145.5 49.5h-86v-656h293c30.667 0 59.334 2.66699 86.001 8c140 28 228.667 151 266 369h50l-43 -418h-1039v41h157z" />
    <glyph glyph-name="F" unicode="F" horiz-adv-x="1161" 
d="M243 41v1262h-157v39h1024l23 -430h-49c-20.667 260.667 -138.334 391 -353.001 391h-258v-594h131c18 0 31 0.666992 39 2c13.333 0.666992 27 3 41 7c80.667 23.333 128 102.333 142 237h41v-537h-41c-4.66699 82 -19 139.333 -43 172
c-33.333 45.333 -75.666 70.666 -126.999 75.999c-14 1.33301 -27 2 -39 2h-144v-627h158v-41h-545v41h157z" />
    <glyph glyph-name="G" unicode="G" horiz-adv-x="1440" 
d="M1141 928l-44.9971 -0.00292969c-23.333 255.333 -142.666 386.333 -357.999 393h-11h-10c-140.667 0 -238.334 -68.667 -293.001 -206c-35.333 -88 -54.333 -218 -57 -390v-24v-31c0 -121.333 7 -221.666 21 -300.999c41.333 -236 141.333 -354 300 -354
c19.333 0 41.333 1.33301 66 4c170 18 255 135.333 255 352v147h-142v39h516v-39h-144v-79c0 -133.333 -52.333 -242.666 -157 -327.999c-96 -77.333 -213 -119.666 -351 -126.999c-6.66699 -1.33301 -12.667 -2 -18 -2h-21c-176.667 0 -314 66.5 -412 199.5
s-154 278.167 -168 435.5c-2.66699 30 -4 58 -4 84c0 170 57 321.333 171 454c120 139.333 263.333 209 430 209c70 0 124.667 -10.333 164 -31c1.33301 -1.33301 2.66602 -2 3.99902 -2l2 -2c31.333 -18.667 73.666 -28 126.999 -28c6.66699 0 14.167 0.333008 22.5 1
s16.5 4.33398 24.5 11.001c6.66699 4 13.167 10.167 19.5 18.5s12.166 19.166 17.499 32.499h47z" />
    <glyph glyph-name="H" unicode="H" horiz-adv-x="1551" 
d="M473 697v-656h144v-41h-531v41h157v1262h-157v39h531v-39h-144v-565h604v565h-143v39h531v-39h-158v-1262h158v-41h-531v41h143v656h-604z" />
    <glyph glyph-name="I" unicode="I" horiz-adv-x="717" 
d="M243 41v1262h-157v39h545v-39h-158v-1262h158v-41h-545v41h157z" />
    <glyph glyph-name="K" unicode="K" horiz-adv-x="1401" 
d="M473 641l461 471.002c3.33301 3.33301 6.66602 7 9.99902 11c12.667 11.333 25.667 28.333 39 51c8.66699 12 13 25 13 39v14c-1.33301 4 -3.66602 8 -6.99902 12c-17.333 42.667 -68.333 64 -153 64h-15v39h482v-39c-18.667 0 -34.5 -1.33301 -47.5 -4
s-28.5 -8 -46.5 -16c-48 -20.667 -110 -67.334 -186 -140.001c-7.33301 -6.66699 -63 -63.334 -167 -170.001l-84 -86l525 -846h75v-41h-557v41h189l-385 686l-146 -149v-537h144v-41h-531v41h157v1262h-157v39h531v-39h-144v-662z" />
    <glyph glyph-name="L" unicode="L" horiz-adv-x="1184" 
d="M243 41v1262h-157v39h545v-39h-158v-1262h238c23.333 0 45.666 2.66699 66.999 8c80.667 20 152.667 68 216 144c56.667 67.333 97.334 145 122.001 233h39l-63 -426h-1006v41h157z" />
    <glyph glyph-name="M" unicode="M" horiz-adv-x="1735" 
d="M879 303l381.999 1039h388v-39h-158v-1262h158v-41h-545v41h157v1178l-454 -1244h-37l-475 1234v-998c0 -48.667 6.83301 -87.167 20.5 -115.5s58.834 -46.5 135.501 -54.5v-41h-365v41h17c68 0 113.667 31.333 137 94c8 21.333 12 47.333 12 78v973
c0 65.333 -26 103 -78 113c-5.33301 0.666992 -13.333 2 -24 4h-60l2 39h387z" />
    <glyph glyph-name="N" unicode="N" horiz-adv-x="1452" 
d="M1147 400l0.000976562 766c0 68 -38.333 111.667 -115 131c-10 2.66699 -20 4.66699 -30 6h-31v39h395v-39c-107.333 -2 -165.333 -46.333 -174 -133c-1.33301 -14 -2 -22.333 -2 -25v-1168h-14l-871 1160v-911c0 -22.667 6.33301 -50.667 19 -84
c9.33301 -25.333 26.666 -48.5 51.999 -69.5s58.333 -31.5 99 -31.5h9v-41h-398v41h13c2.66699 -1.33301 5.33398 -2 8.00098 -2c3.33301 0 4.66602 0 3.99902 0c100.667 3.33301 151 65.666 151 186.999v968c0 44.667 -28.667 76.667 -86 96
c-8 2.66699 -20 6.33398 -36 11.001c-12.667 1.33301 -23 2 -31 2v39h325z" />
    <glyph glyph-name="O" unicode="O" horiz-adv-x="1497" 
d="M102 672c0 169.333 50.998 318.668 152.998 448.001c105.333 133.333 241 212.666 407 237.999c26.667 4 55.334 6 86.001 6c184 0 339 -70 465 -210c121.333 -135.333 182 -296 182 -482c0 -190.667 -52.333 -342.667 -157 -456s-221.667 -186 -351 -218
c-15.333 -4 -38.666 -9 -69.999 -15c-23.333 -2.66699 -46.333 -4 -69 -4c-28.667 0 -65 4.33301 -109 13c-48 9.33301 -88.333 21 -121 35c-100.667 42.667 -195.167 117.5 -283.5 224.5s-132.5 247.167 -132.5 420.5zM747.998 1325
c-35.333 0 -70.333 -5.33105 -105 -15.998c-188 -58 -282 -270.333 -282 -637c0 -362 92.667 -574.333 278 -637c35.333 -12 71.666 -18 108.999 -18c39.333 0 76 6 110 18c71.333 25.333 135.5 83.833 192.5 175.5s85.5 245.5 85.5 461.5
c0 325.333 -78.333 530.666 -235 615.999c-35.333 19.333 -70 30.666 -104 33.999c-15.333 2 -31.666 3 -48.999 3z" />
    <glyph glyph-name="P" unicode="P" horiz-adv-x="1286" 
d="M243 41v1262h-157v39h590c180 0 324 -50 432 -150c61.333 -56.667 92 -142.667 92 -258c0 -267.333 -175.333 -401 -526 -401h-201v-492h158v-41h-545v41h157zM473 572h141.999c164.667 0 267 57.333 307 172c8.66699 25.333 15.334 62 20.001 110v150
c0 54 -6.66699 99 -20 135c-15.333 42 -45.5 79.833 -90.5 113.5s-117.167 50.5 -216.5 50.5h-142v-731z" />
    <glyph glyph-name="Q" unicode="Q" horiz-adv-x="1510" 
d="M508 -174l-19.9951 26.002c80.667 75.333 161 117.666 241 126.999c-183.333 14 -332.666 88.833 -447.999 224.5s-173 291.834 -173 468.501c0 185.333 60.667 345.666 182 480.999c126 140.667 280.667 211 464 211c184 0 339 -70 465 -210
c121.333 -135.333 182 -296 182 -482c0 -179.333 -55.333 -334 -166 -464c-112.667 -133.333 -257.334 -209 -434.001 -227c74.667 -6.66699 149.667 -61.334 225 -164.001l19 -22c43.333 -61.333 88.333 -97.666 135 -108.999c2.66699 -1.33301 5.33398 -2 8.00098 -2h6
c3.33301 0 6 0.666992 8 2h9c40.667 12.667 61 34.667 61 66v12c-1.33301 4 -2.83301 7.83301 -4.5 11.5s-3.83398 8.16699 -6.50098 13.5c-10.667 10.667 -19.334 23.667 -26.001 39c-4 9.33301 -6 18.666 -6 27.999c0 22 7.33301 43 22 63s34.667 30 60 30
c9.33301 0 21.666 -3 36.999 -9c35.333 -14 53 -40.667 53 -80c0 -66 -28.333 -121.333 -85 -166s-117.667 -71.667 -183 -81c-19.333 -2.66699 -37 -4 -53 -4h-13c-5.33301 0 -10 0.666992 -14 2c-44 6 -84.333 20.333 -121 43
c-42.667 25.333 -97.334 75.666 -164.001 150.999c-5.33301 6.66699 -14 16.334 -26 29.001c-16 16 -30.333 28.333 -43 37c-16.667 10.667 -35.334 16 -56.001 16c-18.667 0 -39.334 -5.16699 -62.001 -15.5s-45 -22.833 -67 -37.5l-6 -6v-2zM754.005 1325
c-35.333 0 -70.332 -5.33301 -104.999 -16c-188 -58 -282 -270.333 -282 -637c0 -362 92.667 -574.333 278 -637c35.333 -12 71.666 -18 108.999 -18c10.667 0 27.667 1.33301 51 4c20.667 2.66699 37.667 6 51 10c70 22.667 135.167 80.5 195.5 173.5
s90.5 248.833 90.5 467.5c0 367.333 -95.333 580.333 -286 639c-21.333 6.66699 -38 10.667 -50 12s-29.333 2 -52 2z" />
    <glyph glyph-name="S" unicode="S" horiz-adv-x="1086" 
d="M90 0l-4 428h27c42 -105.333 91.333 -188.333 148 -249s111.667 -102.667 165 -126c51.333 -22.667 109.333 -34 174 -34h15c4 0 8 0.666992 12 2c72 4.66699 132.667 28 182 70c53.333 45.333 80 103 80 173c0 44.667 -6.66699 84.334 -20 119.001
c-29.333 76 -95.666 128 -198.999 156l-242 65c-72.667 19.333 -139.334 60.333 -200.001 123s-91 159 -91 289c0 101.333 33.167 184.666 99.5 249.999s150.166 98 251.499 98c55.333 0 99 -3.33301 131 -10l133 -45c26.667 -10.667 45.667 -16 57 -16
c5.33301 -2 11 -3 17 -3c18 0 33.667 17.333 47 52h32l9 -324h-29c-66 152 -156 248.333 -270 289c-37.333 13.333 -77.666 20 -120.999 20c-74 0 -135.333 -21.333 -184 -64c-50.667 -44.667 -76 -103.667 -76 -177c0 -112.667 58.667 -190 176 -232
c10.667 -4 23.667 -8 39 -12l37 -10l209 -56c90.667 -24 156.334 -58.667 197.001 -104c60.667 -66.667 95.334 -140.334 104.001 -221.001c2.66699 -24.667 4 -48 4 -70c0 -106 -33.833 -199.5 -101.5 -280.5s-159.5 -121.5 -275.5 -121.5c-98 0 -186 16 -264 48
c-9.33301 4 -16.333 7.33301 -21 10c-17.333 8.66699 -44 20.334 -80 35.001c-8.66699 2.66699 -17.334 4.66699 -26.001 6h-6c-48.667 0 -77.334 -26 -86.001 -78h-50z" />
    <glyph glyph-name="T" unicode="T" horiz-adv-x="1299" 
d="M534 41v1262h-20c-137.333 0 -236.5 -29.167 -297.5 -87.5s-98.833 -156.833 -113.5 -295.5h-58l11 422h1187l11 -422h-58c-15.333 146.667 -54.333 247.667 -117 303c-62 53.333 -167 80 -315 80v-1262h158v-41h-545v41h157z" />
    <glyph glyph-name="U" unicode="U" horiz-adv-x="1497" 
d="M1233 1116v-740.999c0 -124.667 -46 -223.334 -138 -296.001c-84.667 -66.667 -191 -100 -319 -100c-22 0 -53.333 2 -94 6c-22.667 2 -56.667 6.66699 -102 14c-80.667 20 -158 60 -232 120c-70 56.667 -105 142 -105 256v928h-157v39h545v-39h-158v-960
c0 -97.333 34.333 -172.666 103 -225.999s154.667 -80 258 -80c188.667 0 302.667 69 342 207c10.667 37.333 16 90.666 16 159.999v753c0 56 -16.333 94.667 -49 116c-23.333 14 -66.333 24 -129 30v39h397v-39c-73.333 -4 -121.333 -17.667 -144 -41s-34 -72 -34 -146z
" />
    <glyph glyph-name="V" unicode="V" horiz-adv-x="1342" 
d="M28 1342l572 0.000976562v-39h-162l347 -946l280 739c8.66699 22 14.667 41.167 18 57.5s5 31.166 5 44.499c0 66.667 -42.333 101.667 -127 105v39h352v-39c-52 -1.33301 -93.667 -19.333 -125 -54c-22.667 -24.667 -45 -66 -67 -124l-431 -1148l-524 1326h-138v39z" />
    <glyph glyph-name="X" unicode="X" horiz-adv-x="1434" 
d="M746 838l205.002 313.004c6 8.66699 10.667 23 14 43c0.666992 4.66699 2 11.667 4 21v24c-1.33301 1.33301 -2 3.33301 -2 6c-14.667 38.667 -53.667 58 -117 58h-28l-1 39h450l-1 -39c-71.333 -5.33301 -127 -21.333 -167 -48c-34.667 -23.333 -72 -66 -112 -128
l-214 -332l494 -754h118v-41h-544v41h159l-381 574l-238 -367l-4 -6l-4 -8c-7.33301 -14.667 -12 -28.334 -14 -41.001c-2.66699 -5.33301 -4.33398 -10.833 -5.00098 -16.5s-1 -11.167 -1 -16.5c0 -14.667 2.66699 -28.334 8 -41.001c6.66699 -16 22.167 -32.333 46.5 -49
s59.166 -26.334 104.499 -29.001v-41h-471v41c64 15.333 114.333 34.333 151 57c40.667 25.333 77.667 63.666 111 114.999l291 445l-434 645h-119v39h525v-39h-134z" />
    <glyph glyph-name="Y" unicode="Y" horiz-adv-x="690" 
d="M41 873h168v289l201 71v-360h178v-35h-178v-690l2 -19c4.66699 -48 22.334 -75.333 53.001 -82c4 -1.33301 8.66699 -2 14 -2h17c5.33301 0 21.666 3.66699 48.999 11c25.333 6.66699 53.333 23 84 49l20 -25c-54 -52 -118 -85 -192 -99c-14.667 -2.66699 -29 -4 -43 -4
c-82 0 -136.667 22.5 -164 67.5s-41 100.167 -41 165.5v628h-168v35z" />
    <glyph glyph-name="bracketleft" unicode="[" horiz-adv-x="914" 
d="M770 -385v-51h-426v1778h426v-49h-217v-1678h217z" />
    <glyph glyph-name="backslash" unicode="\" horiz-adv-x="1090" 
d="M946 -144h-143l-660 1721h144z" />
    <glyph glyph-name="bracketright" unicode="]" horiz-adv-x="914" 
d="M144 -385h219v1678h-219v49h426v-1778h-426v51z" />
    <glyph glyph-name="asciicircum" unicode="^" horiz-adv-x="746" 
d="M373 1176l-166 -166h-172l338 338l338 -338h-172z" />
    <glyph glyph-name="underscore" unicode="_" horiz-adv-x="1090" 
d="M0 -402v144h1090v-144h-1090z" />
    <glyph glyph-name="s" unicode="s" horiz-adv-x="2048" 
 />
    <glyph glyph-name="braceleft" unicode="{" horiz-adv-x="723" 
d="M604 1491l11.001 -68.998c-20 -3.33301 -41 -11 -63 -23c-63.333 -34.667 -95 -92 -95 -172c0 -42 2 -91 6 -147c0 -3.33301 1.33301 -12.333 4 -27v-29c1.33301 -27.333 2 -45 2 -53c0 -123.333 -22 -219 -66 -287c-38 -58.667 -99.333 -109 -184 -151
c88.667 -42 150.834 -92.667 186.501 -152s56.167 -135 61.5 -227c1.33301 -21.333 2 -39 2 -53c0 -11.333 -0.666992 -30.666 -2 -57.999v-22c-0.666992 -4 -1.33398 -11 -2.00098 -21c-1.33301 -14 -2 -23 -2 -27c-1.33301 -9.33301 -2.66602 -19.666 -3.99902 -30.999
v-24c-1.33301 -8 -2 -17 -2 -27v-49c0 -50.667 15.5 -94.334 46.5 -131.001s68.167 -58 111.5 -64l-11 -71c-142.667 18 -235.334 88.333 -278.001 211c-18 51.333 -27 114.666 -27 189.999v10c0 -0.666992 0.666992 11.333 2 36l2 37c0 8.66699 0.666992 21.667 2 39v36
c0 132 -18.5 223.833 -55.5 275.5s-82.167 78.834 -135.5 81.501v84c10 1.33301 25 4.66602 45 9.99902c97.333 35.333 146 150.666 146 345.999v33c-1.33301 10.667 -2 21.667 -2 33v10c-0.666992 8.66699 -1.33398 21.667 -2.00098 39c-1.33301 26 -2 37.667 -2 35v10
c0 75.333 9 138.666 27 189.999c43.333 123.333 136 193 278 209z" />
    <glyph glyph-name="bar" unicode="|" horiz-adv-x="1090" 
d="M473 -402v2157h144v-2157h-144z" />
    <glyph glyph-name="braceright" unicode="}" horiz-adv-x="723" 
d="M119 -424l-11 69.001c48.667 8.66699 87.167 31.167 115.5 67.5s42.5 79.5 42.5 129.5c0 22 -0.666992 45.333 -2 70l-4 78c-1.33301 8 -2 17 -2 27c-2.66699 16 -4 44 -4 84c0 14 0.666992 31.667 2 53c11.333 180 94.333 306.333 249 379
c-82 41.333 -142.333 91.666 -181 150.999c-46.667 71.333 -70 167 -70 287c0 34.667 1.33301 59.334 4 74.001c0 6.66699 0.666992 13.334 2 20.001v12l4 27v23c0 8 0.666992 16 2 24v76c0 106 -52.667 171 -158 195l11 69c96.667 -10.667 165.667 -40 207 -88
c60 -68.667 92 -149.334 96 -242.001c1.33301 -29.333 2 -55.666 2 -78.999v-35c-1.33301 -11.333 -2 -22.333 -2 -33v-2v-39c-1.33301 -12 -2 -25.667 -2 -41c0 -132.667 19.5 -224.167 58.5 -274.5s82.5 -77.5 130.5 -81.5v-84
c-92 -4.66699 -150.333 -66.334 -175 -185.001c-9.33301 -44.667 -14 -99.667 -14 -165v-7c0 -13.333 0.666992 -25.333 2 -36v-37c0 -12.667 0.666992 -24.334 2 -35.001v-40c0 -70 -5.33301 -125.667 -16 -167c-14.667 -56.667 -42 -108 -82 -154
c-41.333 -48 -110.333 -77.333 -207 -88v-2z" />
    <glyph glyph-name="asciitilde" unicode="~" horiz-adv-x="1061" 
d="M920 752l55.0029 0.00195312c-38 -80.667 -78.333 -138.667 -121 -174c-33.333 -27.333 -67.333 -41 -102 -41c-50 0 -130 12.333 -240 37c-104 23.333 -174.333 35 -211 35h-22c-47.333 -4.66699 -83 -29.334 -107 -74.001h-58c26.667 62 62.334 113 107.001 153
c52 46.667 108 70 168 70c41.333 0 98.666 -7.66699 171.999 -23c9.33301 -2.66699 23 -6 41 -10c35.333 -9.33301 88.666 -22.333 159.999 -39c27.333 -5.33301 52.666 -8 75.999 -8c20 0 41 16.333 63 49c3.33301 3.33301 9.66602 11.666 18.999 24.999z" />
    <glyph glyph-name="u0080" horiz-adv-x="5079" 
d="M2151 979l245 -246l248 246l88 -90l-243 -248l243 -248l-88 -90l-248 246l-245 -246l-90 90l245 248l-245 248zM1712 1317l54.001 -0.000976562v-1321h-129v1088c-50 -45.333 -109 -74.666 -177 -87.999v69c51.333 16 102.166 49 152.499 99s83.5 101 99.5 153z
M1180 1317l53.001 0.000976562v-1321h-129v1088c-50 -44.667 -108.667 -74 -176 -88v69c52 17.333 102.667 50.666 152 99.999s82.666 100 99.999 152zM283.002 -316l-32.999 30.999c32 28.667 61.333 65.334 88 110.001c30.667 50.667 46 94 46 130
c0 39.333 -5.66699 65.333 -17 78c-10 10.667 -25.667 18 -47 22c-23.333 4.66699 -39 10.334 -47 17.001c-10 8 -15 25 -15 51c0 72.667 37 109 111 109c39.333 0 69.666 -17 90.999 -51c18.667 -28.667 28 -63.667 28 -105c0 -128.667 -68.333 -259.334 -205 -392.001z
M635.003 -316.001l-31.999 31.001c29.333 26.667 58 63.667 86 111c31.333 53.333 47 96.333 47 129c0 39.333 -5.33301 65 -16 77s-26.334 20 -47.001 24c-23.333 4.66699 -39.333 10 -48 16c-10.667 8.66699 -16 25.667 -16 51c0 72.667 37.333 109 112 109
c48 0 82.667 -25.333 104 -76c10 -24.667 15 -51.334 15 -80.001c0 -127.333 -68.333 -258 -205 -392zM4674 1304l33 -31.001c-32 -28.667 -61.334 -65.334 -88 -110.001c-30.666 -50.667 -46 -94 -46 -130c0 -39.333 5.33398 -64.833 16 -76.5s27.166 -19.667 49.5 -24
s38 -10.166 47 -17.499s13.5 -24 13.5 -50c0 -72.667 -37 -109 -111 -109c-39.334 0 -69.667 17 -91 51c-18.666 28.667 -28 63.667 -28 105c0 128.667 68.334 259.334 205 392.001zM4322 1304l32 -31.001c-29.334 -26.667 -58 -63.667 -86 -111
c-31.334 -53.333 -47 -96.333 -47 -129c0 -39.333 5.33398 -65 16 -77s26.333 -20 47 -24c23.334 -4.66699 39.334 -10 48 -16c10.666 -8.66699 16 -25.667 16 -51c0 -72.667 -37.334 -109 -112 -109c-48 0 -82.334 25.333 -103 76c-10.666 24.667 -16 51.334 -16 80.001
c0 127.333 68.334 258 205 392zM3755 1317l54 -0.000976562v-1321h-129v1088c-50 -45.333 -109 -74.666 -177 -87.999v69c51.333 16 102.166 49 152.5 99c50.333 50 83.5 101 99.5 153zM3223 1317l53 0.000976562v-1321h-129v1088c-50 -44.667 -108.667 -74 -176 -88v69
c52 17.333 102.667 50.666 152 99.999s82.666 100 100 152z" />
    <glyph glyph-name="u0090" horiz-adv-x="0" 
 />
    <glyph glyph-name="exclamdown" unicode="&#xa1;" horiz-adv-x="682" 
d="M342 974c31.333 0 57.668 -10.6689 79.001 -32.002s32 -47.666 32 -78.999c0 -30.667 -10.833 -56.667 -32.5 -78s-47.834 -32 -78.501 -32s-56.667 10.667 -78 32s-32 47.333 -32 78s10.667 56.834 32 78.501s47.333 32.5 78 32.5zM322.002 586.998l37.999 0.000976562
l89 -810c3.33301 -30.667 5 -57 5 -79c0 -36.667 -9.33301 -68.334 -28 -95.001c-21.333 -30 -49.666 -45 -84.999 -45c-75.333 0 -113 50.667 -113 152c0 14 1.66699 36.333 5 67z" />
    <glyph glyph-name="cent" unicode="&#xa2;" 
d="M900 349c-31.333 -125.333 -85.6641 -222.668 -162.997 -292.001c-60 -54 -133.667 -81 -221 -81c-54 0 -108 11.667 -162 35l-142 -390h-70l155 427c-54 50.667 -93 102 -117 154c-34 73.333 -51 156.666 -51 249.999c0 168.667 52.333 298.667 157 390
c80.667 70 171.667 105 273 105c13.333 0 33.666 -1.33301 60.999 -4l140 383h72l-145 -402c67.333 -30 113.333 -59 138 -87c32 -36 48 -74.333 48 -115c0 -56.667 -31.333 -85 -94 -85c-36.667 0 -65.334 12.667 -86.001 38c-12 14.667 -20.667 42 -26 82
c-2.66699 20.667 -8.33398 42.334 -17.001 65.001l-228 -631c36.667 -25.333 68 -42.333 94 -51c19.333 -6.66699 42.333 -10 69 -10c86.667 0 154 28.667 202 86c19.333 22.667 47 71.334 83 146.001zM370.002 249.998l223 615c-18.667 8 -38.667 12 -60 12
c-68 0 -122 -24.667 -162 -74c-54.667 -66.667 -82 -156 -82 -268c0 -91.333 27 -186.333 81 -285z" />
    <glyph glyph-name="sterling" unicode="&#xa3;" 
d="M723 659l-257.999 0.000976562c0.666992 -30.667 1 -53.334 1 -68.001c0 -116 -20.667 -235.333 -62 -358c128.667 -41.333 203.334 -64.333 224.001 -69c35.333 -8 69.333 -12 102 -12c110 0 180.333 53.333 211 160l36 -9c-11.333 -88 -39.333 -161.667 -84 -221
c-53.333 -70.667 -121 -106 -203 -106c-56.667 0 -115 17.333 -175 52c-22 12.667 -72.333 48.667 -151 108c-53.333 -106.667 -115.333 -160 -186 -160c-36.667 0 -65.334 12.333 -86.001 37s-31 55.334 -31 92.001c0 46 15.667 83.5 47 112.5s70.333 43.5 117 43.5
c22 0 50.333 -2.66699 85 -8c2 26 3 51.667 3 77c0 58.667 -7 168.334 -21 329.001h-194v95h194c-8.66699 99.333 -13 165.666 -13 198.999c0 175.333 61.667 301.333 185 378c57.333 35.333 119 53 185 53c64.667 0 121.334 -17.333 170.001 -52
c55.333 -38.667 83 -89.334 83 -152.001c0 -20.667 -7.83301 -39.5 -23.5 -56.5s-33.834 -25.5 -54.501 -25.5c-26 0 -47 12.667 -63 38c-6 9.33301 -11 36 -15 80c-4 39.333 -15.333 67.666 -34 84.999c-20.667 18.667 -49.667 28 -87 28
c-121.333 0 -182 -93.333 -182 -280c0 -45.333 4 -107.666 12 -186.999c1.33301 -12.667 4.66602 -48.667 9.99902 -108h258v-95zM298.001 172.001c-29.333 18.667 -57.667 28 -85 28c-63.333 0 -95 -29.333 -95 -88c0 -52 21.667 -78 65 -78c54 0 92.333 46 115 138z" />
    <glyph glyph-name="currency" unicode="&#xa4;" 
d="M794 1019l142.999 142.001l58 -57l-144 -141c68.667 -88 103 -181.667 103 -281c0 -102.667 -34.333 -197.334 -103 -284.001l144 -145l-58 -55l-143 143c-89.333 -68.667 -179.333 -103 -270 -103c-51.333 0 -103.666 8.66699 -156.999 26
c-61.333 19.333 -107.333 45 -138 77l-146 -143l-56 55l144 145c-68 78 -102 172 -102 282c0 104.667 34 199 102 283l-144 141l56 57l146 -142c78.667 68 173.667 102 285 102c108 0 201.333 -34 280 -102zM511.999 1040c-100.667 0 -186.167 -35.168 -256.5 -105.501
s-105.5 -156.166 -105.5 -257.499c0 -99.333 35.333 -184 106 -254s155.667 -105 255 -105s184.666 35.333 255.999 106s107 155.667 107 255c0 63.333 -16.833 124 -50.5 182s-78.167 102 -133.5 132c-57.333 31.333 -116.666 47 -177.999 47z" />
    <glyph glyph-name="yen" unicode="&#xa5;" 
d="M597 425l426 0.000976562v-73h-426v-108c0 -76 3.66699 -123.667 11 -143c5.33301 -14.667 16.666 -27.334 33.999 -38.001c24 -14.667 52.333 -22 85 -22h41v-41h-515v41h32c78.667 0 124.334 27.667 137.001 83c2.66699 12 4 52 4 120v108h-424v73h424v144l-15 36h-409
v73h377l-213 496c-20.667 48.667 -40.334 82.667 -59.001 102c-26 27.333 -61 41.333 -105 42v38h442v-38c-80.667 -5.33301 -121 -26 -121 -62c0 -10 6 -29.667 18 -59l214 -519l213 504c14 33.333 21 58.333 21 75c0 14 -7 27.667 -21 41
c-9.33301 9.33301 -30.666 15 -63.999 17c-4.66699 0.666992 -13.667 1.66699 -27 3v38h346v-38c-39.333 0 -68.333 -7.66699 -87 -23c-29.333 -24 -58 -68 -86 -132l-214 -485h387v-73h-419l-7 -16v-164z" />
    <glyph glyph-name="brokenbar" unicode="&#xa6;" horiz-adv-x="410" 
d="M244 1422v-742h-83v742h83zM244 300v-742h-83v742h83z" />
    <glyph glyph-name="section" unicode="&#xa7;" horiz-adv-x="1110" 
d="M654 25l-311.998 133.004c-7.33301 3.33301 -21.666 11.666 -42.999 24.999c-11.333 6.66699 -28.333 18.667 -51 36c-30 26 -60.333 64.333 -91 115c-28.667 48 -43 104 -43 168v20c0 6 0.666992 11.667 2 17c7.33301 60.667 31 119.334 71 176.001
c39.333 54.667 91 88 155 100c-91.333 66 -137 173.333 -137 322c0 84.667 27 156.667 81 216s123.333 96 208 110c9.33301 2.66699 19.666 4.66699 30.999 6h32c88 0 164.333 -26 229 -78c69.333 -56 104 -127 104 -213c0 -56.667 -26.333 -91.667 -79 -105
c-5.33301 -1.33301 -9.33301 -2 -12 -2c-5.33301 -1.33301 -10 -2 -14 -2c-33.333 0 -58.833 11.833 -76.5 35.5s-26.5 49.5 -26.5 77.5c0 24 13 50 39 78c1.33301 0 2.66602 0.666992 3.99902 2l2 2c7.33301 5.33301 16.333 16.333 27 33c0.666992 2.66699 2 6.66699 4 12
v33c0 39.333 -41.667 66 -125 80c-23.333 4 -47.333 6 -72 6c-71.333 0 -131.333 -21 -180 -63c-52 -44 -78.667 -101 -80 -171v-2v-4c0 -48.667 12.333 -91.667 37 -129s60.334 -65.333 107.001 -84l338 -137c130.667 -53.333 201.667 -152.333 213 -297
c1.33301 -5.33301 2 -10 2 -14v-29c-1.33301 -2.66699 -2 -4.66699 -2 -6v-8c-2 -12.667 -5.33301 -32 -10 -58c-14 -56 -42.5 -107.833 -85.5 -155.5s-95.833 -71.5 -158.5 -71.5c67.333 -33.333 115.666 -73 144.999 -119c26 -41.333 39 -85.666 39 -132.999v-33
c-0.666992 -8 -2 -19.667 -4 -35c-14 -103.333 -54.667 -186.333 -122 -249c-68.667 -64.667 -154.334 -97 -257.001 -97c-87.333 0 -166.333 21.333 -237 64c-80.667 48.667 -125.334 114 -134.001 196c-1.33301 4 -2 8 -2 12v10c0 36 11.333 65.833 34 89.5
s51.667 35.5 87 35.5c28.667 0 52 -10 70 -30c16 -22 24 -50 24 -84c0 -30.667 -13 -54 -39 -70l-2 -2c-1.33301 -1.33301 -2.66602 -2 -3.99902 -2l-8 -4c-3.33301 -2.66699 -7 -4.66699 -11 -6c-5.33301 -4 -10.333 -8.83301 -15 -14.5s-7 -11.834 -7 -18.501
s2 -14.334 6 -23.001c10 -30.667 41.667 -59.334 95 -86.001c36.667 -18.667 76.667 -28 120 -28c33.333 0 68.333 4.66699 105 14c116 29.333 174 96.333 174 201c0 53.333 -7.83301 94.666 -23.5 123.999s-35.167 54.666 -58.5 75.999c-25.333 18 -46.333 30.667 -63 38z
M748.002 633.004l-299 122.999c-9.33301 4 -20.166 7 -32.499 9s-25.5 3 -39.5 3h-12c-5.33301 0 -11 -0.666992 -17 -2c-94 -10 -146.667 -59.667 -158 -149v-6c-1.33301 -3.33301 -2 -5.66602 -2 -6.99902v-18c0 -2.66699 0.666992 -4.66699 2 -6v-12
c4 -38 19 -73 45 -105c28 -34 59 -58 93 -72l369 -149c16 -4 28.667 -6 38 -6c19.333 0 37.333 2.66699 54 8c83.333 26.667 125 82 125 166v16c-1.33301 5.33301 -2 11 -2 17c-12.667 86.667 -67.334 150 -164.001 190z" />
    <glyph glyph-name="dieresis" unicode="&#xa8;" horiz-adv-x="881" 
d="M522 512c-3.33301 12 -16.002 25.6621 -38.002 40.9951c-16.667 14.667 -53 22 -109 22h-68v58h70c68 0 105.667 9 113 27c10.667 18 16 47.333 16 88c0 38.667 -6.66699 66 -20 82c-4 11.333 -17 25 -39 41c-16.667 14.667 -53 22 -109 22h-37v58h39
c54 0 91.667 8.66699 113 26c35.333 28.667 53 70.334 53 125.001c0 75.333 -19 121 -57 137c-31.333 13.333 -62 21 -92 23c-36 12 -64.333 29 -85 51c-22.667 22.667 -35.334 58.334 -38.001 107.001c-1.33301 26.667 6.33398 50 23.001 70s38.334 30 65.001 30h8
c21.333 0 39.333 -6 54 -18s26 -34 34 -66c0 -38.667 -16.333 -68.667 -49 -90c-5.33301 -3.33301 -8 -8.33301 -8 -15s5.33301 -14 16 -22c70.667 0 130 -13.667 178 -41c58.667 -33.333 88.667 -82.333 90 -147c1.33301 -68.667 -29.334 -124.667 -92.001 -168
c-15.333 -10.667 -30.333 -18.334 -45 -23.001c-14.667 -1.33301 -29 -4 -43 -8v-8c61.333 -2.66699 109.333 -20 144 -52c30 -28 48.333 -60.667 55 -98c0 -84 -25.333 -136.667 -76 -158c-9.33301 -5.33301 -23.666 -8 -42.999 -8v-8
c72 -27.333 122.833 -60.666 152.5 -99.999s47.834 -97.333 54.501 -174c-2.66699 -95.333 -34 -170.666 -94 -225.999c-80 -74 -171.667 -111 -275 -111c-46 0 -92.333 6.66699 -139 20c-60 17.333 -114 54 -162 110c-36.667 42.667 -55 82.334 -55 119.001
c0 26 10.167 48.167 30.5 66.5s45.5 27.5 75.5 27.5c24.667 0 47.167 -7 67.5 -21s30.833 -33 31.5 -57c1.33301 -27.333 -3.66699 -50 -15 -68c-2.66699 -5.33301 -4 -12.666 -4 -21.999c0 -11.333 6.33301 -27 19 -47c32 -49.333 77 -74 135 -74
c112.667 0 170 88.667 172 266c0 4 0.333008 17 1 39c0.666992 18.667 1 35 1 49c0 57.333 -6.33301 99 -19 125z" />
    <glyph glyph-name="copyright" unicode="&#xa9;" horiz-adv-x="1561" 
d="M86 670v10v8c4 168 68.833 322.667 194.5 464s292.5 212 500.5 212c192.667 0 356.5 -67.5 491.5 -202.5s202.5 -298.833 202.5 -491.5s-67.333 -356 -202 -490s-298.667 -201 -492 -201c-194 0 -358.333 68.333 -493 205s-202 298.667 -202 486zM144 670
c0 -177.333 61.833 -327.5 185.5 -450.5s274.167 -184.5 451.5 -184.5c176.667 0 326.834 61.667 450.501 185s185.5 273.333 185.5 450s-61.833 326.834 -185.5 450.501s-273.834 185.5 -450.501 185.5s-327 -61.833 -451 -185.5s-186 -273.834 -186 -450.501zM1032 832
l-33.9932 -0.000976562c-8.66699 76.667 -40.334 140 -95.001 190c-30 27.333 -73 41 -129 41c-82.667 0 -141.334 -51.667 -176.001 -155c-8 -23.333 -14 -53 -18 -89c-2 -16 -4.66699 -35.667 -8 -59v-82v-16c4.66699 -215.333 58.334 -341 161.001 -377
c18.667 -6.66699 38 -10 58 -10c62.667 0 118 28.333 166 85c41.333 48.667 68.666 106.334 81.999 173.001h34l-10 -281h-35v8c0 7.33301 -1.33301 14.333 -4 21c-5.33301 6.66699 -11.333 10 -18 10c-10 0 -17.667 -1 -23 -3s-10 -5 -14 -9
c-2.66699 -1.33301 -5.33398 -3.33301 -8.00098 -6c-18.667 -12.667 -39.834 -21.667 -63.501 -27s-59.834 -8 -108.501 -8c-108 0 -196.667 29.833 -266 89.5s-111.666 143.167 -126.999 250.5c-2.66699 8.66699 -4.33398 21 -5.00098 37c-1.33301 10 -2 22.333 -2 37
c0 14 1.33301 33.667 4 59c12 113.333 49.667 205.333 113 276c69.333 76.667 158.666 115 267.999 115c55.333 0 102 -4 140 -12c17.333 -8.66699 30.333 -13 39 -13c4 -1.33301 8.66699 -2 14 -2c1.33301 0 2.66602 0.666992 3.99902 2h2c8 6.66699 13.333 15 16 25h31z
" />
    <glyph glyph-name="ordfeminine" unicode="&#xaa;" horiz-adv-x="565" 
d="M340 1180c0 55.333 -4.66406 94.667 -13.9971 118c-15.333 38.667 -46 58 -92 58c-62.667 0 -94 -29.167 -94 -87.5s-19.333 -87.5 -58 -87.5c-37.333 0 -56 20 -56 60c0 51.333 28 89.666 84 114.999c42.667 18.667 92.667 28 150 28c110.667 0 179 -31.667 205 -95
c8.66699 -22 13 -58.333 13 -109v-218c0 -35.333 0.666992 -55.666 2 -60.999c4 -17.333 12 -26 24 -26c9.33301 0 28.666 10 57.999 30v-48c-68 -49.333 -117.667 -74 -149 -74c-38 0 -62.333 31.667 -73 95c-84.667 -60.667 -156.334 -91 -215.001 -91
c-34 0 -64.333 12.167 -91 36.5s-40 53.5 -40 87.5c0 61.333 43 118 129 170c33.333 20 105.666 53 216.999 99zM340.003 1142c-138 -46 -206.999 -107.333 -206.999 -184c0 -24 8.83301 -44.333 26.5 -61s38.5 -25 62.5 -25c29.333 0 68.666 14.667 117.999 44v226z" />
    <glyph glyph-name="guillemotleft" unicode="&#xab;" horiz-adv-x="778" 
d="M570 23l-19 -17c-144 168 -308.667 310.667 -494 428c190 120 354.667 262.667 494 428l19 -16c-76.667 -132.667 -172 -270 -286 -412c104.667 -126 200 -263 286 -411zM721 211l-19.998 -7.99902c-44.667 50.667 -87.834 93.167 -129.501 127.5
s-92.834 68.833 -153.501 103.5c110.667 67.333 205 145.333 283 234l20 -8c-34 -81.333 -81.667 -156 -143 -224c34 -38.667 61.5 -74.334 82.5 -107.001s41.167 -72 60.5 -118z" />
    <glyph glyph-name="logicalnot" unicode="&#xac;" horiz-adv-x="1518" 
d="M1432 574v-373h-73l-1 307h-1272v66h1346z" />
    <glyph glyph-name="softhyphen" unicode="&#xad;" horiz-adv-x="738" 
d="M615 613v-123h-492v123h492z" />
    <glyph glyph-name="softhyphen" unicode="&#x2212;" horiz-adv-x="738" 
d="M615 613v-123h-492v123h492z" />
    <glyph glyph-name="registered" unicode="&#xae;" horiz-adv-x="1575" 
d="M92 672c0 192 67.834 355.999 203.501 491.999s299.5 204 491.5 204c189.333 0 352.666 -66.833 489.999 -200.5s206 -298.834 206 -495.501c0 -189.333 -67 -351.666 -201 -486.999c-135.333 -137.333 -300.333 -206 -495 -206c-191.333 0 -355 68.333 -491 205
s-204 299.334 -204 488.001zM150.001 671.999c0 -170 62.001 -318.668 186.001 -446.001s274.333 -191 451 -191c177.333 0 327.666 61.833 450.999 185.5s185 274.167 185 451.5c0 180 -62 331 -186 453s-274 183 -450 183c-172 0 -321.167 -61.167 -447.5 -183.5
s-189.5 -273.166 -189.5 -452.499zM674.002 310.998h87.9971v-22h-342v22h90v713h-90v22h332h65c17.333 -0.666992 43.333 -3.33398 78 -8.00098c127.333 -18 191 -71 191 -159c0 -28.667 -7 -54.667 -21 -78c-34.667 -57.333 -107 -92.666 -217 -105.999v-7
c31.333 -6 54.666 -12 69.999 -18c9.33301 -3.33301 25.5 -11.5 48.5 -24.5s38.167 -23.167 45.5 -30.5c8.66699 -10 15.334 -19 20.001 -27c10 -15.333 16.333 -33 19 -53c0.666992 -4 3.33398 -28 8.00098 -72c1.33301 -4 2 -7.33301 2 -10v-10
c2.66699 -24.667 8.66699 -58.334 18 -101.001c5.33301 -16 13 -24 23 -24c3.33301 0.666992 8 2.5 14 5.5s11.667 6.5 17 10.5l6 4c-1.33301 0 4 4 16 12c2.66699 3.33301 5.66699 6.33301 9 9l18 -21c-32 -33.333 -60 -52.333 -84 -57
c-0.666992 0 -9.16699 -0.666992 -25.5 -2s-24.833 -2 -25.5 -2c-59.333 0 -100 14.333 -122 43c-17.333 22.667 -28.666 66.334 -33.999 131.001c-7.33301 86.667 -14.666 138.667 -21.999 156c-18 47.333 -57.667 71 -119 71h-76v-367zM673.999 700.998h82.001
c5.33301 0 10.666 0.666992 15.999 2c88.667 7.33301 133 66 133 176c0 57.333 -12 96.333 -36 117c-26 18.667 -67 28 -123 28h-72v-323z" />
    <glyph glyph-name="macron" unicode="&#xaf;" 
d="M1042 1462h-1059v84h1059v-84z" />
    <glyph glyph-name="macron" unicode="&#x2c9;" 
d="M1042 1462h-1059v84h1059v-84z" />
    <glyph glyph-name="degree" unicode="&#xb0;" horiz-adv-x="819" 
d="M405 1386c86 0 158.833 -29.833 218.5 -89.5s89.5 -132.5 89.5 -218.5c0 -85.333 -30 -157.833 -90 -217.5s-132.667 -89.5 -218 -89.5s-157.833 29.833 -217.5 89.5s-89.5 132.167 -89.5 217.5c0 86 29.667 158.833 89 218.5s132 89.5 218 89.5zM405 1302
c-62.667 0 -115.5 -21.5 -158.5 -64.5s-64.5 -95.833 -64.5 -158.5c0 -62 21.667 -114.667 65 -158s96 -65 158 -65s114.667 21.667 158 65s65 96 65 158c0 62.667 -21.5 115.5 -64.5 158.5s-95.833 64.5 -158.5 64.5z" />
    <glyph glyph-name="plusminus" unicode="&#xb1;" horiz-adv-x="1377" 
d="M144 119v84h1089v-84h-1089zM733 359h-86v309h-503v88h503v397h86v-397h500v-88h-500v-309z" />
    <glyph glyph-name="twosuperior" unicode="&#xb2;" horiz-adv-x="614" 
d="M575 816l-60.999 -151.999h-494v29c164 128 273.333 232.333 328 313c33.333 49.333 50 97 50 143c0 41.333 -14 75.666 -42 102.999s-62.667 41 -104 41c-80.667 0 -135.667 -39.333 -165 -118h-45c20 139.333 100.667 209 242 209c59.333 0 112.666 -16 159.999 -48
c52.667 -36 79 -82.667 79 -140c0 -44 -16 -91 -48 -141c-50 -78 -148.333 -176.333 -295 -295h186c46 0 76.667 1.66699 92 5c31.333 7.33301 55.333 24.333 72 51h45z" />
    <glyph glyph-name="threesuperior" unicode="&#xb3;" horiz-adv-x="614" 
d="M55 1229c50 103.333 126.667 154.998 230 154.998c48.667 0 92.334 -12 131.001 -36c44.667 -27.333 67 -64.333 67 -111c0 -45.333 -35 -97 -105 -155c96.667 -34.667 145 -95.334 145 -182.001c0 -83.333 -36 -147.666 -108 -192.999
c-60.667 -38.667 -135.334 -58 -224.001 -58c-98 0 -147 21 -147 63c0 30 19.667 45 59 45c17.333 0 44.833 -8 82.5 -24s67.5 -24 89.5 -24c36.667 0 68.5 12.833 95.5 38.5s40.5 56.834 40.5 93.501c0 71.333 -31.667 119 -95 143c-40 15.333 -75.667 23 -107 23h-30v28
c46.667 0 88 14 124 42c38.667 30 58 67.667 58 113c0 34.667 -11.5 61.834 -34.5 81.501s-51.833 29.5 -86.5 29.5c-56.667 0 -105.667 -29.333 -147 -88z" />
    <glyph glyph-name="acute" unicode="&#xb4;" horiz-adv-x="682" 
d="M565 1390l-295 -345h-34l105 345h224z" />
    <glyph glyph-name="mu1" unicode="&#xb5;" horiz-adv-x="1180" 
d="M196 916l163.999 0.000976562v-533c0 -96 6 -162 18 -198c20 -60 61.333 -90 124 -90c78.667 0 157.334 44.667 236.001 134v687h165v-654c0 -68 2.66699 -111.667 8 -131c9.33301 -34 29.333 -51 60 -51c41.333 0 68.333 41.333 81 124h42
c-11.333 -154.667 -77.333 -232 -198 -232c-94 0 -146.667 63.333 -158 190c-108 -126.667 -212.667 -190 -314 -190c-36 0 -66.667 7 -92 21c-18 10 -39 31.333 -63 64c-0.666992 -20.667 -1 -36 -1 -46c0 -52.667 11.333 -132.334 34 -239.001
c8.66699 -40.667 13 -75.334 13 -104.001c0 -29.333 -8.33301 -54.333 -25 -75c-18 -23.333 -41 -35 -69 -35c-58 0 -87 36.333 -87 109c0 31.333 9.66699 86.333 29 165c12.667 51.333 20 86 22 104c8 72.667 12 132.334 12 179.001c0 -2.66699 0 4.33301 0 21
c-0.666992 16.667 -1 34.667 -1 54v726z" />
    <glyph glyph-name="paragraph" unicode="&#xb6;" horiz-adv-x="918" 
d="M429 -402l-0.999023 1119c-91.333 2 -170 31.333 -236 88s-105.333 129.667 -118 219c-1.33301 9.33301 -2.33301 18.166 -3 26.499s-1 16.5 -1 24.5v15c0 5.33301 0.666992 10 2 14c5.33301 80 38.666 154.333 99.999 223c64 71.333 149.333 107 256 107h144v-1836h-143
zM715.001 -401.999v1836h143v-1836h-143z" />
    <glyph glyph-name="periodcentered" unicode="&#xb7;" horiz-adv-x="682" 
d="M600 808c29.333 0 54.1699 -10.167 74.5029 -30.5s30.5 -45.166 30.5 -74.499c0 -28.667 -10.333 -53.334 -31 -74.001s-45.334 -31 -74.001 -31s-53.334 10.333 -74.001 31s-31 45.334 -31 74.001c0 29.333 10.167 54.166 30.5 74.499s45.166 30.5 74.499 30.5z" />
    <glyph glyph-name="periodcentered" unicode="&#x2219;" horiz-adv-x="682" 
d="M600 808c29.333 0 54.1699 -10.167 74.5029 -30.5s30.5 -45.166 30.5 -74.499c0 -28.667 -10.333 -53.334 -31 -74.001s-45.334 -31 -74.001 -31s-53.334 10.333 -74.001 31s-31 45.334 -31 74.001c0 29.333 10.167 54.166 30.5 74.499s45.166 30.5 74.499 30.5z" />
    <glyph glyph-name="cedilla" unicode="&#xb8;" horiz-adv-x="881" 
d="M522 512c-3.33301 12 -16.002 25.6621 -38.002 40.9951c-16.667 14.667 -53 22 -109 22h-68v58h70c68 0 105.667 9 113 27c10.667 18 16 47.333 16 88c0 38.667 -6.66699 66 -20 82c-4 11.333 -17 25 -39 41c-16.667 14.667 -53 22 -109 22h-37v58h39
c54 0 91.667 8.66699 113 26c35.333 28.667 53 70.334 53 125.001c0 75.333 -19 121 -57 137c-31.333 13.333 -62 21 -92 23c-36 12 -64.333 29 -85 51c-22.667 22.667 -35.334 58.334 -38.001 107.001c-1.33301 26.667 6.33398 50 23.001 70s38.334 30 65.001 30h8
c21.333 0 39.333 -6 54 -18s26 -34 34 -66c0 -38.667 -16.333 -68.667 -49 -90c-5.33301 -3.33301 -8 -8.33301 -8 -15s5.33301 -14 16 -22c70.667 0 130 -13.667 178 -41c58.667 -33.333 88.667 -82.333 90 -147c1.33301 -68.667 -29.334 -124.667 -92.001 -168
c-15.333 -10.667 -30.333 -18.334 -45 -23.001c-14.667 -1.33301 -29 -4 -43 -8v-8c61.333 -2.66699 109.333 -20 144 -52c30 -28 48.333 -60.667 55 -98c0 -84 -25.333 -136.667 -76 -158c-9.33301 -5.33301 -23.666 -8 -42.999 -8v-8
c72 -27.333 122.833 -60.666 152.5 -99.999s47.834 -97.333 54.501 -174c-2.66699 -95.333 -34 -170.666 -94 -225.999c-80 -74 -171.667 -111 -275 -111c-46 0 -92.333 6.66699 -139 20c-60 17.333 -114 54 -162 110c-36.667 42.667 -55 82.334 -55 119.001
c0 26 10.167 48.167 30.5 66.5s45.5 27.5 75.5 27.5c24.667 0 47.167 -7 67.5 -21s30.833 -33 31.5 -57c1.33301 -27.333 -3.66699 -50 -15 -68c-2.66699 -5.33301 -4 -12.666 -4 -21.999c0 -11.333 6.33301 -27 19 -47c32 -49.333 77 -74 135 -74
c112.667 0 170 88.667 172 266c0 4 0.333008 17 1 39c0.666992 18.667 1 35 1 49c0 57.333 -6.33301 99 -19 125z" />
    <glyph glyph-name="onesuperior" unicode="&#xb9;" horiz-adv-x="2271" 
d="M1366 -23l-48.999 -0.000976562l-770 1152v-897c0 -168.667 -69 -253 -207 -253c-6.66699 0 -12.667 0.666992 -18 2h-21c-52 7.33301 -100.833 27.833 -146.5 61.5s-68.5 80.5 -68.5 140.5c0 100.667 44.333 151 133 151c30.667 0 55.167 -9.5 73.5 -28.5
s28.833 -40.833 31.5 -65.5c1.33301 -2.66699 2 -4.66699 2 -6v-8c0 -26 -7 -49.333 -21 -70c-1.33301 -1.33301 -2 -2.66602 -2 -3.99902l-4 -4c-1.33301 -2.66699 -9.66602 -13 -24.999 -31c-10.667 -13.333 -16 -25 -16 -35c0 -3.33301 0.666992 -6 2 -8v-10
c4 -12.667 11.5 -24 22.5 -34s28.167 -15 51.5 -15c24.667 0 46.667 4 66 12c64.667 26.667 97 94.334 97 203.001v970c-2.66699 26 -10.667 46 -24 60c-14.667 12 -30.334 20.667 -47.001 26c-10.667 4.66699 -21.667 7.66699 -33 9h-77v47h358l643 -977v749
c0 64.667 16.833 122.5 50.5 173.5s87.834 76.5 162.501 76.5c65.333 0 123.333 -20.333 174 -61s76 -90.667 76 -150c0 -39.333 -9.66699 -72 -29 -98c-22 -28.667 -52 -43 -90 -43c-34 0 -62.333 11.167 -85 33.5s-34 50.166 -34 83.499c0 20 3.66699 35.667 11 47
c5.33301 10.667 12.333 20 21 28c1.33301 2 2.66602 4.33301 3.99902 7l4 4c14.667 12 22 27 22 45v10c-4.66699 13.333 -15 27 -31 41c-12 8 -27 12 -45 12c-54.667 0 -96.334 -22.333 -125.001 -67c-24.667 -38 -37 -86 -37 -144v-1135zM2132 81.999v-49h-612v49h612z
M1485 544.999c0 94 31.334 172 94.001 234c60.667 59.333 138.667 92.666 234 99.999h14h12c98.667 0 181 -32.167 247 -96.5s99 -145.5 99 -243.5v-2c0 -3.33301 0 -4.66602 0 -3.99902c-1.33301 -94.667 -35.333 -173.667 -102 -237s-147.334 -95 -242.001 -95
c-86.667 0 -167.667 31.333 -243 94s-113 146 -113 250zM2021 442.999v189.998c0 10.667 -0.666992 22.334 -2 35.001c-1.33301 7.33301 -4 19 -8 35c-26 92.667 -82.667 139 -170 139c-25.333 0 -47 -3.33301 -65 -10c-83.333 -30.667 -125 -97 -125 -199v-172
c0 -11.333 1.66699 -25.666 5 -42.999c2.66699 -21.333 6 -38.333 10 -51c9.33301 -28.667 28 -57 56 -85s67 -42 117 -42c10.667 0 22.334 1.33301 35.001 4c17.333 2 31.666 5.33301 42.999 10c69.333 28.667 104 91.667 104 189z" />
    <glyph glyph-name="ordmasculine" unicode="&#xba;" horiz-adv-x="635" 
d="M324 1384c82.667 0 151.167 -27.999 205.5 -83.999s81.5 -125.667 81.5 -209c0 -82.667 -29.333 -154 -88 -214s-129.334 -90 -212.001 -90c-81.333 0 -148.666 27.667 -201.999 83s-80 123.666 -80 204.999c0 90 26.833 164 80.5 222s125.167 87 214.5 87zM296 1341
c-84 0 -126.001 -62.667 -126.001 -188c0 -105.333 23 -191.333 69 -258c26 -38 60 -57 102 -57c88 0 132 61.667 132 185c0 104.667 -23.667 190 -71 256c-29.333 41.333 -64.666 62 -105.999 62z" />
    <glyph glyph-name="guillemotright" unicode="&#xbb;" horiz-adv-x="778" 
d="M211 846l17 15.999c70 -83.333 149.333 -162.666 238 -237.999s173.667 -138.666 255 -189.999c-184 -116 -348.333 -258.667 -493 -428l-17 17c83.333 150 177.666 287 282.999 411c-113.333 137.333 -207.666 274.666 -282.999 411.999zM57 659.999l22.999 8
c80.667 -91.333 174 -169.333 280 -234c-102.667 -58.667 -196 -135.667 -280 -231l-23 8c38.667 82.667 86.334 157.667 143.001 225c-24 29.333 -49.667 65 -77 107s-49.333 81 -66 117z" />
    <glyph glyph-name="onequarter" unicode="&#xbc;" horiz-adv-x="1536" 
d="M134 1297l204.999 87.001h35v-592c0 -40 2 -64.667 6 -74c8 -14.667 39.667 -22 95 -22v-32h-325v32c58 0 90.333 7.66699 97 23c3.33301 7.33301 5 31.666 5 72.999v374c0 68.667 -5 107.667 -15 117c-5.33301 4 -12 6 -20 6c-13.333 0 -35.666 -6.66699 -66.999 -20z
M1292 1384l-934 -1438h-90l935 1438h89zM1501 224.001v-81h-108v-183h-117v183h-343v73l376 465h84v-457h108zM1276 224.001v316l-260 -316h260z" />
    <glyph glyph-name="onehalf" unicode="&#xbd;" horiz-adv-x="1536" 
d="M134 1297l204.999 87.001h35v-592c0 -40 2 -64.667 6 -74c8 -14.667 39.667 -22 95 -22v-32h-325v32c58 0 90.333 7.66699 97 23c3.33301 7.33301 5 31.666 5 72.999v374c0 68.667 -5 107.667 -15 117c-5.33301 4 -12 6 -20 6c-13.333 0 -35.666 -6.66699 -66.999 -20z
M1268 1384l-935 -1438h-89l935 1438h89zM1494 113.001l-61.002 -152.998h-494v30c164 128 273.333 232.333 328 313c33.333 49.333 50 97 50 143c0 41.333 -14 75.666 -42 102.999s-62.667 41 -104 41c-80.667 0 -135.667 -39.333 -165 -118h-45
c20 139.333 100.667 209 242 209c59.333 0 112.333 -16 159 -48c53.333 -36.667 80 -83.334 80 -140.001c0 -44.667 -16 -92 -48 -142c-49.333 -76.667 -147.666 -174.667 -294.999 -294h187c46.667 0 77.334 1.66699 92.001 5c31.333 7.33301 55 24.333 71 51h45z" />
    <glyph glyph-name="threequarters" unicode="&#xbe;" horiz-adv-x="1536" 
d="M1277 1384l-931 -1438h-90l935 1438h86zM53 1229c50 103.333 126.667 154.999 230 154.999c48.667 0 92.334 -12 131.001 -36c44.667 -27.333 67 -64.333 67 -111c0 -45.333 -35 -97 -105 -155c96.667 -34.667 145 -95.334 145 -182.001
c0 -83.333 -36 -147.666 -108 -192.999c-60.667 -38.667 -135.334 -58 -224.001 -58c-98 0 -147 21 -147 63c0 30 19.667 45 59 45c17.333 0 44.833 -8 82.5 -24s67.5 -24 89.5 -24c36.667 0 68.5 12.833 95.5 38.5s40.5 56.834 40.5 93.501
c0 59.333 -25 103.666 -75 132.999c-40.667 23.333 -93 34.333 -157 33v28c46.667 0 88 14 124 42c38.667 30 58 67.667 58 113c0 34.667 -11.5 61.834 -34.5 81.501s-51.833 29.5 -86.5 29.5c-56.667 0 -105.667 -29.333 -147 -88zM1501 223.999v-81h-108v-183h-116v183
h-344v73l376 465h84v-457h108zM1277 223.999v316l-260 -316h260z" />
    <glyph glyph-name="questiondown" unicode="&#xbf;" horiz-adv-x="909" 
d="M452 975c30.667 0 56.834 -10.833 78.501 -32.5s32.5 -47.834 32.5 -78.501s-10.833 -56.834 -32.5 -78.501s-47.834 -32.5 -78.501 -32.5s-56.834 10.833 -78.501 32.5s-32.5 47.834 -32.5 78.501s10.833 56.834 32.5 78.501s47.834 32.5 78.501 32.5zM441 626
l38.998 -0.000976562c-3.33301 -89.333 -15 -165.333 -35 -228c-13.333 -42.667 -43.666 -114.334 -90.999 -215.001c-55.333 -116 -83 -212.333 -83 -289c0 -79.333 19 -144 57 -194c42 -54.667 101.667 -82 179 -82c45.333 0 86 10.333 122 31c43.333 24.667 65 58 65 100
c0 19.333 -10.333 47.5 -31 84.5s-31 65.5 -31 85.5c0 22.667 7.83301 41.834 23.5 57.501s34.834 23.5 57.501 23.5c34.667 0 62.667 -17.333 84 -52c18 -30 27 -63.333 27 -100c0 -91.333 -39.333 -164 -118 -218c-68.667 -48 -150.667 -72 -246 -72
c-100.667 0 -186 27 -256 81c-76.667 59.333 -115 138 -115 236c0 56.667 9.66699 107.334 29 152.001c24 56 72.833 127.5 146.5 214.5s120.5 153.167 140.5 198.5s32 107.333 36 186z" />
    <glyph glyph-name="Agrave" unicode="&#xc0;" horiz-adv-x="1680" 
d="M695 611c-8.66699 129.333 -48.999 213.999 -120.999 253.999c-26 14.667 -56 22 -90 22c-33.333 0 -62.666 -6.66699 -87.999 -20c-74 -38.667 -115.667 -124 -125 -256c-4 -60.667 -6.33301 -110 -7 -148c-0.666992 -43.333 1.66602 -93.666 6.99902 -150.999
c4 -46 10 -83.667 18 -113c28.667 -106.667 93.667 -160 195 -160c90.667 0 152.667 48 186 144c5.33301 16 13.666 59 24.999 129c2.66699 50 4 100.333 4 151c0 60 -1.33301 109.333 -4 148zM842.001 222.999c-56 -89.333 -116.667 -149.333 -182 -180
c-52.667 -24.667 -110.667 -37 -174 -37c-120.667 0 -225.334 46.333 -314.001 139c-87.333 90.667 -131 196.667 -131 318c0 118 40.167 223.833 120.5 317.5s188.5 140.5 324.5 140.5c124.667 0 230.334 -44 317.001 -132c39.333 44.667 80.333 76.667 123 96
c53.333 24 111.333 36 174 36c121.333 0 225.666 -45.5 312.999 -136.5s131 -197.5 131 -319.5c0 -118.667 -40 -224.334 -120 -317.001c-8 -8.66699 -36.333 -34.667 -85 -78c-40 -34.667 -67.667 -56.667 -83 -66c11.333 18.667 24 69 38 151
c11.333 69.333 18.333 123.666 21 162.999c3.33301 53.333 5.33301 102.333 6 147s-1.33301 95.334 -6 152.001c-3.33301 44.667 -9.33301 82 -18 112c-29.333 106.667 -94.333 160 -195 160c-94.667 0 -156.667 -47.667 -186 -143
c-8.66699 -28.667 -15 -66.334 -19 -113.001c-0.666992 -33.333 -3 -83.166 -7 -149.499s-7.66699 -110.833 -11 -133.5c-7.33301 -49.333 -19.666 -91.666 -36.999 -126.999z" />
    <glyph glyph-name="Aacute" unicode="&#xc1;" horiz-adv-x="983" 
d="M813 -123c0 -105.333 -31.3311 -187.333 -93.998 -246c-78.667 -73.333 -181.667 -110 -309 -110c-48.667 0 -97.334 6.66699 -146.001 20c-59.333 16 -113 52.333 -161 109c-37.333 43.333 -56 82.666 -56 117.999c0 28.667 11 52 33 70c20 16.667 44.667 25 74 25
c63.333 0 96 -26 98 -78c1.33301 -28.667 -3.33398 -51.334 -14.001 -68.001c-2.66699 -10.667 -4 -17.334 -4 -20.001c0 -9.33301 7.33301 -23.666 22 -42.999c40 -52 92 -78 156 -78c75.333 0 131.333 38.333 168 115c21.333 44.667 32 94.334 32 149.001v703
c0 38 -3.33301 84.667 -10 140c-4 31.333 -9.33301 58.333 -16 81c-10 62.667 -55 94 -135 94c-87.333 0 -131 -15 -131 -45c0 -4 0.333008 -8 1 -12s1.66699 -8.66699 3 -14c2 -12 5.33301 -21.667 10 -29c0.666992 -2 2 -4 4 -6c0 -8.66699 4 -17 12 -25
c4.66699 -6.66699 8.66699 -14.167 12 -22.5s5 -17.833 5 -28.5c0 -38 -11.333 -68.667 -34 -92s-53 -35 -91 -35c-40 0 -71.167 13.333 -93.5 40s-33.5 60.334 -33.5 101.001c0 69.333 41.333 123 124 161c64.667 29.333 136 44 214 44c54.667 0 108.334 -6 161.001 -18
l1 598h-129v35h202c47.333 0 85.666 2.66699 114.999 8l8 4h2v-1645z" />
    <glyph glyph-name="Acircumflex" unicode="&#xc2;" horiz-adv-x="881" 
d="M752 -123c-8.66699 -76 -43.8311 -153.002 -105.498 -231.002s-156.167 -117 -283.5 -117c-38 0 -77.667 4 -119 12c-54.667 10.667 -108.667 47 -162 109c-36.667 42.667 -55 82 -55 118c0 26.667 10.167 49.167 30.5 67.5s45.5 27.5 75.5 27.5
c24.667 0 47.167 -7 67.5 -21s30.833 -33 31.5 -57c1.33301 -30 -3.66699 -52.667 -15 -68c-5.33301 -12.667 -8 -25 -8 -37c0 -12.667 2.66699 -23.667 8 -33c22 -50 62.333 -75 121 -75c48.667 0 92 22.667 130 68c41.333 48.667 62.333 115.334 63 200.001l2 185
c1.33301 126.667 -26 207 -82 241c-34 20.667 -71.667 31 -113 31h-84v32h94c52.667 0 91 10.667 115 32c49.333 43.333 74 132.666 74 267.999c0 72 -7 124.667 -21 158c-20.667 70.667 -74.334 106 -161.001 106c-78 0 -131.333 -15.667 -160 -47
c-11.333 -12.667 -17 -23 -17 -31c1.33301 -10 8.33301 -21.333 21 -34c34 -24.667 51 -54.334 51 -89.001c0 -35.333 -11.167 -63.166 -33.5 -83.499s-47.833 -30.5 -76.5 -30.5c-34.667 0 -62.5 12 -83.5 36s-31.5 53.667 -31.5 89c0 60.667 30.833 112.5 92.5 155.5
s150.167 64.5 265.5 64.5c125.333 0 217.666 -23.667 276.999 -71c36.667 -29.333 60.334 -60.666 71.001 -93.999c11.333 -38.667 17.666 -81 18.999 -127c1.33301 -52 -13 -106 -43 -162c-32 -59.333 -70.667 -99.666 -116 -120.999c-34.667 -16.667 -73 -26.667 -115 -30
l-3 -11c82.667 -8 143.667 -31.667 183 -71c57.333 -57.333 90 -130.333 98 -219z" />
    <glyph glyph-name="Atilde" unicode="&#xc3;" horiz-adv-x="1045" 
d="M266 123c-1.33301 -26.667 -2 -52 -2 -76v-78c0 -130 7.66699 -220.333 23 -271c30 -98 94 -147 192 -147c96 0 159 50 189 150c16 53.333 24 143.333 24 270v4v2c0 110.667 -10 208 -30 292c-20.667 87.333 -81.667 131 -183 131h-10c-4 0 -8 -0.666992 -12 -2
c-48 -4.66699 -90.667 -27.5 -128 -68.5s-58.333 -109.833 -63 -206.5zM346 922c148.667 0 238.334 -55.001 269.001 -165.001c13.333 -48 20 -105 20 -171c0 -18 -0.666992 -45.333 -2 -82s-2 -64 -2 -82c73.333 -40 128.666 -82.333 165.999 -127
c83.333 -100 125 -206.667 125 -320c0 -125.333 -42.833 -232.833 -128.5 -322.5s-191.167 -134.5 -316.5 -134.5c-128 0 -233.667 46.667 -317 140s-125 199 -125 317c0 122.667 42.667 230.334 128 323.001s180.333 141 285 145v188c0 62.667 -6.66699 122.667 -20 180
c-12.667 54.667 -46.667 82 -102 82h-4h-2c-52 -3.33301 -78 -20.333 -78 -51c0 -10.667 1.66699 -19.5 5 -26.5s8.33301 -13.833 15 -20.5l2 -2c1.33301 -1.33301 3 -2 5 -2c24 -22 36 -46 36 -72c0 -20.667 -8.16699 -39.167 -24.5 -55.5s-37.5 -24.5 -63.5 -24.5
c-35.333 0 -60.333 16.333 -75 49c-7.33301 16 -11 31 -11 45c0 54 18.667 96.333 56 127c50.667 41.333 103.667 62 159 62z" />
    <glyph glyph-name="Adieresis" unicode="&#xc4;" horiz-adv-x="2253" 
d="M426 -187c73.333 -27.333 245.002 -46.668 515.002 -58.001c118 -4.66699 187.333 -9.66699 208 -15c38.667 -10 66.667 -18.333 84 -25c33.333 -12.667 57.333 -28.334 72 -47.001c61.333 -76.667 92 -159.334 92 -248.001h-33c-5.33301 42.667 -27 72.667 -65 90
c-75.333 34 -143 53.333 -203 58c-98.667 0 -248.334 5.66699 -449.001 17c-202.667 21.333 -350.667 81 -444 179c-105.333 92.667 -158 271.667 -158 537c0 180.667 28 315.334 84 404.001s117 148.334 183 179.001c52 24.667 110 37 174 37
c124 0.666992 229.667 -43.333 317 -132c39.333 44.667 80.333 76.667 123 96c53.333 24 111.333 36 174 36c124.667 0 230.334 -44 317.001 -132c40 44.667 81 76.667 123 96c52.667 24 110.667 36 174 36c121.333 0 226.333 -45.667 315 -137
c86.667 -90.667 130 -197 130 -319c0 -118.667 -40.333 -224.334 -121 -317.001c-7.33301 -8.66699 -35.666 -34.667 -84.999 -78c-39.333 -34.667 -67 -56.667 -83 -66c12 18 24.667 68.333 38 151c12 68.667 19.333 123 22 163c3.33301 48.667 5.33301 97.667 6 147
c0.666992 44.667 -1.33301 95.334 -6 152.001c-8 97.333 -34 171 -78 221c-30 34 -75.333 51 -136 51c-94 0 -156 -47.667 -186 -143c-4 -13.333 -8 -34 -12 -62c-3.33301 -23.333 -5.33301 -40.333 -6 -51c-4.66699 -59.333 -6.66699 -109.666 -6 -150.999
c1.33301 -60 10 -114 26 -162c-30 -11.333 -73 -17 -129 -17c-40.667 0 -74 4.33301 -100 13c12 30 18 79.667 18 149c0 52 -2 102.667 -6 152c-3.33301 44.667 -9.33301 82 -18 112c-29.333 106.667 -94.333 160 -195 160c-94.667 0 -156.667 -47.667 -186 -143
c-9.33301 -29.333 -15.666 -67 -18.999 -113c-4.66699 -61.333 -6.66699 -111.666 -6 -150.999c1.33301 -58.667 10.333 -112.667 27 -162c-30 -11.333 -73 -17 -129 -17c-40.667 0 -74.334 4.33301 -101.001 13c12 30 18 79.667 18 149c0 52 -2 102.667 -6 152
c-3.33301 42.667 -9.33301 80 -18 112c-28.667 106.667 -93.334 160 -194.001 160c-54.667 0 -96.334 -15 -125.001 -45c-14.667 -15.333 -35.334 -48 -62.001 -98c-38 -71.333 -57 -200.333 -57 -387c0 -182.667 18.667 -320 56 -412
c18.667 -64.667 60.667 -109.334 126 -134.001z" />
    <glyph glyph-name="Aring" unicode="&#xc5;" horiz-adv-x="942" 
d="M432 920c117.333 0 215.002 -45.6641 293.002 -136.997c60 -70.667 90 -177.334 90 -320.001l-2 -586c0 -105.333 -31.333 -187.333 -94 -246c-78.667 -73.333 -181.667 -110 -309 -110c-48.667 0 -97.334 6.66699 -146.001 20c-59.333 16 -113 52.333 -161 109
c-37.333 43.333 -56 82.666 -56 117.999c0 28.667 11 52 33 70c20 16.667 44.667 25 74 25c63.333 0 96 -26 98 -78c1.33301 -28.667 -3.33398 -51.334 -14.001 -68.001c-2.66699 -10.667 -4 -17.334 -4 -20.001c0 -9.33301 7.33301 -23.666 22 -42.999
c40 -52 92 -78 156 -78c75.333 0 131.333 38.333 168 115c22 46 33 95.667 33 149l-1 832c-0.666992 36.667 -7 70 -19 100s-30.333 56.333 -55 79s-63.334 34 -116.001 34c-37.333 0 -76.166 -15.167 -116.499 -45.5s-65.5 -63.5 -75.5 -99.5c0 2.66699 10 -15.333 30 -54
c2.66699 -5.33301 5.66699 -10 9 -14c13.333 -26.667 20 -48.667 20 -66c0 -37.333 -7.66699 -66 -23 -86c-21.333 -27.333 -52.666 -41 -93.999 -41c-36.667 0 -65.334 13 -86.001 39c-18.667 23.333 -28 55 -28 95c0 68 21.667 124.667 65 170
c86.667 91.333 189.667 137 309 137z" />
    <glyph glyph-name="AE" unicode="&#xc6;" horiz-adv-x="1065" 
d="M848 -580c-8 62 -69.333 104.327 -184 126.994c-4 1.33301 -7.5 2.33301 -10.5 3s-5.83301 1 -8.5 1c-10.667 2.66699 -20.167 4.83398 -28.5 6.50098s-19.166 4.5 -32.499 8.5c-202 54.667 -343 138 -423 250c-77.333 108 -116 269.667 -116 485
c0 180.667 28 315.334 84 404.001s117 148.334 183 179.001c52.667 24.667 110.667 37 174 37c121.333 0 225.666 -45.5 312.999 -136.5s131 -197.5 131 -319.5c0 -117.333 -40.5 -223.166 -121.5 -317.499s-188.5 -141.5 -322.5 -141.5c-64 0 -125.667 16.667 -185 50
c-80.667 45.333 -146 120.333 -196 225h-19v-25c0 -144 34.333 -246.333 103 -307c72 -63.333 151 -108.666 237 -135.999c36 -8 81 -21.667 135 -41c79.333 -17.333 156 -52.666 230 -105.999c60 -42.667 90 -124.667 90 -246h-33zM322 143.994
c35.333 -58 77 -91.001 125 -99.001c16 -2.66699 29.667 -4 41 -4c70 0 126 33.667 168 101c24.667 39.333 39.334 98 44.001 176c3.33301 54 5.33301 103 6 147c0.666992 44.667 -1.33301 95.334 -6 152.001c-3.33301 42.667 -9.33301 80 -18 112
c-28.667 106.667 -93.334 160 -194.001 160c-90.667 0 -153 -47.667 -187 -143c-12.667 -35.333 -20.667 -78.333 -24 -129c-2.66699 -42 -4 -92.667 -4 -152c0 -42.667 0.666992 -80.667 2 -114c4 -94 19.667 -163 47 -207z" />
    <glyph glyph-name="Ccedilla" unicode="&#xc7;" horiz-adv-x="1065" 
d="M219 1381l-0.00195312 1c-0.666992 -4.66699 -2.33398 -18.334 -5.00098 -41.001c-3.33301 -32.667 -5 -68 -5 -106c0 -28 3.66699 -54.667 11 -80c0.666992 -18 11.334 -38.333 32.001 -61c19.333 -16.667 47.333 -25 84 -25h13c11.333 0 24 1.33301 38 4
c70 0 105 71 105 213c0 38 -3.33301 70.333 -10 97c-11.333 44.667 -56.666 71.334 -135.999 80.001c-59.333 -4.66699 -101.666 -32 -126.999 -82zM276.998 584c-1.33301 -30.667 -1.99902 -56.001 -1.99902 -76.001v-78c0 -130 7.66699 -220 23 -270
c30 -98 94 -147 192 -147c95.333 0 158 50 188 150c16 52.667 24 142.334 24 269.001v4v3c0 109.333 -10 206 -30 290c-20.667 87.333 -81.334 131 -182.001 131h-11c-4 0 -8 -0.666992 -12 -2c-47.333 -4 -89.833 -26.5 -127.5 -67.5s-58.5 -109.833 -62.5 -206.5z
M487.999 894.999c125.333 0 230.669 -44.833 316.002 -134.5s128 -197.834 128 -324.501c0 -125.333 -42.833 -232.666 -128.5 -321.999s-190.834 -134 -315.501 -134c-128.667 0 -234.667 46.333 -318 139s-125 198.334 -125 317.001c0 121.333 42.333 228.666 127 321.999
c41.333 45.333 100.666 115 177.999 209c14.667 20 23.667 37.667 27 53c-13.333 -1.33301 -32.333 -2 -57 -2c-75.333 0 -141 21.333 -197 64c-49.333 37.333 -73.333 110.333 -72 219c0.666992 73.333 29.5 127.5 86.5 162.5s123.167 52.5 198.5 52.5
c119.333 0 207 -26 263 -78c24.667 -23.333 38 -49.333 40 -78c2.66699 -40.667 4 -64 4 -70c0 -118 -51.667 -249.667 -155 -395z" />
    <glyph glyph-name="Egrave" unicode="&#xc8;" horiz-adv-x="1065" 
d="M698 584c-8 129.333 -48.001 213.999 -120.001 253.999c-26 14.667 -56 22 -90 22c-33.333 0 -62.666 -6.66699 -87.999 -20c-75.333 -39.333 -117 -124.666 -125 -255.999c-3.33301 -54 -5.33301 -103.333 -6 -148c-0.666992 -44 1.33301 -94.333 6 -151
c3.33301 -43.333 9.33301 -81 18 -113c28 -106 93 -159 195 -159c90.667 0 152.667 47.667 186 143c18.667 54 28 147.333 28 280c0 56.667 -1.33301 106 -4 148zM235.999 1362c-9.33301 -10.667 -14.001 -21.001 -14.001 -31.001c0 -3.33301 2.5 -9.66602 7.5 -18.999
s14.167 -24 27.5 -44c13.333 -35.333 20 -57.333 20 -66c0 -24 -7.66699 -45.667 -23 -65c-22 -27.333 -53.333 -41 -94 -41c-36 0 -64.667 13 -86 39c-19.333 24 -29 48.667 -29 74c0 66.667 22 123.334 66 170.001c92.667 98 209.334 147 350.001 147
c115.333 0 217.333 -35 306 -105c44 -35.333 80.667 -78 110 -128c35.333 -60.667 53 -129.667 53 -207v-486c0 -180 -28.167 -314.5 -84.5 -403.5s-116.833 -148.833 -181.5 -179.5c-52 -24.667 -110 -37 -174 -37c-120.667 0 -225 45.667 -313 137
s-132 197.666 -132 318.999c0 118 40.333 224 121 318s188.667 141 324 141c64 0 125.333 -16.333 184 -49c8.66699 -4.66699 27 -19 55 -43v375c0 122.667 -44.333 208 -133 256c-40 21.333 -83.667 32 -131 32c-92.667 0 -169 -34.667 -229 -104z" />
    <glyph glyph-name="Eacute" unicode="&#xc9;" horiz-adv-x="1680" 
d="M519 -214c10 -2 24.002 -6.66992 42.002 -14.0029c78.667 -17.333 155.334 -52.666 230.001 -105.999c60 -42.667 90 -124.667 90 -246h-33c-8 62 -69.333 104.333 -184 127c-4 1.33301 -7.5 2.33301 -10.5 3s-5.83301 1 -8.5 1
c-10.667 2.66699 -20.167 4.83398 -28.5 6.50098s-19.166 4.5 -32.499 8.5c-202 54.667 -343 138 -423 250c-77.333 108 -116 269.667 -116 485c0 180.667 28 315.334 84 404.001s117 148.334 183 179.001c52 24.667 110 37 174 37c124 0.666992 229.667 -43.333 317 -132
c39.333 44.667 80.333 76.667 123 96c53.333 24 111.333 36 174 36c121.333 0 225.666 -45.5 312.999 -136.5s131 -197.5 131 -319.5c0 -118.667 -40 -224.334 -120 -317.001c-8 -8.66699 -36.333 -34.667 -85 -78c-40 -34.667 -67.667 -56.667 -83 -66
c11.333 18.667 24 69 38 151c11.333 69.333 18.333 123.666 21 162.999c3.33301 53.333 5.33301 102.333 6 147s-1.33301 95.334 -6 152.001c-3.33301 44.667 -9.33301 82 -18 112c-29.333 106.667 -94.333 160 -195 160c-94.667 0 -156.667 -47.667 -186 -143
c-9.33301 -29.333 -15.666 -67 -18.999 -113c-4.66699 -61.333 -6.66699 -111.666 -6 -150.999c1.33301 -58.667 10.333 -112.667 27 -162c-30 -11.333 -73 -17 -129 -17c-40.667 0 -74.334 4.33301 -101.001 13c12 30 18 79.667 18 149c0 52 -2 102.667 -6 152
c-3.33301 42.667 -9.33301 80 -18 112c-28.667 106.667 -93.334 160 -194.001 160c-54.667 0 -96.334 -15 -125.001 -45c-14.667 -15.333 -35.334 -48 -62.001 -98c-38 -71.333 -57 -200.333 -57 -387c0 -182.667 18.667 -320 56 -412
c15.333 -54.667 57.333 -99.334 126 -134.001c20.667 -7.33301 51.667 -16.333 93 -27z" />
    <glyph glyph-name="Ecircumflex" unicode="&#xca;" horiz-adv-x="860" 
d="M752 -123c-8.66699 -76 -43.833 -153 -105.5 -231s-156.167 -117 -283.5 -117c-38 0 -77.667 4 -119 12c-54.667 10.667 -108.667 47 -162 109c-36.667 42.667 -55 82 -55 118c0 26.667 10.167 49.167 30.5 67.5s45.5 27.5 75.5 27.5c24.667 0 47.167 -7 67.5 -21
s30.833 -33 31.5 -57c1.33301 -30 -3.66699 -52.667 -15 -68c-5.33301 -12.667 -8 -25 -8 -37c0 -12.667 2.66699 -23.667 8 -33c22 -50 62.333 -75 121 -75c48.667 0 92 22.667 130 68c41.333 49.333 62.333 116 63 200l2 185c1.33301 126.667 -26 207 -82 241
c-34 20.667 -71.667 31 -113 31h-84v33c60 10.667 95.667 21 107 31c17.333 15.333 34.333 45.333 51 90c14.667 38.667 22 98 22 178c0 72 -6.66699 124.667 -20 158c-20.667 70.667 -74.667 106 -162 106c-17.333 2 -26 6 -26 12c0 12.667 18.333 19 55 19
c124 0 216 -24 276 -72c56.667 -45.333 86.667 -119 90 -221c2 -66 -17 -127.333 -57 -184c-36.667 -51.333 -70.667 -84.333 -102 -99c-18.667 -8.66699 -38.667 -16 -60 -22c0 -9.33301 15 -15.666 45 -18.999c83.333 -8.66699 144.333 -32.334 183 -71.001
c57.333 -57.333 90 -130.333 98 -219z" />
    <glyph glyph-name="Edieresis" unicode="&#xcb;" horiz-adv-x="1680" 
d="M486 921c124 0 229.669 -44 317.002 -132c39.333 44.667 80.333 76.667 123 96c53.333 24 111.333 36 174 36c121.333 0 225.666 -45.5 312.999 -136.5s131 -197.5 131 -319.5c0 -118.667 -40 -224.334 -120 -317.001c-8 -8.66699 -36.333 -34.667 -85 -78
c-40 -34.667 -67.667 -56.667 -83 -66c11.333 18.667 24 69 38 151c11.333 69.333 18.333 123.666 21 162.999c3.33301 53.333 5.33301 102.333 6 147s-1.33301 95.334 -6 152.001c-3.33301 44.667 -9.33301 82 -18 112c-29.333 106.667 -94.333 160 -195 160
c-94.667 0 -156.667 -47.667 -186 -143c-9.33301 -29.333 -15.666 -67 -18.999 -113c-4.66699 -61.333 -6.66699 -111.666 -6 -150.999c1.33301 -58.667 10.333 -112.667 27 -162c-30 -11.333 -73 -17 -129 -17c-40.667 0 -74.334 4.33301 -101.001 13
c12 30 18 79.667 18 149c0 52 -2 102.667 -6 152c-3.33301 42.667 -9.33301 80 -18 112c-28.667 106.667 -93.334 160 -194.001 160c-104 0 -170.333 -53.333 -199 -160c-8 -29.333 -14 -66.666 -18 -111.999c-5.33301 -57.333 -7.66602 -108 -6.99902 -152
c1.33301 -103.333 11.666 -212.333 30.999 -327c12 -71.333 23.667 -116 35 -134c-18 11.333 -45 32.666 -81 63.999c-22.667 19.333 -51.667 46 -87 80c-80.667 92 -121 197.667 -121 317c0 122 43.833 228.5 131.5 319.5s192.167 136.5 313.5 136.5z" />
    <glyph glyph-name="Igrave" unicode="&#xcc;" horiz-adv-x="1106" 
d="M365 234c0 -62.667 21.167 -114.832 63.5 -156.499s88.833 -62.5 139.5 -62.5c25.333 0 46.333 3.33301 63 10c80 31.333 120 116.666 120 255.999v272c-7.33301 76.667 -11 124 -11 142c0 68 17 121 51 159c27.333 30 52.666 45 75.999 45c10 0 16 -5.33301 18 -16
c-30 -27.333 -46 -57.333 -48 -90v-2v-4c0 -34 7.66699 -60 23 -78c42.667 -50 72.334 -91.333 89.001 -124c21.333 -43.333 32 -92 32 -146c0 -136.667 -42.333 -247.334 -127 -332.001c-89.333 -89.333 -180 -134.666 -272 -135.999c-16 0 -38.667 2.66699 -68 8
c-33.333 6 -63.333 15.667 -90 29c-62.667 30.667 -122 91 -178 181c-54.667 88 -82 222.667 -82 404v882h-129v35h203c46 0 84.333 2.66699 115 8l8 4h4v-1288z" />
    <glyph glyph-name="Iacute" unicode="&#xcd;" horiz-adv-x="1106" 
d="M751 281l-0.00195312 272.001c0 92.667 -12 160.334 -36 203.001c-31.333 55.333 -71.666 88.666 -120.999 99.999c-12 2.66699 -23.667 4 -35 4c-51.333 0 -95.166 -15.667 -131.499 -47s-56.5 -66.666 -60.5 -105.999c-1.33301 -2.66699 -2 -5.33398 -2 -8.00098v-465
c0 -58 19.5 -109 58.5 -153s87.167 -66 144.5 -66c25.333 0 46.333 3.33301 63 10c80 31.333 120 116.666 120 255.999zM810.998 1473c64.667 0 108.003 4.66992 130.003 14.0029c11.333 4.66699 18.666 9.66699 21.999 15s6 10 8 14c13.333 -4 20 -11.667 20 -23
c0 -32.667 -26.333 -71.334 -79 -116.001c-38 -32 -92.667 -50.667 -164 -56c-45.333 2 -104.5 13.5 -177.5 34.5s-119.167 31.5 -138.5 31.5c-20.667 0 -36.334 -5.66699 -47.001 -17c-14.667 -16 -22 -52 -22 -108l2 -463c-1.33301 0 4.33398 6.66699 17.001 20
c18.667 24 45.667 44 81 60c24.667 10.667 55.334 16 92.001 16c117.333 0 217.666 -44.333 300.999 -133s125 -196.334 125 -323.001c0 -136.667 -42.333 -247.334 -127 -332.001c-89.333 -89.333 -180 -134.666 -272 -135.999c-16 0 -38.667 2.66699 -68 8
c-33.333 6 -63.333 15.667 -90 29c-62.667 30.667 -122 91 -178 181c-54.667 88 -82 222.333 -82 403v662c0 70 14.667 122 44 156s64.333 57.333 105 70c11.333 3.33301 22.166 5.66602 32.499 6.99902s27.833 2 52.5 2c66 0 170.333 -3.66699 313 -11
c55.333 -3.33301 88.666 -5 99.999 -5z" />
    <glyph glyph-name="Icircumflex" unicode="&#xce;" horiz-adv-x="1639" 
d="M994 1367c60 4.66699 126.67 23.667 200.003 57c37.333 16.667 58.666 46.667 63.999 90h32c0 -86.667 -30 -169.334 -90 -248.001c-20.667 -26.667 -72.334 -50.667 -155.001 -72c-26.667 -6.66699 -147 -13.334 -361 -20.001c-88.667 -2.66699 -135 -4.66699 -139 -6
c-72 -3.33301 -143.333 -26 -214 -68c-66.667 -40.667 -114 -81 -142 -121c-56 -81.333 -84 -192.666 -84 -333.999c74.667 157.333 173 246 295 266c40 6.66699 68.667 10 86 10c124 0 229.667 -44 317 -132c39.333 44.667 80.333 76.667 123 96
c53.333 24 111.333 36 174 36c121.333 0 225.666 -45.5 312.999 -136.5s131 -197.5 131 -319.5c0 -118.667 -40 -224.334 -120 -317.001c-8 -8.66699 -36.333 -34.667 -85 -78c-40 -34.667 -67.667 -56.667 -83 -66c11.333 18.667 24 69 38 151
c11.333 69.333 18.333 123.666 21 162.999c3.33301 53.333 5.33301 102.333 6 147s-1.33301 95.334 -6 152.001c-3.33301 44.667 -9.33301 82 -18 112c-29.333 106.667 -94.333 160 -195 160c-94.667 0 -156.667 -47.667 -186 -143
c-9.33301 -29.333 -15.666 -67 -18.999 -113c-4.66699 -61.333 -6.66699 -111.666 -6 -150.999c1.33301 -58.667 10.333 -112.667 27 -162c-30 -11.333 -73 -17 -129 -17c-40.667 0 -74.334 4.33301 -101.001 13c12 30 18 79.667 18 149c0 52 -2 102.667 -6 152
c-3.33301 42.667 -9.33301 80 -18 112c-28.667 106.667 -93.334 160 -194.001 160c-104 0 -170.333 -53.333 -199 -160c-8 -29.333 -14 -66.666 -18 -111.999c-5.33301 -57.333 -7.66602 -108 -6.99902 -152c1.33301 -103.333 11.666 -212.333 30.999 -327
c12 -71.333 23.667 -116 35 -134c-70 43.333 -137 114.333 -201 213c-56 86.667 -84 222.667 -84 408c0 246.667 52.667 427 158 541c92 99.333 224.667 160 398 182c48.667 6 114.334 10 197.001 12c96.667 2 162 4.33301 196 7z" />
    <glyph glyph-name="Idieresis" unicode="&#xcf;" horiz-adv-x="922" 
d="M699 72c-60 -58 -148.33 -87 -264.997 -87c-130 0 -231.667 26.333 -305 79c-50 36 -82 87.667 -96 155c0 33.333 5.33301 59.333 16 78c17.333 30.667 42.666 49.334 75.999 56.001c6.66699 1.33301 15.667 2 27 2c30 0 54.667 -9 74 -27
c17.333 -13.333 28.666 -33 33.999 -59v-13c0.666992 -2 1 -4 1 -6c0 -3.33301 -0.333008 -6 -1 -8c0 -4.66699 -1.33301 -13 -4 -25c-0.666992 -4 -2 -10 -4 -18l-4 -16c-12 -31.333 -18 -47.333 -18 -48c0 -10.667 6.66699 -21.334 20 -32.001
c47.333 -38 104 -60.667 170 -68c54.667 0 101 11.667 139 35c32 20 51.333 50.667 58 92v0l5 31c3.33301 20.667 5 39.667 5 57c0 48 -13.667 88 -41 120c-20 23.333 -54.333 49 -103 77l-115 67c-24.667 12.667 -59.334 36.667 -104.001 72c-31.333 34 -47 88 -47 162
c0 68 17.333 121.333 52 160c27.333 30 52.333 45 75 45c10.667 0 17 -5.66699 19 -17c-30 -27.333 -45.667 -57.333 -47 -90v-2v-4c0 -56.667 23.667 -97.667 71 -123c30.667 -27.333 74.334 -58.333 131.001 -93l138 -86c27.333 -18 55.333 -41.667 84 -71
c35.333 -35.333 53.666 -81 54.999 -137c2.66699 -106.667 -29.333 -192.667 -96 -258z" />
    <glyph glyph-name="Eth" unicode="&#xd0;" horiz-adv-x="881" 
d="M728 1030l-0.00292969 -81.998c0 -91.333 -32.333 -160 -97 -206c-32 -22.667 -85.333 -40.667 -160 -54c82.667 -8 143.667 -31.667 183 -71c57.333 -57.333 90 -130.333 98 -219v-82c0 -92.667 -31.333 -168 -94 -226c-80 -74 -171.667 -111 -275 -111
c-44 0 -90.333 7 -139 21c-60.667 17.333 -114.667 53.666 -162 108.999c-36.667 42.667 -55 82.334 -55 119.001c0 26 10.167 48.167 30.5 66.5s45.5 27.5 75.5 27.5c24.667 0 47.167 -7 67.5 -21s30.833 -33 31.5 -57c1.33301 -27.333 -3.66699 -50 -15 -68
c-2.66699 -5.33301 -4 -12.666 -4 -21.999c0 -38.667 25.333 -72.334 76 -101.001c24 -13.333 49.333 -20 76 -20c60.667 0 105.334 31.333 134.001 94c21.333 46.667 32 104 32 172v82c0 5.33301 0.333008 13.166 1 23.499s1 18.166 1 23.499c0 112 -28 185 -84 219
c-34 20.667 -71.667 31 -113 31v35c129.333 0 200.333 34 213 102v0c7.33301 0 11 38.333 11 115c0 66 -11.667 108.333 -35 127c-23.333 23.333 -60 45.666 -110 66.999l-50 21c-31.333 11.333 -77.166 30.5 -137.499 57.5s-90.5 78.833 -90.5 155.5
c0 54.667 17.333 97.667 52 129c34.667 22.667 60.334 35 77.001 37c9.33301 0 15 -4 17 -12c-30 -23.333 -45.667 -48 -47 -74v-2v-4c0 -27.333 7.33301 -48.666 22 -63.999c9.33301 -10 25.666 -22.333 48.999 -37c31.333 -20 76.333 -42.667 135 -68
c90 -40 136.667 -60.667 140 -62c90.667 -43.333 139.334 -100.333 146.001 -171z" />
    <glyph glyph-name="Ntilde" unicode="&#xd1;" horiz-adv-x="1168" 
d="M715 203c-54.667 -36.667 -121.669 -54.9941 -201.002 -54.9941c-115.333 0 -217.666 39.333 -306.999 118c-92 81.333 -138 179 -138 293c0 105.333 40.667 200.333 122 285c55.333 58 111.333 101 168 129c-11.333 -16.667 -24 -61.667 -38 -135
c-12 -61.333 -19.333 -110 -22 -146c-3.33301 -42.667 -5.33301 -87 -6 -133c-0.666992 -40.667 1.33301 -86.334 6 -137.001c3.33301 -38.667 10.666 -75.334 21.999 -110.001c32 -90.667 95.667 -136 191 -136c88.667 0 151 43 187 129c6.66699 23.333 11 46 13 68
c3.33301 29.333 5 51.333 5 66v481l330 2v-39h-129l-2 -1006c0 -104.667 -31.667 -186.334 -95 -245.001c-80 -74 -183 -111 -309 -111c-48.667 0 -97 6.66699 -145 20c-59.333 16.667 -113.333 53 -162 109c-37.333 43.333 -56 82.666 -56 117.999c0 28.667 11 52 33 70
c20 16.667 44.667 25 74 25c24.667 0 47.167 -7 67.5 -21s30.833 -33 31.5 -57c0.666992 -16.667 -1 -30.334 -5 -41.001c-1.33301 -10 -4.66602 -19 -9.99902 -27c-2.66699 -10.667 -4 -17.334 -4 -20.001c0 -8.66699 7.66699 -23 23 -43
c40.667 -52 92.334 -78 155.001 -78c74.667 0 130.667 38.333 168 115c22 45.333 33 95 33 149v363z" />
    <glyph glyph-name="Ograve" unicode="&#xd2;" horiz-adv-x="1065" 
d="M486 921c121.333 0 225.668 -45.501 313.001 -136.501s131 -197.5 131 -319.5c0 -119.333 -40.333 -225 -121 -317c-10 -11.333 -38.667 -38 -86 -80c-36.667 -32 -64 -53.333 -82 -64c12 18.667 24.667 69 38 151c11.333 66.667 18.333 121 21 163
c3.33301 50 5.33301 99 6 147c0.666992 44.667 -1.33301 95.334 -6 152.001c-3.33301 42.667 -9.33301 80 -18 112c-28.667 106.667 -93.334 160 -194.001 160c-104 0 -170.333 -53.333 -199 -160c-8 -29.333 -14 -66.666 -18 -111.999
c-5.33301 -57.333 -7.66602 -108 -6.99902 -152c1.33301 -103.333 11.666 -212.333 30.999 -327c12 -71.333 23.667 -116 35 -134c-18 11.333 -45 32.666 -81 63.999c-22.667 19.333 -51.667 46 -87 80c-80.667 92 -121 197.667 -121 317c0 122 43.833 228.5 131.5 319.5
s192.167 136.5 313.5 136.5z" />
    <glyph glyph-name="Oacute" unicode="&#xd3;" horiz-adv-x="1290" 
d="M1151 -123c0 -105.333 -31.3301 -187.334 -93.9971 -246.001c-78.667 -73.333 -181.667 -110 -309 -110c-48.667 0 -97.334 6.66699 -146.001 20c-59.333 16 -113 52.333 -161 109c-37.333 43.333 -56 82.666 -56 117.999c0 28.667 11 52 33 70
c20 16.667 44.667 25 74 25c24 0 45.667 -6.66699 65 -20c21.333 -15.333 32.333 -34.666 33 -57.999c1.33301 -28 -3.33398 -50.667 -14.001 -68c-2.66699 -10.667 -4 -17.334 -4 -20.001c0 -10 7.33301 -24.333 22 -43c40.667 -52 92.667 -78 156 -78
c75.333 0 131.333 38.333 168 115c21.333 44 32 93.667 32 149l2 697c0 75.333 -7.33301 127.333 -22 156c-22 43.333 -65.667 65 -131 65c-31.333 0 -58 -6 -80 -18c-12 -2.66699 -25.667 -15 -41 -37c-17.333 -18 -26 -54.333 -26 -109v-65h-58v71
c0 58.667 -7.33301 96.334 -22 113.001c-28.667 39.333 -72.334 59 -131.001 59c-68.667 0 -112.667 -17.667 -132 -53c-14 -25.333 -22.667 -55.333 -26 -90c-28 -75.333 -82 -114.333 -162 -117c-26 -0.666992 -50 9 -72 29c-17.333 16 -26 37 -26 63
c0 52 29.333 83 88 93c38.667 0 68 -17.333 88 -52c4 -5.33301 9.33301 -8 16 -8c9.33301 0 16.333 5 21 15c0 74.667 19 137.334 57 188.001c36 48 83.667 72 143 72c39.333 0 75 -12.333 107 -37c38 -29.333 64 -65.666 78 -108.999c1.33301 -14.667 3.33301 -29 6 -43h8
c10 115.333 62.667 179.666 158 192.999c20.667 2.66699 35.667 4 45 4c84.667 0 159.667 -45.667 225 -137c60 -84 90 -190.667 90 -320z" />
    <glyph glyph-name="Ocircumflex" unicode="&#xd4;" horiz-adv-x="1372" 
d="M1043 439c3.33301 41.333 4.66797 80.6689 4.00098 118.002c-0.666992 52.667 -2 93 -4 121c-6 75.333 -27.333 134 -64 176c-24 27.333 -56.667 41 -98 41c-42.667 0 -75.334 -11.667 -98.001 -35c-25.333 -26 -42 -52.333 -50 -79c-3.33301 -11.333 -7 -28.333 -11 -51
s-6 -58.667 -6 -108c0 -4 -1 -21.333 -3 -52c-6.66699 -98.667 -19.667 -167.667 -39 -207c-44.667 -71.333 -93 -119 -145 -143c-20 -9.33301 -44.667 -17 -74 -23c-25.333 -5.33301 -47.333 -8 -66 -8c-96.667 0 -180.334 36.667 -251.001 110s-106 158.666 -106 255.999
c0 94.667 32.333 179.334 97 254.001s151.334 112 260.001 112c99.333 0 184 -35.333 254 -106c46 55.333 103.333 88.666 172 99.999c24 4 46 6 66 6c96 0 179 -36.667 249 -110s105 -158 105 -254c0 -94 -32 -178.667 -96 -254c-24 -28 -48.667 -52.667 -74 -74
c-17.333 -14 -39 -28 -65 -42c-29.333 -6 -48 -9 -56 -9l-2 -10c74 -8 134.333 -32.333 181 -73c51.333 -44.667 77 -103 77 -175c0 -18 -1.33301 -32.333 -4 -43c-5.33301 -55.333 -17 -101.333 -35 -138c-21.333 -42.667 -50.666 -78.667 -87.999 -108
c-112 -87.333 -249 -131 -411 -131c-87.333 0 -172 13.667 -254 41c-40 13.333 -94 49.666 -162 108.999c-37.333 32.667 -56 72 -56 118c0 28.667 11 52 33 70c20 16.667 44.667 25 74 25c63.333 0 96 -26 98 -78c1.33301 -28 -3.33398 -50.667 -14.001 -68
c-2.66699 -10.667 -4 -17.334 -4 -20.001c0 -14 7.33301 -28.333 22 -43c74 -74 161 -111 261 -111c118.667 0 214.334 51.667 287.001 155c36 52 60.333 115.667 73 191c0 118.667 -33.333 198 -100 238c-34.667 20.667 -72.334 31 -113.001 31h-84v33h94
c32.667 0 67.667 10.333 105 31c31.333 17.333 59 49 83 95c22 42.667 34.667 83.334 38 122.001zM385.002 223.003c39.333 0 67.999 9.66504 85.999 28.998c37.333 40.667 58.333 87 63 139c5.33301 60.667 8 115.334 8 164.001c0 34 -1.33301 73 -4 117
c-6 102.667 -37.667 171 -95 205c-21.333 8 -40 12 -56 12c-46 0 -85.333 -25.333 -118 -76c-20 -30.667 -32 -77.667 -36 -141c-2 -25.333 -4 -64.333 -6 -117c-0.666992 -33.333 1.33301 -73.666 6 -120.999c1.33301 -26 6.33301 -56 15 -90s24.334 -63.333 47.001 -88
c16.667 -18 46.667 -29 90 -33z" />
    <glyph glyph-name="Otilde" unicode="&#xd5;" horiz-adv-x="1106" 
d="M751 281l-0.00195312 272.001c0 92.667 -12 160.334 -36 203.001c-31.333 55.333 -71.666 88.666 -120.999 99.999c-12 2.66699 -23.667 4 -35 4c-51.333 0 -95.166 -15.667 -131.499 -47s-56.5 -66.666 -60.5 -105.999c-1.33301 -2.66699 -2 -5.33398 -2 -8.00098v-465
c0 -58 19.5 -109 58.5 -153s87.167 -66 144.5 -66c25.333 0 46.333 3.33301 63 10c80 31.333 120 116.666 120 255.999zM581.998 -28.999c-16 0 -38.668 2.66797 -68.001 8.00098c-33.333 6 -63.333 15.667 -90 29c-62.667 30.667 -122 91 -178 181
c-54.667 88 -82 222.667 -82 404v882h-129v35h203c46 0 84.333 2.66699 115 8l8 4h4v-723c-1.33301 0 4.33398 6.66699 17.001 20c18.667 24 45.667 44 81 60c24.667 10.667 55.334 16 92.001 16c117.333 0 217.666 -44.333 300.999 -133s125 -196.334 125 -323.001
c0 -136.667 -42.333 -247.334 -127 -332.001c-89.333 -89.333 -180 -134.666 -272 -135.999z" />
    <glyph glyph-name="Odieresis" unicode="&#xd6;" horiz-adv-x="1168" 
d="M744 750c20 28.667 30 54.667 30 78c0 17.333 -7.33301 33 -22 47c-15.333 10.667 -40 16 -74 16h-12v35h355v-35h-31c-16 0 -35 -4.66699 -57 -14c-46 -19.333 -87 -54.333 -123 -105l-191 -266l330 -471h92v-35h-453v35h119l-242 340l-129 -178l-52 -88
c-7.33301 -13.333 -11 -23.666 -11 -30.999c0 -38.667 18.333 -69.667 55 -93c16 -13.333 44.333 -31.666 85 -54.999c37.333 -22 66.333 -43 87 -63c26 -25.333 43.667 -59 53 -101c2.66699 -12 4 -24.333 4 -37c0 -46.667 -22.333 -90.334 -67 -131.001
c-27.333 -25.333 -76 -43.666 -146 -54.999c-8 -1.33301 -16.667 -2 -26 -2h-29c-28 0 -65 6 -111 18c-12 7.33301 -22 13.666 -30 18.999c-8.66699 2.66699 -16.334 4.66699 -23.001 6h-18c-4 0 -7.33301 -0.666992 -10 -2
c-7.33301 -2.66699 -14.166 -6.83398 -20.499 -12.501s-12.166 -12.5 -17.499 -20.5l-20 -2v199h21c15.333 -38 46 -76.333 92 -115c42 -35.333 91 -53 147 -53c47.333 0 83 8.66699 107 26c28.667 20.667 43 46.667 43 78c-0.666992 10 -2.66699 24.333 -6 43
c-13.333 38.667 -41.333 68 -84 88s-65.334 30.667 -68.001 32c-26.667 14.667 -46 30 -58 46c-23.333 23.333 -35 62.333 -35 117c0 42 13 81 39 117l208 287l-320 467h-109v35h445v-35h-92l231 -334z" />
    <glyph glyph-name="multiply" unicode="&#xd7;" horiz-adv-x="1106" 
d="M365 799l181.999 185c87.333 100 131 189.333 131 268c0 25.333 -4.66699 48.333 -14 69c-37.333 49.333 -84.666 74 -141.999 74c-38.667 0 -73.667 -11 -105 -33c-34.667 -24 -52 -54.667 -52 -92v-471zM743.999 602c-1.33301 14.667 -5.66699 35.334 -13 62.001
c-29.333 106.667 -94 160 -194 160c-54.667 0 -96.334 -15.333 -125.001 -46c-15.333 -16.667 -31.666 -49.334 -48.999 -98.001v-680h-328v35h129v1122c0 153.333 65.333 262 196 326c55.333 27.333 110.333 41 165 41c26 0 48.333 -2.66699 67 -8
c143.333 -40 215 -111.667 215 -215c0 -77.333 -38.333 -161.333 -115 -252c-58.667 -68.667 -129.667 -131.334 -213 -188.001c4 0.666992 13.333 4 28 10c11.333 4 20.666 6 27.999 6c120.667 0 225.334 -46 314.001 -138c86.667 -91.333 130 -197.666 130 -318.999
c0 -118 -40.333 -223.667 -121 -317c-10 -11.333 -37.667 -37 -83 -77c-38.667 -34 -67 -56.333 -85 -67c12 18.667 25 69 39 151c11.333 67.333 18.333 122 21 164s4.66699 90.667 6 146c0.666992 24 -3.33301 84.667 -12 182z" />
    <glyph glyph-name="Oslash" unicode="&#xd8;" horiz-adv-x="1147" 
d="M428 279c0 -140 40.333 -225.999 121 -257.999c18.667 -7.33301 40 -11 64 -11c50 0 96.167 21.167 138.5 63.5s63.5 95.166 63.5 158.499v469c0 3.33301 -0.666992 6 -2 8c-4 39.333 -24 75.166 -60 107.499s-80 48.5 -132 48.5c-22 0 -45.333 -5.66699 -70 -17
c-82 -37.333 -123 -135.666 -123 -294.999v-274zM344 1528c74 -2 128.002 -26.501 162.002 -73.501s53.667 -91.5 59 -133.5c4 36.667 23.333 81 58 133c24 36.667 58 59.334 102 68.001c13.333 2.66699 25.666 4 36.999 4c94.667 0 167.334 -48 218.001 -144
c24 -46.667 36 -101 36 -163v-627c0 -308 -86.667 -504 -260 -588c-55.333 -26.667 -108 -39.667 -158 -39c-90.667 1.33301 -181.334 47.333 -272.001 138c-85.333 85.333 -128 197.333 -128 336c0 123.333 40 230 120 320c83.333 93.333 185.666 140 306.999 140
c63.333 0 113.666 -17.667 150.999 -53c26 -20.667 39 -35.667 39 -45v475c0 120 -25.667 180 -77 180c-38 0 -74.333 -38.667 -109 -116c-18 -26 -27 -76 -27 -150h-86c-5.33301 64.667 -20.333 120.334 -45 167.001c-33.333 60.667 -78.333 91 -135 91
c-40.667 0 -77 -14.333 -109 -43c-10.667 -9.33301 -16 -22.333 -16 -39c0 -8 1.33301 -14.667 4 -20c2 -2.66699 10 -18.334 24 -47.001c2.66699 -4 5.66699 -10.333 9 -19c4 -20 6 -35.667 6 -47c-2.66699 -18.667 -5 -30.334 -7 -35.001
c-3.33301 -8.66699 -10.333 -18 -21 -28c-19.333 -22 -46.666 -33 -81.999 -33h-17c-35.333 2.66699 -62.666 18.334 -81.999 47.001c-14.667 22 -21.334 50.667 -20.001 86c2.66699 57.333 30 112 82 164c65.333 64.667 144.333 96 237 94z" />
    </font>
</defs>
</svg>
