<?xml version="1.0" standalone="no"?>
<!DOCTYPE svg PUBLIC "-//W3C//DTD SVG 1.1//EN" "http://www.w3.org/Graphics/SVG/1.1/DTD/svg11.dtd" >
<svg>
<metadata>
Created by FontForge 20090914 at Mon Dec 24 15:10:13 2018
 By www-data
 
</metadata>
<defs>
<font id="Bondo" horiz-adv-x="1090" >
  <font-face 
    font-family="Bondo"
    font-weight="400"
    font-stretch="normal"
    units-per-em="2048"
    panose-1="2 11 5 0 0 0 0 0 0 0"
    ascent="1638"
    descent="-410"
    x-height="920"
    cap-height="1342"
    bbox="-113.001 -580 2306 1755"
    underline-thickness="50"
    underline-position="-55"
    unicode-range="U+0001-U+2219"
  />
<missing-glyph horiz-adv-x="1536" 
d="M256 0v1280h1024v-1280h-1024zM1248 32v1216h-960v-1216h960z" />
    <glyph glyph-name=".notdef" horiz-adv-x="1536" 
d="M256 0v1280h1024v-1280h-1024zM1248 32v1216h-960v-1216h960z" />
    <glyph glyph-name=".null" horiz-adv-x="0" 
 />
    <glyph glyph-name=".null" horiz-adv-x="0" 
 />
    <glyph glyph-name="SOH" horiz-adv-x="0" 
 />
    <glyph glyph-name="STX" horiz-adv-x="0" 
 />
    <glyph glyph-name="ETX" horiz-adv-x="0" 
 />
    <glyph glyph-name="EOT" horiz-adv-x="0" 
 />
    <glyph glyph-name="ENQ" horiz-adv-x="0" 
 />
    <glyph glyph-name="ACK" horiz-adv-x="0" 
 />
    <glyph glyph-name="BEL" horiz-adv-x="0" 
 />
    <glyph glyph-name="BS" horiz-adv-x="0" 
 />
    <glyph glyph-name="HT" unicode="&#x9;" horiz-adv-x="0" 
 />
    <glyph glyph-name="LF" unicode="&#xa;" horiz-adv-x="0" 
 />
    <glyph glyph-name="VT" horiz-adv-x="0" 
 />
    <glyph glyph-name="space" unicode=" " horiz-adv-x="1024" 
 />
    <glyph glyph-name="exclam" unicode="!" horiz-adv-x="613" 
d="M191 92c0 32 11.499 59.166 34.499 81.499s49.5 33.5 79.5 33.5h17c4 -1.33301 8.66699 -2.66602 14 -3.99902c20.667 -6.66699 39.667 -19 57 -37c18.667 -19.333 28 -44 28 -74c0 -32.667 -11.333 -59 -34 -79c-21.333 -22.667 -48.666 -34 -81.999 -34
c-30 0 -53.667 9 -71 27c-19.333 16.667 -32.333 35.334 -39 56.001c-1.33301 5.33301 -2 10.666 -2 15.999c-1.33301 4 -2 8.66699 -2 14zM239.999 835.999c-4 31.333 -7.33301 58.668 -10 82.001c-4.66699 22 -8.33398 42.333 -11.001 61
c-2.66699 14 -5.33398 27 -8.00098 39c-2.66699 10.667 -4.66699 21.667 -6 33c-1.33301 4 -2 8 -2 12c-1.33301 2.66699 -2.66602 6 -3.99902 10l-19 78c-5.33301 24.667 -8 48 -8 70c0 44.667 8.33301 77.334 25 98.001c16 19.333 34.333 31.666 55 36.999
c9.33301 4 19 6.66699 29 8h24c6 0 15 -0.666992 27 -2s25 -4.66602 39 -9.99902c16.667 -8 32.334 -21.667 47.001 -41c15.333 -20.667 23 -50.667 23 -90v-8v-13c-2.66699 -30 -8 -61.333 -16 -94c-10 -32.667 -19.667 -73.667 -29 -123c-4 -20 -8 -42.333 -12 -67
l-13 -80c-4 -36.667 -8 -77 -12 -121s-7 -88.333 -9 -133c-2.66699 -41.333 -4.66699 -82.333 -6 -123s-2 -79 -2 -115h-71v58c-1.33301 17.333 -3 35 -5 53c-2.66699 73.333 -5.33398 136.666 -8.00098 189.999c-4 53.333 -8.66699 104.666 -14 153.999v18
c-1.33301 6 -2.66602 12.333 -3.99902 19z" />
    <glyph glyph-name="quotedbl" unicode="&#x22;" horiz-adv-x="809" 
d="M297 1364l-57 -452h-80l-58 452h195zM660 1364l-60 -452h-78l-59 452h197z" />
    <glyph glyph-name="numbersign" unicode="#" horiz-adv-x="1835" 
d="M1147 -121h-180l70 364h-383l-70 -364h-181l68 364h-357l35 185h359l74 389h-359l35 185h359l69 362h181l-70 -362h385l70 362h180l-69 -362h358l-35 -184l-358 -1l-76 -389h358l-35 -185h-358zM1071 428l74 389h-383l-74 -389h383z" />
    <glyph glyph-name="dollar" unicode="$" horiz-adv-x="1086" 
d="M90 2l-4 426.002h27c40.667 -103.333 94 -190.666 160 -261.999c64 -72 144.333 -117.667 241 -137v551l-86 24c-102 28.667 -173 74 -213 136c-40.667 60 -65 122.667 -73 188c-1.33301 15.333 -2 30.333 -2 45c-2 15.333 -3 29.666 -3 42.999
c0 117.333 39 205.333 117 264c74 54.667 156.667 82 248 82h12v152h60v-158h19l16 -4c19.333 -2.66699 39.666 -7.33398 60.999 -14.001l84 -33c12 -5.33301 22.833 -9.5 32.5 -12.5s18.5 -4.5 26.5 -4.5c10 0 19 3 27 9c6.66699 4 14 12 22 24c2 2.66699 4.33301 6 7 10
c1.33301 3.33301 2.66602 7 3.99902 11h32l9 -324h-29c-34 76.667 -70.667 136 -110 178c-39.333 42.667 -79 73.334 -119 92.001c-13.333 7.33301 -27 13.666 -41 18.999c-13.333 4 -27 7.33301 -41 10v-508l121 -33c88.667 -24 154.834 -60 198.501 -108
s73.167 -98 88.5 -150c6.66699 -22.667 11.334 -45.667 14.001 -69s4 -46 4 -68c0 -143.333 -43 -246.333 -129 -309c-84.667 -62 -176.667 -93 -276 -93h-9h-6h-6v-182h-59l-1 186c-38 6 -70 13 -96 21c-26 8.66699 -48.667 17 -68 25l-16 8l-16 8
c-20.667 10 -37 17.667 -49 23c-14 5.33301 -26.333 8.66602 -37 9.99902h-2h-4c-22 0 -40.833 -6.83301 -56.5 -20.5s-25.5 -32.167 -29.5 -55.5h-50zM574 563.002l-0.000976562 -542c6.66699 -1.33301 13.334 -2 20.001 -2h19h8h8c65.333 4 125.333 27.667 180 71
c53.333 44 80 102 80 174v33c-1.33301 11.333 -3.33301 22.333 -6 33c-8 44 -27.667 85.667 -59 125c-32.667 38 -84 66 -154 84zM513.999 826.002l-0.00195312 499.001c-5.33301 1.33301 -10.666 2 -15.999 2h-21c-62.667 0 -118.667 -21.667 -168 -65
c-50 -45.333 -75 -104 -75 -176c0 -58.667 14.333 -105.334 43 -140.001c28.667 -34 60 -59 94 -75c22 -11.333 43.667 -19.666 65 -24.999c20.667 -6.66699 37.334 -11.334 50.001 -14.001z" />
    <glyph glyph-name="percent" unicode="%" horiz-adv-x="1729" 
d="M471 -195l-63 29l854 1692l65 -29zM966 297c0 84.667 28.332 159 84.999 223c54.667 63.333 124.334 95 209.001 95c79.333 0 149 -31 209 -93c58.667 -61.333 88 -136.333 88 -225s-29.333 -163 -88 -223c-60 -62 -129.667 -93 -209 -93
c-78 0 -146.5 30.167 -205.5 90.5s-88.5 135.5 -88.5 225.5zM1114 340l0.00390625 -85.998c0 -74.667 10.333 -129.334 31 -164.001c19.333 -34 40.666 -56.333 63.999 -67c9.33301 -5.33301 18.666 -8.66602 27.999 -9.99902c10 -2 19 -3 27 -3h8h8
c31.333 4.66699 60.666 24.667 87.999 60c27.333 34 41 95.333 41 184v86c0 80.667 -11.667 138.667 -35 174c-24 36 -50.333 58 -79 66c-6 1.33301 -11 2.66602 -15 3.99902h-16c-42.667 0 -78.334 -20.667 -107.001 -62c-28.667 -40.667 -43 -101.334 -43 -182.001z
M172.003 1047c0 90 29.333 165.667 88 227c58.667 60 127 90 205 90c79.333 0 149 -30.667 209 -92c58.667 -61.333 88 -136.333 88 -225s-29.333 -164 -88 -226c-60 -61.333 -129.667 -92 -209 -92c-78 0 -146.333 30.5 -205 91.5s-88 136.5 -88 226.5zM320.003 1090
l0.00195312 -85.999c0 -75.333 9.83301 -130 29.5 -164s41.167 -56.667 64.5 -68c9.33301 -5.33301 18.833 -8.66602 28.5 -9.99902s18.5 -2 26.5 -2h8h9c31.333 4 60.5 23.5 87.5 58.5s40.5 96.833 40.5 185.5v86c0 80.667 -11.333 138.667 -34 174
c-24.667 35.333 -51.334 57 -80.001 65c-5.33301 1.33301 -10 2.66602 -14 3.99902h-17c-40.667 0 -75.334 -20.333 -104.001 -61c-30 -40.667 -45 -101.334 -45 -182.001z" />
    <glyph glyph-name="ampersand" unicode="&#x26;" horiz-adv-x="1532" 
d="M1174 672l4.00684 -0.000976562h2h53c19.333 0 40 1.33301 62 4c39.333 4 76 13 110 27c34 12 51 33.667 51 65c0 10 -0.666992 17.667 -2 23c-2.66699 4 -5.33398 6 -8.00098 6h-6c-2.66699 0 -5.33398 -0.666992 -8.00098 -2h-6
c-2.66699 -1.33301 -5.66699 -2.66602 -9 -3.99902c-8 -4 -16 -6.66699 -24 -8s-16.333 -2 -25 -2c-36.667 0 -62.834 9.16699 -78.501 27.5s-26.167 38.5 -31.5 60.5v16c-1.33301 4 -2 8.66699 -2 14c0 4 0.666992 9 2 15c0 4 1.33301 8.66699 4 14
c5.33301 18 16.833 34.167 34.5 48.5s41.5 21.5 71.5 21.5c50.667 0 86.334 -18 107.001 -54c18.667 -35.333 28 -78.333 28 -129c0 -98 -37.333 -177 -112 -237c-76.667 -60.667 -165.334 -91 -266.001 -91h-25c2.66699 -12 4.66699 -25.333 6 -40v-45
c0 -19.333 -0.666992 -40 -2 -62c-2.66699 -22 -6.66699 -43 -12 -63c-16.667 -75.333 -55 -143.666 -115 -204.999s-156.333 -92 -289 -92c-31.333 0 -64.666 1.33301 -99.999 4s-70.666 7.33398 -105.999 14.001c-100 18 -191.167 56.333 -273.5 115
s-123.5 150 -123.5 274c0 97.333 29.667 171.333 89 222c57.333 50 121.666 86 192.999 108c35.333 12 70.5 20.833 105.5 26.5s65.167 9.83398 90.5 12.501v10c-95.333 19.333 -171 51.333 -227 96c-56 45.333 -84 113.666 -84 204.999c0 82 28.667 145.5 86 190.5
s121 75.833 191 92.5c21.333 4 43 7.33301 65 10s42.667 4 62 4c106 0 186.333 -20.333 241 -61c54.667 -42.667 88.334 -89 101.001 -139c1.33301 -8.66699 2.66602 -16.334 3.99902 -23.001v-20v-3v-4c-1.33301 -32.667 -11.666 -62.667 -30.999 -90
c-20.667 -27.333 -50.667 -41 -90 -41c-35.333 0 -62 9.66699 -80 29c-19.333 19.333 -32.333 39.666 -39 60.999c-1.33301 7.33301 -2 13.666 -2 18.999c-1.33301 5.33301 -2 10.666 -2 15.999c0 14 4 27 12 39c8.66699 12.667 17.667 23.667 27 33l12 12l10 10l5 5l16 16
c4 5.33301 6 11.333 6 18c0 4 -0.666992 9.66699 -2 17c-2.66699 5.33301 -6 10.666 -10 15.999c-10 14 -26.333 26.333 -49 37c-24.667 9.33301 -59.667 14 -105 14c-52 0 -99 -13 -141 -39c-42.667 -27.333 -64 -79.666 -64 -156.999v-135c0 -66 11.667 -113.333 35 -142
s48.666 -47.667 75.999 -57c12 -4 24.333 -6.66699 37 -8c12 -2.66699 23 -4.66699 33 -6h16c5.33301 -2 10.666 -3 15.999 -3c4.66699 -1.33301 9.66699 -2 15 -2h16h76v-45h-160c-96.667 0 -165 -21 -205 -63c-39.333 -44 -64.333 -91 -75 -141
c-4.66699 -20.667 -7.66699 -40.667 -9 -60c-1.33301 -20.667 -2 -39.667 -2 -57v-12v-11v-12c4 -90 34.667 -172 92 -246c56 -74.667 147 -112 273 -112c113.333 0 194.666 28 243.999 84c47.333 56 76.666 118 87.999 186c2.66699 16.667 4.66699 33 6 49v45
c0 19.333 -0.666992 38.5 -2 57.5s-3.33301 35.167 -6 48.5l-115 2h-25c-69.333 0 -122.333 -5.33301 -159 -16c-41.333 -12 -69.333 -26.333 -84 -43c-6 -6.66699 -10.333 -12.667 -13 -18c-2.66699 -6.66699 -4 -13 -4 -19c0 -6.66699 0.666992 -12 2 -16
c1.33301 -5.33301 2.66602 -8.66602 3.99902 -9.99902s2.66602 -2 3.99902 -2h9h6c2.66699 0 5.33398 0.666992 8.00098 2c1.33301 0 3.33301 0.666992 6 2c9.33301 2.66699 18.166 5.33398 26.499 8.00098s16.5 4 24.5 4c31.333 0 58 -11 80 -33
c20.667 -21.333 31 -50 31 -86v-10c-1.33301 -4 -2 -8 -2 -12c-5.33301 -19.333 -17 -37 -35 -53c-19.333 -16.667 -44 -25 -74 -25h-2h-4c-32.667 1.33301 -62.667 16.333 -90 45c-27.333 27.333 -41 73.666 -41 138.999c0 84.667 35 161.334 105 230.001
c66.667 65.333 156 98 268 98h8z" />
    <glyph glyph-name="quotesingle" unicode="'" horiz-adv-x="447" 
d="M322 1364l-60 -452h-77l-60 452h197z" />
    <glyph glyph-name="parenleft" unicode="(" horiz-adv-x="1000" 
d="M709 -449l-37 -21.999c-74 77.333 -140.333 168 -199 272s-103.334 210.667 -134.001 320c-16.667 53.333 -29 106.666 -37 159.999c-10 53.333 -15 105 -15 155c0 90.667 23.333 220.667 70 390c44.667 169.333 149.667 351.333 315 546l41 -18
c-34 -53.333 -62.667 -105.333 -86 -156c-24.667 -50 -45.334 -100.333 -62.001 -151c-30 -97.333 -48.667 -195 -56 -293c-10 -98.667 -15 -204.667 -15 -318c0 -58.667 2.83301 -125.5 8.5 -200.5s15.834 -152.167 30.501 -231.5c14.667 -82 36.334 -162.667 65.001 -242
c27.333 -79.333 64.333 -149 111 -209v-2z" />
    <glyph glyph-name="parenright" unicode=")" horiz-adv-x="1000" 
d="M328 -471l-37 22c46.667 61.333 84.334 131.666 113.001 210.999c27.333 79.333 48.333 160 63 242c15.333 79.333 25.666 156.5 30.999 231.5s8 141.833 8 200.5c0 113.333 -4 219.333 -12 318c-10 98 -30 195.667 -60 293c-16 50.667 -35.667 101 -59 151
c-24.667 50.667 -54 102.667 -88 156l41 18c166.667 -194.667 272.5 -376.667 317.5 -546s67.5 -299.333 67.5 -390c0 -50 -4 -101.667 -12 -155c-9.33301 -53.333 -22.333 -106.666 -39 -159.999c-31.333 -109.333 -76.333 -216 -135 -320s-125 -194 -199 -270v-2z" />
    <glyph glyph-name="asterisk" unicode="*" horiz-adv-x="1022" 
d="M604 1000l0.000976562 -39.0039c7.33301 -2.66699 14.333 -4.66699 21 -6c5.33301 -2.66699 11.333 -5 18 -7c15.333 -4 30.333 -7.33301 45 -10l41 -12c41.333 -9.33301 77 -21 107 -35c28.667 -14.667 43 -40.667 43 -78c0 -26 -9.66699 -45.833 -29 -59.5
s-40.333 -20.5 -63 -20.5c-6 0 -11.667 0.666992 -17 2c-5.33301 2 -10 4.33301 -14 7c-19.333 9.33301 -40.833 27.666 -64.5 54.999s-62.167 65 -115.5 113l-35 -21c12 -80.667 22.833 -132.167 32.5 -154.5s16.5 -38.5 20.5 -48.5
c1.33301 -4 2.66602 -7.33301 3.99902 -10v-16c0 -5.33301 -0.666992 -11.166 -2 -17.499s-3.33301 -12.833 -6 -19.5c-6.66699 -14 -16.334 -26.333 -29.001 -37c-12 -10.667 -28.333 -16 -49 -16c-26 0 -45.667 8 -59 24c-15.333 16.667 -24.333 35 -27 55v7v4v4v4
c2.66699 12 8.83398 30.333 18.501 55s22.167 80 37.5 166l-35 21c-50.667 -44 -87 -79.667 -109 -107c-23.333 -27.333 -43.666 -46.333 -60.999 -57c-5.33301 -4 -11.666 -6.66699 -18.999 -8c-6.66699 -3.33301 -14 -5 -22 -5c-28.667 0 -51.334 8.33301 -68.001 25
s-25 35 -25 55c0 37.333 14.667 62.666 44 75.999c27.333 14 61.333 25.667 102 35l45 12c15.333 2.66699 30.333 6.66699 45 12c6.66699 2 13.667 4.33301 21 7c5.33301 1.33301 11.333 3.33301 18 6v39c-6.66699 2.66699 -12.667 5.33398 -18 8.00098l-21 4l-43 12
c-14.667 2.66699 -29 6 -43 10c-40.667 10 -75.834 22.167 -105.501 36.5s-44.5 39.833 -44.5 76.5c0 20.667 8.33301 39 25 55c16.667 16.667 39.334 25 68.001 25c8 0 15.333 -0.666992 22 -2c7.33301 -2.66699 13.666 -6 18.999 -10
c17.333 -12.667 37.666 -32 60.999 -58c22 -27.333 58.333 -62.666 109 -105.999l35 20c-15.333 87.333 -27.666 143.333 -36.999 168c-10 23.333 -16.333 41.333 -19 54v4v4v6v4c2.66699 20.667 11.667 39 27 55c13.333 16.667 33 25 59 25c20.667 0 37 -5.66699 49 -17
c12.667 -10.667 22.334 -22.667 29.001 -36c2.66699 -7.33301 4.66699 -13.666 6 -18.999c1.33301 -6.66699 2 -12.667 2 -18v-15l-4 -12l-20 -47c-10 -23.333 -21 -75.333 -33 -156l35 -20c53.333 48 91.833 85.5 115.5 112.5s45.167 45.5 64.5 55.5
c4 2.66699 8.66699 4.66699 14 6s11 2 17 2c22.667 0 43.667 -6 63 -18c19.333 -14 29 -34.667 29 -62c0 -36.667 -14.333 -62.167 -43 -76.5s-64.334 -26.5 -107.001 -36.5l-49.5 -12c-17 -4 -34.5 -8.66699 -52.5 -14c-4 -1.33301 -7.33301 -2.66602 -10 -3.99902
c-4 -1.33301 -8.33301 -2.66602 -13 -3.99902z" />
    <glyph glyph-name="plus" unicode="+" horiz-adv-x="1430" 
d="M101 690h570v572h87v-572h571v-86h-571v-569h-87v569h-570v86z" />
    <glyph glyph-name="comma" unicode="," horiz-adv-x="672" 
d="M289 -312l-25.0029 33.0029c24.667 19.333 46.334 41.333 65.001 66c19.333 23.333 36 47.666 50 72.999c9.33301 19.333 17 38.666 23 57.999c4 17.333 6 34.333 6 51v6c0 1.33301 -0.666992 2.66602 -2 3.99902c-1.33301 7.33301 -3.33301 13 -6 17
c-4.66699 4 -9 6 -13 6c-5.33301 0 -10 -0.666992 -14 -2c-5.33301 -1.33301 -10.666 -3.33301 -15.999 -6c-1.33301 -1.33301 -2.66602 -2 -3.99902 -2c-2 -1.33301 -3.66699 -2 -5 -2c-8 -4.66699 -15.333 -7.66699 -22 -9c-8 -1.33301 -15.667 -2 -23 -2
c-27.333 0 -51 9.66699 -71 29c-21.333 19.333 -32 46 -32 80c0 38.667 13.833 67.167 41.5 85.5s58.5 27.5 92.5 27.5c5.33301 0 14.333 -1.33301 27 -4c12 -4 25.667 -11.667 41 -23c16 -12 31.5 -31 46.5 -57s22.5 -61.667 22.5 -107c0 -60 -11.667 -110.667 -35 -152
c-22.667 -42 -54 -81.333 -94 -118l-24 -25l-29 -24v-3z" />
    <glyph glyph-name="hyphen" unicode="-" horiz-adv-x="719" 
d="M143 372v93h433v-93h-433z" />
    <glyph glyph-name="period" unicode="." horiz-adv-x="631" 
d="M200 92c0 30 9.33301 54.668 28 74.001c17.333 18 36.333 30.333 57 37l16 4h15c31.333 0 58.666 -11.667 81.999 -35c21.333 -23.333 32 -50 32 -80v-14l-4 -16c-6.66699 -20.667 -19 -39.334 -37 -56.001c-18.667 -18 -43 -27 -73 -27
c-33.333 0 -60.666 11.333 -81.999 34c-22.667 20 -34 46.333 -34 79z" />
    <glyph glyph-name="slash" unicode="/" horiz-adv-x="991" 
d="M129 -516l-72 24l805 1897l72 -26z" />
    <glyph glyph-name="zero" unicode="0" horiz-adv-x="1096" 
d="M86 672c0 38 3.5 82.998 10.5 134.998s18.5 106 34.5 162c30 98 78 188.667 144 272c65.333 82 155.333 123 270 123c131.333 0 242 -67.667 332 -203c88.667 -134.667 133 -297.667 133 -489s-37.667 -343.666 -113 -456.999
c-74.667 -113.333 -156.334 -185.666 -245.001 -216.999c-19.333 -5.33301 -37.5 -9.83301 -54.5 -13.5s-34.5 -5.5 -52.5 -5.5c-16.667 0 -33 1.33301 -49 4c-18 2.66699 -35.667 7.66699 -53 15c-89.333 30 -170.666 101.667 -243.999 215
c-75.333 113.333 -113 266.333 -113 459zM316 886.998l0.000976562 -429.999c0 -113.333 13 -215 39 -305c24 -90 88 -135 192 -135s169 45.667 195 137c26 90 39 191 39 303v430c0 162.667 -20 276.667 -60 342c-39.333 64 -97.333 96 -174 96
c-88.667 0 -149.334 -37.333 -182.001 -112c-32.667 -76.667 -49 -185.334 -49 -326.001z" />
    <glyph glyph-name="one" unicode="1" horiz-adv-x="981" 
d="M400 41v1215c0 13.333 -3.66699 22.666 -11 27.999c-8 4 -16.667 6 -26 6h-4h-4h-19h-18h-9h-10h-18c-8 0 -16.333 -0.666992 -25 -2h-26c-8.66699 -1.33301 -15.667 -2 -21 -2l-2 50c27.333 1.33301 55.333 3.33301 84 6l84 4c28.667 1.33301 58 3.33301 88 6l86 4l84 8
l-4 -119v-1204h158v-41h-545v41h158z" />
    <glyph glyph-name="two" unicode="2" horiz-adv-x="1102" 
d="M934 402h47.001l-18 -402h-849v129l355 332l55 51c20.667 20.667 42 43.334 64 68.001c36.667 42 70.667 92.333 102 151c32 58.667 51.333 126.334 58 203.001c1.33301 8 2 17 2 27v26v29c-1.33301 8 -2 16.333 -2 25c-1.33301 13.333 -3.33301 32.333 -6 57
c-2.66699 23.333 -9.66699 47.333 -21 72c-14.667 38 -40 73.333 -76 106c-36.667 31.333 -90.334 47 -161.001 47c-50.667 0 -96.667 -13 -138 -39c-42.667 -26 -64 -56.667 -64 -92c0 -20.667 4.33301 -35.667 13 -45c6.66699 -9.33301 15.334 -17.333 26.001 -24h4v-5
c7.33301 -4 14.333 -8.66699 21 -14s14 -13.333 22 -24c2.66699 -4.66699 5.66699 -8.33398 9 -11.001c1.33301 -4 2.66602 -7.33301 3.99902 -10c4 -8 6.66699 -16.5 8 -25.5s2 -18.833 2 -29.5c0 -37.333 -8.66699 -65.333 -26 -84
c-19.333 -19.333 -40.666 -31.666 -63.999 -36.999c-6.66699 -2.66699 -13.334 -4 -20.001 -4c-6.66699 -1.33301 -13.667 -2 -21 -2c-35.333 0 -66.666 13.667 -93.999 41c-28.667 27.333 -43 64.666 -43 111.999c0 84.667 39 162 117 232c76.667 69.333 173 104 289 104
c118.667 0 211.334 -26.667 278.001 -80c67.333 -52.667 113.666 -110.667 138.999 -174c7.33301 -16 13.666 -32.333 18.999 -49c4 -16 7.33301 -31.667 10 -47c2.66699 -9.33301 4 -19 4 -29v-30v-27l-4 -29c-10.667 -66.667 -36.167 -124.167 -76.5 -172.5
s-83.833 -91.833 -130.5 -130.5l-45 -35c-16.667 -12 -31.667 -23.333 -45 -34l-445 -340h566c54.667 0 88.667 14.333 102 43c14 27.333 23.667 66.666 29 117.999c0 8.66699 0.666992 17 2 25c0 8 0.666992 17 2 27z" />
    <glyph glyph-name="three" unicode="3" 
d="M611 766l-0.00195312 -10.0039c92.667 -9.33301 176.334 -45.666 251.001 -108.999c75.333 -64 113 -150.667 113 -260c0 -22.667 -2.66699 -48.834 -8 -78.501s-15 -59.5 -29 -89.5c-26 -60 -73.667 -114.333 -143 -163c-70 -51.333 -173 -77 -309 -77
c-106.667 0 -189.334 19.167 -248.001 57.5s-99 80.833 -121 127.5c-8 18 -14.167 35.5 -18.5 52.5s-6.5 32.833 -6.5 47.5c0 48 13 87 39 117s58.333 45 97 45c35.333 0 66 -12.333 92 -37c24.667 -24 37 -56 37 -96c0 -22 -4.33301 -39.667 -13 -53
c-9.33301 -15.333 -18.666 -27 -27.999 -35c-4.66699 -4 -9 -6.66699 -13 -8c-4 -2.66699 -7.33301 -5.33398 -10 -8.00098c-2.66699 -1.33301 -4.66699 -2.66602 -6 -3.99902c-2.66699 -3.33301 -5.33398 -5.66602 -8.00098 -6.99902
c-8.66699 -5.33301 -15.667 -11.333 -21 -18s-8 -15 -8 -25c0 -4 0.666992 -7.33301 2 -10c0 -4 0.666992 -8 2 -12c10 -24.667 34.667 -47.334 74 -68.001c35.333 -18.667 78.333 -28 129 -28h10c11.333 0 23 0.666992 35 2l37 4l78 41c5.33301 4 11.333 9.33301 18 16
c6.66699 5.33301 14.334 13 23.001 23c13.333 17.333 26.333 42.833 39 76.5s19 77.834 19 132.501v231c0 9.33301 -1.16699 20.166 -3.5 32.499s-5.5 24.833 -9.5 37.5c-11.333 30 -31.333 57.167 -60 81.5s-70.334 36.5 -125.001 36.5c-12 0 -23.333 -0.666992 -34 -2
c-12.667 -2.66699 -24.334 -5.33398 -35.001 -8.00098c-5.33301 -1.33301 -10.333 -2 -15 -2c-5.33301 -1.33301 -10 -2.66602 -14 -3.99902l-27.5 -4c-9 -1.33301 -18.833 -2 -29.5 -2c-2.66699 0 -5.33398 0.666992 -8.00098 2c-4.66699 0 -9 0.666992 -13 2
c-5.33301 1.33301 -10.666 5.33301 -15.999 12c-5.33301 5.33301 -8 13.666 -8 24.999v4v6c1.33301 10.667 6 21 14 31c8 8 20.333 12 37 12c9.33301 0 18.166 -0.666992 26.499 -2s16.5 -3.33301 24.5 -6c15.333 -2.66699 31 -4.66699 47 -6
c16.667 -2.66699 33.667 -4 51 -4c54.667 0 94.334 13 119.001 39c24.667 24 42 51 52 81c4 16.667 6.66699 33.334 8 50.001c1.33301 14.667 2 27.667 2 39v135c0 61.333 -13 105.666 -39 132.999c-27.333 27.333 -56.666 45.666 -87.999 54.999
c-14 2.66699 -27 4.66699 -39 6c-14 1.33301 -26.333 2 -37 2c-45.333 0 -80.333 -4.66699 -105 -14c-24 -10.667 -41 -23 -51 -37c-4 -5.33301 -6.66699 -10.666 -8 -15.999c-2.66699 -7.33301 -4 -13 -4 -17s1.33301 -8 4 -12c1.33301 -4 3.33301 -8 6 -12
c4 -5.33301 9.66699 -11 17 -17c6.66699 -5.33301 14 -12 22 -20c2.66699 -2.66699 5.33398 -4.66699 8.00098 -6c1.33301 -2.66699 3.33301 -5.33398 6 -8.00098c7.33301 -8.66699 13.666 -17.667 18.999 -27c4 -9.33301 6 -19.666 6 -30.999v-16
c-1.33301 -5.33301 -2.66602 -11.666 -3.99902 -18.999c-6.66699 -21.333 -19 -41.666 -37 -60.999c-19.333 -19.333 -46.666 -29 -81.999 -29s-64 12.333 -86 37s-33 58.334 -33 101.001c0 6.66699 0.666992 13.334 2 20.001c0 6.66699 0.666992 14.334 2 23.001
c11.333 50 44.333 96.333 99 139c53.333 40.667 133.666 61 240.999 61c19.333 0 39.333 -0.666992 60 -2c18.667 -2.66699 38.334 -6 59.001 -10c71.333 -15.333 137 -45.333 197 -90c58.667 -45.333 88 -110.333 88 -195c0 -90 -28 -157.333 -84 -202
c-56 -46.667 -131.667 -79.667 -227 -99z" />
    <glyph glyph-name="four" unicode="4" horiz-adv-x="1114" 
d="M574 41v342h-465v53l571 938h109v-909h211v-82h-211v-342h157v-41h-544v41h172zM574 465v643l-402 -643h402z" />
    <glyph glyph-name="five" unicode="5" horiz-adv-x="1116" 
d="M279 1145l-27.9961 -353.997c1.33301 1.33301 3.33301 2.66602 6 3.99902l4 4c54 42 105 68 153 78c48 8 83.333 12 106 12c134 0 235.167 -30 303.5 -90s113.5 -125.667 135.5 -197c6.66699 -21.333 12 -43 16 -65c2.66699 -22 4 -42.667 4 -62c0 -26 -2 -58.667 -6 -98
c-5.33301 -39.333 -16.333 -80.333 -33 -123c-26 -69.333 -71.667 -132 -137 -188c-66.667 -57.333 -166.334 -86 -299.001 -86c-98 0 -185.667 23.667 -263 71c-76.667 48 -115 116.333 -115 205c0 44 12.667 81 38 111c23.333 30 56 45 98 45
c31.333 0 60 -9.16699 86 -27.5s39 -47.5 39 -87.5c0 -22 -2 -39.667 -6 -53c-6 -15.333 -15.667 -29 -29 -41c-2 -1.33301 -3.66699 -2.66602 -5 -3.99902l-4 -4c-2.66699 -2.66699 -6 -5.33398 -10 -8.00098c-4 -4.66699 -8.66699 -9 -14 -13
c-7.33301 -5.33301 -14.333 -12 -21 -20s-10 -17 -10 -27c0 -5.33301 1.33301 -12 4 -20c2 -10 6.33301 -19.667 13 -29c10.667 -14.667 28.5 -28.5 53.5 -41.5s59.833 -19.5 104.5 -19.5c92.667 0 156.334 25 191.001 75c33.333 50.667 54.333 106.667 63 168l4 52v47v219
c0 10.667 -1.33301 27.667 -4 51c-2.66699 22 -9.33398 45.333 -20.001 70c-14 34 -38 65.333 -72 94c-34 26.667 -84.667 40 -152 40c-48.667 0 -93.667 -11.333 -135 -34c-40.667 -24.667 -75.334 -56.667 -104.001 -96l-26 4l44 657c64 -27.333 119.333 -45 166 -53
s91 -12.667 133 -14h21h16c42.667 0 87 4 133 12c46.667 8 100 26.333 160 55l20 -26c-20 -46.667 -56.667 -84.334 -110 -113.001s-109.333 -50.667 -168 -66c-36.667 -9.33301 -72.334 -16 -107.001 -20c-34 -4 -64.667 -6 -92 -6c-8 0 -15.333 0.666992 -22 2h-25
c-9.33301 0 -18.5 0.666992 -27.5 2s-17.5 2.66602 -25.5 3.99902c-8 0 -15.833 0.666992 -23.5 2s-14.834 2 -21.501 2z" />
    <glyph glyph-name="six" unicode="6" horiz-adv-x="1104" 
d="M346 926l-4.00391 -245.997c19.333 44 48.5 79 87.5 105s79.5 43.667 121.5 53c12.667 2.66699 25 4.66699 37 6s24.333 2 37 2h24l23 -4c84.667 -12 162.334 -55.667 233.001 -131c71.333 -76.667 107 -177 107 -301c0 -130 -45 -233.667 -135 -311
c-91.333 -80 -191.666 -120 -300.999 -120c-24.667 0 -52 2.5 -82 7.5s-60 13.833 -90 26.5c-72.667 30 -139 90.667 -199 182c-60.667 90 -91 232.667 -91 428c0 40.667 2.33301 87.667 7 141c4 52 12 105.333 24 160c25.333 110.667 72.666 211.667 141.999 303
s178 137 326 137c117.333 0 206 -23 266 -69c58.667 -46.667 88 -99.334 88 -158.001v-12c0 -6 -0.666992 -11 -2 -15c-4 -28.667 -15.667 -54.667 -35 -78c-19.333 -22.667 -48 -34 -86 -34c-35.333 0 -62 7.33301 -80 22c-17.333 15.333 -29.666 31.666 -36.999 48.999
c-2.66699 7.33301 -4 14.333 -4 21c-1.33301 5.33301 -2 10.666 -2 15.999c0 6.66699 1.33301 15 4 25c1.33301 8 4 16 8 24c1.33301 4 2.83301 8.16699 4.5 12.5s3.83398 8.5 6.50098 12.5c0 1.33301 0.666992 3.33301 2 6c0 1.33301 0.666992 2.66602 2 3.99902
c2.66699 4 4.66699 8 6 12c1.33301 4.66699 3.33301 9 6 13c2.66699 8 5.33398 16.5 8.00098 25.5s4 16.833 4 23.5c0 19.333 -16.333 35 -49 47c-34 10.667 -70.667 16 -110 16c-100 0 -167 -30 -201 -90s-54.667 -126 -62 -198c-1.33301 -19.333 -2 -38.666 -2 -57.999
c-1.33301 -18.667 -2 -37 -2 -55zM341.996 525.003l0.00195312 -236.001c0 -72.667 15 -128.667 45 -168s63.667 -66.666 101 -81.999c17.333 -8 35 -13.333 53 -16c18 -4 33.667 -6 47 -6c54.667 0 95.667 15.667 123 47c26 31.333 44.667 65.333 56 102
c8 28.667 12.667 56.667 14 84c1.33301 26 2 44.333 2 55v201c0 75.333 -12.333 143 -37 203s-77.334 90 -158.001 90c-62.667 0 -119.334 -25.333 -170.001 -76c-50.667 -52 -76 -118 -76 -198z" />
    <glyph glyph-name="seven" unicode="7" horiz-adv-x="1065" 
d="M172 1002l-44.002 -0.00195312l55 340h733c10.667 0 16.667 -1.5 18 -4.5s2 -9.83301 2 -20.5c0 -27.333 -8.66699 -67.666 -26 -120.999c-18 -54.667 -57 -158.334 -117 -311.001c-35.333 -90 -64 -170.167 -86 -240.5s-39.667 -138.166 -53 -203.499
c-11.333 -56 -20.333 -112.667 -27 -170c-8 -57.333 -15.667 -120.333 -23 -189l-4 -41l-4 -41h-221c8 94.667 27 184.334 57 269.001c28.667 82.667 59.334 158.334 92.001 227.001c16.667 35.333 34 68 52 98c16 30 31 56.667 45 80l74 129c21.333 39.333 41 79 59 119
c18 35.333 34.167 71.166 48.5 107.499s27.5 74.833 39.5 115.5h-535c-46 0 -76 -11 -90 -33c-14.667 -23.333 -27 -50 -37 -80c-1.33301 -5.33301 -2.66602 -10 -3.99902 -14z" />
    <glyph glyph-name="eight" unicode="8" horiz-adv-x="1084" 
d="M408 705l-107.002 68.9971c-5.33301 4.66699 -14.833 12.334 -28.5 23.001s-27.834 25.667 -42.501 45c-19.333 23.333 -37.333 52 -54 86c-16 32.667 -24 70.334 -24 113.001c0 13.333 1.33301 28.333 4 45c2.66699 14.667 6 29.667 10 45
c20.667 58.667 61.667 112.667 123 162c60 47.333 146 71 258 71c118.667 0 212.334 -27.333 281.001 -82c66.667 -56 100 -119.333 100 -190c0 -72.667 -22.667 -132.667 -68 -180c-44.667 -48 -109.334 -89 -194.001 -123l100 -66c6.66699 -4 12.834 -8 18.501 -12
s11.834 -8 18.501 -12c80.667 -62 131.334 -121 152.001 -177c20 -55.333 30 -100.333 30 -135c0 -124 -43 -222.333 -129 -295c-86 -72 -180.667 -109.333 -284 -112h-7h-6c-148.667 0 -262.667 36 -342 108c-78.667 71.333 -118 154.666 -118 249.999
c0 88.667 32 162.334 96 221.001c62.667 58.667 133.667 107.334 213 146.001zM683.998 528.997l-223 145.001c-35.333 -19.333 -64.666 -41 -87.999 -65c-23.333 -26 -42.333 -52 -57 -78c-20.667 -38.667 -33.667 -75 -39 -109
c-7.33301 -35.333 -11.666 -61.333 -12.999 -78v-8c-1.33301 -2.66699 -2 -5.33398 -2 -8.00098v-10v-9v-8c0 -2.66699 0.666992 -5.33398 2 -8.00098v-8v-8c7.33301 -87.333 39.666 -152.333 96.999 -195c56 -43.333 120.667 -65 194 -65c84.667 0 151 25.667 199 77
c46.667 52 70 110.333 70 175c0 18.667 -2 40.334 -6 65.001s-12.333 50 -25 76c-10.667 20.667 -24.334 41 -41.001 61c-18 20.667 -40.667 40 -68 58zM435.998 933.998l180.999 -115c34 16.667 61.167 35.167 81.5 55.5s36.833 40.833 49.5 61.5
c15.333 27.333 25 54 29 80c2.66699 26 4 46.333 4 61c0 78 -22 138.833 -66 182.5s-100.667 65.5 -170 65.5c-84.667 0 -146 -18.333 -184 -55c-40 -38 -60 -79.667 -60 -125s10.333 -82.333 31 -111c20.667 -30 43.334 -54.333 68.001 -73
c5.33301 -5.33301 11.333 -10.333 18 -15c6.66699 -4 12.667 -8 18 -12z" />
    <glyph glyph-name="nine" unicode="9" horiz-adv-x="1098" 
d="M764 416l4 245.999c-18.667 -45.333 -47.334 -80.333 -86.001 -105c-39.333 -26 -80.333 -43.667 -123 -53c-12 -2.66699 -24.333 -4.66699 -37 -6c-12 -1.33301 -24 -2 -36 -2c-10 0 -19 0.666992 -27 2c-9.33301 0 -19 0.666992 -29 2
c-83.333 14.667 -159 60.334 -227 137.001c-69.333 76.667 -104 175.667 -104 297c0 130 45 234.167 135 312.5s190.333 117.5 301 117.5c24.667 0 52.667 -2 84 -6c30 -5.33301 60.667 -15 92 -29c70.667 -31.333 136.334 -92 197.001 -182
c58.667 -91.333 88 -233.333 88 -426c0 -40.667 -2 -87.667 -6 -141s-13 -108 -27 -164c-24.667 -109.333 -72 -209 -142 -299c-69.333 -91.333 -177 -137 -323 -137c-104 0 -182.667 17 -236 51c-52.667 32.667 -87.334 69.667 -104.001 111
c-5.33301 10.667 -8.66602 21.334 -9.99902 32.001c-2.66699 11.333 -4 22.333 -4 33c0 35.333 10.667 67.333 32 96c22 28.667 52 43 90 43c34.667 0 61.334 -7.33301 80.001 -22c18 -16.667 30.333 -34.334 37 -53.001c2.66699 -7.33301 4.66699 -13.666 6 -18.999v-16
c0 -5.33301 -0.666992 -12.333 -2 -21l-8 -24c-1.33301 -4 -2.66602 -8.33301 -3.99902 -13c-2.66699 -5.33301 -5.33398 -10 -8.00098 -14v-6l-4 -4l-17 -35c-5.33301 -12 -8 -25 -8 -39c0 -20.667 17 -36.334 51 -47.001c33.333 -12 69.666 -18 108.999 -18
c116 0 189 39.833 219 119.5s45.667 173.5 47 281.5zM768 818.999l-0.00195312 234.001c0 90 -25.333 158.333 -76 205c-50 44.667 -106.667 67 -170 67c-55.333 0 -96 -15 -122 -45c-27.333 -31.333 -45.666 -65.333 -54.999 -102c-8 -28.667 -13 -55.334 -15 -80.001
c-1.33301 -26 -2 -44.333 -2 -55v-2v-2v-203c0 -75.333 13 -142.333 39 -201c24.667 -60 76.334 -90 155.001 -90c72.667 0 131 26.667 175 80c42 52 65.667 109.333 71 172v12v10z" />
    <glyph glyph-name="colon" unicode=":" horiz-adv-x="631" 
d="M200 92c0 32 11.833 59.166 35.5 81.499s50.5 33.5 80.5 33.5h16c4 -1.33301 8.66699 -2.66602 14 -3.99902c20.667 -6.66699 40 -19 58 -37c17.333 -19.333 26 -44 26 -74c0 -32.667 -10.667 -59 -32 -79c-22 -22.667 -49.333 -34 -82 -34c-30 0 -54 9 -72 27
c-19.333 16.667 -32.333 35.334 -39 56.001c-1.33301 5.33301 -2 10.666 -2 15.999c-2 4 -3 8.66699 -3 14zM200 780.999c0 30 9.33301 54.334 28 73.001c17.333 18 36.333 30.333 57 37l16 4h15c31.333 0 58.666 -11.667 81.999 -35c21.333 -22.667 32 -49 32 -79v-15
l-4 -16c-6.66699 -20.667 -19 -40 -37 -58c-18.667 -17.333 -43 -26 -73 -26c-33.333 0 -60.666 11 -81.999 33c-22.667 21.333 -34 48.666 -34 81.999z" />
    <glyph glyph-name="semicolon" unicode=";" horiz-adv-x="672" 
d="M289 -312l-25.0029 33.002c24.667 19.333 46.334 41.333 65.001 66c19.333 23.333 36 47.666 50 72.999c9.33301 19.333 17 38.666 23 57.999c4 17.333 6 34.333 6 51v6c0 1.33301 -0.666992 2.66602 -2 3.99902c-1.33301 7.33301 -3.33301 13 -6 17
c-4.66699 4 -9 6 -13 6c-5.33301 0 -10 -0.666992 -14 -2c-5.33301 -1.33301 -10.666 -3.33301 -15.999 -6c-1.33301 -1.33301 -2.66602 -2 -3.99902 -2c-2 -1.33301 -3.66699 -2 -5 -2c-8 -4.66699 -15.333 -7.66699 -22 -9c-8 -1.33301 -15.667 -2 -23 -2
c-27.333 0 -51 9.66699 -71 29c-21.333 19.333 -32 46 -32 80c0 40 14 68.667 42 86c27.333 18 58 27 92 27c8 0 17 -1.33301 27 -4c8 -2.66699 17.333 -6.66699 28 -12c20.667 -11.333 40 -30.666 58 -57.999c16 -27.333 24 -66.333 24 -117
c0 -60 -11.667 -110.667 -35 -152c-22.667 -42 -54 -81.333 -94 -118l-24 -25l-29 -24v-3zM226.997 781.002c0 30 11.666 56.333 34.999 79c23.333 23.333 50 35 80 35h17c4 -1.33301 8.66699 -2.66602 14 -3.99902c20.667 -6.66699 39.667 -19 57 -37
c18 -18.667 27 -43 27 -73c0 -33.333 -11 -60.833 -33 -82.5s-49.333 -32.5 -82 -32.5c-30 0 -53.667 8.66699 -71 26c-19.333 18 -32.666 37.333 -39.999 58c-1.33301 5.33301 -2 10.666 -2 15.999c-1.33301 4 -2 9 -2 15z" />
    <glyph glyph-name="less" unicode="&#x3c;" 
d="M28 674l945 545l59 -111l-752 -434l752 -434l-59 -111z" />
    <glyph glyph-name="equal" unicode="=" horiz-adv-x="1430" 
d="M100 547h1229v-86h-1229v86zM100 834h1229v-86h-1229v86z" />
    <glyph glyph-name="greater" unicode="&#x3e;" 
d="M1061 674l-944 -545l-60 111l752 434l-752 434l60 111z" />
    <glyph glyph-name="question" unicode="?" horiz-adv-x="1073" 
d="M373 92c0 32 11.667 59.166 35 81.499s50 33.5 80 33.5h16c4 -1.33301 8.66699 -2.66602 14 -3.99902c20.667 -6.66699 40 -19 58 -37c17.333 -19.333 26 -44 26 -74c0 -32.667 -10.667 -59 -32 -79c-22 -22.667 -49.333 -34 -82 -34c-30 0 -54 9 -72 27
c-19.333 16.667 -32.333 35.334 -39 56.001c-1.33301 5.33301 -2 10.666 -2 15.999c-1.33301 4 -2 8.66699 -2 14zM525 329.999l-48.002 -0.00585938v31c0 110.667 13 199.334 39 266.001c24.667 66.667 52.667 129.334 84 188.001
c1.33301 2.66699 3.33301 6.33398 6 11.001c2 2.66699 3.66699 5.33398 5 8.00098c2.66699 4 5.33398 8.66699 8.00098 14c2.66699 4 5.33398 8.66699 8.00098 14c14.667 27.333 28.334 56 41.001 86c10.667 30.667 16 66.334 16 107.001v49c-1.33301 16.667 -4 33 -8 49
c-6.66699 44 -23.667 83.667 -51 119s-73 53 -137 53c-60 0 -108 -14.333 -144 -43c-35.333 -28.667 -59.333 -60.667 -72 -96c-2.66699 -9.33301 -4.66699 -19 -6 -29c-2.66699 -10.667 -4 -20.667 -4 -30c0 -16.667 5.33301 -27 16 -31
c11.333 -5.33301 23.666 -8 36.999 -8h8h9h6h4h6h4c27.333 0 50 -9.66699 68 -29c16.667 -20.667 25 -44.667 25 -72c0 -28.667 -7.83301 -51.167 -23.5 -67.5s-33.167 -27.833 -52.5 -34.5c-6.66699 -1.33301 -13.834 -2.66602 -21.501 -3.99902s-14.167 -2 -19.5 -2
c-6.66699 0 -14.5 1.33301 -23.5 4s-18.167 7.33398 -27.5 14.001c-19.333 14 -36.333 36 -51 66c-17.333 30 -26 71 -26 123c0 80.667 27.5 147.167 82.5 199.5s125.5 78.5 211.5 78.5c112 0 196.667 -22.333 254 -67c57.333 -46.667 95 -98 113 -154
c4 -13.333 7.33301 -27 10 -41c1.33301 -13.333 2 -26.333 2 -39c0 -72 -13.667 -134 -41 -186s-57.333 -96.333 -90 -133c-6.66699 -8.66699 -13.5 -16.334 -20.5 -23.001l-20.5 -20l-33.5 -33.5c-12.333 -12.333 -25.166 -26.5 -38.499 -42.5
c-26 -31.333 -50 -69 -72 -113c-21.333 -43.333 -32 -92.333 -32 -147v-35z" />
    <glyph glyph-name="at" unicode="@" horiz-adv-x="1923" 
d="M1508 1164l-169.997 -563.999c-15.333 -50 -25.666 -88 -30.999 -114s-8 -45.333 -8 -58c0 -34 6 -60 18 -78c10.667 -18.667 23 -32 37 -40c8 -5.33301 16.333 -8.66602 25 -9.99902c6.66699 -1.33301 12.667 -2 18 -2c16.667 0 33 2 49 6
c15.333 2.66699 31.666 8 48.999 16c74 31.333 142.333 94 205 188s94 207.333 94 340c0 191.333 -70.333 360.666 -211 507.999c-142 147.333 -343.333 221 -604 221c-248.667 0 -447.334 -88.667 -596.001 -266c-150 -178.667 -225 -375.334 -225 -590.001
c0 -218.667 76.333 -416.667 229 -594c152 -178.667 351.333 -268 598 -268h2c31.333 0 86.666 4 165.999 12s163.333 35.333 252 82c22 12 44.667 25.667 68 41c22 15.333 43.667 32.333 65 51l45 -58c-120 -87.333 -228.333 -142.333 -325 -165
c-98.667 -23.333 -187.667 -35 -267 -35c-278 0 -503 96.333 -675 289s-258 408.334 -258 647.001v12v13c5.33301 225.333 89.833 431.833 253.5 619.5s384.834 281.5 663.501 281.5c240.667 0 449.667 -71 627 -213c176 -142 264 -338 264 -588v-12v-10
c-4 -150.667 -49 -288 -135 -412c-86 -125.333 -204 -188 -354 -188c-49.333 0 -90.5 7.83301 -123.5 23.5s-58.833 32.834 -77.5 51.501c-10 10 -18.333 19.667 -25 29s-12 17.666 -16 24.999c-42.667 -34.667 -86.334 -61.334 -131.001 -80.001
c-46.667 -19.333 -99.334 -29 -158.001 -29c-108 0 -190 39 -246 117c-56 76 -84 166 -84 270c0 150 52 282.333 156 397c104 113.333 234.333 170 391 170c23.333 0 52 -4 86 -12c32.667 -8 67.667 -28.333 105 -61l26 -27c10 -9.33301 19 -20.333 27 -33l31 97h170z
M1118 447.001l139.999 491.003c-10 57.333 -30.667 101.666 -62 132.999s-64.666 51.333 -99.999 60c-6.66699 1.33301 -13 2.66602 -19 3.99902h-18c-13.333 0 -27 -1.33301 -41 -4c-13.333 -4 -27 -9 -41 -15c-65.333 -28.667 -125.333 -87.334 -180 -176.001
s-82 -196.334 -82 -323.001c0 -83.333 11 -153.666 33 -210.999c20 -57.333 67 -86 141 -86c46.667 0 87.667 11 123 33c34 20.667 62 43 84 67c4 4 8 8.5 12 13.5s7.33301 9.5 10 13.5z" />
    <glyph glyph-name="A" unicode="A" horiz-adv-x="1264" 
d="M883 41l-151.998 414.002h-401l-74 -182c-2.66699 -6 -5.33398 -12.333 -8.00098 -19l-8 -20c-5.33301 -12.667 -10 -27 -14 -43c-6 -16.667 -9 -34.667 -9 -54c0 -26.667 7.66699 -48.334 23 -65.001c14.667 -18 50.667 -28.333 108 -31v-41h-348v41
c37.333 2.66699 69.666 15.667 96.999 39c25.333 23.333 45 48.666 59 75.999l8 12l4 12l453 1162h37l467 -1301h139v-41h-563v41h182zM718.002 496.002l-177 508l-201 -508h378z" />
    <glyph glyph-name="B" unicode="B" horiz-adv-x="1362" 
d="M86 1342l620.999 -0.00195312c143.333 0 248.333 -18.667 315 -56c67.333 -38 113 -79.667 137 -125c11.333 -21.333 19 -43 23 -65c4 -23.333 6 -43 6 -59c0 -86 -37.167 -153.667 -111.5 -203s-155.833 -80.666 -244.5 -93.999
c-8.66699 -1.33301 -16.334 -2 -23.001 -2c-8 -2 -16 -3.66699 -24 -5v-10c137.333 -22 238.833 -54.167 304.5 -96.5s110.167 -86.5 133.5 -132.5c12.667 -23.333 21 -46 25 -68s6 -43 6 -63v-2v-4c-1.33301 -89.333 -39.666 -170.666 -114.999 -243.999
c-75.333 -75.333 -210.666 -113 -405.999 -113h-647v41h157v1260h-157v41zM472.999 40.998l231.998 -0.00195312c116 0 193.667 32 233 96c38 63.333 57 134.333 57 213c0 110.667 -23 191.334 -69 242.001c-48 49.333 -100.667 82.333 -158 99
c-23.333 6.66699 -45.666 11.334 -66.999 14.001c-23.333 1.33301 -44.666 2 -63.999 2h-164v-666zM472.997 747.996l150 0.000976562c118.667 0 197.667 25.333 237 76c38 48.667 59.667 103 65 163c1.33301 8.66699 2 17 2 25v22c0 105.333 -21.667 174.333 -65 207
c-44.667 33.333 -93 52.666 -145 57.999c-12 1.33301 -23.667 2 -35 2h-35h-174v-553z" />
    <glyph glyph-name="C" unicode="C" horiz-adv-x="1106" 
d="M365 799c6 6.66699 28.666 28.833 67.999 66.5s77.333 77.167 114 118.5c35.333 41.333 66 85.333 92 132s39 92 39 136c0 25.333 -4.66699 48.333 -14 69c-37.333 49.333 -84.666 74 -141.999 74c-41.333 0 -78 -12.333 -110 -37c-31.333 -24 -47 -53.333 -47 -88v-471z
M743.999 601.999c-2.66699 20.667 -6.99805 41.335 -12.998 62.002c-10.667 39.333 -30.334 75.333 -59.001 108c-30 34.667 -75 52 -135 52c-54.667 0 -96.334 -15.333 -125.001 -46c-15.333 -16 -31.666 -48.667 -48.999 -98v-680h-328v35h129v1122
c0 78.667 18.667 145.667 56 201c37.333 56 83.833 97.667 139.5 125s110.834 41 165.501 41c26.667 0 49 -2.66699 67 -8c143.333 -40 215 -111.667 215 -215c0 -67.333 -30.167 -140.833 -90.5 -220.5s-139.5 -152.834 -237.5 -219.501
c9.33301 2 18.666 5.16699 27.999 9.5s18.666 6.5 27.999 6.5c117.333 0 221 -45.667 311 -137c88.667 -90.667 133 -197.334 133 -320.001c0 -116 -40.333 -221.667 -121 -317c-17.333 -18 -45.166 -43.833 -83.499 -77.5s-66.5 -55.834 -84.5 -66.501
c11.333 17.333 23.166 61.833 35.499 133.5s20.5 131.834 24.5 180.501c2.66699 48.667 4.66699 97.667 6 147c0 19.333 -4 80 -12 182z" />
    <glyph glyph-name="D" unicode="D" horiz-adv-x="1473" 
d="M86 1342l598.001 0.000976562c217.333 0 380.666 -54.667 489.999 -164c108 -110.667 175 -232.334 201 -365.001c4 -23.333 7.33301 -46.333 10 -69c1.33301 -23.333 2 -46 2 -68c0 -173.333 -58 -329 -174 -467c-116 -139.333 -273.667 -209 -473 -209h-654v41h157
v1262h-157v39zM473.001 41.001h277c139.333 0 236.333 58 291 174c52.667 116 81 243.667 85 383c1.33301 10 2 20.333 2 31v29c0 264.667 -38 438.667 -114 522c-76.667 82 -184 123 -322 123h-219v-1262z" />
    <glyph glyph-name="E" unicode="E" horiz-adv-x="1231" 
d="M243 41v1262h-157v39h1010l22 -387h-49c-14.667 108.667 -48 194 -100 256c-53.333 61.333 -132.666 92 -237.999 92h-258v-565h74c12 0 25 0.666992 39 2c12 0 25.667 2 41 6c31.333 9.33301 60.666 31 87.999 65c27.333 32.667 45 90 53 172h41v-536h-41v10l-4 8
c-14.667 87.333 -34.334 148 -59.001 182c-26 33.333 -74.667 50 -146 50h-86v-656h293c14 0 28.167 0.666992 42.5 2s28.833 3.33301 43.5 6c54.667 11.333 107.334 43 158.001 95c49.333 50 85.333 141.333 108 274h50l-43 -418h-1039v41h157z" />
    <glyph glyph-name="F" unicode="F" horiz-adv-x="1161" 
d="M243 41v1262h-157v39h1024l23 -430h-49c-10 125.333 -42.333 221.833 -97 289.5s-140 101.5 -256 101.5h-258v-594h131c12.667 0 25.667 0.666992 39 2c12.667 0 26.334 2.33301 41.001 7c31.333 8.66699 60.666 30.334 87.999 65.001c27.333 32.667 45.333 90 54 172h41
v-537h-41c-4.66699 80.667 -19 138 -43 172c-26 34 -54 56 -84 66c-15.333 5.33301 -29.833 8.66602 -43.5 9.99902s-26.5 2 -38.5 2h-144v-627h158v-41h-545v41h157z" />
    <glyph glyph-name="G" unicode="G" horiz-adv-x="1440" 
d="M1141 928l-45 0.00195312c-14 152.667 -56.5 255.667 -127.5 309s-147.833 81.333 -230.5 84h-11h-10c-147.333 0 -241.833 -62.167 -283.5 -186.5s-63.834 -260.833 -66.501 -409.5v-24v-25v-2v-4c0 -32.667 0.666992 -76.334 2 -131.001
s7.66602 -111.334 18.999 -170.001c14.667 -88.667 44.334 -170 89.001 -244c44 -73.333 114.333 -110 211 -110c11.333 0 22.333 0.666992 33 2c11.333 0 22.333 0.666992 33 2c64 6.66699 122.5 33.167 175.5 79.5s79.5 137.166 79.5 272.499v147h-142v39h516v-39h-144
v-79c0 -138 -52.333 -246.667 -157 -326c-106.667 -79.333 -223.667 -122.333 -351 -129c-6.66699 -1.33301 -12.667 -2 -18 -2h-21c-177.333 0 -314.333 66 -411 198c-98.667 132.667 -155 278.334 -169 437.001c-1.33301 14.667 -2 29 -2 43c-1.33301 13.333 -2 27 -2 41
c0 166.667 58.333 318.667 175 456c116 138 258 207 426 207c50.667 0 87.167 -3.33301 109.5 -10s40.5 -13.667 54.5 -21c1.33301 -1.33301 2.66602 -2 3.99902 -2l2 -2c13.333 -8 29 -14.667 47 -20c16.667 -5.33301 43.334 -8 80.001 -8c6.66699 0 14 0.666992 22 2
c8.66699 0 17 3.33301 25 10c6.66699 4 13.334 10 20.001 18c6 8.66699 11.667 19.667 17 33h47z" />
    <glyph glyph-name="H" unicode="H" horiz-adv-x="1551" 
d="M473 697v-656h144v-41h-531v41h157v1262h-157v39h531v-39h-144v-565h604v565h-143v39h531v-39h-158v-1262h158v-41h-531v41h143v656h-604z" />
    <glyph glyph-name="I" unicode="I" horiz-adv-x="717" 
d="M243 41v1262h-157v39h545v-39h-158v-1262h158v-41h-545v41h157z" />
    <glyph glyph-name="J" unicode="J" horiz-adv-x="1127" 
d="M160 738c8.66699 44.667 44.001 77.3369 106.001 98.0039l406 86h324v-39h-129v-1006c0 -103.333 -32.333 -185.333 -97 -246c-30 -28 -72.333 -53.333 -127 -76s-115.334 -34 -182.001 -34c-48 0 -96.333 6.66699 -145 20c-61.333 17.333 -115.333 53.666 -162 108.999
c-36.667 41.333 -55 80.666 -55 117.999c0 27.333 9.83301 50 29.5 68s45.167 27 76.5 27c30 0 54 -8.33301 72 -25c16 -16.667 24.667 -34.334 26 -53.001c0 -14 -1.33301 -27.667 -4 -41c-2 -11.333 -5.33301 -20.333 -10 -27c-2.66699 -10 -4 -16.667 -4 -20
c0 -8 7.33301 -22.333 22 -43c41.333 -52 93.333 -78 156 -78c34 0 66 9.33301 96 28s54.667 48 74 88s30.333 89.333 33 148l2 992l-361 -82c-14.667 -9.33301 -22 -18.333 -22 -27c0 -8 5.33301 -15 16 -21c11.333 -6.66699 31.333 -16 60 -28
c29.333 -12.667 54.833 -24.667 76.5 -36s39.167 -24 52.5 -38c31.333 -34 49.666 -66 54.999 -96c0 -37.333 -4.33301 -69.333 -13 -96c-9.33301 -26 -27 -51.333 -53 -76c-24.667 -25.333 -71 -43.666 -139 -54.999c-8 -1.33301 -16 -2 -24 -2h-27c-22 0 -41.667 2 -59 6
c-16.667 4 -32.334 8 -47.001 12c-11.333 6.66699 -21 13 -29 19c-6.66699 2.66699 -13.667 4.66699 -21 6h-2h-6h-10c-4 0 -7.33301 -0.666992 -10 -2c-5.33301 -2.66699 -11.666 -7 -18.999 -13c-5.33301 -5.33301 -10.666 -12 -15.999 -20l-19 -2v198h19
c6 -14.667 12.667 -26.667 20 -36c8 -9.33301 18.667 -19 32 -29s25.333 -19.667 36 -29c39.333 -35.333 86.333 -53 141 -53c44 0 77.667 9 101 27c27.333 22 41 47.667 41 77c-5.33301 49.333 -34 86.333 -86 111c-4 3.33301 -25.667 17.666 -65 42.999
c-39.333 26 -71 51 -95 75c-23.333 23.333 -35 47.666 -35 72.999z" />
    <glyph glyph-name="K" unicode="K" horiz-adv-x="1401" 
d="M473 641l461.001 470.998c2.66699 2.66699 6 6.33398 10 11.001c4.66699 4 9 8.66699 13 14c9.33301 10.667 18 23 26 37c8.66699 12 13 25 13 39v14c-1.33301 4 -3.66602 8 -6.99902 12c-6.66699 16.667 -23 31.667 -49 45c-23.333 12.667 -58 19 -104 19h-15v39h482
v-39c-16.667 0 -32.334 -1.33301 -47.001 -4c-16.667 -4 -32.334 -9.33301 -47.001 -16c-45.333 -19.333 -94 -53.666 -146 -102.999l-207 -207l-84 -86l525 -846h75v-41h-557v41h189l-385 686l-146 -149v-537h144v-41h-531v41h157v1262h-157v39h531v-39h-144v-662z" />
    <glyph glyph-name="L" unicode="L" horiz-adv-x="1184" 
d="M243 41v1262h-157v39h545v-39h-158v-1262h238c10.667 0 21.5 0.666992 32.5 2s22.5 3.33301 34.5 6c71.333 18 139 61 203 129c62.667 68.667 107.667 151.334 135 248.001h39l-63 -426h-1006v41h157z" />
    <glyph glyph-name="M" unicode="M" horiz-adv-x="1735" 
d="M879 303l382 1039h388v-39h-158v-1262h158v-41h-545v41h157v1178l-454 -1244h-37l-475 1234v-998c0 -50.667 7 -89.667 21 -117c12 -27.333 57 -45 135 -53v-41h-365v41h17c39.333 0 69.333 9 90 27c22 20.667 37.667 43 47 67
c5.33301 15.333 8.66602 29.666 9.99902 42.999c1.33301 14 2 25.667 2 35v973c0 38 -8.16699 65.333 -24.5 82s-34.166 27 -53.499 31l-24 4h-23h-37l2 39h387z" />
    <glyph glyph-name="N" unicode="N" horiz-adv-x="1452" 
d="M1147 400l0.00195312 765.997c0 42 -11.667 72.667 -35 92c-24.667 18.667 -51.334 31.667 -80.001 39c-10.667 2.66699 -20.667 4.66699 -30 6h-31v39h395v-39c-70.667 -1.33301 -116.334 -15.666 -137.001 -42.999c-22 -27.333 -34.333 -57.333 -37 -90
c-1.33301 -8.66699 -2 -17 -2 -25v-24v-5v-1139h-14l-871 1160v-911c0 -10 1.33301 -22.333 4 -37c3.33301 -15.333 8.33301 -31 15 -47c9.33301 -26 27 -49.333 53 -70c23.333 -20.667 56 -31 98 -31h9v-41h-398v41h8h5c2.66699 -1.33301 5.33398 -2 8.00098 -2h4
c39.333 1.33301 74.666 15 105.999 41c30 24.667 45 73.334 45 146.001v968c0 27.333 -8.83301 48.5 -26.5 63.5s-37.5 25.833 -59.5 32.5c-12 4.66699 -24 8.33398 -36 11.001c-12.667 1.33301 -23 2 -31 2v39h325z" />
    <glyph glyph-name="O" unicode="O" horiz-adv-x="1497" 
d="M102 672c0 196.667 58.999 354.999 176.999 474.999c116 118.667 243.667 189 383 211l45 4c13.333 1.33301 27 2 41 2c166.667 0 316 -64.667 448 -194c132.667 -130 199 -296 199 -498c0 -190 -52.667 -342.333 -158 -457
c-106.667 -114.667 -223.334 -187 -350.001 -217c-23.333 -7.33301 -46.666 -12.333 -69.999 -15c-22.667 -2.66699 -45.667 -4 -69 -4c-34 0 -70.333 4.33301 -109 13c-39.333 6.66699 -79.666 18.334 -120.999 35.001c-103.333 44.667 -198 119.667 -284 225
c-88 105.333 -132 245.333 -132 420zM747.999 1325c-16.667 0 -33.8301 -1.33301 -51.4971 -4s-35.5 -6.66699 -53.5 -12c-70.667 -22 -135.334 -79.333 -194.001 -172s-88 -247.667 -88 -465c0 -216 29.333 -370.333 88 -463c57.333 -92.667 120.666 -150.667 189.999 -174
c19.333 -6.66699 37.833 -11.334 55.5 -14.001s35.5 -4 53.5 -4c17.333 0 35.666 1.33301 54.999 4c18 2.66699 36.333 7.33398 55 14.001c70 24.667 134.333 83.334 193 176.001c56.667 92.667 85 246.334 85 461.001c0 196.667 -24.5 340.667 -73.5 432
s-102.833 152.666 -161.5 183.999c-27.333 15.333 -54 25.666 -80 30.999c-26.667 4 -51 6 -73 6z" />
    <glyph glyph-name="P" unicode="P" horiz-adv-x="1286" 
d="M243 41v1262h-157v39h590c28.667 0 63.5 -2 104.5 -6s83.5 -13 127.5 -27c72 -22 138.667 -61 200 -117c61.333 -57.333 92 -143.333 92 -258c0 -99.333 -35.333 -190.666 -106 -273.999c-71.333 -84.667 -211.333 -127 -420 -127h-201v-492h158v-41h-545v41h157z
M473 571.999l141.999 -0.00292969c99.333 0 171.5 17.667 216.5 53s75.167 75 90.5 119c6.66699 18.667 11.334 38.334 14.001 59.001c2.66699 19.333 4.66699 36.333 6 51v37v39v12v13v24v25c0 14.667 -0.666992 34.334 -2 59.001c-2.66699 24.667 -8.66699 50 -18 76
c-15.333 40.667 -45.333 78.334 -90 113.001c-46.667 34 -119 51 -217 51h-142v-731z" />
    <glyph glyph-name="Q" unicode="Q" horiz-adv-x="1510" 
d="M508 -174l-20.0029 26c51.333 48 96.333 80.333 135 97c36.667 16 72 26 106 30c-185.333 14 -334.666 88.667 -447.999 224c-115.333 134 -173 290.333 -173 469c0 202 66.333 367.833 199 497.5s281.667 194.5 447 194.5c166.667 0 316 -64.667 448 -194
c132.667 -130 199 -296 199 -498c0 -164 -52.667 -315 -158 -453c-104.667 -139.333 -252 -218.666 -442 -237.999c31.333 -2.66699 65.333 -15 102 -37c36 -21.333 77 -63.666 123 -126.999c5.33301 -6.66699 11.666 -14 18.999 -22c6.66699 -9.33301 14 -18.333 22 -27
c16.667 -18.667 35.334 -36.334 56.001 -53.001c18.667 -16 37.667 -25.667 57 -29c2.66699 -1.33301 5.33398 -2 8.00098 -2h6c2.66699 0 5.33398 0.666992 8.00098 2h9c14.667 4.66699 29 13 43 25c12 12 18 25.667 18 41v12c-1.33301 4 -3 7.33301 -5 10
c-1.33301 4.66699 -3.33301 9.66699 -6 15c-4 4 -8 8.66699 -12 14c-5.33301 6.66699 -10 15 -14 25c-4 8 -6 17.333 -6 28c0 23.333 7.66699 44.666 23 63.999c13.333 19.333 33 29 59 29c5.33301 0 11.166 -0.833008 17.499 -2.5s12.833 -3.83398 19.5 -6.50098
c13.333 -5.33301 25.5 -14.166 36.5 -26.499s16.5 -30.166 16.5 -53.499c0 -66.667 -28 -121.667 -84 -165c-56 -45.333 -117.333 -72.666 -184 -81.999c-10 -1.33301 -19 -2 -27 -2c-9.33301 -1.33301 -18 -2 -26 -2h-13c-5.33301 0 -10 0.666992 -14 2
c-38 2.66699 -78.5 17 -121.5 43s-97.5 76.333 -163.5 151c-4 4 -8 8.83301 -12 14.5s-8.66699 10.5 -14 14.5c-12.667 13.333 -27 25.666 -43 36.999c-18 10.667 -36.667 16 -56 16c-9.33301 0 -18.666 -1.33301 -27.999 -4c-11.333 -2.66699 -23 -6.66699 -35 -12
c-11.333 -5.33301 -22.333 -11 -33 -17c-12 -6.66699 -23 -13.334 -33 -20.001l-2 -2l-4 -4v-2zM753.997 1325c-16.667 0 -33.8311 -1.33203 -51.498 -3.99902s-35.5 -6.66699 -53.5 -12c-70.667 -22 -135.334 -79.333 -194.001 -172s-88 -247.667 -88 -465
c0 -216 29.333 -370.333 88 -463c57.333 -92.667 120.666 -150.667 189.999 -174c19.333 -6.66699 37.833 -11.334 55.5 -14.001s35.5 -4 53.5 -4c16 0 33 1.33301 51 4c16.667 1.33301 33.667 4.66602 51 9.99902c71.333 23.333 136.666 81.333 195.999 174
c60 91.333 90 247 90 467c0 218.667 -30 374.334 -90 467.001c-59.333 92.667 -124.666 150 -195.999 172c-17.333 5.33301 -34.333 9.33301 -51 12c-18 1.33301 -35 2 -51 2z" />
    <glyph glyph-name="R" unicode="R" horiz-adv-x="1680" 
d="M488 -205c7.33301 -2.66699 17.501 -5.66602 30.501 -8.99902s21.833 -5.66602 26.5 -6.99902c5.33301 -1.33301 10.666 -3.66602 15.999 -6.99902c6 -1.33301 11.667 -2.66602 17 -3.99902c80.667 -24 151.667 -58 213 -102c60 -42.667 90 -124.667 90 -246h-33
c-5.33301 42.667 -26.333 72 -63 88c-37.333 16.667 -77.666 29.667 -120.999 39c-4 1.33301 -7.33301 2 -10 2c-3.33301 1.33301 -6.33301 2 -9 2c-10.667 2.66699 -20.667 4.66699 -30 6c-11.333 2.66699 -21.666 5.66699 -30.999 9
c-148.667 39.333 -275.667 105.333 -381 198s-158 271.667 -158 537c0 182 28 316.667 84 404c54.667 87.333 115.667 147 183 179c31.333 14 62 23.667 92 29s57.333 8 82 8h2c123.333 0 228.333 -44 315 -132c38 43.333 79 75.333 123 96
c31.333 13.333 62 22.666 92 27.999s57.333 8 82 8c117.333 0 221 -45.333 311 -136c88.667 -90.667 133 -197.334 133 -320.001c0 -116 -40 -221.667 -120 -317c-17.333 -17.333 -45.833 -43.333 -85.5 -78s-67.167 -56.667 -82.5 -66
c10.667 17.333 22.334 62.666 35.001 135.999s20.667 132.666 24 177.999c2.66699 48.667 4.66699 97.667 6 147c0 50.667 -2 101.334 -6 152.001c-1.33301 14.667 -3.33301 31.667 -6 51c-2.66699 20.667 -6.66699 41 -12 61c-11.333 40 -31.333 76.333 -60 109
c-30 34 -75 51 -135 51c-54.667 0 -96.334 -15 -125.001 -45c-29.333 -31.333 -49.666 -64 -60.999 -98c-5.33301 -20.667 -9.66602 -41.334 -12.999 -62.001c-2.66699 -18.667 -4.66699 -35.667 -6 -51c-4 -51.333 -6 -101.666 -6 -150.999
c2.66699 -62.667 11.667 -116.667 27 -162c-30 -11.333 -73 -17 -129 -17c-40.667 0 -74.334 4.33301 -101.001 13c12 30 18 79.667 18 149c0 50.667 -2 101.334 -6 152.001c-1.33301 14.667 -3.33301 31.667 -6 51c-2.66699 20.667 -6.66699 41 -12 61
c-10.667 40 -30.334 76.333 -59.001 109c-30 34 -75 51 -135 51c-54.667 0 -96.334 -15 -125.001 -45c-15.333 -16 -36 -48.667 -62 -98c-18.667 -34.667 -32.834 -86.834 -42.501 -156.501s-14.5 -146.5 -14.5 -230.5c0 -182.667 18.667 -320 56 -412
c15.333 -54.667 57.333 -99.334 126 -134.001c7.33301 -2.66699 18 -6 32 -10c14 -3.33301 24 -6 30 -8z" />
    <glyph glyph-name="S" unicode="S" horiz-adv-x="1147" 
d="M428 279c0 -86 12.3359 -147.67 37.0029 -185.003c26 -36.667 54 -61 84 -73c10.667 -4 21.5 -6.83301 32.5 -8.5s21.5 -2.5 31.5 -2.5c51.333 0 97.666 21.333 138.999 64c42 40.667 63 93.334 63 158.001v460v9c0 2.66699 -0.666992 5.33398 -2 8.00098
c-4 38 -24.333 74 -61 108c-36.667 32 -80.334 48 -131.001 48c-11.333 0 -23 -1.66699 -35 -5c-10.667 -2.66699 -22.334 -6.66699 -35.001 -12c-31.333 -14.667 -60 -44.667 -86 -90c-24.667 -45.333 -37 -113.666 -37 -204.999v-274zM344.003 1528
c75.333 -4 129.666 -28.999 162.999 -74.999s52.666 -90 57.999 -132c3.33301 28.667 8.66602 50 15.999 64s21.333 37 42 69c24 35.333 58 58 102 68c18.667 2.66699 31 4 37 4c42.667 0 83.5 -12.333 122.5 -37s70.667 -60.334 95 -107.001s36.5 -101 36.5 -163v-627
c0 -182 -27.333 -317.667 -82 -407c-53.333 -88 -112.666 -148.333 -177.999 -181c-31.333 -14 -61.333 -24.333 -90 -31c-26.667 -5.33301 -49.334 -8 -68.001 -8c-91.333 1.33301 -182 47.333 -272 138c-85.333 84.667 -128 196.667 -128 336c0 126.667 42 235 126 325
c84.667 90 185 135 301 135c36.667 0 67.334 -5.33301 92.001 -16s44.334 -23 59.001 -37c10 -8 17.667 -15.333 23 -22c10.667 -11.333 16 -19 16 -23v475c0 56 -7 100 -21 132s-32.667 48 -56 48c-38 0 -74.333 -38.667 -109 -116c-18 -26 -27 -76 -27 -150h-86
c-6.66699 84 -27.167 148 -61.5 192s-73.833 66 -118.5 66c-41.333 0 -77.666 -14.333 -108.999 -43c-10.667 -9.33301 -16 -22.333 -16 -39c0 -8 1.33301 -14.667 4 -20c5.33301 -8.66699 10.666 -19 15.999 -31l8 -16c2.66699 -4 5.66699 -10.333 9 -19
c1.33301 -6.66699 2.66602 -14 3.99902 -22c1.33301 -10 2 -18.333 2 -25c-2.66699 -18 -5.16699 -30.333 -7.5 -37s-9.16602 -15.334 -20.499 -26.001c-19.333 -22 -46.666 -33 -81.999 -33h-17c-34 2.66699 -61.333 18.334 -82 47.001c-13.333 22 -20 50.667 -20 86
c4 59.333 31.333 114 82 164c62.667 62.667 141.667 94 237 94z" />
    <glyph glyph-name="T" unicode="T" horiz-adv-x="1680" 
d="M695 611c-6 76 -21.334 134 -46.001 174c-22.667 38 -47.667 64.667 -75 80c-16.667 9.33301 -33 15.333 -49 18c-15.333 2.66699 -29 4 -41 4c-12.667 0 -26.5 -1.33301 -41.5 -4s-30.5 -8 -46.5 -16c-28.667 -15.333 -55.334 -42 -80.001 -80
c-24.667 -40 -39.667 -98.667 -45 -176c-3.33301 -49.333 -5.66602 -98.666 -6.99902 -147.999c0 -50.667 2.33301 -101 7 -151c1.33301 -15.333 3.33301 -32.833 6 -52.5s6.66699 -39.834 12 -60.501c10.667 -39.333 30.334 -75.666 59.001 -108.999
c30 -34 75.333 -51 136 -51c54 0 95.5 15 124.5 45s49.5 63 61.5 99c9.33301 25.333 15.333 50.333 18 75c2.66699 23.333 5 41.333 7 54c2.66699 50 4 100.333 4 151c0 49.333 -1.33301 98.666 -4 147.999zM841.999 223
c-54.667 -87.333 -115.336 -147.329 -182.003 -179.996c-31.333 -13.333 -62.166 -22.833 -92.499 -28.5s-57.5 -8.5 -81.5 -8.5c-118 0 -222 46 -312 138c-88.667 90 -133 196.333 -133 319c0 116 40.333 222 121 318c82 93.333 190 140 324 140h2
c123.333 0 228.333 -44 315 -132c38 43.333 79 75.333 123 96c31.333 13.333 62 22.666 92 27.999s57.333 8 82 8c117.333 0 221 -45.333 311 -136c88.667 -90.667 133 -197.334 133 -320.001c0 -116 -40 -221.667 -120 -317c-17.333 -17.333 -45.833 -43.333 -85.5 -78
s-67.167 -56.667 -82.5 -66c10.667 17.333 22.334 62.666 35.001 135.999s20.667 132.666 24 177.999c2.66699 48.667 4.66699 97.667 6 147c0 50.667 -2 101.334 -6 152.001c-1.33301 14.667 -3.33301 31.667 -6 51c-2.66699 20.667 -6.66699 41 -12 61
c-11.333 40 -31.333 76.333 -60 109c-30 34 -75 51 -135 51c-54.667 0 -96.334 -15 -125.001 -45c-29.333 -31.333 -49.666 -64 -60.999 -98c-5.33301 -20.667 -9.66602 -41.334 -12.999 -62.001c-2.66699 -18.667 -4.66699 -35.667 -6 -51
c-1.33301 -16.667 -2.33301 -41.667 -3 -75c-0.666992 -34 -1.66699 -59.333 -3 -76c-4 -62 -8.83301 -112 -14.5 -150s-17.167 -74.333 -34.5 -109z" />
    <glyph glyph-name="U" unicode="U" horiz-adv-x="1497" 
d="M1233 1116v-741.001c0 -125.333 -44.333 -222.333 -133 -291c-90 -70 -198 -105 -324 -105c-28.667 0 -60 2 -94 6c-34 2.66699 -68 7.33398 -102 14.001c-84.667 22.667 -162 62.667 -232 120c-70 56 -105 141.333 -105 256v928h-157v39h545v-39h-158v-960
c0 -98.667 34.333 -174 103 -226c66.667 -53.333 152.667 -80 258 -80c114.667 0 196.667 22 246 66c48.667 42 80.667 89 96 141c8 30 12.667 59.333 14 88c1.33301 27.333 2 51.333 2 72v8v6v739c0 57.333 -15 95 -45 113c-30 16.667 -74.333 27.667 -133 33v39h397v-39
c-68 -4 -114.333 -15.667 -139 -35c-26 -19.333 -39 -70 -39 -152z" />
    <glyph glyph-name="V" unicode="V" horiz-adv-x="1342" 
d="M28 1342h571.999v-39h-162l347 -946l280 739c8 20.667 14.333 39.667 19 57c2.66699 16.667 4 31.667 4 45c0 40 -12.333 67.333 -37 82c-26 14 -56 21.667 -90 23v39h352v-39c-53.333 -1.33301 -93 -17 -119 -47c-27.333 -31.333 -51.666 -75 -72.999 -131l-431 -1148
l-524 1326h-138v39z" />
    <glyph glyph-name="W" unicode="W" horiz-adv-x="1024" 
d="M565 578c-66.667 -104 -107.329 -166.329 -121.996 -186.996c-24.667 -32.667 -51 -56.667 -79 -72c-17.333 -10.667 -41 -16 -71 -16c-41.333 4.66699 -87 28 -137 70c-26.667 22 -47 46.667 -61 74c-16.667 28 -29 64 -37 108c-3.33301 20 -5 37 -5 51
c0 70 18.667 128.333 56 175c52 62 103.667 96 155 102c14 1.33301 27 2 39 2c37.333 0 69.666 -8.33301 96.999 -25c31.333 -21.333 51 -46.333 59 -75c2.66699 -11.333 4 -21 4 -29c0 -14 -3.33301 -25.667 -10 -35c-8 -10.667 -21 -16 -39 -16h-8
c-16.667 0 -32.334 3.33301 -47.001 10h-2c-6 22 -13 41 -21 57c-12 14 -23 23.667 -33 29c-10 4 -20 6 -30 6c-36 0 -70.667 -21 -104 -63s-50 -90.667 -50 -146c4.66699 -50 18.667 -88.333 42 -115s47.666 -43 72.999 -49c30 0 55.833 13.333 77.5 40
s42.667 61.5 63 104.5s32.833 67.5 37.5 73.5c27.333 28.667 61.333 47 102 55c58.667 0 105.667 -12.333 141 -37l1 805h-129v35h202c27.333 0 50 0.666992 68 2c16 1.33301 31.667 3.33301 47 6l8 4h2v-1645c0 -105.333 -31.333 -187.333 -94 -246
c-30 -28 -72.5 -53.333 -127.5 -76s-115.5 -34 -181.5 -34c-48 0 -96.667 6.66699 -146 20c-62 17.333 -115.667 53.666 -161 108.999c-37.333 41.333 -56 80.666 -56 117.999c0 27.333 10.333 50 31 68c19.333 18 44.666 27 75.999 27c30 0 53.5 -8.33301 70.5 -25
s26.167 -34.334 27.5 -53.001c0 -14 -1.33301 -27.667 -4 -41c-2.66699 -11.333 -6 -20.333 -10 -27c-2.66699 -11.333 -4 -18 -4 -20c0 -8.66699 7.33301 -23 22 -43c41.333 -52 93.333 -78 156 -78c33.333 0 64.833 9.33301 94.5 28s54.167 47.667 73.5 87
c18.667 40 29.334 89.667 32.001 149v756c-18.667 7.33301 -30 11.666 -34 12.999h-4c-20.667 0 -37.334 -10.333 -50.001 -31z" />
    <glyph glyph-name="X" unicode="X" horiz-adv-x="1434" 
d="M746 838l205 312.999c2.66699 4 5.33398 10.167 8.00098 18.5s4.66699 16.5 6 24.5l4 21v16v8c-1.33301 1.33301 -2 3.33301 -2 6c-5.33301 14 -17.666 27 -36.999 39c-20.667 12.667 -47.334 19 -80.001 19h-28l-1 39h450l-1 -39c-52 -4 -94.333 -12.833 -127 -26.5
s-63.334 -36.167 -92.001 -67.5c-9.33301 -10.667 -19 -23 -29 -37l-31 -45l-214 -332l494 -754h118v-41h-544v41h159l-381 574l-238 -367c-1.33301 -1.33301 -2.66602 -3.33301 -3.99902 -6l-4 -8c-2.66699 -5.33301 -5.33398 -11.666 -8.00098 -18.999
c-2.66699 -6.66699 -4.66699 -14 -6 -22c-2.66699 -5.33301 -4 -11 -4 -17c-1.33301 -5.33301 -2 -10.666 -2 -15.999c0 -6.66699 0.666992 -13.5 2 -20.5s3.33301 -13.833 6 -20.5c8 -18 23.667 -34.333 47 -49c22 -16.667 56.667 -26.334 104 -29.001v-41h-471v41
c64.667 15.333 116.667 35.333 156 60c38 24 73.333 61.333 106 112l291 445l-434 645h-119v39h525v-39h-134z" />
    <glyph glyph-name="Y" unicode="Y" horiz-adv-x="690" 
d="M41 873l167.999 0.00292969v289l201 71v-360h178v-35h-178v-674v-4v-4v-8c0 -4 0.666992 -10.333 2 -19c2.66699 -30 9.16699 -50.5 19.5 -61.5s21.5 -17.833 33.5 -20.5c4 -1.33301 8.66699 -2 14 -2h13h4c9.33301 0 25.666 3.66699 48.999 11
c23.333 5.33301 51.333 21.666 84 48.999l20 -25c-21.333 -20.667 -45 -38.5 -71 -53.5s-52 -26.5 -78 -34.5c-15.333 -4.66699 -29.666 -8.33398 -42.999 -11.001c-15.333 -2.66699 -29.666 -4 -42.999 -4c-83.333 0 -138 22.333 -164 67
c-27.333 43.333 -41 98.666 -41 165.999v628h-168v35z" />
    <glyph glyph-name="Z" unicode="Z" horiz-adv-x="1024" 
d="M305 281c0 -84.667 12.3359 -145.335 37.0029 -182.002c26 -37.333 54 -62 84 -74c11.333 -4 22.333 -6.66699 33 -8s21 -2 31 -2c52 0 98.333 21 139 63c42 41.333 63 93.333 63 156v456v9c0 2.66699 -0.666992 5.33398 -2 8.00098c-4 38 -24.333 73.333 -61 106
c-36.667 31.333 -80.334 47 -131.001 47c-10.667 0 -22.334 -1.33301 -35.001 -4c-10.667 -2.66699 -22.334 -6.66699 -35.001 -12c-31.333 -15.333 -60 -44.666 -86 -87.999c-24.667 -45.333 -37 -113 -37 -203v-272zM893.003 1522l-0.00292969 -930.003
c0 -182 -27.333 -316.333 -82 -403c-53.333 -87.333 -112.666 -147.666 -177.999 -180.999c-31.333 -14 -61.333 -23.667 -90 -29c-27.333 -5.33301 -50 -8 -68 -8c-93.333 2 -184 47.333 -272 136c-84.667 83.333 -127 194 -127 332c0 125.333 41.667 233 125 323
c84.667 88.667 185 133 301 133c36.667 0 67.334 -5.5 92.001 -16.5s44.667 -23.167 60 -36.5c9.33301 -8 16.666 -15.667 21.999 -23c1.33301 -1.33301 4 -5 8 -11s6.66699 -9 8 -9v676h-131v35h203c27.333 0 50 0.666992 68 2c16 1.33301 31.667 3.33301 47 6
c0.666992 0.666992 2.33398 1.33398 5.00098 2.00098s4.33398 1.33398 5.00098 2.00098h4z" />
    <glyph glyph-name="bracketleft" unicode="[" horiz-adv-x="914" 
d="M770 -385v-51h-426v1778h426v-49h-217v-1678h217z" />
    <glyph glyph-name="backslash" unicode="\" 
d="M946 -144h-143l-660 1721h144z" />
    <glyph glyph-name="bracketright" unicode="]" horiz-adv-x="914" 
d="M144 -385h219v1678h-219v49h426v-1778h-426v51z" />
    <glyph glyph-name="asciicircum" unicode="^" horiz-adv-x="746" 
d="M373 1176l-166 -166h-172l338 338l338 -338h-172z" />
    <glyph glyph-name="underscore" unicode="_" 
d="M0 -402v144h1090v-144h-1090z" />
    <glyph glyph-name="grave" unicode="`" horiz-adv-x="451" 
d="M250 1342l199 -281h-51l-396 281h248z" />
    <glyph glyph-name="a" unicode="a" horiz-adv-x="922" 
d="M699 72c-55.333 -58 -143.668 -87 -265.001 -87c-58 0 -115.5 7.5 -172.5 22.5s-101.167 33.833 -132.5 56.5c-30.667 22 -52.5 44.667 -65.5 68s-23.167 52.333 -30.5 87c0 34 5.33301 60 16 78c16.667 30 42 48.667 76 56c10 1.33301 19 2 27 2c30 0 54.667 -9 74 -27
c12 -9.33301 19.833 -17.5 23.5 -24.5s7.16699 -18.5 10.5 -34.5v-13c0.666992 -2 1 -4 1 -6c0 -2.66699 -0.333008 -5.33398 -1 -8.00098c0 -8 -1.33301 -16.333 -4 -25c-1.33301 -6.66699 -2.66602 -12.667 -3.99902 -18l-4 -16c-5.33301 -14 -10 -25 -14 -33
c-2.66699 -5.33301 -4 -10.333 -4 -15c0 -12 6.66699 -22.667 20 -32c45.333 -38 102 -60.667 170 -68c56 0 102.333 11.667 139 35c32 18.667 51.333 49.334 58 92.001l5 31c3.33301 20.667 5 39.667 5 57c0 50.667 -11.333 87.667 -34 111
c-16 18.667 -32.333 34.167 -49 46.5s-37 25.333 -61 39l-56 32.5c-12 8 -31.667 19.5 -59 34.5s-48.666 27.5 -63.999 37.5c-14.667 10 -28 21.667 -40 35c-31.333 33.333 -47 87.333 -47 162c0 68 17.333 121.333 52 160c27.333 30 52.333 45 75 45
c10.667 0 17 -5.66699 19 -17c-30 -27.333 -45.667 -57.333 -47 -90v-2v-4c0 -32.667 7.33301 -58.667 22 -78c15.333 -20.667 31.666 -35.667 48.999 -45c22.667 -20 66.667 -50.333 132 -91s111 -70 137 -88c26.667 -17.333 54.667 -41 84 -71
c32 -32 50.333 -77.667 55 -137c0 -114 -32 -200 -96 -258z" />
    <glyph glyph-name="b" unicode="b" horiz-adv-x="1065" 
d="M277 584c-1.33301 -26 -2 -51.335 -2 -76.002v-78c0 -139.333 13 -243.666 39 -312.999s84.667 -104 176 -104c82 0 137.833 32 167.5 96s44.5 171.667 44.5 323v4v3c0 104.667 -10 201.334 -30 290.001c-22 87.333 -82.667 131 -182 131h-11c-4 0 -8 -0.666992 -12 -2
c-46 -4 -88.333 -26.333 -127 -67c-38 -42.667 -59 -111.667 -63 -207zM131 1430c25.333 -12 82.665 -21.3271 171.998 -27.9941s159.5 -17.334 210.5 -32.001s82.167 -45.334 93.5 -92.001c6.66699 -28.667 10 -88.667 10 -180c0 -26 -0.333008 -62.667 -1 -110
c-0.666992 -46.667 -1 -78.334 -1 -95.001c48 -17.333 85.167 -36.833 111.5 -58.5s53.5 -47.834 81.5 -78.501c82.667 -94 124 -200.667 124 -320c0 -118.667 -41.667 -224.334 -125 -317.001s-189.666 -139 -318.999 -139c-130 0 -236 46.333 -318 139
c-83.333 91.333 -125 197 -125 317c0 123.333 42.333 230.666 127 321.999c68.667 75.333 153.334 120.333 254.001 135v320c-6 46 -40.667 69 -104 69c-16 0 -40.333 -1.66699 -73 -5s-55.667 -5 -69 -5c-22 0 -38.333 3.33301 -49 10c-58.667 36 -88 113.333 -88 232h33
c6 -42.667 24.333 -70.667 55 -84z" />
    <glyph glyph-name="c" unicode="c" horiz-adv-x="1045" 
d="M699 232c0 27.333 -37.668 40.999 -113.001 40.999h-84v33h94h5c62 0 94.667 12 98 36v277c-8.66699 54.667 -13 90 -13 106c0 53.333 17.333 95 52 125c28 23.333 53 35 75 35c10.667 0 17 -4 19 -12c-30 -22 -45.667 -45.333 -47 -70v-2v-4
c0 -28 7.66699 -48.667 23 -62c34 -30 59 -56.833 75 -80.5s25.833 -44 29.5 -61s5.5 -38.5 5.5 -64.5c0 -49.333 -11.667 -92 -35 -128c-23.333 -35.333 -58.666 -70.666 -105.999 -105.999c90 -107.333 135 -214 135 -320c0 -127.333 -38.333 -233 -115 -317
c-83.333 -93.333 -190 -140 -320 -140c-129.333 0 -235 46.667 -317 140c-80.667 88.667 -121 194.334 -121 317.001c0 272 0.666992 440 2 504c10 104 53 199.667 129 287c76 86 182 129 318 129l-31 -35c-45.333 -2 -88.333 -21 -129 -57
c-39.333 -36.667 -59 -114.334 -59 -233.001c-3.33301 -32.667 -5 -207 -5 -523v-78c0 -139.333 13 -243.833 39 -313.5s84.667 -104.5 176 -104.5c82 0 138 32 168 96c34.667 70.667 52 178.667 52 324v261z" />
    <glyph glyph-name="d" unicode="d" horiz-adv-x="1065" 
d="M848 -580c-5.33301 42.667 -26.335 71.998 -63.002 87.998c-37.333 16.667 -77.666 29.667 -120.999 39c-4 1.33301 -7.33301 2 -10 2c-3.33301 1.33301 -6.33301 2 -9 2c-10.667 2.66699 -20.667 4.66699 -30 6c-11.333 2.66699 -21.666 5.66699 -30.999 9
c-148.667 39.333 -275.667 105.333 -381 198s-158 271.667 -158 537c0 182 28 316.667 84 404c54.667 87.333 115.667 147 183 179c31.333 14 62 23.667 92 29s57.333 8 82 8c117.333 0 221 -45.333 311 -136c88.667 -90.667 133 -197.334 133 -320.001
c0 -116 -40.333 -221.667 -121 -317c-82 -94.667 -189.667 -142 -323 -142c-26 0 -54.667 3.66699 -86 11c-33.333 8 -66.333 21 -99 39c-35.333 20 -70 48 -104 84c-34 36.667 -64.667 83.667 -92 141h-19v-25c0 -144.667 34.333 -247 103 -307
c70.667 -63.333 149.667 -108.666 237 -135.999c20.667 -6.66699 41.334 -12.667 62.001 -18l57 -16c5.33301 -1.33301 10.666 -3.66602 15.999 -6.99902c6 -1.33301 11.667 -2.66602 17 -3.99902c82 -24.667 153 -58.667 213 -102c60 -42.667 90 -124.667 90 -246h-33z
M276.998 317.998c5.33301 -76.667 20.335 -134.668 45.002 -174.001c23.333 -38.667 48.666 -65.334 75.999 -80.001c16 -10 32.333 -16.333 49 -19c14.667 -2.66699 28.334 -4 41.001 -4c12 0 25.5 1.33301 40.5 4s30.833 8.33398 47.5 17.001
c28.667 14.667 55.334 41.334 80.001 80.001c24 39.333 38.667 98 44 176c2.66699 48.667 4.66699 97.667 6 147c0 50.667 -2 101.334 -6 152.001c-1.33301 14.667 -3.33301 31.667 -6 51c-2.66699 20.667 -6.66699 41 -12 61c-10.667 40 -30.334 76.333 -59.001 109
c-30 34 -75 51 -135 51c-54.667 0 -96.334 -15 -125.001 -45s-49.334 -62.667 -62.001 -98c-9.33301 -26 -15.333 -51.333 -18 -76l-6 -53c-2.66699 -50.667 -4 -101.334 -4 -152.001c0 -49.333 1.33301 -98.333 4 -147z" />
    <glyph glyph-name="e" unicode="e" horiz-adv-x="942" 
d="M432 920c118 0 215.665 -45.665 292.998 -136.998c36.667 -42 61 -88 73 -138c11.333 -49.333 17 -110 17 -182l-2 -586c0 -105.333 -31.333 -187.333 -94 -246c-30 -28 -72.5 -53.333 -127.5 -76s-115.5 -34 -181.5 -34c-48 0 -96.667 6.66699 -146 20
c-62 17.333 -115.667 53.666 -161 108.999c-37.333 41.333 -56 80.666 -56 117.999c0 27.333 10.333 50 31 68c19.333 18 44.666 27 75.999 27c30 0 54 -8.33301 72 -25c16 -16.667 24.667 -34.334 26 -53.001c0 -14 -1.33301 -27.667 -4 -41
c-2 -10.667 -5.33301 -19.667 -10 -27c-2.66699 -11.333 -4 -18 -4 -20c0 -8 7.33301 -22.333 22 -43c41.333 -52 93.333 -78 156 -78c33.333 0 64.833 9.33301 94.5 28s54.167 47.667 73.5 87c18.667 40 29.667 89.667 33 149l1 703l-2 129c0 10.667 -1 25 -3 43
s-7 36.333 -15 55c-10.667 28.667 -29 55.334 -55 80.001c-26 23.333 -65 35 -117 35c-38.667 0 -78 -15.667 -118 -47c-40 -30.667 -64.667 -63.334 -74 -98.001c0 -7.33301 3.33301 -15 10 -23s13.334 -18.333 20.001 -31c2.66699 -5.33301 5.66699 -10 9 -14
c2.66699 -5.33301 5.33398 -11.5 8.00098 -18.5s5.33398 -14.5 8.00098 -22.5s4 -16.333 4 -25c0 -39.333 -7.66699 -68 -23 -86c-20 -27.333 -51.333 -41 -94 -41c-35.333 0 -64 13 -86 39c-18.667 25.333 -28 57 -28 95c0 33.333 4.33301 63 13 89s26 53 52 81
c36 37.333 77 69.333 123 96s108 40.334 186 41.001z" />
    <glyph glyph-name="f" unicode="f" horiz-adv-x="1372" 
d="M1043 439c2.66699 51.333 3.99902 90.6768 3.99902 118.01c-0.666992 13.333 -1.33398 33.666 -2.00098 60.999c-0.666992 26.667 -1.5 46.5 -2.5 59.5s-2.83301 26.833 -5.5 41.5c-2 16.667 -5.66699 33 -11 49c-8 31.333 -23.667 60 -47 86
c-23.333 27.333 -56 41 -98 41c-44 0 -76.667 -11.667 -98 -35c-24.667 -24 -41.334 -50.333 -50.001 -79c-5.33301 -16.667 -8.66602 -33.334 -9.99902 -50.001c-2.66699 -14.667 -4.66699 -28.334 -6 -41.001c-0.666992 -26.667 -1 -49.334 -1 -68.001s-1 -36 -3 -52
c-5.33301 -96.667 -18.333 -165.667 -39 -207c-43.333 -69.333 -91.666 -117 -144.999 -143c-26 -10.667 -50.667 -18.334 -74 -23.001c-24.667 -5.33301 -46.667 -8 -66 -8c-94 0 -177.333 36.667 -250 110c-71.333 72.667 -107 158 -107 256c0 93.333 32.333 178 97 254
c66 74.667 152.667 112 260 112h2c98 0 182 -35.333 252 -106c30 36 63 62 99 78c24 10.667 48.333 18 73 22c23.333 4 45.333 6 66 6c92.667 0 175.334 -36.667 248.001 -110c70.667 -70.667 106 -155.334 106 -254.001c0 -92.667 -32 -177.334 -96 -254.001l-33.5 -36
c-10.333 -11.333 -24 -24 -41 -38s-38.5 -28 -64.5 -42c-29.333 -6 -48 -9 -56 -9l-2 -10c70.667 -7.33301 128.667 -29.666 174 -66.999c56 -46.667 84 -107 84 -181c0 -20.667 -1.33301 -35 -4 -43c-2 -48 -13.667 -94 -35 -138c-22 -43.333 -51.333 -79.333 -88 -108
c-52 -40.667 -114 -72.667 -186 -96s-147 -35 -225 -35c-88 0 -172.667 13.667 -254 41c-40.667 13.333 -94.667 49.666 -162 108.999c-37.333 32 -56 71.333 -56 118c0 27.333 10.333 50 31 68c19.333 18 44.666 27 75.999 27c30 0 54 -8.33301 72 -25
c16 -16.667 24.667 -34.334 26 -53.001c0 -12.667 -1.33301 -26.334 -4 -41.001c-2.66699 -11.333 -6 -20.333 -10 -27c-2.66699 -11.333 -4 -18 -4 -20c0 -14.667 7.33301 -29 22 -43c73.333 -74 160.333 -111 261 -111c54.667 0 107 12.667 157 38
c50 26 93.167 65 129.5 117s60.833 115.667 73.5 191c0 62 -10.667 113.833 -32 155.5s-44 69.167 -68 82.5c-32.667 20.667 -70.334 31 -113.001 31h-84v33h94c33.333 0 68.333 10.333 105 31c30.667 16.667 57.334 46.667 80.001 90s36.334 85.666 41.001 126.999z
M384.999 223.011c40 0 68.6641 9.66895 85.9971 29.002c22 23.333 38.333 49.333 49 78c7.33301 20.667 12 41 14 61c1.33301 18 2.66602 32.333 3.99902 43c2.66699 40 4 80.333 4 121c0 40 -1.33301 79 -4 117c-3.33301 61.333 -14.666 107.666 -33.999 138.999
s-39.666 53.333 -60.999 66c-21.333 8 -40 12 -56 12c-15.333 0 -33.666 -4 -54.999 -12c-19.333 -8 -40.333 -29.333 -63 -64c-20 -31.333 -32 -78.333 -36 -141c-2.66699 -38 -4.66699 -77 -6 -117c0 -40.667 2 -81 6 -121c0 -12 1.33301 -25.833 4 -41.5
s6.33398 -31.834 11.001 -48.501c8 -32.667 23.667 -62 47 -88c16.667 -18 46.667 -29 90 -33z" />
    <glyph glyph-name="g" unicode="g" horiz-adv-x="1045" 
d="M266 123c-1.33301 -26 -2 -51.3311 -2 -75.998v-78c0 -139.333 13 -243.833 39 -313.5s84.667 -104.5 176 -104.5c82 0 138 32 168 96c30 64.667 45 172.667 45 324v4v2c0 105.333 -10 202.666 -30 291.999c-22 87.333 -83 131 -183 131h-10c-4 0 -8 -0.666992 -12 -2
c-46.667 -4.66699 -89 -27.334 -127 -68.001c-38 -42.667 -59.333 -111.667 -64 -207zM346 922.002c80.667 0 142.331 -15.499 184.998 -46.499s70.667 -70.5 84 -118.5s20 -105 20 -171c0 -19.333 -0.666992 -47.666 -2 -84.999c-1.33301 -36.667 -2 -63 -2 -79
c74.667 -40.667 130 -83 166 -127c83.333 -99.333 125 -206 125 -320c0 -118.667 -41.667 -224.5 -125 -317.5s-190 -139.5 -320 -139.5c-129.333 0 -235 46.667 -317 140c-83.333 91.333 -125 197 -125 317c0 123.333 42.333 230.666 127 321.999
c36 40 79.667 73.667 131 101c50.667 28 102.334 43 155.001 45v161v15v12c0 65.333 -6.66699 125.333 -20 180c-12 54.667 -46 82 -102 82h-4h-2c-19.333 -1.33301 -37.333 -6.66602 -54 -15.999c-16 -10 -24 -21.667 -24 -35c0 -10.667 1.33301 -19.667 4 -27
c4 -6.66699 9.33301 -13.334 16 -20.001l2 -2c1.33301 -1.33301 3 -2 5 -2c9.33301 -8.66699 17.333 -17.667 24 -27c8 -10.667 12 -25.667 12 -45c0 -22 -8 -40.333 -24 -55c-15.333 -16.667 -36.666 -25 -63.999 -25c-21.333 0 -38.333 5.66699 -51 17
c-10.667 9.33301 -18.667 20 -24 32c-4.66699 10 -7.66699 19 -9 27s-2 14 -2 18c0 55.333 18.667 97.666 56 126.999c49.333 41.333 102.333 62 159 62z" />
    <glyph glyph-name="h" unicode="h" horiz-adv-x="881" 
d="M522 512c-3.33301 12 -16.001 25.666 -38.001 40.999c-16.667 14.667 -53 22 -109 22h-68v58h70c68 0 105.667 9 113 27c10.667 18 16 47.333 16 88c0 38.667 -6.66699 66 -20 82c-4 11.333 -17 25 -39 41c-16.667 14.667 -53 22 -109 22h-37v58h39
c55.333 0 93 8.66699 113 26c35.333 28 53 69.667 53 125c0 31.333 -5.66699 60.333 -17 87s-24.666 43.334 -39.999 50.001c-31.333 13.333 -62 21 -92 23c-36 12 -64.5 28.833 -85.5 50.5s-33.5 57.5 -37.5 107.5c0 29.333 8 53 24 71c15.333 19.333 36.666 29 63.999 29
h8c22 0 40.333 -6.33301 55 -19c14 -10.667 25 -32.334 33 -65.001c0 -39.333 -16.333 -69.333 -49 -90c-5.33301 -4 -8 -9 -8 -15c0 -6.66699 5.33301 -14 16 -22c78 0 141.667 -16.333 191 -49c49.333 -34.667 75 -81 77 -139c0 -42.667 -10.667 -79 -32 -109
c-16.667 -24 -36.667 -43.667 -60 -59c-13.333 -10 -28.333 -17.667 -45 -23c-14.667 -1.33301 -29 -4 -43 -8v-8c62.667 -2.66699 110.667 -20 144 -52c30 -26.667 48.333 -59.334 55 -98.001c0 -34 -6.66699 -66.333 -20 -97s-32 -51 -56 -61
c-9.33301 -5.33301 -23.666 -8 -42.999 -8v-8c76 -28.667 127.667 -63 155 -103c28 -40.667 45.333 -97.667 52 -171c-1.33301 -51.333 -9.16602 -94.166 -23.499 -128.499s-37.833 -66.833 -70.5 -97.5c-80.667 -74 -172.334 -111 -275.001 -111
c-44 0 -90.333 6.66699 -139 20c-62.667 18.667 -116.667 55.334 -162 110.001c-36.667 41.333 -55 81 -55 119c0 27.333 10.333 49.666 31 66.999c18.667 18 43.667 27 75 27c30 0 54 -8.33301 72 -25c16.667 -16 25.667 -33.667 27 -53c0 -14 -1.33301 -27.667 -4 -41
c-2 -9.33301 -5.66699 -18.333 -11 -27c-2.66699 -5.33301 -4 -12.666 -4 -21.999c0 -13.333 6.33301 -29 19 -47c30.667 -49.333 75.667 -74 135 -74c47.333 0 87.833 21.667 121.5 65s50.5 110.333 50.5 201c1.33301 22 2 51.333 2 88c0 57.333 -6.33301 99 -19 125z" />
    <glyph glyph-name="i" unicode="i" horiz-adv-x="1065" 
d="M486 921c117.333 0 221.002 -45.333 311.002 -136c88.667 -90.667 133 -197.334 133 -320.001c0 -116 -40.333 -221.667 -121 -317c-21.333 -21.333 -50.166 -48 -86.499 -80s-63.5 -53.333 -81.5 -64c11.333 17.333 23 61.333 35 132s20 131.334 24 182.001
c2.66699 48.667 4.66699 97.667 6 147c0 50.667 -2 101.334 -6 152.001c-1.33301 14.667 -3.33301 31.667 -6 51c-2.66699 20.667 -6.66699 41 -12 61c-10.667 40 -30.334 76.333 -59.001 109c-30 34 -75 51 -135 51c-63.333 0 -110 -17 -140 -51
c-28.667 -32.667 -48.334 -69 -59.001 -109c-5.33301 -20 -9.33301 -40.333 -12 -61c-2.66699 -19.333 -4.66699 -36.333 -6 -51c-4.66699 -50.667 -7 -101.334 -7 -152.001c1.33301 -49.333 3.66602 -98.333 6.99902 -147c4 -48.667 12 -108.667 24 -180
s23.667 -116 35 -134c-18 11.333 -45 32.666 -81 63.999c-36.667 32 -65.667 58.667 -87 80c-80.667 95.333 -121 201 -121 317c0 122.667 44.333 229.334 133 320.001c90 90.667 194 136 312 136z" />
    <glyph glyph-name="j" unicode="j" horiz-adv-x="1168" 
d="M744 750c6.66699 9.33301 13.335 20.3359 20.002 33.0029c6.66699 10.667 10 25.667 10 45c0 17.333 -7.33301 33 -22 47c-15.333 10.667 -40 16 -74 16h-12v35h355v-35h-31c-9.33301 0 -19 -1.33301 -29 -4c-9.33301 -2.66699 -18.666 -6 -27.999 -10
c-23.333 -10 -45.333 -24.333 -66 -43c-22 -19.333 -41 -40 -57 -62l-191 -266l330 -471h92v-35h-453v35h119l-242 340l-129 -178c-2.66699 -4.66699 -10.334 -17.334 -23.001 -38.001s-22.5 -37.5 -29.5 -50.5s-10.5 -23.167 -10.5 -30.5c0 -27.333 6 -47.833 18 -61.5
s24.333 -24.167 37 -31.5c18 -15.333 44 -32 78 -50c34.667 -18.667 66 -41.334 94 -68.001c26 -25.333 43.667 -59 53 -101c2.66699 -13.333 4 -25.666 4 -36.999c0 -47.333 -22.333 -91 -67 -131c-26.667 -24.667 -75.334 -43 -146.001 -55
c-9.33301 -1.33301 -18 -2 -26 -2h-29c-23.333 0 -43.833 2 -61.5 6s-34.167 8 -49.5 12c-12 7.33301 -22 13.666 -30 18.999c-8.66699 2.66699 -16.334 4.66699 -23.001 6h-2h-6h-10c-4 0 -7.33301 -0.666992 -10 -2c-7.33301 -2.66699 -14.333 -6.66699 -21 -12
c-6 -6 -11.667 -13 -17 -21l-20 -2v199h21c16 -40 46.667 -78.333 92 -115c40.667 -35.333 89.667 -53 147 -53c46 0 81.667 8.66699 107 26c28.667 22 43 48 43 78c-0.666992 3.33301 -1.66699 10.666 -3 21.999c-0.666992 10.667 -1.66699 17.667 -3 21
c-13.333 39.333 -41.333 68.666 -84 87.999c-12.667 6.66699 -29 14.834 -49 24.501s-36 18.167 -48 25.5c-11.333 8 -21 17.333 -29 28c-23.333 23.333 -35 62.333 -35 117c0 40 13 79 39 117l208 287l-320 467h-109v35h445v-35h-92l231 -334z" />
    <glyph glyph-name="k" unicode="k" horiz-adv-x="860" 
d="M752 -123c-6 -51.333 -16.9961 -92.498 -32.9961 -123.498s-40 -66.5 -72 -106.5c-27.333 -35.333 -65.5 -63.833 -114.5 -85.5s-105.5 -32.5 -169.5 -32.5c-36.667 0 -76.334 4 -119.001 12c-56.667 11.333 -110.667 47.666 -162 108.999
c-36.667 41.333 -55 80.666 -55 117.999c0 27.333 10.333 50 31 68c18.667 18 43.667 27 75 27c30 0 54 -8.33301 72 -25c16.667 -16.667 25.667 -34.334 27 -53.001c0 -14 -1.33301 -27.667 -4 -41c-2 -10.667 -5.66699 -19.667 -11 -27c-5.33301 -12.667 -8 -25 -8 -37
c0 -12.667 2.66699 -23.667 8 -33c22 -50 62.333 -75 121 -75c48.667 0 92 22.667 130 68s59 112 63 200l2 185c-4 130.667 -31.333 211 -82 241c-33.333 20.667 -71 31 -113 31h-84v33c60 10.667 95.667 21 107 31c15.333 14 32.333 44 51 90c14.667 42 22 101.333 22 178
c0 72 -6.66699 124.667 -20 158c-8 27.333 -23.667 51.666 -47 72.999c-24 22 -62.333 33 -115 33c-17.333 2 -26 6 -26 12c0 12.667 18.333 19 55 19c124.667 0 216.667 -24 276 -72c37.333 -29.333 61 -60.666 71 -93.999s16.333 -75.666 19 -126.999
c0 -30.667 -5.33301 -63.334 -16 -98.001c-10.667 -34 -24.334 -62.667 -41.001 -86c-36 -50.667 -70 -83.667 -102 -99c-20.667 -9.33301 -40.667 -16.666 -60 -21.999c0 -8.66699 15 -15 45 -19c82 -8 143 -31.667 183 -71c27.333 -28 49.166 -56.5 65.499 -85.5
s27.166 -73.5 32.499 -133.5z" />
    <glyph glyph-name="l" unicode="l" horiz-adv-x="1065" 
d="M300 -53c15.333 -54.667 57.334 -99.335 126.001 -134.002c7.33301 -2.66699 18 -6 32 -10c14 -3.33301 24 -6 30 -8l57 -16c5.33301 -1.33301 10.666 -3.66602 15.999 -6.99902c6 -1.33301 11.667 -2.66602 17 -3.99902c80.667 -24 151.667 -58 213 -102
c60 -42.667 90 -124.667 90 -246h-33c-5.33301 42.667 -26.333 72 -63 88c-37.333 16.667 -77.666 29.667 -120.999 39c-4 1.33301 -7.33301 2 -10 2c-3.33301 1.33301 -6.33301 2 -9 2c-10.667 2.66699 -20.667 4.66699 -30 6c-11.333 2.66699 -21.666 5.66699 -30.999 9
c-148.667 39.333 -275.667 105.333 -381 198s-158 271.667 -158 537c0 182 28 316.667 84 404c54.667 87.333 115.667 147 183 179c31.333 14 62 23.667 92 29s57.333 8 82 8c117.333 0 221 -45.333 311 -136c88.667 -90.667 133 -197.334 133 -320.001
c0 -116 -40.333 -221.667 -121 -317c-21.333 -21.333 -50.166 -48 -86.499 -80s-63.5 -53.333 -81.5 -64c11.333 17.333 23 61.333 35 132s20 131.334 24 182.001c2.66699 48.667 4.66699 97.667 6 147c0 50.667 -2 101.334 -6 152.001
c-1.33301 14.667 -3.33301 31.667 -6 51c-2.66699 20.667 -6.66699 41 -12 61c-10.667 40 -30.334 76.333 -59.001 109c-30 34 -75 51 -135 51c-54.667 0 -96.334 -15 -125.001 -45c-15.333 -16 -36 -48.667 -62 -98c-18.667 -34.667 -32.834 -86.834 -42.501 -156.501
s-14.5 -146.5 -14.5 -230.5c0 -182.667 18.667 -320 56 -412z" />
    <glyph glyph-name="m" unicode="m" horiz-adv-x="1065" 
d="M698 584c-5.33301 76.667 -20.001 134.667 -44.001 174c-23.333 38 -48.666 64.667 -75.999 80c-16.667 9.33301 -33 15.333 -49 18c-15.333 2.66699 -29 4 -41 4c-12.667 0 -26.5 -1.33301 -41.5 -4s-30.5 -8 -46.5 -16c-28.667 -15.333 -55.334 -42 -80.001 -80
c-24.667 -39.333 -39.667 -98 -45 -176c-2.66699 -49.333 -4.66699 -98.666 -6 -147.999c0 -50 2 -100.333 6 -151c1.33301 -15.333 3.33301 -32.333 6 -51c2.66699 -20.667 6.66699 -41.334 12 -62.001c10.667 -39.333 30.667 -75.333 60 -108c30 -34 75 -51 135 -51
c54.667 0 96.334 15 125.001 45s49 62.667 61 98c9.33301 26 15.333 51.333 18 76c2.66699 22.667 4.66699 40.334 6 53.001c2.66699 50.667 4 101 4 151c0 49.333 -1.33301 98.666 -4 147.999zM235.999 1362c-9.33301 -10 -14.002 -20.334 -14.002 -31.001
c0 -3.33301 2 -9.33301 6 -18c6.66699 -8 13.667 -18.333 21 -31c2.66699 -5.33301 5.33398 -10 8.00098 -14l7 -18c3.33301 -7.33301 6.33301 -15 9 -23s4 -16.333 4 -25c0 -16.667 -1.16699 -28.667 -3.5 -36s-8.83301 -17 -19.5 -29c-20.667 -27.333 -52 -41 -94 -41
c-35.333 0 -64 13 -86 39c-19.333 24.667 -29 49.334 -29 74.001c0 33.333 4.33301 63 13 89s26.334 53 53.001 81c92.667 98 209.334 147 350.001 147c54 0 107.5 -8.83301 160.5 -26.5s101.333 -43.834 145 -78.501s80.5 -77.334 110.5 -128.001
c12.667 -22.667 24.667 -55 36 -97s17 -78.667 17 -110v-486c0 -181.333 -28 -315.666 -84 -402.999c-54.667 -87.333 -115.334 -147.333 -182.001 -180c-31.333 -14 -62 -23.667 -92 -29s-57.333 -8 -82 -8c-117.333 0 -221.333 45.667 -312 137
c-88.667 90 -133 196.333 -133 319c0 116.667 40.333 222.667 121 318c82 94 190 141 324 141c24 0 52.667 -3.33301 86 -10c32.667 -8 65.334 -21 98.001 -39c9.33301 -5.33301 27.666 -19.666 54.999 -42.999v375c0 62 -12.333 114.833 -37 158.5
s-56.834 76.167 -96.501 97.5s-83.167 32 -130.5 32c-93.333 0 -169.666 -34.667 -228.999 -104z" />
    <glyph glyph-name="n" unicode="n" horiz-adv-x="1106" 
d="M751 281v272.002c0 90 -12 157.667 -36 203c-26 43.333 -54.667 72.666 -86 87.999c-12 5.33301 -23.833 9.33301 -35.5 12s-23.167 4 -34.5 4c-50 0 -93.667 -15.667 -131 -47c-36.667 -32.667 -57 -68 -61 -106c-1.33301 -2.66699 -2 -5.33398 -2 -8.00098v-9v-456
c0 -62.667 20.833 -114.834 62.5 -156.501s88.5 -62.5 140.5 -62.5c9.33301 0 19.333 0.666992 30 2c11.333 1.33301 22.333 4 33 8c30 12 58 36.667 84 74c24 36.667 36 97.334 36 182.001zM811 1473c36 0 63.998 1.00195 83.998 3.00195
c20.667 2.66699 36 6.33398 46 11.001c10.667 4 17.667 9 21 15c4 5.33301 7 10 9 14c13.333 -4 20 -11.667 20 -23c0 -15.333 -8.33301 -34.666 -25 -57.999c-16.667 -22.667 -34.667 -42 -54 -58c-37.333 -32 -92 -50.667 -164 -56
c-29.333 1.33301 -56.666 4.66602 -81.999 9.99902s-57.666 13.666 -96.999 24.999s-68 19.333 -86 24s-35 7 -51 7c-20 0 -35.667 -5.66699 -47 -17c-14.667 -16 -22 -52 -22 -108l2 -463c1.33301 0 4.16602 3 8.49902 9s7.16602 9.66699 8.49902 11
c5.33301 7.33301 12.666 15 21.999 23c14.667 13.333 34.334 25.5 59.001 36.5s55.334 16.5 92.001 16.5c116 0 216.333 -44.333 301 -133c83.333 -90 125 -197.667 125 -323c0 -138 -42.333 -248.667 -127 -332c-88 -88.667 -178.667 -134 -272 -136
c-17.333 0 -40.166 2.66699 -68.499 8s-58.166 15 -89.499 29c-65.333 33.333 -124.666 93.666 -177.999 180.999c-54.667 86.667 -82 221 -82 403v662c0 69.333 15 121.666 45 156.999c23.333 26 48.666 45.333 75.999 58c23.333 10 43.666 16 60.999 18
c7.33301 1.33301 24.666 2 51.999 2c38.667 0 86.667 -1 144 -3c56.667 -2.66699 112.834 -5.5 168.501 -8.5s89.167 -4.5 100.5 -4.5z" />
    <glyph glyph-name="o" unicode="o" horiz-adv-x="1680" 
d="M486 921c124 0 229.669 -43.9971 317.002 -131.997c38 43.333 79 75.333 123 96c31.333 13.333 62 22.666 92 27.999s57.333 8 82 8c117.333 0 221 -45.333 311 -136c88.667 -90.667 133 -197.334 133 -320.001c0 -116 -40 -221.667 -120 -317
c-17.333 -17.333 -45.833 -43.333 -85.5 -78s-67.167 -56.667 -82.5 -66c10.667 17.333 22.334 62.666 35.001 135.999s20.667 132.666 24 177.999c2.66699 48.667 4.66699 97.667 6 147c0 50.667 -2 101.334 -6 152.001c-1.33301 14.667 -3.33301 31.667 -6 51
c-2.66699 20.667 -6.66699 41 -12 61c-11.333 40 -31.333 76.333 -60 109c-30 34 -75 51 -135 51c-54.667 0 -96.334 -15 -125.001 -45c-29.333 -31.333 -49.666 -64 -60.999 -98c-5.33301 -20.667 -9.66602 -41.334 -12.999 -62.001
c-2.66699 -18.667 -4.66699 -35.667 -6 -51c-4 -51.333 -6 -101.666 -6 -150.999c2.66699 -62.667 11.667 -116.667 27 -162c-30 -11.333 -73 -17 -129 -17c-40.667 0 -74.334 4.33301 -101.001 13c12 30 18 79.667 18 149c0 50.667 -2 101.334 -6 152.001
c-1.33301 14.667 -3.33301 31.667 -6 51c-2.66699 20.667 -6.66699 41 -12 61c-10.667 40 -30.334 76.333 -59.001 109c-30 34 -75 51 -135 51c-63.333 0 -110 -17 -140 -51c-28.667 -32.667 -48.334 -69 -59.001 -109c-5.33301 -20 -9.33301 -40.333 -12 -61
c-2.66699 -19.333 -4.66699 -36.333 -6 -51c-4.66699 -50.667 -7 -101.334 -7 -152.001c1.33301 -49.333 3.66602 -98.333 6.99902 -147c4 -48.667 12 -108.667 24 -180s23.667 -116 35 -134c-18 11.333 -45 32.666 -81 63.999c-36.667 32 -65.667 58.667 -87 80
c-80.667 95.333 -121 201 -121 317c0 122.667 44.333 229.334 133 320.001c90 90.667 194 136 312 136z" />
    <glyph glyph-name="p" unicode="p" horiz-adv-x="881" 
d="M728 1030l0.00195312 -82.002c0 -92 -32.333 -160.667 -97 -206c-31.333 -22.667 -84.666 -40.667 -159.999 -54c82 -8 143 -31.667 183 -71c27.333 -28 49.166 -56.833 65.499 -86.5s27.166 -73.834 32.499 -132.501v-82
c-0.666992 -51.333 -8.33398 -94.166 -23.001 -128.499s-38.334 -66.833 -71.001 -97.5c-80.667 -74 -172.334 -111 -275.001 -111c-44 0 -90.333 7 -139 21c-62.667 18 -116.667 54.333 -162 109c-36.667 41.333 -55 81 -55 119c0 27.333 10.333 49.666 31 66.999
c18.667 18 43.667 27 75 27c30 0 54 -8.33301 72 -25c16.667 -16 25.667 -33.667 27 -53c0 -14 -1.33301 -27.667 -4 -41c-2 -9.33301 -5.66699 -18.333 -11 -27c-2.66699 -5.33301 -4 -12.666 -4 -21.999c0 -13.333 6.33301 -29 19 -47
c14.667 -22.667 33.667 -40.667 57 -54c24 -13.333 49.333 -20 76 -20c46 0 85.167 21.667 117.5 65s48.5 110.333 48.5 201v82c0 6 0.333008 14.167 1 24.5s1 17.833 1 22.5c0 112 -28 185 -84 219c-33.333 20.667 -71 31 -113 31v35c66 0 118 9 156 27
c31.333 14.667 50.333 39.667 57 75c0.666992 0 2.33398 13 5.00098 39c4 28 6 53.333 6 76c0 66 -11.667 108.333 -35 127c-14 14 -29.167 25.833 -45.5 35.5s-37.833 20.167 -64.5 31.5l-50 21c-12.667 6 -35 14.833 -67 26.5s-56 21.334 -72 29.001
s-29.667 16.5 -41 26.5c-32 26.667 -48 70.334 -48 131.001c0 54.667 17.333 97.667 52 129c34.667 22.667 60.334 35 77.001 37c9.33301 0 15 -4 17 -12c-30 -23.333 -45.667 -48 -47 -74v-2v-4c0 -26 7.33301 -47.333 22 -64c15.333 -14.667 31.666 -27 48.999 -37
c23.333 -16 67.333 -38 132 -66c65.333 -28 113 -49.333 143 -64c30 -14 60 -33.333 90 -58c32.667 -26 51.334 -63.667 56.001 -113z" />
    <glyph glyph-name="q" unicode="q" horiz-adv-x="983" 
d="M813 -123c0 -105.333 -31.332 -187.327 -93.999 -245.994c-30 -28 -72.5 -53.333 -127.5 -76s-115.5 -34 -181.5 -34c-48 0 -96.667 6.66699 -146 20c-62 17.333 -115.667 53.666 -161 108.999c-37.333 41.333 -56 80.666 -56 117.999c0 27.333 10.333 50 31 68
c19.333 18 44.666 27 75.999 27c30 0 54 -8.33301 72 -25c16 -16.667 24.667 -34.334 26 -53.001c0 -14 -1.33301 -27.667 -4 -41c-2 -10.667 -5.33301 -19.667 -10 -27c-2.66699 -11.333 -4 -18 -4 -20c0 -8 7.33301 -22.333 22 -43c41.333 -52 93.333 -78 156 -78
c33.333 0 64.833 9.33301 94.5 28s54.167 47.667 73.5 87c18.667 40 29.334 89.667 32.001 149v703c-0.666992 14.667 -1.33398 34 -2.00098 58c-1.33301 24 -4 51.333 -8 82c-3.33301 30 -8.66602 57 -15.999 81c-4 24.667 -15 46.667 -33 66
c-17.333 18.667 -51.333 28 -102 28c-32.667 0 -62.667 -3.33301 -90 -10c-27.333 -8 -41 -19.667 -41 -35c0 -4 0.666992 -8 2 -12c0 -5.33301 0.666992 -10 2 -14c1.33301 -6 2.66602 -11 3.99902 -15c1.33301 -5.33301 3.33301 -10 6 -14
c1.33301 -2.66699 2.66602 -4.66699 3.99902 -6c0 -2.66699 0.666992 -5.33398 2 -8.00098s2.66602 -5.66699 3.99902 -9c1.33301 -2.66699 3.33301 -5.33398 6 -8.00098c4.66699 -6.66699 9 -14 13 -22c2.66699 -8.66699 4 -18.334 4 -29.001
c0 -32.667 -10.333 -62 -31 -88c-22 -26 -53.333 -39 -94 -39c-38 0 -68.667 13 -92 39c-23.333 24.667 -35 58.667 -35 102c0 62 34.667 112 104 150c68.667 36.667 146.667 55 234 55c54.667 0 108.334 -6 161.001 -18l1 598h-129v35h202c27.333 0 50 0.666992 68 2
c16.667 1.33301 32.334 3.33301 47.001 6l8 4h2v-1645z" />
    <glyph glyph-name="r" unicode="r" horiz-adv-x="1065" 
d="M74 637c26 57.333 59.334 106.667 100.001 148c90 90.667 194 136 312 136c117.333 0 221 -45.333 311 -136c88.667 -90.667 133 -197.334 133 -320.001c0 -116 -40.333 -221.667 -121 -317c-21.333 -21.333 -50.166 -48 -86.499 -80s-63.5 -53.333 -81.5 -64
c11.333 17.333 23 61.333 35 132s20 131.334 24 182.001c2.66699 48.667 4.66699 97.667 6 147c0 50.667 -2 101.334 -6 152.001c-1.33301 14.667 -3.33301 31.667 -6 51c-2.66699 20.667 -6.66699 41 -12 61c-10.667 40 -30.334 76.333 -59.001 109c-30 34 -75 51 -135 51
c-63.333 0 -110 -17 -140 -51c-28.667 -32.667 -48.334 -69 -59.001 -109c-5.33301 -20 -9.33301 -40.333 -12 -61c-2.66699 -19.333 -4.66699 -36.333 -6 -51c-4.66699 -50.667 -7 -101.334 -7 -152.001c1.33301 -49.333 3.66602 -98.333 6.99902 -147
c4 -48.667 12 -108.667 24 -180s23.667 -116 35 -134c-18 11.333 -45 32.666 -81 63.999c-36.667 32 -65.667 58.667 -87 80c-16.667 18.667 -31.667 38.334 -45 59.001c-56 89.333 -84 226 -84 410c0 264.667 52.667 443.334 158 536.001
c104.667 93.333 231.667 159.666 381 198.999c9.33301 2.66699 19.333 5.33398 30 8.00098c10 1.33301 20.333 3.33301 31 6c2.66699 0 5.33398 0.666992 8.00098 2c2.66699 0 6.33398 0.666992 11.001 2c43.333 10 83.333 23 120 39c37.333 16.667 58.666 46 63.999 88h33
c0 -121.333 -30.333 -203 -91 -245c-60 -44 -131 -78.333 -213 -103l-16 -4c-5.33301 -2.66699 -10.666 -4.66699 -15.999 -6l-58.5 -16.5c-19.667 -5.66699 -39.834 -11.834 -60.501 -18.501c-87.333 -27.333 -166.333 -72.333 -237 -135
c-68.667 -60 -103 -162.333 -103 -307v-25z" />
    <glyph glyph-name="s" unicode="s" horiz-adv-x="1106" 
d="M365 234c0 -63.333 20.998 -115.334 62.998 -156.001c41.333 -42 88 -63 140 -63c9.33301 0 19.333 0.666992 30 2c11.333 1.33301 22.333 4 33 8c30 12 58 36.667 84 74c24 36.667 36 97.334 36 182.001v272c-7.33301 76.667 -11 124 -11 142c0 68 17 121 51 159
c27.333 30 52.666 45 75.999 45c10 0 16 -5.33301 18 -16c-30 -27.333 -46 -57.333 -48 -90v-2v-4c0 -34.667 7.66699 -60.667 23 -78c52 -61.333 85.167 -110.333 99.5 -147s21.5 -77.667 21.5 -123c0 -138 -42.333 -248.667 -127 -332
c-88 -88.667 -178.667 -134 -272 -136c-17.333 0 -40.166 2.66699 -68.499 8s-58.166 15 -89.499 29c-65.333 33.333 -124.666 93.666 -177.999 180.999c-54.667 86.667 -82 221.334 -82 404.001v882h-129v35h203c27.333 0 49.5 0.666992 66.5 2s33.167 3.33301 48.5 6l8 4
h4v-1288z" />
    <glyph glyph-name="t" unicode="t" horiz-adv-x="1106" 
d="M676 359c0 24.667 -9 45.6689 -27 63.002c-16 16.667 -40.333 25 -73 25c-21.333 0 -42 -9.66699 -62 -29c-14.667 -14.667 -22 -34.334 -22 -59.001c0 -26 8.66699 -47.333 26 -64c18 -17.333 40 -26 66 -26c24 0 43.667 6.66699 59 20c22 19.333 33 42.666 33 69.999z
M858 842.002c-18.667 9.33301 -45.333 14.001 -80 14.001c-25.333 -7.33301 -48.333 -28.333 -69 -63l-23 -33l-18 -33c-35.333 -60 -56 -108.333 -62 -145c-1.33301 -6.66699 -2 -13 -2 -19c0 -28.667 16.667 -52.334 50 -71.001c17.333 -10 34.333 -15 51 -15h5
c14.667 0 28.667 5 42 15c28.667 18.667 62.667 61.667 102 129v2c21.333 36 38.333 77 51 123c3.33301 9.33301 5 17.333 5 24c0 29.333 -17.333 53.333 -52 72zM264.001 -30.9971c0 -139.333 12.998 -243.669 38.998 -313.002c13.333 -34 39.333 -60 78 -78
s81.667 -27 129 -27c42.667 0 83 8.33301 121 25c37.333 17.333 63.333 41 78 71c34 70.667 51 178.667 51 324v425c0 -7.33301 -6.16699 -25.166 -18.5 -53.499s-23.166 -50.166 -32.499 -65.499c-22 -37.333 -53.333 -62 -94 -74c-15.333 -4 -29.666 -6 -42.999 -6
c-26 0 -50.667 6.66699 -74 20c-39.333 23.333 -63.333 56.333 -72 99c-2.66699 12 -4 23.333 -4 34c0 28.667 7.66699 56 23 82c20 36 51.333 60 94 72c12 4 31 6 57 6c-26.667 33.333 -44.334 69.666 -53.001 108.999c-4 17.333 -6 34.333 -6 51c0 42 11 81.667 33 119
c31.333 53.333 77 88.666 137 105.999c22 6.66699 43 10 63 10c36 0 71.667 -10 107 -30c56 -32.667 90 -80 102 -142c4 -17.333 6 -35 6 -53c0 -42 -10.667 -81 -32 -117c-30 -51.333 -75.333 -86 -136 -104c68 -49.333 111 -117 129 -203s27 -179.667 27 -281
c0 -127.333 -38.333 -233 -115 -317c-40.667 -45.333 -92.667 -80 -156 -104s-128 -36 -194 -36s-130.667 12 -194 36c-63.333 24.667 -114.666 59.334 -153.999 104.001c-80.667 88.667 -121 194.334 -121 317.001l2 476c4 116 47 221 129 315c76 86 182 129 318 129
l-31 -35c-45.333 -2 -88.333 -21 -129 -57c-42.667 -39.333 -64 -117.333 -64 -234v-600z" />
    <glyph glyph-name="u" unicode="u" horiz-adv-x="1290" 
d="M1151 -123c0 -105.333 -31.3301 -187.328 -93.9971 -245.995c-30 -28 -72.5 -53.333 -127.5 -76s-115.5 -34 -181.5 -34c-48 0 -96.667 6.66699 -146 20c-62 17.333 -115.667 53.666 -161 108.999c-37.333 41.333 -56 80.666 -56 117.999c0 27.333 10.333 50 31 68
c19.333 18 44.666 27 75.999 27c30 0 53.5 -8.33301 70.5 -25s26.167 -34.334 27.5 -53.001c0 -15.333 -1.33301 -29 -4 -41c-2.66699 -11.333 -6 -20.333 -10 -27c-2.66699 -11.333 -4 -18 -4 -20c0 -8.66699 7.33301 -23 22 -43c41.333 -52 93.333 -78 156 -78
c33.333 0 64.833 9.33301 94.5 28s54.167 47.667 73.5 87c18.667 40 29.334 89.667 32.001 149l2 697c0 95.333 -12.833 156 -38.5 182s-63.834 39 -114.501 39c-31.333 0 -58 -6 -80 -18c-12 -2.66699 -25.667 -15 -41 -37c-17.333 -18 -26 -54.333 -26 -109v-65h-58v71
c0 58.667 -7.33301 96.334 -22 113.001c-28.667 39.333 -72.334 59 -131.001 59c-30 0 -57.333 -5.16699 -82 -15.5s-41.334 -22.833 -50.001 -37.5c-14 -26.667 -22.667 -56.667 -26 -90c-12.667 -34 -30.334 -61.333 -53.001 -82s-59 -32.334 -109 -35.001
c-28.667 0 -52.667 9.66699 -72 29c-17.333 14.667 -26 35.667 -26 63c0 26 7.33301 47.333 22 64c12.667 14 34.667 23.667 66 29c38.667 0 68 -17.333 88 -52c4 -5.33301 9.33301 -8 16 -8c9.33301 0 16.333 5 21 15c0 44 4.33301 79.167 13 105.5
s23.334 53.833 44.001 82.5c36.667 48 84.334 72 143.001 72c40 0 75.667 -12.333 107 -37c22.667 -16.667 41.667 -37.334 57 -62.001c8.66699 -14.667 15.667 -30.334 21 -47.001c1.33301 -14.667 3.33301 -29 6 -43h8c5.33301 62.667 24.333 110 57 142
c28 28 61.667 45 101 51c22 2.66699 37 4 45 4c84.667 0 159.667 -45.667 225 -137c27.333 -38 49.166 -85.5 65.499 -142.5s24.5 -116.167 24.5 -177.5z" />
    <glyph glyph-name="v" unicode="v" horiz-adv-x="881" 
d="M752 -123c-6 -51.333 -16.9961 -92.499 -32.9961 -123.499s-40 -66.5 -72 -106.5c-27.333 -35.333 -65.5 -63.833 -114.5 -85.5s-105.5 -32.5 -169.5 -32.5c-36.667 0 -76.334 4 -119.001 12c-56.667 11.333 -110.667 47.666 -162 108.999
c-36.667 41.333 -55 80.666 -55 117.999c0 27.333 10.333 50 31 68c18.667 18 43.667 27 75 27c30 0 54 -8.33301 72 -25c16.667 -16.667 25.667 -34.334 27 -53.001c0 -14 -1.33301 -27.667 -4 -41c-2 -10.667 -5.66699 -19.667 -11 -27c-5.33301 -12.667 -8 -25 -8 -37
c0 -12.667 2.66699 -23.667 8 -33c22 -50 62.333 -75 121 -75c48.667 0 92 22.667 130 68c38.667 45.333 59.667 112 63 200l2 185c-4 130.667 -31.333 211 -82 241c-33.333 20.667 -71 31 -113 31h-84v32h94c52 0 90.333 10.667 115 32c15.333 14 32.333 44 51 90
c15.333 42 23 101.333 23 178c0 72 -7 124.667 -21 158c-8 27.333 -23.667 51.666 -47 72.999c-24.667 22 -62.667 33 -114 33c-45.333 0 -80.333 -4.66699 -105 -14c-26 -9.33301 -44.333 -20.333 -55 -33c-11.333 -11.333 -17 -21.666 -17 -30.999
c1.33301 -10 8.33301 -21.333 21 -34c34 -24.667 51 -54.334 51 -89.001c0 -36 -11 -63.667 -33 -83c-21.333 -20.667 -47 -31 -77 -31c-34.667 0 -62 11.667 -82 35c-22 24 -33 54 -33 90c0 61.333 30.667 113 92 155c61.333 43.333 150 65 266 65h6
c121.333 0 211.666 -23.667 270.999 -71c36.667 -29.333 60.167 -60.666 70.5 -93.999s16.833 -75.666 19.5 -126.999c0 -68 -19 -129.333 -57 -184c-35.333 -50 -69.333 -83 -102 -99c-20.667 -9.33301 -40.667 -16.666 -60 -21.999c-20.667 -4 -39 -6.66699 -55 -8l-3 -11
c82 -8 143 -31.667 183 -71c27.333 -28 49.166 -56.5 65.499 -85.5s27.166 -73.5 32.499 -133.5z" />
    <glyph glyph-name="w" unicode="w" horiz-adv-x="1209" 
d="M751 281v272.002c0 90 -12 157.667 -36 203c-26 43.333 -54.667 72.666 -86 87.999c-12 5.33301 -23.833 9.33301 -35.5 12s-23.167 4 -34.5 4c-50 0 -93.667 -15.667 -131 -47c-36.667 -32.667 -57 -68 -61 -106c-1.33301 -2.66699 -2 -5.33398 -2 -8.00098v-9v-456
c0 -62.667 20.833 -114.834 62.5 -156.501s88.5 -62.5 140.5 -62.5c9.33301 0 19.333 0.666992 30 2c11.333 1.33301 22.333 4 33 8c30 12 58 36.667 84 74c24 36.667 36 97.334 36 182.001zM551 1321c-2 25.333 -12.833 46.667 -32.5 64s-41.5 26 -65.5 26
c-58.667 0 -88 -47 -88 -141v-471c1.33301 0 4.16602 3 8.49902 9s7.16602 9.66699 8.49902 11c5.33301 7.33301 12.666 15 21.999 23c14.667 13.333 34.334 25.5 59.001 36.5s55.334 16.5 92.001 16.5c116 0 216.333 -44.333 301 -133c83.333 -90 125 -197.667 125 -323
c0 -138 -42.333 -248.667 -127 -332c-88 -88.667 -178.667 -134 -272 -136c-17.333 0 -40.166 2.66699 -68.499 8s-58.166 15 -89.499 29c-65.333 33.333 -124.666 93.666 -177.999 180.999c-54.667 86.667 -82 221 -82 403v672c0 69.333 15 122 45 158
c17.333 20 42.666 39 75.999 57c36 19.333 78.333 29 127 29c24 0 45.667 -3 65 -9c38 -6 71.667 -23.667 101 -53c32.667 -31.333 51.667 -78.333 57 -141h8c2.66699 13.333 4.66699 27.666 6 42.999c6 16 12.333 31.667 19 47c14.667 23.333 33.667 43.666 57 60.999
c13.333 10.667 38.166 19.834 74.499 27.501s67.5 11.5 93.5 11.5c36 0 64 1.33301 84 4c20.667 2 35.834 5.16699 45.501 9.5s16.5 9.33301 20.5 15l10 14.5c13.333 -3.33301 20 -10.666 20 -21.999c0 -15.333 -8.5 -34.666 -25.5 -57.999s-34.833 -43 -53.5 -59
c-13.333 -10.667 -31.833 -18.5 -55.5 -23.5s-55.834 -10.167 -96.501 -15.5s-67.334 -10 -80.001 -14c-35.333 -12.667 -60.666 -29.667 -75.999 -51c-12 -15.333 -19.333 -50.333 -22 -105h-86c-10.667 67.333 -19.667 111 -27 131z" />
    <glyph glyph-name="x" unicode="x" horiz-adv-x="1106" 
d="M751 281v272.002c0 90 -12 157.667 -36 203c-26 43.333 -54.667 72.666 -86 87.999c-12 5.33301 -23.833 9.33301 -35.5 12s-23.167 4 -34.5 4c-50 0 -93.667 -15.667 -131 -47c-36.667 -32.667 -57 -68 -61 -106c-1.33301 -2.66699 -2 -5.33398 -2 -8.00098v-9v-456
c0 -62.667 20.833 -114.834 62.5 -156.501s88.5 -62.5 140.5 -62.5c9.33301 0 19.333 0.666992 30 2c11.333 1.33301 22.333 4 33 8c30 12 58 36.667 84 74c24 36.667 36 97.334 36 182.001zM582 -28.998c-17.333 0 -40.168 2.66699 -68.501 8s-58.166 15 -89.499 29
c-65.333 33.333 -124.666 93.666 -177.999 180.999c-54.667 86.667 -82 221.334 -82 404.001v882h-129v35h203c27.333 0 49.5 0.666992 66.5 2s33.167 3.33301 48.5 6l8 4h4v-723c1.33301 0 4.16602 3 8.49902 9s7.16602 9.66699 8.49902 11
c5.33301 7.33301 12.666 15 21.999 23c14.667 13.333 34.334 25.5 59.001 36.5s55.334 16.5 92.001 16.5c116 0 216.333 -44.333 301 -133c83.333 -90 125 -197.667 125 -323c0 -138 -42.333 -248.667 -127 -332c-88 -88.667 -178.667 -134 -272 -136z" />
    <glyph glyph-name="y" unicode="y" horiz-adv-x="1168" 
d="M715 203c-32.667 -22 -72.3359 -37.6641 -119.003 -46.9971c-27.333 -5.33301 -54.666 -8 -81.999 -8c-117.333 0 -221 41 -311 123c-89.333 81.333 -134 177.333 -134 288c0 104 40.667 199 122 285c18 17.333 46.833 41.333 86.5 72s66.834 49.667 81.501 57
c-11.333 -16 -23.166 -56.667 -35.499 -122s-20.5 -118.333 -24.5 -159c-2.66699 -44.667 -4.66699 -89 -6 -133c0 -46 2 -91.667 6 -137c1.33301 -13.333 3.33301 -28.333 6 -45c2.66699 -19.333 7 -37.666 13 -54.999c10.667 -37.333 30.334 -70.333 59.001 -99
c30 -31.333 75 -47 135 -47c54.667 0 96.334 13.667 125.001 41c29.333 30 50 59.333 62 88c5.33301 19.333 9.33301 38 12 56c4 40 6 66 6 78v481l330 2v-39h-129l-2 -1006c0 -104.667 -31.667 -186.334 -95 -245.001c-30 -28 -72.333 -53.667 -127 -77
c-54.667 -22.667 -115.334 -34 -182.001 -34c-48 0 -96.333 6.66699 -145 20c-62 17.333 -116 53.666 -162 108.999c-37.333 41.333 -56 80.666 -56 117.999c0 27.333 10.333 50 31 68c19.333 18 44.666 27 75.999 27c30 0 54 -8.33301 72 -25
c16.667 -16.667 25.667 -34.334 27 -53.001c0 -15.333 -1.66699 -29 -5 -41c-2 -11.333 -5.33301 -20.333 -10 -27c-2.66699 -11.333 -4 -18 -4 -20c0 -8.66699 7.66699 -23 23 -43c40.667 -52 92.334 -78 155.001 -78c34 0 65.667 9.33301 95 28s53.666 47.667 72.999 87
c19.333 40 30.333 89.667 33 149v363z" />
    <glyph glyph-name="z" unicode="z" horiz-adv-x="1065" 
d="M219 1381l-0.000976562 0.999023l-5 -41c-2.66699 -31.333 -4 -60.333 -4 -87c-0.666992 -6.66699 -1 -13 -1 -19c0 -28 3.66699 -54.667 11 -80c0.666992 -18 11.334 -38.333 32.001 -61c19.333 -16.667 47.333 -25 84 -25h13c11.333 0 24 1.33301 38 4
c35.333 0 61.666 21.333 78.999 64s26 92.334 26 149.001c0 35.333 -3.33301 67.666 -10 96.999c-12 44.667 -57.333 71.334 -136 80.001c-59.333 -4.66699 -101.666 -32 -126.999 -82zM276.999 583.999c-1.33301 -26 -2 -51.335 -2 -76.002v-78
c0 -139.333 13 -243.666 39 -312.999s84.667 -104 176 -104c82 0 137.833 32 167.5 96s44.5 171.667 44.5 323v4v3c0 104.667 -10 201.334 -30 290.001c-22 87.333 -82.667 131 -182 131h-11c-4 0 -8 -0.666992 -12 -2c-46 -4 -88.333 -26.333 -127 -67
c-38 -42.667 -59 -111.667 -63 -207zM487.999 894.997c129.333 0 235.669 -46.3301 319.002 -138.997c83.333 -94 125 -200.667 125 -320c0 -118.667 -41.667 -224.334 -125 -317.001s-189.666 -139 -318.999 -139c-130 0 -236 46.333 -318 139
c-83.333 91.333 -125 197 -125 317c0 123.333 42.333 230.666 127 321.999l112 128.5c28.667 33 50.5 59.667 65.5 80s24.167 38.166 27.5 53.499c-13.333 -1.33301 -32.333 -2 -57 -2c-44.667 0 -80.667 4.66699 -108 14s-57 26 -89 50c-48 36.667 -72 109.667 -72 219
c2 73.333 30.667 127.333 86 162c58 35.333 124.333 53 199 53c59.333 0 111.666 -7.16699 156.999 -21.5s80.666 -33.333 105.999 -57s38.666 -49.5 39.999 -77.5c2.66699 -32.667 4 -56 4 -70c0 -64.667 -12.333 -127.667 -37 -189s-64 -130 -118 -206z" />
    <glyph glyph-name="braceleft" unicode="{" horiz-adv-x="723" 
d="M604 1491l11 -69.001c-8 -1.33301 -17.833 -3.83301 -29.5 -7.5s-22.834 -8.83398 -33.501 -15.501c-23.333 -12 -44.666 -31 -63.999 -57c-20.667 -27.333 -31 -65.666 -31 -114.999c0 -22 0.666992 -45.333 2 -70c1.33301 -24 2.66602 -49.667 3.99902 -77
c1.33301 -10 2.66602 -19 3.99902 -27v-29c1.33301 -17.333 2 -35 2 -53c0 -19.333 -0.666992 -38.333 -2 -57c-5.33301 -96 -26.666 -172.667 -63.999 -230c-38 -58.667 -99.333 -109 -184 -151c87.333 -41.333 149.333 -92 186 -152c36 -61.333 56.667 -137 62 -227
c1.33301 -18 2 -35.667 2 -53c0 -19.333 -0.666992 -38.666 -2 -57.999v-22c-1.33301 -8.66699 -2 -15.667 -2 -21c-1.33301 -10 -2 -19 -2 -27c-1.33301 -9.33301 -2.66602 -19.666 -3.99902 -30.999v-24c-1.33301 -8 -2 -17 -2 -27v-24v-25c0 -52 15.333 -95.667 46 -131
c30 -36.667 67.333 -58 112 -64l-11 -71c-84.667 10.667 -148.167 36.5 -190.5 77.5s-71.5 85.5 -87.5 133.5c-14 38 -21.667 74.667 -23 110c-2.66699 36 -4 62.667 -4 80v6v4c0 11.333 0.666992 23.333 2 36c0 12 0.666992 24.333 2 37c0 12 0.666992 25 2 39v36
c0 130 -18.333 221.667 -55 275c-38.667 52 -84 79.333 -136 82v84l23 4c8 1.33301 15.333 3.33301 22 6c37.333 13.333 71 45.333 101 96s45 134 45 250v33c-1.33301 10.667 -2 21.667 -2 33v6v4c-1.33301 13.333 -2 26.333 -2 39c-1.33301 12 -2 23.667 -2 35v6v4
c0 17.333 1.33301 44 4 80c1.33301 35.333 9 72 23 110c16 48 45.333 92.333 88 133c42 41.333 105.333 66.666 190 75.999z" />
    <glyph glyph-name="bar" unicode="|" 
d="M473 -402v2157h144v-2157h-144z" />
    <glyph glyph-name="braceright" unicode="}" horiz-adv-x="723" 
d="M119 -424l-11 69.0029c42.667 7.33301 79.667 28 111 62c31.333 32.667 47 77.667 47 135c0 22 -0.666992 45.333 -2 70s-2.66602 50.667 -3.99902 78c-1.33301 8 -2 17 -2 27c-1.33301 8 -2 16.667 -2 26c-1.33301 19.333 -2 38.666 -2 57.999
c0 17.333 0.666992 35 2 53c5.33301 90 26.666 165.667 63.999 227c35.333 60 97 110.667 185 152c-83.333 42 -143.666 92.333 -180.999 151c-38.667 57.333 -61.334 134 -68.001 230c-1.33301 18.667 -2 37.667 -2 57c0 18 0.666992 35.667 2 53
c0 6.66699 0.666992 13.667 2 21c0 6.66699 0.666992 13.334 2 20.001v6v6l4 27v23c0 8 0.666992 16 2 24v27v24v25c0 60 -15 105 -45 135c-31.333 30 -69 50 -113 60l11 69c95.333 -10.667 164.333 -40 207 -88c40.667 -48 68 -99 82 -153
c8 -30.667 12.667 -60.334 14 -89.001c1.33301 -30 2 -56.333 2 -79v-35c-1.33301 -11.333 -2 -22.333 -2 -33v-2v-4v-35c-1.33301 -12 -2 -25.667 -2 -41c0 -134 19.333 -225.333 58 -274c38 -50.667 81.667 -78 131 -82v-84c-53.333 -2.66699 -93 -22.667 -119 -60
c-27.333 -38 -46 -79.667 -56 -125c-6.66699 -34 -10.667 -66 -12 -96s-2 -53 -2 -69v-2v-5c0 -13.333 0.666992 -25.333 2 -36v-33v-2v-2c0 -12.667 0.666992 -24.334 2 -35.001v-40c0 -22.667 -0.666992 -48.334 -2 -77.001c-1.33301 -30 -6 -60 -14 -90
c-14 -54.667 -41.333 -106 -82 -154c-42.667 -48 -111.667 -77.333 -207 -88v-2z" />
    <glyph glyph-name="asciitilde" unicode="~" horiz-adv-x="1061" 
d="M920 752l54.998 -0.000976562c-19.333 -41.333 -39.166 -76.333 -59.499 -105s-40.833 -51.667 -61.5 -69c-17.333 -14 -34.333 -24.333 -51 -31c-18 -6.66699 -35 -10 -51 -10c-26 0 -56.833 2.66699 -92.5 8s-84.834 15 -147.501 29c-65.333 14.667 -113 24 -143 28
c-30 4.66699 -52.667 7 -68 7h-10h-12c-19.333 -2 -38.166 -7.66699 -56.499 -17s-35.166 -28.333 -50.499 -57h-58c24.667 57.333 61 108.833 109 154.5s103.333 68.5 166 68.5c18 0 38 -1.33301 60 -4s45 -6 69 -10c14 -2.66699 28.333 -5.66699 43 -9
c14 -2.66699 27.667 -6 41 -10c7.33301 -1.33301 13.666 -2.66602 18.999 -3.99902l16 -4c53.333 -14.667 95 -25 125 -31c28.667 -5.33301 54 -8 76 -8c12 0 23.667 5.66699 35 17c10.667 9.33301 20 20 28 32c4.66699 4 8.33398 8.16699 11.001 12.5z" />
    <glyph glyph-name="space.0" 
 />
    <glyph glyph-name="F.0" horiz-adv-x="1561" 
d="M532 41l-0.000976562 1262h-75c-118.667 0 -204 -32 -256 -96c-53.333 -64.667 -86.666 -151 -99.999 -259h-56l37 394h1131l37 -394h-56c-16 127.333 -48.667 215 -98 263c-49.333 46.667 -102.666 74.667 -159.999 84c-16 4 -32.333 6.66699 -49 8h-49h-76v-639
c39.333 23.333 88 45 146 65c55.333 19.333 120 29 194 29h47c15.333 -1.33301 31 -3.33301 47 -6c79.333 -11.333 152.333 -44 219 -98c67.333 -54.667 101 -152.334 101 -293.001c0 -113.333 -33.167 -205.666 -99.5 -276.999s-151.5 -107 -255.5 -107
c-68 0 -118.333 15.833 -151 47.5s-51.667 67.167 -57 106.5v15c-1.33301 5.33301 -2 10 -2 14c0 36.667 10.667 64.667 32 84c22 18 46.667 29 74 33h6h8h9h6c26 -4 49.667 -15 71 -33c20.667 -19.333 31 -46 31 -80c0 -20.667 -2 -37 -6 -49
c-5.33301 -12 -11.333 -21 -18 -27c-3.33301 -2.66699 -5.66602 -4.66699 -6.99902 -6c-2.66699 -2.66699 -5.33398 -4.66699 -8.00098 -6l-2 -2l-4 -4c-4 -2.66699 -7.33301 -6.66699 -10 -12c-2.66699 -7.33301 -4 -15.666 -4 -24.999v-2c0 -1.33301 0.666992 -2 2 -2
c1.33301 -2.66699 4 -5.33398 8 -8.00098c2.66699 -2.66699 6 -4.66699 10 -6c2.66699 -1.33301 6 -2 10 -2c3.33301 -2 5.66602 -3 6.99902 -3c38 0 64.167 17.167 78.5 51.5s22.833 71.166 25.5 110.499l4 37v35v65v64v4v4v60c-1.33301 20 -4 41.667 -8 65
c-8 48 -29.333 92.333 -64 133c-34 40.667 -94 61 -180 61h-12h-14c-42.667 -2.66699 -83.667 -10.667 -123 -24c-40 -14.667 -73.667 -29.667 -101 -45c-2.66699 -1.33301 -4.66699 -2 -6 -2l-4 -4v-584h129v-41h-516v41h157z" />
    <glyph glyph-name="asciitilde.1" horiz-adv-x="1102" 
d="M473 1301v-1260h158v-41h-545v41h157v1260h-157v41h977l25 -389h-49c-10 88.667 -29.333 156.5 -58 203.5s-58.667 81.5 -90 103.5c-30 19.333 -58 31 -84 35c-27.333 4 -47 6 -59 6h-275z" />
    <glyph glyph-name="D.0" horiz-adv-x="1415" 
d="M473 755l196.998 0.00292969c86 0 140 21.333 162 64c22 40.667 37.667 105.667 47 195l4 16v16c0 2.66699 0.666992 5.33398 2 8.00098v7c10.667 104 28.334 180.333 53.001 229c24.667 49.333 84.667 74 180 74c52 0 97.333 -17 136 -51c36.667 -35.333 55 -77 55 -125
v-20c-1.33301 -8.66699 -3.33301 -17 -6 -25c-5.33301 -24.667 -17.666 -47.334 -36.999 -68.001c-20.667 -21.333 -50.667 -32 -90 -32c-31.333 0 -56.666 8 -75.999 24c-20.667 15.333 -34.334 31.666 -41.001 48.999c-1.33301 4.66699 -2 9 -2 13c-1.33301 4 -2 8 -2 12
c0 15.333 2 31 6 47c2.66699 15.333 6.66699 33 12 53c1.33301 7.33301 2 14.333 2 21v18v6v7c0 4 -2 7.33301 -6 10c-5.33301 2.66699 -11.333 4.66699 -18 6h-6h-6c-32 0 -55.333 -15.667 -70 -47c-15.333 -32.667 -25.666 -68.667 -30.999 -108
c-2.66699 -18 -4.66699 -35.667 -6 -53c-1.33301 -19.333 -2.66602 -36 -3.99902 -50v-14c-1.33301 -5.33301 -2 -10 -2 -14c-6.66699 -78 -18.334 -141 -35.001 -189c-16 -48 -57 -79.333 -123 -94v-11c5.33301 -1.33301 11 -2 17 -2
c5.33301 -1.33301 10 -2.66602 14 -3.99902l20 -4c7.33301 -1.33301 14.333 -2 21 -2c53.333 -9.33301 105.333 -23 156 -41c48.667 -19.333 91 -64.333 127 -135c12 -26 21.333 -57.333 28 -94c5.33301 -38.667 9.66602 -77.667 12.999 -117l4 -21v-22
c0 -2.66699 0.666992 -5.33398 2 -8.00098v-13c4 -58.667 10 -109.834 18 -153.501s25 -65.5 51 -65.5c12.667 0 25.667 1.33301 39 4c14 3.33301 27.667 9.66602 41 18.999c8 4 15.667 9.33301 23 16l20 23l31 -29c-10.667 -12 -21.667 -23 -33 -33
c-10.667 -9.33301 -21.667 -18 -33 -26c-21.333 -14 -43 -24.5 -65 -31.5s-46 -10.5 -72 -10.5c-117.333 0 -192.333 35 -225 105c-34 68.667 -54 144.667 -60 228v38c-1.33301 14 -2.66602 27 -3.99902 39v13v12c0 14.667 -0.666992 35 -2 61
c-2.66699 24.667 -8 50.667 -16 78c-10.667 41.333 -32 79 -64 113c-32.667 32.667 -82.334 49 -149.001 49h-197v-674h158v-41h-545v41h157v1260h-157v41h545v-41h-158v-546z" />
    <glyph glyph-name="N.0" horiz-adv-x="1671" 
d="M532 41l-0.00292969 1262h-75c-118.667 0 -204 -32 -256 -96c-53.333 -64.667 -86.666 -151 -99.999 -259h-56l37 394h1131l37 -394h-56c-16 127.333 -48.667 215 -98 263c-49.333 46.667 -102.666 74.667 -159.999 84c-16 4 -32.333 6.66699 -49 8h-49h-76v-639
c61.333 35.333 121.333 59.833 180 73.5s112 20.5 160 20.5c19.333 0 39 -0.666992 59 -2c20.667 -1.33301 41.334 -4.66602 62.001 -9.99902c65.333 -12.667 125.333 -40.667 180 -84c54.667 -45.333 82 -117 82 -215v-406h158v-41h-531v41h143v404v2v51
c-1.33301 19.333 -5.33301 39 -12 59c-9.33301 36 -29.666 69 -60.999 99c-32.667 30 -86 45 -160 45h-8h-12c-44 -2.66699 -86.333 -11 -127 -25c-42.667 -14.667 -80.334 -31.667 -113.001 -51v-584h143v-41h-530v41h157z" />
    <glyph glyph-name="bullet" horiz-adv-x="1526" 
d="M1052 41l0.00195312 1262h-142v39h530v-39h-158v-1262h158v-41h-465c-8 -5.33301 -19 -15 -33 -29c-14.667 -13.333 -30.334 -32.333 -47.001 -57c-22 -32.667 -41.833 -75.667 -59.5 -129s-27.834 -120.333 -30.501 -201l-70 -2
c-1.33301 32.667 -5.33301 67.167 -12 103.5s-17.667 73.5 -33 111.5c-13.333 35.333 -31 70.666 -53 105.999c-23.333 36 -52 68.333 -86 97h-465v41h157v1262h-157v39h531v-39h-144v-1262h579z" />
    <glyph glyph-name="guilsinglleft" horiz-adv-x="977" 
d="M377 1061l371.997 -0.00195312v-41h-372v-266c34 35.333 73 68 117 98c43.333 28.667 90.333 43 141 43c15.333 0 31 -1.33301 47 -4c16.667 -2.66699 33 -6.66699 49 -12c50.667 -20.667 97.334 -65.667 140.001 -135c40.667 -71.333 61 -190.333 61 -357
c0 -32.667 -4 -85 -12 -157c-8 -74 -28.667 -151.333 -62 -232c-31.333 -79.333 -77.666 -154.666 -138.999 -225.999c-62.667 -72 -148 -125 -256 -159v32c90 23.333 153 70 189 140c33.333 68 50 152 50 252v666v26c-1.33301 8.66699 -3.33301 17.667 -6 27
c-4 20.667 -13.333 39.667 -28 57c-15.333 18 -38.666 27 -69.999 27c-44.667 0 -85.167 -13.667 -121.5 -41s-69.5 -58.666 -99.5 -93.999v-670h129v-35h-459v35h129v985h-189v41h189v240h-129v35h205c26 0 47.833 0.666992 65.5 2s34.834 4 51.501 8
c1.33301 0 2.66602 0.666992 3.99902 2h4v-287z" />
    <glyph glyph-name="O.0" horiz-adv-x="1057" 
d="M371 479l73.9961 0.00292969c53.333 0 91 14.333 113 43c22 27.333 37.667 57.666 47 90.999c1.33301 8 3.33301 16 6 24l4 21c14.667 73.333 33.667 131.333 57 174c22 42 66.333 63 133 63c41.333 0 78.333 -12.333 111 -37c32.667 -26 49 -61.333 49 -106
c0 -32.667 -9.16699 -62 -27.5 -88s-46.166 -39 -83.499 -39c-31.333 0 -56.666 9 -75.999 27c-20 16 -30 36.333 -30 61c0 8 0.666992 16.333 2 25l4 20c0 1.33301 0.666992 2.66602 2 3.99902v4l4 8v9c0 13.333 -4.16699 21.333 -12.5 24s-17.833 4 -28.5 4h-4h-2h-2
c-9.33301 0 -17.666 -8 -24.999 -24c-6.66699 -18 -12.667 -37.333 -18 -58c-4 -16 -6.66699 -31 -8 -45c-2.66699 -14.667 -4.66699 -25.334 -6 -32.001v-9c-1.33301 -2.66699 -3 -5.33398 -5 -8.00098c-10.667 -52 -23.5 -89.833 -38.5 -113.5
s-36.833 -39.834 -65.5 -48.501v-6c102.667 -5.33301 174.334 -25 215.001 -59c40.667 -35.333 67.334 -73.666 80.001 -114.999c4 -14.667 7.33301 -29.167 10 -43.5s4.66699 -28.5 6 -42.5v-4v-4c4 -35.333 10.333 -66.666 19 -93.999c6.66699 -27.333 23 -41 49 -41
c18 0 34.333 6 49 18c15.333 11.333 27 23.666 35 36.999l26 -14c-17.333 -38.667 -44.333 -68.667 -81 -90c-37.333 -24 -80.333 -36 -129 -36c-70 0 -114.667 22 -134 66c-18.667 44 -32.334 92.667 -41.001 146v8c0 2.66699 -0.666992 5.33398 -2 8.00098v10
c-1.33301 2.66699 -2 5.66699 -2 9c-13.333 100 -34.333 162 -63 186c-30 23.333 -71 35 -123 35h-43l-45 -2v-410h129v-35h-459v35h129v803h-129v35h459v-35h-129v-359z" />
    <glyph glyph-name="tilde" horiz-adv-x="1098" 
d="M379 1061l372.999 -0.000976562v-41h-373v-266c36.667 42 78.334 76 125.001 102s100.667 39 162 39c90 0 153.333 -17.667 190 -53c37.333 -36.667 60.666 -77 69.999 -121c2.66699 -16 4.66699 -32.333 6 -49s2 -31.667 2 -45v-592h129v-35h-444v35h114v655
c0 6 -0.666992 15.667 -2 29c-1.33301 14 -4.66602 28.333 -9.99902 43c-8 20.667 -21.167 38.834 -39.5 54.501s-46.166 23.5 -83.499 23.5c-26 0 -57.333 -7.66699 -94 -23c-36.667 -14.667 -78.334 -52 -125.001 -112v-670h115v-35h-445v35h129v985h-191v41h191v240h-129
v35h203c27.333 0 50 0.666992 68 2c16 1.33301 31.667 3.33301 47 6l8 4h4v-287z" />
    <glyph glyph-name="greater.0" unicode="&#xa0;" 
 />
    <glyph glyph-name="Z.0" unicode="&#xa1;" horiz-adv-x="1274" 
d="M795 451l252 643c1.33301 2.66699 2.66602 6 3.99902 10l4 12c2 6 4.33301 12.333 7 19c1.33301 5.33301 2.66602 11.333 3.99902 18c2.66699 12.667 5.33398 24.334 8.00098 35.001c1.33301 10.667 2 20.334 2 29.001c0 24.667 -7.66699 45 -23 61
c-15.333 16.667 -38.666 25 -69.999 25h-28v39h348v-39c-8 0 -21.667 -1.33301 -41 -4c-18.667 -2.66699 -39 -10.667 -61 -24c-15.333 -11.333 -29.833 -25.166 -43.5 -41.499s-25.834 -38.166 -36.501 -65.499l-289 -747c-2.66699 -6 -4.66699 -11 -6 -15
c-3.33301 -5.33301 -5.66602 -10 -6.99902 -14v-2l-2 -2l-18 -39l-37 -74c-54.667 -120 -106.834 -199.167 -156.501 -237.5s-98.5 -57.5 -146.5 -57.5c-78 0 -144.333 23 -199 69c-54.667 46.667 -82 102 -82 166c0 44 11.667 82.333 35 115c23.333 31.333 57 47 101 47
c39.333 0 70.666 -10.5 93.999 -31.5s36.333 -44.5 39 -70.5c1.33301 -1.33301 2 -3.33301 2 -6v-9c0 -12 -1.33301 -22 -4 -30c-4 -8.66699 -8.33301 -16.334 -13 -23.001c-2.66699 -2.66699 -4.66699 -5.33398 -6 -8.00098c-1.33301 -4 -3.33301 -7.33301 -6 -10
c-1.33301 -1.33301 -2 -2.66602 -2 -3.99902c-1.33301 -3.33301 -2.66602 -5.66602 -3.99902 -6.99902l-4 -4l-6 -6c-2.66699 -2.66699 -6.33398 -5.33398 -11.001 -8.00098c-2.66699 -1.33301 -6.66699 -4 -12 -8s-10.666 -9 -15.999 -15l-8 -8
c-2.66699 -2.66699 -5.66699 -5.33398 -9 -8.00098c-4 -4 -7.33301 -8 -10 -12c-2.66699 -5.33301 -4 -10.333 -4 -15c0 -18.667 12.333 -36.334 37 -53.001c24.667 -16 59.334 -24 104.001 -24c40 0 73 14.333 99 43c26 27.333 49.333 58 70 92l12 20
c2.66699 5.33301 6 11.666 10 18.999l-524 1112h-142v39h563v-39h-172zM697 1424c-15.333 0 -30.3311 0.668945 -44.998 2.00195c-16.667 1.33301 -33.334 3.33301 -50.001 6c-60 10.667 -114.333 32.334 -163 65.001c-50.667 32.667 -76 79.334 -76 140.001
c0 38 12.333 67.333 37 88c22.667 18.667 48.334 28.667 77.001 30h5h2c35.333 0 61.666 -11.333 78.999 -34c18 -24.667 27 -51.334 27 -80.001c0 -8.66699 -1.33301 -16.334 -4 -23.001c-4 -8 -8.66699 -15.333 -14 -22l-9 -9l-8 -8l-4 -4
c-6.66699 -6.66699 -12.667 -13.5 -18 -20.5s-8 -15.833 -8 -26.5c0 -20.667 10.667 -35 32 -43c22 -9.33301 46 -15.333 72 -18c9.33301 -1.33301 19.666 -2 30.999 -2c9.33301 -1.33301 18 -2 26 -2h13h12c8 0 17 0.666992 27 2c9.33301 0 19.333 0.666992 30 2
c26 1.33301 50.667 6.66602 74 15.999c22 8 33 23 33 45c0 6.66699 -1.33301 12.667 -4 18c-2.66699 6 -6 11.667 -10 17c-2.66699 4 -5.33398 7.33301 -8.00098 10c-4 2.66699 -8.33301 6 -13 10c-1.33301 0 -2 0.666992 -2 2c-8 6 -15.333 13.667 -22 23
c-6.66699 8 -10 19 -10 33c0 5.33301 0.666992 10.666 2 15.999c0 4 0.666992 8.66699 2 14c4.66699 20.667 16 40 34 58c16.667 17.333 40 26 70 26h10c2.66699 0 5.33398 -0.666992 8.00098 -2c26 -4 50 -15.333 72 -34c22 -20.667 33 -48 33 -82
c0 -70 -35 -122.667 -105 -158c-70.667 -36.667 -149 -55 -235 -55z" />
    <glyph glyph-name="slash.1" unicode="&#xa2;" horiz-adv-x="957" 
d="M516 -60l-423.998 897.998h-93v35h443l1 -35h-130l302 -631l163 465c3.33301 9.33301 6.33301 20.333 9 33c2.66699 10.667 4 22.334 4 35.001c0 24 -7.83301 46.333 -23.5 67s-46.834 31 -93.501 31h-19l1 35h329v-35c-38 -2.66699 -67.333 -16.334 -88 -41.001
c-21.333 -24 -39 -50.333 -53 -79l-12 -29c-4 -11.333 -7.66699 -21 -11 -29l-362 -976c-16.667 -43.333 -38.667 -76 -66 -98c-28.667 -22 -58.667 -36.333 -90 -43c-6.66699 -1.33301 -13.334 -2 -20.001 -2c-8 -1.33301 -15.667 -2 -23 -2c-62.667 0 -112 14.333 -148 43
c-35.333 28.667 -55.333 60 -60 94v6v4c0 38.667 10.5 72.334 31.5 101.001s47.167 43 78.5 43h23c6.66699 -1.33301 14 -3.33301 22 -6c19.333 -6 37 -15.667 53 -29c14.667 -15.333 22 -36.666 22 -63.999c0 -6.66699 -0.666992 -13.334 -2 -20.001
c-1.33301 -8 -3.33301 -15.667 -6 -23l-4 -12l-4 -12c-1.33301 -2.66699 -2 -6 -2 -10c-1.33301 -4.66699 -2 -9 -2 -13c0 -10.667 6.33301 -18.667 19 -24c12 -6.66699 29 -10 51 -10c15.333 0 29 4.66699 41 14c10.667 8 19.667 17.667 27 29c5.33301 8 10 16 14 24
c2.66699 6.66699 4.66699 12.334 6 17.001zM543.002 988.998c-105.333 0 -184.006 23.334 -236.006 70.001s-78 98.667 -78 156c0 31.333 11 55.666 33 72.999c20.667 16.667 44 26.334 70 29.001c4 1.33301 8 2 12 2h11c25.333 0 46.333 -6.66699 63 -20
c15.333 -15.333 26 -31.666 32 -48.999c1.33301 -6 2.66602 -11.667 3.99902 -17c1.33301 -6.66699 2 -12.667 2 -18c0 -10 -1.33301 -19 -4 -27c-2.66699 -9.33301 -6.66699 -17.333 -12 -24c-4 -6 -8 -10.333 -12 -13c-4 -4 -9 -7.33301 -15 -10
c-8 -4 -15.333 -6.66699 -22 -8c-6.66699 -2.66699 -12 -4 -16 -4h-5c-1.33301 0 -2.66602 -0.666992 -3.99902 -2c-5.33301 -1.33301 -10.666 -4.33301 -15.999 -9c-5.33301 -4 -8 -12.667 -8 -26c0 -16.667 13 -30.334 39 -41.001c24.667 -11.333 52.667 -19 84 -23
c6.66699 -1.33301 14.334 -2 23.001 -2c6.66699 -1.33301 13.334 -2 20.001 -2h17h16h16h17c6.66699 0 14 0.666992 22 2c6.66699 0 13.667 0.666992 21 2c30 4 57.333 11.667 82 23c24 9.33301 36 23 36 41c0 16 -2.66699 26.333 -8 31
c-5.33301 2.66699 -11.666 4.66699 -18.999 6c-1.33301 0 -2.66602 0.666992 -3.99902 2h-6c-22 4 -39.833 12.5 -53.5 25.5s-20.5 32.5 -20.5 58.5c0 27.333 9.33301 51.666 28 72.999c17.333 20.667 42.333 31 75 31c36 0 65.333 -9.66699 88 -29
c23.333 -18.667 35 -43.667 35 -75c0 -56 -24 -107.333 -72 -154c-47.333 -48 -125.666 -72 -234.999 -72z" />
    <glyph glyph-name="emdash" unicode="&#xa3;" horiz-adv-x="930" 
d="M686 347l-3.99707 -55.001c-6.66699 -101.333 -43.334 -178.666 -110.001 -231.999c-68.667 -54 -144 -81 -226 -81c-77.333 0 -140 17.167 -188 51.5s-82 72.833 -102 115.5c-10 17.333 -17 34.166 -21 50.499s-6 32.166 -6 47.499c0 36.667 13 68 39 94
c26 24.667 55.333 37 88 37c35.333 0 64.666 -11 87.999 -33s35 -49.333 35 -82c0 -22.667 -5.16699 -41.667 -15.5 -57s-21.5 -28.333 -33.5 -39c-11.333 -10.667 -20.333 -18 -27 -22c-6.66699 -6 -11.334 -10.333 -14.001 -13c-1.33301 -1.33301 -2 -2.66602 -2 -3.99902
c-1.33301 -1.33301 -2 -2.66602 -2 -3.99902c0 -5.33301 1.33301 -11.333 4 -18c1.33301 -7.33301 3.33301 -14.333 6 -21c9.33301 -16 25 -30.333 47 -43c20.667 -13.333 50 -20 88 -20c27.333 0 48.333 6 63 18c15.333 10.667 27 23 35 37
c4 6.66699 7.66699 14.334 11 23.001c2 6.66699 3.66699 12.667 5 18c0 1.33301 0.666992 2.66602 2 3.99902v4l8 25c1.33301 8 2 17.333 2 28v1127h-157v39h545v-39h-158v-956z" />
    <glyph glyph-name="quotedblleft.0" unicode="&#xa4;" horiz-adv-x="1585" 
d="M1360 1356l82.001 -82l-207 -205c31.333 -36.667 56.666 -75.5 75.999 -116.5s33 -81.833 41 -122.5c5.33301 -20.667 9.33301 -41.334 12 -62.001c1.33301 -20 2 -40.333 2 -61s-0.666992 -41.334 -2 -62.001c-2.66699 -20 -6.66699 -40.333 -12 -61
c-8 -41.333 -21.667 -82.333 -41 -123s-44.666 -79.667 -75.999 -117l207 -204l-82 -82l-205 206c-36.667 -30 -75.334 -54.333 -116.001 -73c-41.333 -20.667 -82.333 -35 -123 -43c-20.667 -5.33301 -41.334 -9 -62.001 -11c-20 -2.66699 -40.333 -4 -61 -4
s-41.334 1.33301 -62.001 4c-20 2 -40.333 5.66699 -61 11c-40.667 8 -81.667 22.333 -123 43c-40.667 18.667 -79.667 43 -117 73l-204 -206l-83 82l207 204c-30 37.333 -54.833 76.333 -74.5 117s-33.834 81.667 -42.501 123c-5.33301 20.667 -8.66602 41 -9.99902 61
c-2.66699 20.667 -4 41.334 -4 62.001s1.33301 41 4 61c1.33301 20.667 4.66602 41.334 9.99902 62.001c8.66699 40.667 22.834 81.5 42.501 122.5s44.5 79.833 74.5 116.5l-207 205l83 82l204 -207c37.333 31.333 76.333 56.666 117 75.999c41.333 19.333 82.333 33 123 41
c20.667 5.33301 41 9.33301 61 12c20.667 1.33301 41.334 2 62.001 2s41 -0.666992 61 -2c20.667 -2.66699 41.334 -6.66699 62.001 -12c40.667 -8 81.5 -21.667 122.5 -41s79.833 -44.666 116.5 -75.999zM334.001 707c0 -131.333 45.667 -242.666 137 -333.999
c90 -91.333 197.333 -137 322 -137c125.333 0 233 45.667 323 137c90.667 91.333 136 202.666 136 333.999c0 130.667 -45.333 242 -136 334c-90 91.333 -197.667 137 -323 137c-124.667 0 -232 -45.667 -322 -137c-91.333 -92 -137 -203.333 -137 -334z" />
    <glyph glyph-name="endash" unicode="&#xa5;" horiz-adv-x="1110" 
d="M473 1303v-1262h158v-41h-545v41h157v1262h-157v39h604c70 0 124.667 19.667 164 59c40 39.333 69.333 83 88 131c12.667 31.333 22.334 61.333 29.001 90c5.33301 28.667 8.66602 52 9.99902 70h49l29 -553h-43c-16.667 40.667 -36.5 72 -59.5 94
s-46.833 38.667 -71.5 50c-26 9.33301 -50.667 15.333 -74 18c-24.667 1.33301 -45 2 -61 2h-2h-275z" />
    <glyph glyph-name="circumflex" unicode="&#xa6;" horiz-adv-x="631" 
d="M200 92c0 32 11.833 59.166 35.5 81.499s50.5 33.5 80.5 33.5h16c4 -1.33301 8.66699 -2.66602 14 -3.99902c20.667 -6.66699 40 -19 58 -37c17.333 -19.333 26 -44 26 -74c0 -32.667 -10.667 -59 -32 -79c-22 -22.667 -49.333 -34 -82 -34c-30 0 -54 9 -72 27
c-19.333 16.667 -32.333 35.334 -39 56.001c-1.33301 5.33301 -2 10.666 -2 15.999c-2 4 -3 8.66699 -3 14zM200 780.999c0 30 9.33301 54.334 28 73.001c17.333 18 36.333 30.333 57 37l16 4h15c31.333 0 58.666 -11.667 81.999 -35c21.333 -22.667 32 -49 32 -79v-15
l-4 -16c-6.66699 -20.667 -19 -40 -37 -58c-18.667 -17.333 -43 -26 -73 -26c-33.333 0 -60.666 11 -81.999 33c-22.667 21.333 -34 48.666 -34 81.999z" />
    <glyph glyph-name="scaron" unicode="&#xa7;" horiz-adv-x="1110" 
d="M654 25l-311.998 133c-12 5.33301 -26.333 13.666 -43 24.999c-16 9.33301 -33 21.333 -51 36c-32.667 28.667 -63 67 -91 115c-28.667 46.667 -43 102.667 -43 168v20c0 6 0.666992 11.667 2 17c7.33301 62.667 31 121.334 71 176.001c38 54.667 89.667 88 155 100
c-38 27.333 -70 67 -96 119c-27.333 52 -41 119.667 -41 203c0 95.333 30 170.333 90 225c60 55.333 126.333 89 199 101c9.33301 2.66699 19.666 4.66699 30.999 6h32c84.667 0 161.334 -26.667 230.001 -80s103 -123.666 103 -210.999c0 -31.333 -8.33301 -55.5 -25 -72.5
s-34.667 -27.833 -54 -32.5c-4 -1.33301 -8 -2 -12 -2c-5.33301 -1.33301 -10 -2 -14 -2c-34.667 0 -60 11.667 -76 35c-18 22 -27 48 -27 78c0 20.667 4.16699 36.334 12.5 47.001s17.166 21 26.499 31c1.33301 0 2.66602 0.666992 3.99902 2l2 2
c5.33301 5.33301 11 10.666 17 15.999c4 4 7.33301 9.66699 10 17l4 12v10v8v6v5v4c0 21.333 -13 39 -39 53c-26 12 -54.667 21 -86 27l-37 4c-12 1.33301 -23.667 2 -35 2c-83.333 0 -146.666 -24 -189.999 -72c-45.333 -49.333 -68.666 -103.333 -69.999 -162v-2v-4
c0 -50.667 12.333 -93.667 37 -129c23.333 -36.667 59 -64.667 107 -84l338 -137c61.333 -24.667 110.833 -63 148.5 -115s59.167 -112.667 64.5 -182c1.33301 -5.33301 2 -10 2 -14v-17v-6v-6c-1.33301 -2.66699 -2 -4.66699 -2 -6v-8l-4 -29
c-1.33301 -9.33301 -3.33301 -19 -6 -29c-14 -57.333 -42.333 -109 -85 -155c-42 -48 -95 -72 -159 -72c36.667 -18 66.667 -37.167 90 -57.5s41.666 -40.833 54.999 -61.5c15.333 -24.667 25.666 -48.667 30.999 -72s8 -43.666 8 -60.999v-33
c-1.33301 -12.667 -2.66602 -24.334 -3.99902 -35.001c-12 -86 -49 -165.333 -111 -238c-61.333 -72 -150.666 -108 -267.999 -108c-109.333 0 -196.833 27.333 -262.5 82s-101.834 114 -108.501 178c-1.33301 4 -2 8 -2 12v10c0 33.333 11 62.666 33 87.999
c20.667 24.667 50 37 88 37c28.667 0 52 -10 70 -30c16 -22 24 -50 24 -84c0 -22 -3.33301 -37 -10 -45c-8.66699 -10 -18.334 -18.333 -29.001 -25l-2 -2c-1.33301 -1.33301 -2.66602 -2 -3.99902 -2l-8 -4c-3.33301 -2.66699 -7 -4.66699 -11 -6
c-5.33301 -4 -10 -9 -14 -15c-5.33301 -5.33301 -8 -11.333 -8 -18s2 -14.334 6 -23.001c2.66699 -8 7.33398 -16 14.001 -24c16.667 -23.333 43.667 -44 81 -62c35.333 -18.667 75.333 -28 120 -28c15.333 0 32 1.33301 50 4c17.333 1.33301 35.666 4.66602 54.999 9.99902
c43.333 10.667 83.666 32 120.999 64c35.333 31.333 53 77 53 137c0 50.667 -8 92.334 -24 125.001c-18 31.333 -37.333 56.333 -58 75c-12 8.66699 -23.667 16.334 -35 23.001c-10.667 7.33301 -20 12.333 -28 15zM748.002 633l-299.001 122.999c-10 4 -21 7.33301 -33 10
c-12 1.33301 -25 2 -39 2h-12c-5.33301 0 -11 -0.666992 -17 -2c-36.667 -4 -70.667 -17.667 -102 -41c-31.333 -24.667 -50 -60.667 -56 -108v-6c-1.33301 -3.33301 -2 -5.66602 -2 -6.99902v-6v-8v-4c0 -2.66699 0.666992 -4.66699 2 -6v-6v-6
c4 -38.667 19 -73.667 45 -105c26 -32.667 57 -56.667 93 -72l369 -149c5.33301 -1.33301 11.333 -2.66602 18 -3.99902s13.334 -2 20.001 -2c8.66699 0 17.667 0.666992 27 2c8 1.33301 17 3.33301 27 6c31.333 10.667 60 29.667 86 57s39 63.666 39 108.999v16
c-1.33301 5.33301 -2 11 -2 17c-5.33301 36.667 -21 72 -47 106s-65 62 -117 84z" />
    <glyph glyph-name="H.0" unicode="&#xa8;" horiz-adv-x="1225" 
d="M243 41l-0.00195312 1262h-157v39h1010l22 -387h-49c-14.667 108.667 -48 194 -100 256c-53.333 61.333 -132.666 92 -237.999 92h-258v-565h76c12.667 0 27.667 1.33301 45 4c16.667 1.33301 34.334 6 53.001 14c28.667 12 55.334 35.333 80.001 70
c23.333 34 37 86.333 41 157h41v-536h-41v10l-4 8c-14.667 87.333 -34.334 148 -59.001 182c-26 33.333 -74.667 50 -146 50h-86v-656h293c11.333 0 23 0.666992 35 2c10.667 0 21.667 0.666992 33 2c58.667 8.66699 114.667 37.834 168 87.501s92 144.834 116 285.501h50
l-43 -418h-1039v41h157zM413.998 1463c-6.66699 0 -14.333 0.664062 -23 1.99707c-9.33301 0 -18.666 1.33301 -27.999 4c-16.667 4 -31.667 12.667 -45 26c-15.333 12.667 -23 33.334 -23 62.001c0 36.667 11.667 61 35 73c22 11.333 50 17 84 17
c38 0 65.333 -5.66699 82 -17c16 -10.667 27 -22.667 33 -36c1.33301 -7.33301 2.66602 -13.666 3.99902 -18.999v-18v-13c-1.33301 -5.33301 -2 -10.666 -2 -15.999c-4 -16.667 -13.667 -31.667 -29 -45c-16.667 -13.333 -46 -20 -88 -20zM845.999 1463
c-6.66699 0 -13.3301 0.665039 -19.9971 1.99805c-7.33301 0 -15 0.666992 -23 2c-19.333 2.66699 -36.333 10.667 -51 24c-16.667 12.667 -25 34.667 -25 66s10.333 54.333 31 69c19.333 14 48.666 21 87.999 21c38 0 65.333 -5.66699 82 -17
c16.667 -10.667 27.667 -22.667 33 -36c1.33301 -7.33301 2.66602 -13.666 3.99902 -18.999v-18v-13c-1.33301 -5.33301 -2 -10.666 -2 -15.999c-4 -16.667 -13.833 -31.667 -29.5 -45s-44.834 -20 -87.501 -20z" />
    <glyph glyph-name="I.0" unicode="&#xa9;" horiz-adv-x="1561" 
d="M86 670l-0.000976562 9.99902v8c4 169.333 69 324.333 195 465c124 140.667 290.667 211 500 211c192 0 355.667 -67.833 491 -203.5s203 -299.167 203 -490.5c0 -190 -67 -352.333 -201 -487c-135.333 -136 -299.666 -204 -492.999 -204
c-195.333 0 -360 68.667 -494 206c-134 134.667 -201 296.334 -201 485.001zM143.999 669.999c0 -173.333 61.334 -322.5 184.001 -447.5s273.667 -187.5 453 -187.5c177.333 0 328 62.667 452 188c122.667 124.667 184 273.667 184 447c0 178.667 -63.333 329.667 -190 453
c-126.667 122 -275.334 183 -446.001 183c-172.667 0 -321.667 -61 -447 -183c-126.667 -123.333 -190 -274.333 -190 -453zM1032 831.999l-34.001 0.00488281c-1.33301 12 -4.33301 27.667 -9 47c-5.33301 17.333 -12 35.666 -20 54.999c-14 31.333 -36 60.666 -66 87.999
s-73 41 -129 41c-48.667 0 -86.667 -16.333 -114 -49s-48 -68 -62 -106c-9.33301 -32 -15.333 -61.667 -18 -89c-4 -28.667 -6.66699 -48.334 -8 -59.001v-33v-32v-17v-16c2.66699 -126 20.334 -217 53.001 -273s68.667 -90.667 108 -104c10 -4 19.667 -6.66699 29 -8
s19 -2 29 -2c56 0 107.5 24.167 154.5 72.5s78.167 110.166 93.5 185.499h34l-10 -281h-35v8c0 7.33301 -1.33301 14.333 -4 21c-5.33301 6.66699 -11.333 10 -18 10c-10 0 -17.667 -0.666992 -23 -2c-5.33301 -2.66699 -10 -6 -14 -10
c-2.66699 -1.33301 -5.33398 -3.33301 -8.00098 -6l-13 -9c-10.667 -6.66699 -27.667 -12.667 -51 -18s-59.333 -8 -108 -8c-127.333 0 -221.666 35.333 -282.999 106c-61.333 71.333 -98 149.333 -110 234c-3.33301 12 -5 24.333 -5 37c-1.33301 12 -2 24.333 -2 37
c0 9.33301 0.666992 19.333 2 30c0 10 0.666992 19.667 2 29c10 98 46.333 188 109 270c62.667 80.667 153.334 121 272.001 121c40 0 70.167 -1.33301 90.5 -4s36.833 -5.33398 49.5 -8.00098c5.33301 -2.66699 10 -4.66699 14 -6s8 -2.83301 12 -4.5s8.33301 -2.5 13 -2.5
c4 -1.33301 8.66699 -2 14 -2c1.33301 0 2.66602 0.666992 3.99902 2h2c4 3.33301 7.33301 7 10 11s4.66699 8.66699 6 14h31z" />
    <glyph glyph-name="J.0" unicode="&#xaa;" horiz-adv-x="1243" 
d="M1143 492l42.9971 -0.00390625c-4 -28.667 -10.167 -61.834 -18.5 -99.501s-20.5 -76.167 -36.5 -115.5c-31.333 -75.333 -80.666 -143.666 -147.999 -204.999c-66.667 -61.333 -162 -92 -286 -92c-195.333 0 -342.333 71 -441 213s-148 313.333 -148 514
c0 169.333 37 301.666 111 396.999s155.333 164.333 244 207c42.667 19.333 84.334 33.666 125.001 42.999c40.667 8 77.667 12 111 12c22.667 0 45 -1.33301 67 -4c20.667 -2.66699 38.334 -6 53.001 -10c7.33301 -1.33301 13.666 -2.66602 18.999 -3.99902l12 -4
c5.33301 -1.33301 10.166 -2.66602 14.499 -3.99902l12.5 -4c20.667 -7.33301 37.667 -13.666 51 -18.999s26.333 -8.66602 39 -9.99902h4h2c19.333 0 34.333 4 45 12s20.334 20.333 29.001 37l4 8l4 8l49 2l10 -436l-45 -2c-14.667 117.333 -47.334 212.333 -98.001 285
c-50.667 70.667 -136.667 106 -258 106c-19.333 0 -40.666 -2 -63.999 -6c-24 -5.33301 -49 -14.666 -75 -27.999c-54.667 -27.333 -104 -78.666 -148 -153.999c-40.667 -68 -61 -169 -61 -303v-37l2 -72l538 11v-41l-538 -9l4 -221c2.66699 -162.667 41 -278 115 -346
c72 -68 153.667 -102 245 -102c97.333 0 184 41 260 123c76.667 80 127.334 196.667 152.001 350z" />
    <glyph glyph-name="ampersand.0" unicode="&#xab;" horiz-adv-x="778" 
d="M570 23l-19.001 -17c-74.667 87.333 -153.5 166.5 -236.5 237.5s-168.833 134.5 -257.5 190.5c88.667 56 174.667 119.667 258 191c82.667 69.333 161.334 148.333 236.001 237l19 -16c-42.667 -74 -88 -145 -136 -213s-98 -134.333 -150 -199
c52 -62.667 102 -128 150 -196c48 -70 93.333 -141.667 136 -215zM720.999 211l-20 -7.99805c-40 45.333 -83 87.666 -129 126.999c-48 38 -99.333 72.667 -154 104c54.667 33.333 106 69.666 154 108.999c46 38 89 79.667 129 125l20 -8
c-17.333 -41.333 -37.666 -80.333 -60.999 -117c-24.667 -38 -52 -73.667 -82 -107c30 -34 57.333 -69.333 82 -106c23.333 -38 43.666 -77.667 60.999 -119z" />
    <glyph glyph-name="quotesingle.0" unicode="&#xac;" horiz-adv-x="1518" 
d="M1432 574v-373h-73l-1 307h-1272v66h1346z" />
    <glyph glyph-name="daggerdbl" unicode="&#xad;" horiz-adv-x="719" 
d="M143 372v93h433v-93h-433z" />
    <glyph glyph-name="dagger" unicode="&#xae;" horiz-adv-x="1575" 
d="M92 672c0 195.333 69.667 360.666 209 495.999c138 133.333 300 200 486 200c188 0 351 -66.667 489 -200c138 -135.333 207 -300.666 207 -495.999c0 -190 -67 -352.333 -201 -487c-134.667 -137.333 -299.667 -206 -495 -206c-192.667 0 -356.667 68.667 -492 206
c-135.333 134.667 -203 297 -203 487zM150 672c0 -172 62 -320.666 186 -445.999c122.667 -127.333 273 -191 451 -191c174.667 0 324.667 62 450 186c124 123.333 186 273.666 186 450.999c0 178.667 -62 329.667 -186 453c-125.333 122 -275.333 183 -450 183
c-170.667 0 -319.667 -61 -447 -183c-126.667 -123.333 -190 -274.333 -190 -453zM674 311.001l88.002 0.000976562v-22h-342v22h90v713h-90v22h332h65c24.667 -1.33301 50.667 -4 78 -8c48 -6.66699 91.667 -21.334 131 -44.001c40 -23.333 60 -61.666 60 -114.999
c0 -11.333 -1.5 -23.833 -4.5 -37.5s-8.5 -27.167 -16.5 -40.5c-13.333 -22 -36.5 -43.167 -69.5 -63.5s-82.167 -34.5 -147.5 -42.5v-7c27.333 -5.33301 50.666 -11.333 69.999 -18c18.667 -8 35 -16.333 49 -25c20.667 -10.667 35.667 -20.667 45 -30
c9.33301 -11.333 16 -20.333 20 -27c8.66699 -13.333 15 -31 19 -53l8 -72c1.33301 -4 2 -7.33301 2 -10v-10c4 -33.333 8.66699 -62 14 -86c4.66699 -26 13.667 -39 27 -39c2.66699 0 7.33398 2 14.001 6c6 2.66699 11.667 6 17 10
c1.33301 1.33301 3.33301 2.66602 6 3.99902c1.33301 0 2.66602 0.666992 3.99902 2c4 4 8 7.33301 12 10c2.66699 3.33301 5.66699 6.33301 9 9l18 -21c-16.667 -17.333 -31.834 -30.5 -45.501 -39.5s-26.5 -14.833 -38.5 -17.5c-8 -1.33301 -16.333 -2 -25 -2
c-8 -1.33301 -16.667 -2 -26 -2c-53.333 0 -91 10.667 -113 32c-22 22 -36.333 69.333 -43 142c-9.33301 110.667 -23.666 176 -42.999 196c-20.667 20.667 -53.334 31 -98.001 31h-76v-367zM674.002 701.002l64.001 0.000976562h18c5.33301 0 10.666 0.666992 15.999 2
c32.667 2.66699 63.667 15 93 37c26.667 21.333 40 67.666 40 138.999c0 57.333 -12 96.333 -36 117c-26 18.667 -67 28 -123 28h-72v-323z" />
    <glyph glyph-name="macron" unicode="&#xaf;" horiz-adv-x="1639" 
d="M994 1367c58 4 124.67 23.0049 200.003 57.0049c37.333 17.333 58.666 47.333 63.999 90h32c0 -56 -7.83301 -102.167 -23.5 -138.5s-37.834 -72.833 -66.501 -109.5c-12.667 -17.333 -30.667 -30.833 -54 -40.5s-57 -20.167 -101 -31.5
c-21.333 -5.33301 -64.666 -9.33301 -129.999 -12c-66 -2.66699 -143 -5.33398 -231 -8.00098c-88.667 -2.66699 -135 -4.66699 -139 -6c-76 -5.33301 -147.5 -28.166 -214.5 -68.499s-114.167 -80.5 -141.5 -120.5c-56 -80.667 -84 -192 -84 -334
c27.333 57.333 58 104.666 92 141.999c72.667 72.667 140.334 114 203.001 124c38 6.66699 66.667 10 86 10c124 0 229.667 -44 317 -132c38 43.333 79 75.333 123 96c31.333 13.333 62 22.666 92 27.999s57.333 8 82 8c117.333 0 221 -45.333 311 -136
c88.667 -90.667 133 -197.334 133 -320.001c0 -116 -40 -221.667 -120 -317c-17.333 -17.333 -45.833 -43.333 -85.5 -78s-67.167 -56.667 -82.5 -66c10.667 17.333 22.334 62.666 35.001 135.999s20.667 132.666 24 177.999c2.66699 48.667 4.66699 97.667 6 147
c0 50.667 -2 101.334 -6 152.001c-1.33301 14.667 -3.33301 31.667 -6 51c-2.66699 20.667 -6.66699 41 -12 61c-11.333 40 -31.333 76.333 -60 109c-30 34 -75 51 -135 51c-54.667 0 -96.334 -15 -125.001 -45c-29.333 -31.333 -49.666 -64 -60.999 -98
c-5.33301 -20.667 -9.66602 -41.334 -12.999 -62.001c-2.66699 -18.667 -4.66699 -35.667 -6 -51c-4 -51.333 -6 -101.666 -6 -150.999c2.66699 -62.667 11.667 -116.667 27 -162c-30 -11.333 -73 -17 -129 -17c-40.667 0 -74.334 4.33301 -101.001 13
c12 30 18 79.667 18 149c0 50.667 -2 101.334 -6 152.001c-1.33301 14.667 -3.33301 31.667 -6 51c-2.66699 20.667 -6.66699 41 -12 61c-10.667 40 -30.334 76.333 -59.001 109c-30 34 -75 51 -135 51c-63.333 0 -110 -17 -140 -51
c-28.667 -32.667 -48.334 -69 -59.001 -109c-5.33301 -20 -9.33301 -40.333 -12 -61c-2.66699 -19.333 -4.66699 -36.333 -6 -51c-4.66699 -50.667 -7 -101.334 -7 -152.001c1.33301 -49.333 3.66602 -98.333 6.99902 -147c4 -48.667 12 -108.667 24 -180
s23.667 -116 35 -134c-22.667 14 -54.667 42 -96 84c-41.333 42.667 -76.333 85.667 -105 129c-56 87.333 -84 223.333 -84 408c0 246 52.667 426.333 158 541c52 55.333 113.333 97 184 125c70.667 28.667 142 47.5 214 56.5s152.667 14.167 242 15.5
s139.666 2.66602 150.999 3.99902z" />
    <glyph glyph-name="zero.1" unicode="&#xb0;" horiz-adv-x="602" 
d="M114 1219c0 53.333 18.666 97.666 55.999 132.999s81 53 131 53c50.667 0 94.334 -17.667 131.001 -53c37.333 -35.333 56 -79.666 56 -132.999c0 -50.667 -18.167 -94.5 -54.5 -131.5s-80.5 -55.5 -132.5 -55.5c-53.333 0 -97.833 18.5 -133.5 55.5
s-53.5 80.833 -53.5 131.5zM165.999 1219c0 -38.667 13.667 -70.666 41 -95.999c26 -26 57.333 -39 94 -39c38.667 0 71 13.667 97 41s39 58.666 39 93.999c0 36.667 -13 68.667 -39 96c-26 26 -58.333 39 -97 39c-36.667 0 -68 -13 -94 -39c-27.333 -26 -41 -58 -41 -96z
" />
    <glyph glyph-name="at.0" unicode="&#xb1;" horiz-adv-x="1377" 
d="M144 119v84h1089v-84h-1089zM733 359h-86v309h-503v88h503v397h86v-397h500v-88h-500v-309z" />
    <glyph glyph-name="P.0" unicode="&#xb2;" horiz-adv-x="717" 
d="M243 41v1262h-157v39h545v-39h-158v-1262h158v-41h-545v41h157z" />
    <glyph glyph-name="S.0" unicode="&#xb3;" horiz-adv-x="535" 
d="M41 35l128.999 0.000976562v803h-129v35h203h27h20c10.667 1.33301 22.334 2.66602 35.001 3.99902s27.667 3.33301 45 6v-848h129v-35h-459v35zM151.999 1204c0 30.667 11.666 57.332 34.999 79.999c21.333 23.333 47.666 35 78.999 35h17
c4 -1.33301 8.66699 -2.66602 14 -3.99902c20.667 -6.66699 39.834 -19.167 57.501 -37.5s26.5 -42.833 26.5 -73.5c0 -30 -8.66699 -53.667 -26 -71c-18 -19.333 -37.333 -32.333 -58 -39c-5.33301 -1.33301 -10 -2 -14 -2c-5.33301 -1.33301 -11 -2 -17 -2
c-31.333 0 -57.666 11.667 -78.999 35c-23.333 22.667 -35 49 -35 79z" />
    <glyph glyph-name="T.0" unicode="&#xb4;" horiz-adv-x="805" 
d="M170 35v803.001h-129v35h457c72 0 126 14.333 162 43c35.333 27.333 64 94.666 86 201.999h43v-442h-43c-12.667 53.333 -36.667 91 -72 113c-36.667 22 -75 36.333 -115 43c-22.667 4 -45 6 -67 6h-62h-12h-12h-35v-803h129v-35h-459v35h129z" />
    <glyph glyph-name="U.0" unicode="&#xb5;" horiz-adv-x="1084" 
d="M920 35h129v-35h-330v117l-20 -23l-23 -20c-48 -44 -93.833 -71.5 -137.5 -82.5s-79.167 -16.5 -106.5 -16.5c-34 0 -64 5.5 -90 16.5s-49.667 27.5 -71 49.5h-9l14.5 -56.5l22.5 -89.5l4 -16c1.33301 -6.66699 3 -13 5 -19l22 -104c6 -34 9 -58.667 9 -74
c0 -57.333 -12.167 -95.5 -36.5 -114.5s-54.166 -28.5 -89.499 -28.5c-40.667 0 -68.667 10.333 -84 31c-14.667 20 -23.334 41.667 -26.001 65c-1.33301 8 -2 16.333 -2 25v22c0 22 3.33301 56.167 10 102.5l22 151.5l4 33c2 9.33301 3.66699 19 5 29l16 133
c4 42.667 6 80.334 6 113.001v629h201v-690c0 -42.667 13.667 -78.334 41 -107.001c26 -28.667 60.667 -43 104 -43c40 0 76.333 11.667 109 35c31.333 22 58 46.667 80 74c4 4 8 8.66699 12 14l8 12v705h201v-838z" />
    <glyph glyph-name="V.0" unicode="&#xb6;" horiz-adv-x="918" 
d="M429 -402l-0.998047 1119c-104.667 2.66699 -187.334 36 -248.001 100c-60 63.333 -95.333 132.333 -106 207c-1.33301 8.66699 -2 17.667 -2 27c-1.33301 8 -2 16 -2 24v15c0 5.33301 0.666992 10 2 14c5.33301 80.667 38.666 155 99.999 223
c60 67.333 145.333 103 256 107h144v-1836h-143zM715.002 -402v1836h143v-1836h-143z" />
    <glyph glyph-name="periodcentered.0" unicode="&#xb7;" horiz-adv-x="2253" 
d="M426 -187c48.667 -18 116.67 -30.9971 204.003 -38.9971s191 -14.333 311 -19c120.667 -5.33301 190 -10.333 208 -15c40.667 -10 73.667 -20.333 99 -31c24.667 -10 43.667 -23.667 57 -41c28.667 -35.333 51.167 -71.5 67.5 -108.5s24.5 -83.5 24.5 -139.5h-33
c-5.33301 42.667 -27 72.667 -65 90c-74.667 33.333 -142.334 52.666 -203.001 57.999c-12.667 0.666992 -70 1.66699 -172 3c-102 0.666992 -194.333 5.33398 -277 14.001s-164.5 27.167 -245.5 55.5s-147.167 69.5 -198.5 123.5c-105.333 92.667 -158 271.667 -158 537
c0 182 28 316.667 84 404c54.667 87.333 115.667 147 183 179c31.333 14 62 23.667 92 29s57.333 8 82 8h2c123.333 0 228.333 -44 315 -132c38 43.333 79 75.333 123 96c31.333 13.333 62 22.666 92 27.999s57.333 8 82 8c124.667 0 230.334 -44 317.001 -132
c38.667 43.333 79.667 75.333 123 96c31.333 13.333 62.166 22.666 92.499 27.999s57.5 8 81.5 8c118 0 222 -45.333 312 -136c88.667 -90.667 133 -197.334 133 -320.001c0 -116 -40.333 -221.667 -121 -317c-17.333 -17.333 -45.666 -43.333 -84.999 -78
s-67 -56.667 -83 -66c11.333 17.333 23 61.666 35 132.999c12.667 72 21 132.333 25 181c2.66699 48.667 4.66699 97.667 6 147c0 50.667 -2 101.334 -6 152.001c-1.33301 14.667 -3.33301 31.667 -6 51c-3.33301 20.667 -7.66602 41 -12.999 61
c-10.667 40 -30.334 76.333 -59.001 109c-30 34 -75.333 51 -136 51c-54 0 -95.333 -15 -124 -45c-29.333 -31.333 -50 -64 -62 -98c-5.33301 -20.667 -9.33301 -41.334 -12 -62.001c-2.66699 -18.667 -4.66699 -35.667 -6 -51c-4 -51.333 -6 -101.666 -6 -150.999
c2 -62.667 10.667 -116.667 26 -162c-30 -11.333 -73 -17 -129 -17c-40.667 0 -74 4.33301 -100 13c12 30 18 79.667 18 149c0 50.667 -2 101.334 -6 152.001c-1.33301 14.667 -3.33301 31.667 -6 51c-2.66699 20.667 -6.66699 41 -12 61c-11.333 40 -31.333 76.333 -60 109
c-30 34 -75 51 -135 51c-54.667 0 -96.334 -15 -125.001 -45c-29.333 -31.333 -49.666 -64 -60.999 -98c-5.33301 -20.667 -9.66602 -41.334 -12.999 -62.001c-2.66699 -18.667 -4.66699 -35.667 -6 -51c-4 -51.333 -6 -101.666 -6 -150.999
c2.66699 -62.667 11.667 -116.667 27 -162c-30 -11.333 -73 -17 -129 -17c-40.667 0 -74.334 4.33301 -101.001 13c12 30 18 79.667 18 149c0 50.667 -2 101.334 -6 152.001c-1.33301 14.667 -3.33301 31.667 -6 51c-2.66699 20.667 -6.66699 41 -12 61
c-10.667 40 -30.334 76.333 -59.001 109c-30 34 -75 51 -135 51c-54.667 0 -96.334 -15 -125.001 -45c-15.333 -16 -36 -48.667 -62 -98c-18.667 -34.667 -32.834 -86.834 -42.501 -156.501s-14.5 -146.5 -14.5 -230.5c0 -182.667 18.667 -320 56 -412
c18.667 -64.667 60.667 -109.334 126 -134.001z" />
    <glyph glyph-name="quoteleft" unicode="&#xb8;" horiz-adv-x="899" 
d="M819 244l35.001 -23.001c-48.667 -77.333 -106 -136.666 -172 -177.999c-65.333 -42 -145 -63 -239 -63c-108 0 -201 43 -279 129c-79.333 84.667 -119 193.667 -119 327c0 123.333 39.667 230.666 119 321.999c78 91.333 175 137 291 137c22 0 46.667 -2 74 -6
s54.666 -11.333 81.999 -22c54 -22 105 -61.667 153 -119c48 -58.667 75.333 -146 82 -262h-573l2 -142c0 -12 0.666992 -25 2 -39c0 -13.333 0.666992 -27 2 -41c5.33301 -61.333 21 -117.166 47 -167.499s75.667 -75.5 149 -75.5c48 0 101.333 14.333 160 43
c58.667 27.333 120 87.333 184 180zM273.001 517.999l360 -0.000976562v39c0 76.667 -6.66699 144.334 -20 203.001c-18 66.667 -67.333 100 -148 100c-52 0 -91 -11.333 -117 -34c-26 -24.667 -44 -51.334 -54 -80.001c-8.66699 -19.333 -13.667 -38 -15 -56
c-2.66699 -17.333 -4 -31.666 -4 -42.999zM148.001 1204c0 32 10.667 58.666 32 79.999c22 20.667 46 32.334 72 35.001h6h4h17c4 -1.33301 8.66699 -2.66602 14 -3.99902c20.667 -6.66699 39.667 -19 57 -37c18 -18.667 27 -43.334 27 -74.001c0 -30 -9 -53.667 -27 -71
c-17.333 -19.333 -36.333 -32.333 -57 -39c-5.33301 -1.33301 -10 -2 -14 -2c-5.33301 -1.33301 -11 -2 -17 -2c-30 0 -56.5 11.5 -79.5 34.5s-34.5 49.5 -34.5 79.5zM520.001 1204c0 30.667 11.667 57.333 35 80c22 23.333 48.667 35 80 35h17
c4 -1.33301 8.66699 -2.66602 14 -3.99902c20.667 -6.66699 39.667 -19 57 -37c18 -18.667 27 -43.334 27 -74.001c0 -30 -9 -53.667 -27 -71c-17.333 -19.333 -36.333 -32.333 -57 -39c-5.33301 -1.33301 -10 -2 -14 -2c-6 -1.33301 -11.667 -2 -17 -2
c-31.333 0 -58 11.667 -80 35c-23.333 22.667 -35 49 -35 79z" />
    <glyph glyph-name="one.0" unicode="&#xb9;" horiz-adv-x="2271" 
d="M1366 -23l-48.998 0.000976562l-770 1152v-897c0 -83.333 -16.667 -146.333 -50 -189c-32 -42.667 -84.333 -64 -157 -64c-6.66699 0 -12.667 0.666992 -18 2h-21c-53.333 7.33301 -102.333 28 -147 62c-45.333 32.667 -68 79.334 -68 140.001c0 50 13 88 39 114
c24.667 24.667 56 37 94 37c30 0 54.667 -9.66699 74 -29c18 -20 28.333 -41.667 31 -65c1.33301 -2.66699 2 -4.66699 2 -6v-8c0 -12.667 -1.33301 -24.334 -4 -35.001c-4 -12.667 -9.66699 -24.334 -17 -35.001c-1.33301 -1.33301 -2 -2.66602 -2 -3.99902l-4 -4
c-5.33301 -10 -11.333 -18.333 -18 -25s-11.667 -12.667 -15 -18c-2.66699 -4 -4.66699 -7.83301 -6 -11.5s-2 -7.5 -2 -11.5c0 -2.66699 0.666992 -5.33398 2 -8.00098v-10c4 -12.667 11.667 -23.667 23 -33c10.667 -10.667 27.667 -16 51 -16
c9.33301 0 20.333 0.666992 33 2c10.667 1.33301 21.667 4.66602 33 9.99902c24 9.33301 46.167 29 66.5 59s30.5 78 30.5 144v970c-2.66699 26 -10.667 46 -24 60c-14.667 12 -30.334 20.667 -47.001 26c-10.667 4.66699 -21.667 7.66699 -33 9h-26h-51v47h358l643 -977
v749c0 66 17 124 51 174c32.667 50.667 86.667 76 162 76c64 0 122 -20.333 174 -61c50.667 -41.333 76 -91.333 76 -150c0 -40.667 -10.333 -74 -31 -100c-22 -27.333 -51.333 -41 -88 -41c-38 0 -67.333 12.333 -88 37c-20.667 23.333 -31 50 -31 80
c0 20 3.66699 35.667 11 47c5.33301 10.667 12.333 20 21 28c1.33301 2 2.66602 4.33301 3.99902 7l4 4c6.66699 5.33301 12 11.333 16 18s6 15.667 6 27v10c-1.33301 4 -3.33301 8 -6 12c-6 10 -14.333 19.667 -25 29c-12 8 -27 12 -45 12c-43.333 0 -81 -17 -113 -51
c-32.667 -35.333 -49 -88.666 -49 -159.999v-1135zM2132 82.001v-49h-612v49h612zM1485 545.001c0 104 34 184.001 102 240.001c68.667 56 144 87.333 226 94h14h12c94.667 0 176 -31.5 244 -94.5s102 -144.833 102 -245.5v-2v-4
c-1.33301 -83.333 -32.666 -159.333 -94 -228c-62.667 -69.333 -146 -104 -250 -104c-88.667 0 -169.667 31.333 -243 94c-75.333 61.333 -113 144.666 -113 249.999zM2021 443.002l0.00292969 189.999c0 10.667 -0.666992 22.334 -2 35.001
c-2.66699 10.667 -5.33398 22.334 -8.00098 35.001c-10.667 35.333 -29.667 67.333 -57 96s-65 43 -113 43c-9.33301 0 -19.333 -0.666992 -30 -2c-12.667 -1.33301 -24.334 -4 -35.001 -8c-31.333 -11.333 -60 -32 -86 -62s-39 -75.667 -39 -137v-172
c0 -12 1.66699 -26.333 5 -43c1.33301 -16.667 4.66602 -33.667 9.99902 -51c10.667 -31.333 29.667 -60 57 -86c26 -27.333 64.667 -41 116 -41c10 0 21.667 1.33301 35 4c14 1.33301 28.333 4.66602 43 9.99902c26 11.333 49.833 31.333 71.5 60s32.5 71.667 32.5 129z
" />
    <glyph glyph-name="G.0" unicode="&#xba;" horiz-adv-x="844" 
d="M776 228l33 -15c-23.333 -60 -50.666 -106.333 -81.999 -139c-32.667 -32.667 -65.334 -56.667 -98.001 -72c-22 -8 -44 -13.667 -66 -17c-21.333 -4 -41.666 -6 -60.999 -6c-140.667 0 -252 50 -334 150s-123 210 -123 330c0 131.333 43.667 237 131 317
c86 80.667 187 121 303 121c28.667 0 52.667 -1.33301 72 -4c19.333 -4 37.666 -8.66699 54.999 -14c3.33301 0 7 -0.666992 11 -2c2.66699 -1.33301 6 -2.66602 10 -3.99902l37 -11c9.33301 -4 18 -6 26 -6c11.333 0 21 3.66699 29 11c8 5.33301 15 14.666 21 27.999h34
l9 -307h-37c-1.33301 14 -3.5 28.167 -6.5 42.5s-6.5 28.833 -10.5 43.5c-14.667 46.667 -39.667 89.667 -75 129c-37.333 38 -90 57 -158 57h-23l-24 -4c-44 -8 -83.667 -31.167 -119 -69.5s-53 -104.5 -53 -198.5v-117h358v-35h-358v-112
c0 -104 15.667 -177.167 47 -219.5s65.333 -68.833 102 -79.5c14 -4 28.167 -6.66699 42.5 -8s27.5 -2 39.5 -2c62.667 0 116 16.333 160 49c42 31.333 78 86 108 164z" />
    <glyph glyph-name="bracketleft.0" unicode="&#xbb;" horiz-adv-x="778" 
d="M211 846l17 15.999c74.667 -88.667 153.667 -167.667 237 -237c82 -71.333 167.333 -135 256 -191c-88.667 -56 -174 -119.333 -256 -190c-83.333 -71.333 -162.333 -150.666 -237 -237.999l-17 17c40.667 73.333 85 145 133 215c46.667 68 96.667 133.333 150 196
c-53.333 64.667 -103.333 131 -150 199c-48 68 -92.333 139 -133 213zM57 659.999l23 7.99707c40 -45.333 83 -87 129 -125c46 -39.333 96.333 -75.666 151 -108.999c-54.667 -31.333 -105 -66 -151 -104c-46 -39.333 -89 -81.666 -129 -126.999l-23 8
c19.333 41.333 41.333 81 66 119c22.667 36.667 48.334 72 77.001 106c-28.667 34.667 -54.334 70.334 -77.001 107.001c-24.667 36.667 -46.667 75.667 -66 117z" />
    <glyph glyph-name="w.0" unicode="&#xbc;" horiz-adv-x="561" 
d="M207 838l-158.003 0.00195312v35h234h22h19c10.667 1.33301 22.334 2.66602 35.001 3.99902s29 3.33301 49 6v-1006c0 -105.333 -31.333 -187.333 -94 -246c-63.333 -60 -133 -90 -209 -90c-71.333 0 -125.666 15.667 -162.999 47c-36.667 31.333 -55 71 -55 119
c0 27.333 10.333 49.666 31 66.999c19.333 18 44.666 27 75.999 27c30 0 54 -8 72 -24c16 -16.667 24.667 -34.667 26 -54v-2v-4c0 -12 -1.33301 -23.667 -4 -35c-2.66699 -10.667 -6 -19.334 -10 -26.001v-4c-1.33301 -1.33301 -2.66602 -3 -3.99902 -5
c-2.66699 -6.66699 -4.66699 -12.667 -6 -18c-2.66699 -5.33301 -4 -10.666 -4 -15.999c0 -6 2 -10.333 6 -13c4 -4 8.66699 -6.66699 14 -8h8h5c34 1.33301 60.833 15 80.5 41s30.834 54.667 33.501 86v12v11v4v4v8v8v25l-4 25v12v13v997zM188.997 1204
c0 30.667 11.332 57.333 33.999 80c22 23.333 48.667 35 80 35h17c4 -1.33301 8.66699 -2.66602 14 -3.99902c20.667 -6.66699 39.667 -19 57 -37c18 -18.667 27 -43.334 27 -74.001c0 -30 -9 -53.667 -27 -71c-17.333 -19.333 -36.333 -32.333 -57 -39
c-5.33301 -1.33301 -10 -2 -14 -2c-5.33301 -1.33301 -11 -2 -17 -2c-31.333 0 -58.166 11.5 -80.499 34.5s-33.5 49.5 -33.5 79.5z" />
    <glyph glyph-name="bracketright.0" unicode="&#xbd;" horiz-adv-x="1086" 
d="M90 0l-3.99414 428.005h27c42 -106 91 -188.667 147 -248c54.667 -58.667 110 -101 166 -127c30 -12 60 -20.667 90 -26c28.667 -5.33301 56.667 -8 84 -8h15c4 0 8 0.666992 12 2c65.333 4 125.333 26.833 180 68.5s82 99.834 82 174.501
c0 16.667 -1.33301 35.167 -4 55.5s-8 41.5 -16 63.5c-12.667 31.333 -34 61.333 -64 90c-31.333 28.667 -76.333 50.667 -135 66l-242 65c-74.667 20.667 -141.334 61.667 -200.001 123c-60.667 61.333 -91 157.666 -91 288.999c0 109.333 35.5 194.666 106.5 255.999
s152.5 92 244.5 92c51.333 0 95 -3.33301 131 -10c34 -8 63.333 -17 88 -27l45 -18c13.333 -6.66699 27 -11.334 41 -14.001c5.33301 -1.33301 10.666 -2 15.999 -2c5.33301 -2 11 -3 17 -3c10.667 0 20 5.66699 28 17c7.33301 9.33301 13.666 21 18.999 35h32l9 -324h-29
c-36.667 84.667 -78.334 149.667 -125.001 195c-48 44.667 -96.333 76 -145 94c-20.667 6.66699 -41.334 12 -62.001 16c-20.667 2.66699 -40.334 4 -59.001 4c-79.333 0 -142.333 -23 -189 -69c-47.333 -48 -71 -105.333 -71 -172c0 -71.333 18.5 -124 55.5 -158
s77.167 -58.667 120.5 -74c14 -5.33301 27 -9.33301 39 -12c12.667 -4 25 -7.33301 37 -10l209 -56c87.333 -22.667 153 -57.334 197 -104.001c42 -48 71.333 -97 88 -147c8 -24.667 13.333 -49.334 16 -74.001s4 -48 4 -70c0 -108 -33.667 -201.333 -101 -280
c-66.667 -81.333 -158.667 -122 -276 -122c-60 0 -111.5 4.83301 -154.5 14.5s-79.5 20.834 -109.5 33.501c-7.33301 2.66699 -14.333 6 -21 10l-20 8c-20.667 10 -37 17.667 -49 23c-14 5.33301 -26.333 8.66602 -37 9.99902h-2h-4c-22 0 -40.833 -6.83301 -56.5 -20.5
s-25.5 -32.834 -29.5 -57.501h-50z" />
    <glyph glyph-name="R.0" unicode="&#xbe;" horiz-adv-x="752" 
d="M45 -8l-0.0078125 274.002h29c24.667 -70.667 65 -130 121 -178c54.667 -48.667 119.334 -73 194.001 -73c54.667 0 101.167 11.167 139.5 33.5s57.5 53.5 57.5 93.5c0 10.667 -0.666992 22.5 -2 35.5s-4.66602 26.167 -9.99902 39.5
c-6.66699 19.333 -19.667 38.666 -39 57.999c-20 17.333 -50.667 31.666 -92 42.999l-166 47c-78 23.333 -132 58.666 -162 105.999c-31.333 46.667 -47 100.667 -47 162c0 68 17 121.333 51 160c34 36.667 71.667 63.334 113 80.001c18.667 8 38.334 14 59.001 18
c19.333 2.66699 36.333 4 51 4c26 0 50 -2 72 -6c20.667 -4 38.334 -8.66699 53.001 -14c8 -2.66699 14.833 -5.5 20.5 -8.5s10.5 -5.16699 14.5 -6.5c2.66699 -1.33301 5.33398 -2 8.00098 -2c1.33301 -1.33301 3.33301 -2.66602 6 -3.99902
c4 -1.33301 8.33301 -2.66602 13 -3.99902c2.66699 -1.33301 6 -2.66602 10 -3.99902h10c2.66699 -1.33301 5.33398 -2 8.00098 -2c11.333 0 20.333 2 27 6c6.66699 2.66699 12 6 16 10c2.66699 3.33301 4.66699 6.33301 6 9c2 1.33301 3.66699 2.66602 5 3.99902h27
l-1 -242h-26c-34.667 86 -74.5 146 -119.5 180s-92.833 51 -143.5 51c-60 0 -105 -13.667 -135 -41c-30 -26.667 -45.667 -56.667 -47 -90v-2v-4c0 -32.667 7.5 -58.834 22.5 -78.501s31.5 -34.5 49.5 -44.5c8 -5.33301 16 -9.33301 24 -12
c7.33301 -4 14.333 -6.66699 21 -8l242 -76c57.333 -18 102.333 -45.333 135 -82c31.333 -36.667 47 -86.334 47 -149.001c0 -94.667 -27.333 -163.667 -82 -207c-54.667 -45.333 -114 -73 -178 -83c-12.667 -2.66699 -25 -4 -37 -4c-12.667 -1.33301 -25 -2 -37 -2
c-30 0 -56.667 3.66699 -80 11c-23.333 5.33301 -44.333 11.333 -63 18c-18 8.66699 -31.667 16.334 -41 23.001c-11.333 5.33301 -21.666 8.66602 -30.999 9.99902c-1.33301 1.33301 -2.66602 2 -3.99902 2h-6h-13c-5.33301 -1.33301 -10 -2.66602 -14 -3.99902
c-9.33301 -4 -18.333 -9.33301 -27 -16c-8 -8.66699 -14.667 -18.334 -20 -29.001z" />
    <glyph glyph-name="underscore.0" unicode="&#xbf;" horiz-adv-x="537" 
d="M82 35l128.999 0.000976562v803h-129v35h203h27h20c10.667 1.33301 22.334 2.66602 35.001 3.99902s27.667 3.33301 45 6v-848h129v-35h-459v35zM-4.00098 1204c1.33301 28.667 10.333 50.665 27 65.998c14.667 15.333 32.334 24.333 53.001 27h6h4
c27.333 0 50 -9.66699 68 -29c16 -19.333 24 -40.666 24 -63.999c0 -24 -8 -45 -24 -63c-18 -19.333 -40.667 -29 -68 -29h-4h-6c-20.667 2.66699 -38.334 11.667 -53.001 27c-16.667 14.667 -25 36.334 -25 65.001h-2zM354.999 1204c0 23.333 8.66602 44.666 25.999 63.999
c18 19.333 40 29 66 29c27.333 0 49.666 -9.66699 66.999 -29c18 -19.333 27 -40.666 27 -63.999c0 -22.667 -9 -43.667 -27 -63c-17.333 -19.333 -39.666 -29 -66.999 -29c-23.333 0 -44.666 9 -63.999 27c-18.667 18 -28 39.667 -28 65z" />
    <glyph glyph-name="grave.0" unicode="&#xc0;" horiz-adv-x="1264" 
d="M883 41l-151.998 414.002h-401l-74 -182c-2.66699 -6 -5.33398 -12.333 -8.00098 -19l-8 -20c-5.33301 -12.667 -10 -27 -14 -43c-6 -16.667 -9 -34.667 -9 -54c0 -26.667 7.66699 -48.334 23 -65.001c14.667 -18 50.667 -28.333 108 -31v-41h-348v41
c37.333 2.66699 69.666 15.667 96.999 39c25.333 23.333 45 48.666 59 75.999l8 12l4 12l453 1162h37l467 -1301h139v-41h-563v41h182zM718.002 496.002l-177 508l-201 -508h378z" />
    <glyph glyph-name="a.0" unicode="&#xc1;" horiz-adv-x="1315" 
d="M473 1301l0.000976562 -529.001c48 2.66699 93.333 4 136 4c158 0 277.333 -19.667 358 -59c102.667 -52 171 -110 205 -174c14 -27.333 23.667 -54 29 -80c4 -26 6 -49.333 6 -70c0 -132 -36.333 -224.667 -109 -278c-74 -54.667 -155.333 -88.667 -244 -102
c-34 -6 -68 -9.66699 -102 -11s-65.333 -2 -94 -2h-572v41h157v1260h-157v41h981l23 -375h-39c-6.66699 28.667 -13.334 55.334 -20.001 80.001c-6.66699 23.333 -13.667 44.333 -21 63c-26 82 -56.667 134.667 -92 158c-35.333 22 -91.333 33 -168 33h-277zM473.001 40.999
l127 0.000976562h9h6c18.667 0 39.667 0.666992 63 2c23.333 0 48 3.33301 74 10c49.333 11.333 94.333 38.666 135 81.999c40.667 44 61 120 61 228c0 152.667 -37.333 255 -112 307c-64 45.333 -163 68 -297 68c-20.667 0 -42.667 -1 -66 -3v-694z" />
    <glyph glyph-name="b.0" unicode="&#xc2;" horiz-adv-x="1362" 
d="M86 1342l620.999 -0.00195312c143.333 0 248.333 -18.667 315 -56c67.333 -38 113 -79.667 137 -125c11.333 -21.333 19 -43 23 -65c4 -23.333 6 -43 6 -59c0 -86 -37.167 -153.667 -111.5 -203s-155.833 -80.666 -244.5 -93.999
c-8.66699 -1.33301 -16.334 -2 -23.001 -2c-8 -2 -16 -3.66699 -24 -5v-10c137.333 -22 238.833 -54.167 304.5 -96.5s110.167 -86.5 133.5 -132.5c12.667 -23.333 21 -46 25 -68s6 -43 6 -63v-2v-4c-1.33301 -89.333 -39.666 -170.666 -114.999 -243.999
c-75.333 -75.333 -210.666 -113 -405.999 -113h-647v41h157v1260h-157v41zM472.999 40.998l231.998 -0.00195312c116 0 193.667 32 233 96c38 63.333 57 134.333 57 213c0 110.667 -23 191.334 -69 242.001c-48 49.333 -100.667 82.333 -158 99
c-23.333 6.66699 -45.666 11.334 -66.999 14.001c-23.333 1.33301 -44.666 2 -63.999 2h-164v-666zM472.997 747.996l150 0.000976562c118.667 0 197.667 25.333 237 76c38 48.667 59.667 103 65 163c1.33301 8.66699 2 17 2 25v22c0 105.333 -21.667 174.333 -65 207
c-44.667 33.333 -93 52.666 -145 57.999c-12 1.33301 -23.667 2 -35 2h-35h-174v-553z" />
    <glyph glyph-name="c.0" unicode="&#xc3;" horiz-adv-x="1102" 
d="M473 1301v-1260h158v-41h-545v41h157v1260h-157v41h977l25 -389h-49c-10 88.667 -29.333 156.5 -58 203.5s-58.667 81.5 -90 103.5c-30 19.333 -58 31 -84 35c-27.333 4 -47 6 -59 6h-275z" />
    <glyph glyph-name="d.0" unicode="&#xc4;" horiz-adv-x="1374" 
d="M1333 -367h-56.999c-19.333 104 -50 181.333 -92 232c-44 50 -89.667 85.333 -137 106c-34 14 -67.667 22.333 -101 25c-32.667 2.66699 -60.667 4 -84 4h-426c-98 0 -175.667 -32.333 -233 -97c-57.333 -64 -100.333 -153.333 -129 -268l-57 -2l22 408h80
c75.333 0 141.666 60 198.999 180c56 119.333 84 421.333 84 906c0 58.667 -9 101.667 -27 129c-19.333 27.333 -75.333 43 -168 47v39h1086v-39h-158v-1262h183zM905.001 41l-0.00195312 1262h-176c-124 0 -201.667 -15 -233 -45c-31.333 -31.333 -53.333 -129 -66 -293
c-1.33301 -22 -2.66602 -46 -3.99902 -72c-2.66699 -26 -4.66699 -54 -6 -84c-10.667 -155.333 -23 -280.333 -37 -375c-13.333 -95.333 -27.666 -169.666 -42.999 -222.999c-14.667 -57.333 -29.667 -97 -45 -119c-14.667 -22.667 -27.667 -39.667 -39 -51h649z" />
    <glyph glyph-name="e.0" unicode="&#xc5;" horiz-adv-x="1231" 
d="M243 41v1262h-157v39h1010l22 -387h-49c-14.667 108.667 -48 194 -100 256c-53.333 61.333 -132.666 92 -237.999 92h-258v-565h74c12 0 25 0.666992 39 2c12 0 25.667 2 41 6c31.333 9.33301 60.666 31 87.999 65c27.333 32.667 45 90 53 172h41v-536h-41v10l-4 8
c-14.667 87.333 -34.334 148 -59.001 182c-26 33.333 -74.667 50 -146 50h-86v-656h293c14 0 28.167 0.666992 42.5 2s28.833 3.33301 43.5 6c54.667 11.333 107.334 43 158.001 95c49.333 50 85.333 141.333 108 274h50l-43 -418h-1039v41h157z" />
    <glyph glyph-name="f.0" unicode="&#xc6;" horiz-adv-x="2171" 
d="M1200 754l168.003 -0.000976562c88.667 0 144 23.333 166 70c20.667 46.667 35 106 43 178c0 6.66699 0.666992 14.334 2 23.001c0 6.66699 0.666992 14 2 22c0 4 0.666992 9 2 15v12c10 82.667 26.667 152 50 208c22.667 54.667 84 82 184 82
c52 0 96.333 -16.333 133 -49s55 -75 55 -127v-8v-8c-2.66699 -31.333 -14.5 -60.666 -35.5 -87.999s-52.833 -41 -95.5 -41c-36.667 0 -66 10 -88 30c-23.333 20.667 -35 43.334 -35 68.001c0 15.333 1.33301 29.666 4 42.999s6.33398 26.333 11.001 39
c4 13.333 6.66699 25 8 35v26v4v5c0 4 -2 7.33301 -6 10c-6 2.66699 -12.333 4.66699 -19 6h-6h-6c-28.667 0 -50 -12.667 -64 -38c-14.667 -27.333 -25.334 -57.666 -32.001 -90.999l-4 -36c-1.33301 -14 -2.66602 -26.333 -3.99902 -37c-2 -14 -3.66699 -27.167 -5 -39.5
s-2 -24.5 -2 -36.5c-9.33301 -97.333 -21.833 -164.5 -37.5 -201.5s-45.5 -63.5 -89.5 -79.5v-23c4.66699 -1.33301 9 -2 13 -2c4 -1.33301 7.33301 -2.66602 10 -3.99902c78 -16 145.667 -39 203 -69c56 -30.667 97 -92.334 123 -185.001
c6.66699 -20.667 11.334 -45.334 14.001 -74.001l4 -92c0 -4 0.666992 -8.66699 2 -14v-16c2.66699 -57.333 8 -108.666 16 -153.999c8.66699 -46.667 26.667 -70 54 -70c12 0 25 1.33301 39 4c13.333 3.33301 27 9.66602 41 18.999c8 4 15.333 9.33301 22 16l21 23l30 -29
c-16 -18 -31 -32.333 -45 -43c-13.333 -12 -27 -22.333 -41 -31c-17.333 -9.33301 -35 -16.333 -53 -21c-19.333 -4 -40.333 -6 -63 -6c-130 0 -209.333 41.333 -238 124c-28.667 80.667 -45.667 183 -51 307c0 12.667 -0.666992 32.667 -2 60
c-2.66699 27.333 -9.66699 56 -21 86c-12 39.333 -33.667 75.333 -65 108s-79.333 49 -144 49h-168v-672h158v-41h-545v41h158v672h-168c-64 0 -111.667 -16.333 -143 -49s-53.333 -68.667 -66 -108c-10.667 -30 -16.667 -58.667 -18 -86
c-2.66699 -27.333 -4 -47.333 -4 -60c-6 -124 -23.333 -226.333 -52 -307c-28.667 -82.667 -107.667 -124 -237 -124c-23.333 0 -44 2 -62 6c-18.667 4.66699 -37 11.667 -55 21c-13.333 8.66699 -27 19 -41 31c-13.333 10.667 -28.333 25 -45 43l31 29l20 -23
c7.33301 -6.66699 15 -12 23 -16c13.333 -9.33301 27.666 -15.666 42.999 -18.999c13.333 -2.66699 25.666 -4 36.999 -4c28.667 0 47 25.333 55 76c6.66699 49.333 11.334 104 14.001 164c1.33301 1.33301 2 3.33301 2 6v4v6v6c0 6 0.666992 11.667 2 17v12
c1.33301 24.667 3.66602 48.667 6.99902 72c1.33301 22 4.66602 41 9.99902 57c26 92.667 67.667 154.334 125 185.001c56 30 122.667 53 200 69c3.33301 1.33301 7 2.66602 11 3.99902c4 0 8 0.666992 12 2v23c-48 17.333 -79.333 52 -94 104
c-16.667 50.667 -27 105.667 -31 165c-1.33301 9.33301 -2 18.666 -2 27.999c-1.33301 10 -2 19.667 -2 29c-2.66699 61.333 -9.66699 116 -21 164c-12 46 -41.333 69 -88 69h-6h-6c-6.66699 -1.33301 -12 -3.33301 -16 -6c-5.33301 -2.66699 -8 -6 -8 -10v-5v-4
c0 -8 0.666992 -16.667 2 -26c0 -10 2 -21.667 6 -35c4 -12.667 7.33301 -25.667 10 -39s4 -27.666 4 -42.999c0 -24.667 -11 -47.334 -33 -68.001c-22.667 -20 -52.667 -30 -90 -30c-42 0 -73.333 13.667 -94 41c-22 27.333 -34.333 56.666 -37 87.999v8v8
c0 52 18.333 94.333 55 127c37.333 32.667 82 49 134 49c99.333 0 160.666 -27.333 183.999 -82c23.333 -56 39.666 -125.333 48.999 -208c0 -4 0.666992 -8 2 -12v-15c1.33301 -8 2.66602 -15.333 3.99902 -22v-23c8 -72 23 -131.333 45 -178
c20.667 -46.667 75.334 -70 164.001 -70h168v549h-158v39h545v-39h-158v-549z" />
    <glyph glyph-name="g.0" unicode="&#xc7;" horiz-adv-x="1198" 
d="M187 926l-39 -0.00585938l41 438h39c1.33301 -2.66699 3.33301 -5.33398 6 -8.00098c1.33301 -2.66699 3.33301 -6 6 -10c5.33301 -5.33301 12.666 -10.333 21.999 -15c10 -5.33301 21.667 -8 35 -8c27.333 0 48 1.33301 62 4c12 2.66699 22.667 6.33398 32 11.001
c3.33301 1.33301 6.33301 2.66602 9 3.99902c2.66699 0 5.33398 0.666992 8.00098 2c14.667 5.33301 35.667 10 63 14s73.333 6 138 6c121.333 0 225.666 -27.333 312.999 -82c86 -56 129 -135 129 -237c0 -19.333 -3.33301 -43.333 -10 -72s-22.334 -58 -47.001 -88
s-61 -58.667 -109 -86c-49.333 -28.667 -115.666 -52.667 -198.999 -72v-12c108 -18 202.333 -59.667 283 -125s121 -146.666 121 -243.999c0 -103.333 -45.167 -190.166 -135.5 -260.499s-230.833 -105.5 -421.5 -105.5c-110.667 0 -211.834 25.833 -303.501 77.5
s-137.5 125.5 -137.5 221.5c0 54.667 13 97 39 127c26 28.667 59 43 99 43c36.667 0 66.667 -10.333 90 -31c23.333 -22 37 -46 41 -72c1.33301 -1.33301 2 -3.33301 2 -6v-8c0 -8 -0.666992 -17.167 -2 -27.5s-5 -20.166 -11 -29.499c-4 -10 -10 -19 -18 -27
s-19 -16.333 -33 -25c-2.66699 -1.33301 -6 -3.33301 -10 -6c-5.33301 -2.66699 -10 -4.66699 -14 -6c-10 -5.33301 -18.333 -11.333 -25 -18c-8 -8.66699 -12 -19 -12 -31c0 -5.33301 1.33301 -10.666 4 -15.999c1.33301 -7.33301 4 -14.333 8 -21
c16.667 -27.333 49.834 -52.166 99.501 -74.499s110.834 -33.5 183.501 -33.5c82 0 152.167 23.5 210.5 70.5s87.5 132.5 87.5 256.5c0 98.667 -14.667 172.334 -44 221.001c-30 49.333 -63 84.333 -99 105c-22.667 12.667 -44.334 21 -65.001 25c-22 4 -39.667 6 -53 6
l-179 -2v41l170 2c68.667 0 118.667 17 150 51s52.333 71.333 63 112c8.66699 27.333 13.667 54 15 80c1.33301 24.667 2 44.667 2 60v43c-1.33301 14.667 -2.66602 30.334 -3.99902 47.001c-7.33301 46 -25.333 89 -54 129c-28.667 38 -81.667 57 -159 57
c-124.667 0 -215.667 -35.333 -273 -106c-57.333 -72.667 -95.333 -169 -114 -289z" />
    <glyph glyph-name="h.0" unicode="&#xc8;" horiz-adv-x="1551" 
d="M473 238l604 930v133h-143v41h531v-41h-158v-1260h158v-41h-531v41h143v1053l-604 -940v-113h144v-41h-531v41h157v1260h-157v41h531v-41h-144v-1063z" />
    <glyph glyph-name="i.0" unicode="&#xc9;" horiz-adv-x="1551" 
d="M473 238l604 930v133h-143v41h531v-41h-158v-1260h158v-41h-531v41h143v1053l-604 -940v-113h144v-41h-531v41h157v1260h-157v41h531v-41h-144v-1063zM774 1424c-104.667 0 -186.334 21 -245.001 63c-60 41.333 -90 91.333 -90 150c0 32.667 9.33301 58.334 28 77.001
c19.333 19.333 40.666 31.666 63.999 36.999c4 1.33301 8.66699 2.66602 14 3.99902h14c36 0 62.667 -11.333 80 -34c18 -24.667 27 -51.334 27 -80.001c0 -15.333 -2.66699 -27 -8 -35c-7.33301 -8 -15 -15.667 -23 -23l-4 -4l-4 -4
c-2.66699 -1.33301 -4.66699 -2.66602 -6 -3.99902c-5.33301 -5.33301 -10.333 -11.333 -15 -18c-4 -8.66699 -6 -17 -6 -25c0 -19.333 10.333 -33 31 -41c20.667 -9.33301 43.334 -16 68.001 -20c12 -1.33301 23.333 -2 34 -2c10 -1.33301 19.667 -2 29 -2h8h6h7h6
c6.66699 0 14 0.666992 22 2h25c28.667 2.66699 55.334 8 80.001 16c23.333 8 35 23.667 35 47c0 8 -1.66699 15.667 -5 23c-4 5.33301 -8 10 -12 14c-2.66699 4 -5.33398 7.33301 -8.00098 10l-6 6l-6 6c-2.66699 1.33301 -4.66699 3 -6 5c-7.33301 5.33301 -13 12 -17 20
c-5.33301 6.66699 -8 16.334 -8 29.001c0 30 9.5 56.5 28.5 79.5s44.833 34.5 77.5 34.5h11c2.66699 0 5.33398 -0.666992 8.00098 -2c26 -4 50 -15.333 72 -34c21.333 -20.667 32 -48 32 -82c0 -70 -34.667 -122.667 -104 -158c-70 -36.667 -148 -55 -234 -55z" />
    <glyph glyph-name="j.0" unicode="&#xca;" horiz-adv-x="1415" 
d="M473 755l196.998 0.00292969c86 0 140 21.333 162 64c22 40.667 37.667 105.667 47 195l4 16v16c0 2.66699 0.666992 5.33398 2 8.00098v7c10.667 104 28.334 180.333 53.001 229c24.667 49.333 84.667 74 180 74c52 0 97.333 -17 136 -51c36.667 -35.333 55 -77 55 -125
v-20c-1.33301 -8.66699 -3.33301 -17 -6 -25c-5.33301 -24.667 -17.666 -47.334 -36.999 -68.001c-20.667 -21.333 -50.667 -32 -90 -32c-31.333 0 -56.666 8 -75.999 24c-20.667 15.333 -34.334 31.666 -41.001 48.999c-1.33301 4.66699 -2 9 -2 13c-1.33301 4 -2 8 -2 12
c0 15.333 2 31 6 47c2.66699 15.333 6.66699 33 12 53c1.33301 7.33301 2 14.333 2 21v18v6v7c0 4 -2 7.33301 -6 10c-5.33301 2.66699 -11.333 4.66699 -18 6h-6h-6c-32 0 -55.333 -15.667 -70 -47c-15.333 -32.667 -25.666 -68.667 -30.999 -108
c-2.66699 -18 -4.66699 -35.667 -6 -53c-1.33301 -19.333 -2.66602 -36 -3.99902 -50v-14c-1.33301 -5.33301 -2 -10 -2 -14c-6.66699 -78 -18.334 -141 -35.001 -189c-16 -48 -57 -79.333 -123 -94v-11c5.33301 -1.33301 11 -2 17 -2
c5.33301 -1.33301 10 -2.66602 14 -3.99902l20 -4c7.33301 -1.33301 14.333 -2 21 -2c53.333 -9.33301 105.333 -23 156 -41c48.667 -19.333 91 -64.333 127 -135c12 -26 21.333 -57.333 28 -94c5.33301 -38.667 9.66602 -77.667 12.999 -117l4 -21v-22
c0 -2.66699 0.666992 -5.33398 2 -8.00098v-13c4 -58.667 10 -109.834 18 -153.501s25 -65.5 51 -65.5c12.667 0 25.667 1.33301 39 4c14 3.33301 27.667 9.66602 41 18.999c8 4 15.667 9.33301 23 16l20 23l31 -29c-10.667 -12 -21.667 -23 -33 -33
c-10.667 -9.33301 -21.667 -18 -33 -26c-21.333 -14 -43 -24.5 -65 -31.5s-46 -10.5 -72 -10.5c-117.333 0 -192.333 35 -225 105c-34 68.667 -54 144.667 -60 228v38c-1.33301 14 -2.66602 27 -3.99902 39v13v12c0 14.667 -0.666992 35 -2 61
c-2.66699 24.667 -8 50.667 -16 78c-10.667 41.333 -32 79 -64 113c-32.667 32.667 -82.334 49 -149.001 49h-197v-674h158v-41h-545v41h157v1260h-157v41h545v-41h-158v-546z" />
    <glyph glyph-name="k.0" unicode="&#xcb;" horiz-adv-x="1420" 
d="M946 1303l-228.999 -0.00292969c-109.333 0 -173.333 -34.333 -192 -103c-20.667 -69.333 -32.334 -212 -35.001 -428v-143c-1.33301 -52 -2.66602 -107.333 -3.99902 -166v-12v-12c-6 -179.333 -18.333 -300.333 -37 -363c-20.667 -64.667 -78 -97 -172 -97
c-74 0 -132.833 17.167 -176.5 51.5s-65.5 81.5 -65.5 141.5c0 44 13 80.333 39 109c24.667 28.667 58.667 43 102 43c37.333 0 66.666 -9.66699 87.999 -29c22 -20.667 35 -43 39 -67v-5v-6c0 -13.333 -2 -28.333 -6 -45c-5.33301 -17.333 -14 -35 -26 -53
c-6 -9.33301 -11 -19.166 -15 -29.499s-6 -22.5 -6 -36.5c0 -5.33301 2.66699 -10 8 -14c4 -5.33301 9.66699 -8.66602 17 -9.99902c1.33301 -1.33301 3.33301 -2 6 -2h4c75.333 0 123.666 55.333 144.999 166c22 109.333 33 230 33 362v113l-4 108
c-1.33301 37.333 -2 72.333 -2 105c-1.33301 32.667 -2 62 -2 88v33v30v31v31v35c-1.33301 10.667 -2.66602 22.334 -3.99902 35.001c-5.33301 35.333 -20.333 68 -45 98c-24.667 28.667 -69 43 -133 43h-21c-8 0 -16 -0.666992 -24 -2v39h1105v-39h-157v-1262h157v-41h-544
v41h157v1262z" />
    <glyph glyph-name="l.0" unicode="&#xcc;" horiz-adv-x="1735" 
d="M879 303l382 1039h388v-39h-158v-1262h158v-41h-545v41h157v1178l-454 -1244h-37l-475 1234v-998c0 -50.667 7 -89.667 21 -117c12 -27.333 57 -45 135 -53v-41h-365v41h17c39.333 0 69.333 9 90 27c22 20.667 37.667 43 47 67
c5.33301 15.333 8.66602 29.666 9.99902 42.999c1.33301 14 2 25.667 2 35v973c0 38 -8.16699 65.333 -24.5 82s-34.166 27 -53.499 31l-24 4h-23h-37l2 39h387z" />
    <glyph glyph-name="m.0" unicode="&#xcd;" horiz-adv-x="1551" 
d="M473 697v-656h144v-41h-531v41h157v1262h-157v39h531v-39h-144v-565h604v565h-143v39h531v-39h-158v-1262h158v-41h-531v41h143v656h-604z" />
    <glyph glyph-name="n.0" unicode="&#xce;" horiz-adv-x="1497" 
d="M102 672c0 196.667 58.999 354.999 176.999 474.999c116 118.667 243.667 189 383 211l45 4c13.333 1.33301 27 2 41 2c166.667 0 316 -64.667 448 -194c132.667 -130 199 -296 199 -498c0 -190 -52.667 -342.333 -158 -457
c-106.667 -114.667 -223.334 -187 -350.001 -217c-23.333 -7.33301 -46.666 -12.333 -69.999 -15c-22.667 -2.66699 -45.667 -4 -69 -4c-34 0 -70.333 4.33301 -109 13c-39.333 6.66699 -79.666 18.334 -120.999 35.001c-103.333 44.667 -198 119.667 -284 225
c-88 105.333 -132 245.333 -132 420zM747.999 1325c-16.667 0 -33.8301 -1.33301 -51.4971 -4s-35.5 -6.66699 -53.5 -12c-70.667 -22 -135.334 -79.333 -194.001 -172s-88 -247.667 -88 -465c0 -216 29.333 -370.333 88 -463c57.333 -92.667 120.666 -150.667 189.999 -174
c19.333 -6.66699 37.833 -11.334 55.5 -14.001s35.5 -4 53.5 -4c17.333 0 35.666 1.33301 54.999 4c18 2.66699 36.333 7.33398 55 14.001c70 24.667 134.333 83.334 193 176.001c56.667 92.667 85 246.334 85 461.001c0 196.667 -24.5 340.667 -73.5 432
s-102.833 152.666 -161.5 183.999c-27.333 15.333 -54 25.666 -80 30.999c-26.667 4 -51 6 -73 6z" />
    <glyph glyph-name="o.0" unicode="&#xcf;" horiz-adv-x="1551" 
d="M473 1303v-1262h144v-41h-531v41h157v1262h-157v39h1379v-39h-158v-1262h158v-41h-531v41h143v1262h-604z" />
    <glyph glyph-name="p.0" unicode="&#xd0;" horiz-adv-x="1286" 
d="M243 41v1262h-157v39h590c28.667 0 63.5 -2 104.5 -6s83.5 -13 127.5 -27c72 -22 138.667 -61 200 -117c61.333 -57.333 92 -143.333 92 -258c0 -99.333 -35.333 -190.666 -106 -273.999c-71.333 -84.667 -211.333 -127 -420 -127h-201v-492h158v-41h-545v41h157z
M473 571.999l141.999 -0.00292969c99.333 0 171.5 17.667 216.5 53s75.167 75 90.5 119c6.66699 18.667 11.334 38.334 14.001 59.001c2.66699 19.333 4.66699 36.333 6 51v37v39v12v13v24v25c0 14.667 -0.666992 34.334 -2 59.001c-2.66699 24.667 -8.66699 50 -18 76
c-15.333 40.667 -45.333 78.334 -90 113.001c-46.667 34 -119 51 -217 51h-142v-731z" />
    <glyph glyph-name="q.0" unicode="&#xd1;" horiz-adv-x="1209" 
d="M1102 447l49.001 0.000976562l-16 -447h-53c0 4 -0.833008 9.5 -2.5 16.5s-3.83398 13.833 -6.50098 20.5c-4 12.667 -10 23.667 -18 33c-9.33301 8 -22.333 12 -39 12c-13.333 0 -27 -2.66699 -41 -8c-14.667 -6.66699 -29.667 -15 -45 -25
c-6.66699 -4 -15 -8.66699 -25 -14c-9.33301 -5.33301 -20.666 -10.666 -33.999 -15.999c-23.333 -10 -51.333 -19 -84 -27c-34.667 -8.66699 -73.667 -13 -117 -13c-150 0 -277.667 56.333 -383 169c-106.667 112 -166.334 257.333 -179.001 436v33
c-1.33301 10.667 -2 21.334 -2 32.001c0 11.333 0.666992 22.333 2 33v33c12.667 181.333 73.667 334.833 183 460.5s249.333 188.5 420 188.5c34 0 64.667 -3.33301 92 -10s52 -13.834 74 -21.501s41.667 -14.834 59 -21.501c18 -6.66699 33.667 -10 47 -10
c5.33301 0 11.666 0.666992 18.999 2c6.66699 0 14 2 22 6c8.66699 4 16.334 10 23.001 18c6.66699 8.66699 12.667 21 18 37h49l4 -436h-45c-13.333 118.667 -44.666 215 -93.999 289c-50.667 72 -136 108 -256 108c-18.667 0 -39 -2 -61 -6
c-23.333 -4 -47.333 -11.333 -72 -22c-56 -24.667 -107.333 -74.167 -154 -148.5s-70 -189.5 -70 -345.5v-332c0 -125.333 21.333 -220 64 -284c41.333 -64.667 87.333 -109.334 138 -134.001c28.667 -14.667 56.667 -24 84 -28c25.333 -5.33301 47.666 -8 66.999 -8
c12.667 0 25.667 0.666992 39 2c12 1.33301 25 3.33301 39 6c62.667 16 122.667 55.5 180 118.5s99 164.167 125 303.5z" />
    <glyph glyph-name="Scaron" unicode="&#xd2;" horiz-adv-x="1299" 
d="M534 41v1262h-20c-139.333 0 -238.333 -28.667 -297 -86c-61.333 -61.333 -99.333 -160.333 -114 -297h-58l11 422h1187l11 -422h-58c-16 154 -56.333 256.333 -121 307c-64 50.667 -167.667 76 -311 76v-1262h158v-41h-545v41h157z" />
    <glyph glyph-name="r.0" unicode="&#xd3;" horiz-adv-x="1274" 
d="M795 451l252 642.999c1.33301 2.66699 2.66602 6 3.99902 10l4 12c2 6 4.33301 12.333 7 19c1.33301 5.33301 2.66602 11.333 3.99902 18c2.66699 12.667 5.33398 24.334 8.00098 35.001c1.33301 10.667 2 20.334 2 29.001c0 24.667 -7.66699 45 -23 61
c-15.333 16.667 -38.666 25 -69.999 25h-28v39h348v-39c-8 0 -21.667 -1.33301 -41 -4c-18.667 -2.66699 -39 -10.667 -61 -24c-15.333 -11.333 -29.833 -25.166 -43.5 -41.499s-25.834 -38.166 -36.501 -65.499l-289 -747c-2.66699 -6 -4.66699 -11 -6 -15
c-3.33301 -5.33301 -5.66602 -10 -6.99902 -14v-2l-2 -2l-18 -39l-37 -74c-54.667 -120 -106.834 -199.167 -156.501 -237.5s-98.5 -57.5 -146.5 -57.5c-78 0 -144.333 23 -199 69c-54.667 46.667 -82 102 -82 166c0 44 11.667 82.333 35 115c23.333 31.333 57 47 101 47
c39.333 0 70.666 -10.5 93.999 -31.5s36.333 -44.5 39 -70.5c1.33301 -1.33301 2 -3.33301 2 -6v-9v-6c0 -2.66699 -0.666992 -4.66699 -2 -6c-1.33301 -8 -3.33301 -16.333 -6 -25c-4.66699 -9.33301 -9 -17.333 -13 -24c-4 -5.33301 -7.33301 -10 -10 -14
c-4 -6 -6.66699 -9.66699 -8 -11c-2.66699 -4 -6 -7.33301 -10 -10c-6 -2.66699 -11 -5.33398 -15 -8.00098c-1.33301 -1.33301 -2.66602 -2 -3.99902 -2l-4 -4c-10.667 -5.33301 -20.5 -12.5 -29.5 -21.5s-13.5 -20.5 -13.5 -34.5c0 -18.667 12.333 -36.334 37 -53.001
c24.667 -16 59.334 -24 104.001 -24c40 0 73 14.333 99 43c26 27.333 49.333 58 70 92l12 20c2.66699 5.33301 6 11.666 10 18.999l-524 1112h-142v39h563v-39h-172z" />
    <glyph glyph-name="t.0" unicode="&#xd4;" horiz-adv-x="1815" 
d="M1022 1356l-0.000976562 -116.998h4h2c174.667 -4 335.334 -36.667 482.001 -98c146 -62.667 219 -189 219 -379c0 -132.667 -46.667 -248.667 -140 -348c-94 -101.333 -283 -153.333 -567 -156v-217h158v-41h-545v41h157v217c-248 1.33301 -427.333 45.666 -538 132.999
c-112.667 86 -169 209.667 -169 371c0 183.333 70 307.666 210 372.999c138 65.333 303.667 100 497 104v117h-157v40h545v-40h-158zM791.999 299.002l0.00292969 903.001h-20c-126.667 0 -219.334 -22.333 -278.001 -67c-62.667 -48 -104.334 -100.667 -125.001 -158
c-10.667 -31.333 -17.667 -62 -21 -92c-2.66699 -30 -4 -56 -4 -78v-133c0 -20.667 1.33301 -43.334 4 -68.001c1.33301 -24 5.66602 -48.333 12.999 -73c16 -60 54.667 -114.667 116 -164c58.667 -46.667 155.667 -70 291 -70h24zM1022 1202l0.000976562 -903h8
c138 0 246 28 324 84c77.333 57.333 116 154.333 116 291v133c0 22 -1.33301 48 -4 78s-9.33398 60.667 -20.001 92c-20.667 57.333 -61.667 110 -123 158c-60 44.667 -153.333 67 -280 67h-21z" />
    <glyph glyph-name="u.0" unicode="&#xd5;" horiz-adv-x="1434" 
d="M746 838l205 312.999c2.66699 4 5.33398 10.167 8.00098 18.5s4.66699 16.5 6 24.5l4 21v16v8c-1.33301 1.33301 -2 3.33301 -2 6c-5.33301 14 -17.666 27 -36.999 39c-20.667 12.667 -47.334 19 -80.001 19h-28l-1 39h450l-1 -39c-52 -4 -94.333 -12.833 -127 -26.5
s-63.334 -36.167 -92.001 -67.5c-9.33301 -10.667 -19 -23 -29 -37l-31 -45l-214 -332l494 -754h118v-41h-544v41h159l-381 574l-238 -367c-1.33301 -1.33301 -2.66602 -3.33301 -3.99902 -6l-4 -8c-2.66699 -5.33301 -5.33398 -11.666 -8.00098 -18.999
c-2.66699 -6.66699 -4.66699 -14 -6 -22c-2.66699 -5.33301 -4 -11 -4 -17c-1.33301 -5.33301 -2 -10.666 -2 -15.999c0 -6.66699 0.666992 -13.5 2 -20.5s3.33301 -13.833 6 -20.5c8 -18 23.667 -34.333 47 -49c22 -16.667 56.667 -26.334 104 -29.001v-41h-471v41
c64.667 15.333 116.667 35.333 156 60c38 24 73.333 61.333 106 112l291 445l-434 645h-119v39h525v-39h-134z" />
    <glyph glyph-name="zero.0" unicode="&#xd6;" horiz-adv-x="1542" 
d="M1069 41v1262h-143v39h528v-39h-155v-1262h150l48 -414h-49c-22 135.333 -67.667 231.666 -137 288.999c-71.333 56 -180 84 -326 84h-899v41h157v1262h-157v39h531v-39h-144v-1262h596z" />
    <glyph glyph-name="parenright.0" unicode="&#xd7;" horiz-adv-x="1383" 
d="M910 717l0.000976562 585.997h-144v39h531v-39h-158v-1262h158v-41h-545v41h158v637c-34 -12 -69 -23 -105 -33c-36.667 -9.33301 -74.334 -16.666 -113.001 -21.999c-20 -4 -40.333 -6.66699 -61 -8s-41 -2 -61 -2c-20.667 0 -44 1.33301 -70 4
c-26 1.33301 -52.667 5.33301 -80 12c-58.667 13.333 -112.167 39.833 -160.5 79.5s-72.5 101.834 -72.5 186.501v408h-158v39h530v-39h-143v-404v-2c0 -12 1 -26.333 3 -43c0 -17.333 2.66699 -35.666 8 -54.999c10.667 -32.667 31.667 -62 63 -88
c31.333 -27.333 84.333 -41 159 -41c36 0 71 2.66699 105 8c32.667 5.33301 63 11.666 91 18.999c13.333 4 26 8 38 12c11.333 2.66699 20.333 5.33398 27 8.00098z" />
    <glyph glyph-name="x.0" unicode="&#xd8;" horiz-adv-x="2200" 
d="M243 1303h-157v39h531v-39h-144v-1262h512v1262h-143v39h516v-39h-143v-1262h511v1262h-143v39h531v-39h-158v-1262h158v-41h-2028v41h157v1262z" />
    <glyph glyph-name="y.0" unicode="&#xd9;" horiz-adv-x="2200" 
d="M1726 41v1262h-143v39h531v-39h-158v-1261l150 -1l49 -414h-49c-22 135.333 -67.333 231.666 -136 288.999c-69.333 56 -178.333 84 -327 84h-1557v41h157v1262h-157v39h531v-39h-144v-1262h512v1262h-143v39h516v-39h-143v-1262h511z" />
    <glyph glyph-name="z.0" unicode="&#xda;" horiz-adv-x="1510" 
d="M727 742l178 0.000976562c30.667 0 66.334 -0.666992 107.001 -2c40.667 -2.66699 83 -8.66699 127 -18c79.333 -16.667 151.666 -49.667 216.999 -99c64 -49.333 96 -128 96 -236c0 -139.333 -37.333 -234 -112 -284c-75.333 -52 -158 -83.667 -248 -95
c-27.333 -4 -54.666 -6 -81.999 -6c-28.667 -1.33301 -56 -2 -82 -2h-588v41h157v1262c-14.667 1.33301 -29.334 2 -44.001 2c-120 0 -204 -26 -252 -78c-54.667 -58.667 -95.667 -167.334 -123 -326.001h-49l31 441h825v-39h-158v-561zM727 41.001l248.001 0.000976562
c8 0 17 0.666992 27 2c8 0 16.667 0.666992 26 2c41.333 7.33301 78.666 26.666 111.999 57.999c33.333 30 50.333 82.333 51 157l2 158v8c0 76.667 -15.333 141.667 -46 195c-32.667 54.667 -111.667 82 -237 82h-183v-662z" />
    <glyph glyph-name="braceleft.0" unicode="&#xdb;" horiz-adv-x="1917" 
d="M473 742l176 -0.000976562c30.667 0 65.667 -0.666992 105 -2c39.333 -2.66699 79.666 -8 120.999 -16c80.667 -15.333 154.334 -47.666 221.001 -96.999s100 -129.333 100 -240c0 -136 -36.833 -230 -110.5 -282s-154.167 -84.333 -241.5 -97
c-30 -2.66699 -59.333 -4.66699 -88 -6c-30 -1.33301 -58 -2 -84 -2h-586v41h157v1262h-157v41l545 -2v-39h-158v-561zM473 40.999l245.999 -0.000976562c65.333 0 113 13.667 143 41c30 26 50.333 55.333 61 88c6 16.667 9.83301 32.834 11.5 48.501s2.5 29.5 2.5 41.5v158
c0 79.333 -15.333 147 -46 203c-31.333 54.667 -109.666 82 -234.999 82h-183v-662zM1458 40.998v1262h-157v39h530v-39h-143v-1262h143v-41h-530v41h157z" />
    <glyph glyph-name="bar.0" unicode="&#xdc;" horiz-adv-x="1256" 
d="M473 742h179c30 0 65.333 -0.666992 106 -2c40.667 -2.66699 83 -8.66699 127 -18c79.333 -16.667 151.666 -49.667 216.999 -99c64 -49.333 96 -128 96 -236c0 -139.333 -37.333 -234 -112 -284c-75.333 -52 -158 -83.667 -248 -95c-27.333 -4 -54.666 -6 -81.999 -6
c-28.667 -1.33301 -56 -2 -82 -2h-588v41h157v1262h-157v39h545v-39h-158v-561zM473 41h248c61.333 0 107 12.333 137 37c30 23.333 50.333 50 61 80c8.66699 20.667 14 40.334 16 59.001c1.33301 19.333 2 33.666 2 42.999l2 158v8c0 76.667 -15.333 141.667 -46 195
c-32.667 54.667 -111.667 82 -237 82h-183v-662z" />
    <glyph glyph-name="braceright.0" unicode="&#xdd;" horiz-adv-x="1200" 
d="M150 920h-56.0029l54 444h49c0 -2.66699 0.666992 -6 2 -10c0 -4 1.33301 -8 4 -12c2.66699 -8.66699 8 -16.334 16 -23.001c8.66699 -6.66699 20.334 -10 35.001 -10c14 0 28.333 1.33301 43 4c15.333 2.66699 35.333 8.66699 60 18c8 3.33301 16 6.33301 24 9
c6.66699 2.66699 13.667 4.66699 21 6c18.667 5.33301 38.334 10 59.001 14c20.667 2.66699 46.667 4 78 4c186.667 0 326 -62.667 418 -188c91.333 -127.333 143 -266.666 155 -417.999c0 -12 0.666992 -24.333 2 -37v-37c0 -206 -55.333 -374.667 -166 -506
c-110 -132.667 -260 -199 -450 -199c-124 0 -223.667 27 -299 81c-76.667 51.333 -121.667 109.333 -135 174c-2.66699 8 -4 16 -4 24c-1.33301 7.33301 -2 14.333 -2 21c0 43.333 10.667 78 32 104c22 26 46 42.333 72 49c4 1.33301 8.66699 2.66602 14 3.99902h13
c35.333 0 66.666 -10 93.999 -30c27.333 -22 41 -52.667 41 -92c0 -30 -5.83301 -52.167 -17.5 -66.5s-24.167 -26.5 -37.5 -36.5c-2 0 -3.66699 -0.666992 -5 -2s-2.66602 -2 -3.99902 -2c-4 -2.66699 -7.33301 -5.33398 -10 -8.00098c-4 -4 -8 -7.33301 -12 -10
c-8 -7.33301 -13 -15 -15 -23c-2.66699 -9.33301 -4 -19.666 -4 -30.999c0 -28.667 20.5 -53.167 61.5 -73.5s86.167 -33.833 135.5 -40.5c10.667 -1.33301 21.667 -2 33 -2c10.667 -1.33301 21.667 -2 33 -2c8 0 16 0.666992 24 2h23c82 8 157 48.333 225 121
c67.333 70.667 101 202.334 101 395.001v157h-539v39h539v177c0 18.667 -0.666992 37.667 -2 57s-3.66602 39 -6.99902 59c-12.667 75.333 -42.667 144.333 -90 207c-49.333 61.333 -125.666 92 -228.999 92c-92 0 -163.833 -25.5 -215.5 -76.5s-90.5 -107.5 -116.5 -169.5
c-12.667 -28.667 -22.334 -56.5 -29.001 -83.5s-12 -51.5 -16 -73.5z" />
    <glyph glyph-name="asciitilde.0" unicode="&#xde;" horiz-adv-x="2147" 
d="M243 41l0.000976562 1262h-157v39h545v-39h-158v-582h279c22 188.667 92.333 343 211 463s262.667 180 432 180c164 0 312 -61.333 444 -184c132.667 -122.667 199 -292 199 -508c0 -181.333 -56.667 -341.666 -170 -480.999
c-114.667 -141.333 -272.334 -212 -473.001 -212c-194 0 -348.333 72 -463 216c-116 142 -176 303.667 -180 485h-279v-639h158v-41h-545v41h157zM1010 671.999c0 -186 21.668 -324.003 65.001 -414.003c44 -91.333 92 -154 144 -188c34 -23.333 67.333 -37.666 100 -42.999
c31.333 -6.66699 56.666 -10 75.999 -10c14.667 0 29.667 1.33301 45 4c15.333 1.33301 30.333 4 45 8c74 20.667 141.5 77.334 202.5 170.001s91.5 250.334 91.5 473.001c0 221.333 -30.5 378.333 -91.5 471s-128.5 149.667 -202.5 171c-14.667 4 -29.667 7.33301 -45 10
c-15.333 1.33301 -30.333 2 -45 2c-18 0 -43.333 -2.66699 -76 -8c-34 -7.33301 -68.667 -24 -104 -50c-52 -35.333 -99.333 -98 -142 -188c-42 -90.667 -63 -226.667 -63 -408z" />
    <glyph glyph-name="quotedblleft.1" unicode="&#xdf;" horiz-adv-x="1426" 
d="M953 41l-0.00292969 647.003h-192h-2h-5c-78.667 0 -138.667 -14.333 -180 -43c-40.667 -30 -70 -132.333 -88 -307c-1.33301 -8 -2 -15.333 -2 -22c-1.33301 -8.66699 -2 -16.334 -2 -23.001c-10 -84.667 -27.333 -157.667 -52 -219c-24.667 -63.333 -90 -95 -196 -95
c-11.333 0 -22.333 0.666992 -33 2c-12 1.33301 -24.333 4.33301 -37 9c-27.333 6.66699 -54 18.334 -80 35.001c-26 14.667 -48.333 35.667 -67 63l32 33c2.66699 -4 7 -8 13 -12c4 -5.33301 9.33301 -10.333 16 -15c4 -5.33301 9.16699 -10 15.5 -14l19.5 -12
c8 -4 16 -7.33301 24 -10c7.33301 -4.66699 14.333 -7 21 -7c24.667 0 42.334 23.333 53.001 70c11.333 46.667 20.333 98 27 154l4 40.5l4 39.5c2.66699 24 5.33398 46.333 8.00098 67c1.33301 19.333 4 35 8 47c15.333 52 43.333 94.333 84 127
c40 31.333 83 55.333 129 72c24.667 9.33301 49.334 16.666 74.001 21.999c24.667 6 47.334 10.333 68.001 13v10c-22 1.33301 -46 4.66602 -72 9.99902c-26 4 -52.667 11 -80 21c-60 20 -114.667 53.333 -164 100c-50 45.333 -75 111.666 -75 198.999
c0 129.333 56.667 211 170 245c111.333 34.667 234.666 52.667 369.999 54h10h9h555v-39h-158v-1262h158v-41h-545v41h158zM952.997 729.003v573.998h-156c-124 0 -205.5 -20.167 -244.5 -60.5s-61.167 -85.166 -66.5 -134.499c-1.33301 -10.667 -2 -21 -2 -31v-32
c0 -14 0.666992 -27.667 2 -41c0 -15.333 0.666992 -29.666 2 -42.999c8 -58.667 33.5 -112 76.5 -160s124.5 -72 244.5 -72h144z" />
    <glyph glyph-name="equal.1" unicode="&#xe0;" horiz-adv-x="963" 
d="M934 109l29.0068 -27.002c-10 -13.333 -20.333 -25.666 -31 -36.999c-10.667 -10.667 -21.667 -19.334 -33 -26.001c-28.667 -19.333 -56 -30.666 -82 -33.999c-27.333 -4 -47 -6 -59 -6c-42 0 -74.667 9.66699 -98 29c-24.667 19.333 -43.334 40.666 -56.001 63.999
c-4 6.66699 -7.33301 13.167 -10 19.5s-4.66699 12.833 -6 19.5c-66.667 -58.667 -123.334 -95 -170.001 -109c-48 -15.333 -91 -23 -129 -23c-76.667 0 -135.334 22 -176.001 66c-41.333 42.667 -62 95.334 -62 158.001c0 98 44 171 132 219c86 47.333 198.333 71 337 71
h35c11.333 0 22.333 -0.666992 33 -2v230v22c0 6.66699 -0.666992 13.667 -2 21c-4 24.667 -15 46.334 -33 65.001c-17.333 19.333 -51.333 29 -102 29c-32.667 0 -62.667 -3.33301 -90 -10c-27.333 -8 -41 -19.667 -41 -35c0 -4 0.666992 -8 2 -12
c0 -5.33301 0.666992 -10 2 -14c1.33301 -6 2.66602 -11 3.99902 -15c1.33301 -5.33301 3.33301 -10 6 -14c1.33301 -2.66699 2.66602 -4.66699 3.99902 -6c0 -2.66699 0.666992 -5.33398 2 -8.00098s2.66602 -5.66699 3.99902 -9
c1.33301 -2.66699 3.33301 -5.33398 6 -8.00098c4.66699 -6.66699 9 -14 13 -22c2.66699 -8.66699 4 -18.334 4 -29.001c0 -32.667 -10.333 -62 -31 -88c-22 -26 -53.333 -39 -94 -39c-38 0 -68.667 13 -92 39c-23.333 24.667 -35 58.667 -35 102c0 62 34.667 112 104 150
c68.667 36.667 146.667 55 234 55c124 0 208 -18.333 252 -55s70 -77 78 -121c2.66699 -13.333 4.66699 -26.333 6 -39v-37v-532v-12c0 -6 0.666992 -11.667 2 -17c2.66699 -9.33301 7.33398 -18 14.001 -26c5.33301 -8.66699 15.666 -13 30.999 -13
c5.33301 0 10.666 0.666992 15.999 2s11 3.33301 17 6c8 4.66699 16.5 10.334 25.5 17.001s16.833 13.334 23.5 20.001c2.66699 4 6 8.33301 10 13c2.66699 2.66699 4.66699 5.33398 6 8.00098zM588.007 173.998l0.000976562 284.999h-25
c-92.667 0 -161.334 -14.333 -206.001 -43c-50.667 -31.333 -76 -101.666 -76 -210.999c0 -56 15 -93.667 45 -113c28.667 -18.667 60.667 -28 96 -28c9.33301 0 20.333 2 33 6c12 2.66699 24.333 7.33398 37 14.001c14.667 6.66699 29.667 15.667 45 27
c13.333 9.33301 25 19 35 29c5.33301 6.66699 9.33301 12.667 12 18s4 10.666 4 15.999z" />
    <glyph glyph-name="K.0" unicode="&#xe1;" horiz-adv-x="975" 
d="M848 -580c-5.33301 42.667 -26.335 71.998 -63.002 87.998c-37.333 16.667 -77.666 29.667 -120.999 39c-4 1.33301 -7.33301 2 -10 2c-3.33301 1.33301 -6.33301 2 -9 2c-10.667 2.66699 -20.667 4.66699 -30 6c-11.333 2.66699 -21.666 5.66699 -30.999 9
c-148.667 39.333 -275.667 105.333 -381 198s-158 271.667 -158 537c0 182 28 316.667 84 404c54.667 87.333 115.667 147 183 179c31.333 14 62 23.667 92 29s57.333 8 82 8c117.333 0 221 -45.333 311 -136c88.667 -90.667 133 -197.334 133 -320.001
c0 -116 -40.333 -221.667 -121 -317c-82 -94.667 -189.667 -142 -323 -142c-26 0 -54.667 3.66699 -86 11c-33.333 8 -66.333 21 -99 39c-35.333 20 -70 48 -104 84c-34 36.667 -64.667 83.667 -92 141h-19v-25c0 -144.667 34.333 -247 103 -307
c70.667 -63.333 149.667 -108.666 237 -135.999c20.667 -6.66699 41.334 -12.667 62.001 -18l57 -16c5.33301 -1.33301 10.666 -3.66602 15.999 -6.99902c6 -1.33301 11.667 -2.66602 17 -3.99902c82 -24.667 153 -58.667 213 -102c60 -42.667 90 -124.667 90 -246h-33z
M276.998 317.998c5.33301 -76.667 20.335 -134.668 45.002 -174.001c23.333 -38.667 48.666 -65.334 75.999 -80.001c16 -10 32.333 -16.333 49 -19c14.667 -2.66699 28.334 -4 41.001 -4c12 0 25.5 1.33301 40.5 4s30.833 8.33398 47.5 17.001
c28.667 14.667 55.334 41.334 80.001 80.001c24 39.333 38.667 98 44 176c2.66699 48.667 4.66699 97.667 6 147c0 50.667 -2 101.334 -6 152.001c-1.33301 14.667 -3.33301 31.667 -6 51c-2.66699 20.667 -6.66699 41 -12 61c-10.667 40 -30.334 76.333 -59.001 109
c-30 34 -75 51 -135 51c-54.667 0 -96.334 -15 -125.001 -45s-49.334 -62.667 -62.001 -98c-9.33301 -26 -15.333 -51.333 -18 -76l-6 -53c-2.66699 -50.667 -4 -101.334 -4 -152.001c0 -49.333 1.33301 -98.333 4 -147z" />
    <glyph glyph-name="quotedbl.0" unicode="&#xe2;" horiz-adv-x="979" 
d="M170 35v803h-129v35h479c126 0 217 -17.333 273 -52c54.667 -35.333 82 -81 82 -137v-6v-8c-4 -45.333 -26.667 -87.666 -68 -126.999c-42 -40.667 -109 -65.334 -201 -74.001v-8c18 -1.33301 38 -3.33301 60 -6c22 -4 43.667 -9.33301 65 -16
c48 -14 91.667 -35.333 131 -64c40 -30 60 -71.667 60 -125c0 -62.667 -26.667 -120 -80 -172c-54.667 -52 -127.667 -78 -219 -78h-582v35h129zM371 35l154 -0.000976562h14h15c34 2.66699 66 17 96 43c28 24.667 42 81.334 42 170.001
c0 57.333 -10.833 104.833 -32.5 142.5s-65.167 56.5 -130.5 56.5h-158v-412zM371 478.999l129.001 -0.000976562h19c5.33301 0 11.333 1 18 3c27.333 4 52.666 14.5 75.999 31.5s36.333 49.5 39 97.5c1.33301 8 2 15.333 2 22c-1.33301 6.66699 -2 14.334 -2 23.001v12v10
v6v4c-2 38.667 -11 73.667 -27 105c-18 30 -66.667 45 -146 45h-108v-359z" />
    <glyph glyph-name="yright" unicode="&#xe5;" horiz-adv-x="901" 
d="M821 244l35.002 -23c-50 -78.667 -104.667 -138.667 -164 -180c-58.667 -40.667 -127.334 -61 -206.001 -61c-113.333 0 -215.333 39.667 -306 119c-90 78.667 -135 191 -135 337c0 123.333 39.667 230.666 119 321.999c78 91.333 175.667 137 293 137
c22 0 46.667 -2 74 -6s54.666 -11.333 81.999 -22c54.667 -22 105.667 -61.667 153 -119c48 -58.667 75.333 -146 82 -262h-573l2 -142c0 -12 0.666992 -25 2 -39c0 -13.333 0.666992 -27 2 -41c5.33301 -61.333 21 -117.166 47 -167.499s75.667 -75.5 149 -75.5
c48 0 101.333 14.333 160 43c58.667 27.333 120 87.333 184 180zM275.002 518l360 -0.000976562v39c0 76.667 -6.66699 144.334 -20 203.001c-18 66.667 -67.333 100 -148 100c-52 0 -91 -11.333 -117 -34c-25.333 -24.667 -43.333 -51.334 -54 -80.001
c-8.66699 -19.333 -13.667 -38 -15 -56c-2.66699 -17.333 -4 -31.666 -4 -42.999z" />
    <glyph glyph-name="guilsinglright" unicode="&#xe6;" horiz-adv-x="1553" 
d="M877 838l0.00390625 -363.005h13c76 0 125.667 12.333 149 37c24.667 24.667 43.667 63.667 57 117c1.33301 6.66699 3.66602 14.334 6.99902 23.001c1.33301 6.66699 2.66602 14 3.99902 22c0 1.33301 0.666992 3.33301 2 6c0 1.33301 -0.333008 3.33301 -1 6
c14 52 33.333 100 58 144c22.667 43.333 65.667 65 129 65c50 0 89.333 -14.333 118 -43c28.667 -30 43 -63.333 43 -100c0 -32.667 -6.66699 -58.667 -20 -78c-15.333 -19.333 -31.666 -32.333 -48.999 -39c-6.66699 -4 -13.834 -6.66699 -21.501 -8s-14.167 -2 -19.5 -2
s-11 0.666992 -17 2c-5.33301 0 -11.333 0.666992 -18 2c-18 5.33301 -34.333 15 -49 29c-15.333 12 -23 30.333 -23 55c0 8 0.666992 16.333 2 25c0 6.66699 0.666992 13.334 2 20.001c0 1.33301 0.666992 2.66602 2 3.99902v4c1.33301 2.66699 3 5.33398 5 8.00098v9v4v4
c-2 2.66699 -3 6 -3 10c-1.33301 2.66699 -3.33301 4.66699 -6 6c-2.66699 2.66699 -5.33398 4.66699 -8.00098 6h-12h-10c-4.66699 -1.33301 -8.33398 -3.33301 -11.001 -6c-1.33301 0 -2 -0.666992 -2 -2c-1.33301 -1.33301 -2.66602 -2 -3.99902 -2
c-4 -5.33301 -7.33301 -11.333 -10 -18c-4 -7.33301 -7.33301 -15 -10 -23c-2.66699 -6.66699 -4.66699 -13.334 -6 -20.001c-2.66699 -7.33301 -4 -13 -4 -17c-3.33301 -10.667 -5.66602 -21.667 -6.99902 -33c-2.66699 -10.667 -5.33398 -20.667 -8.00098 -30
c-9.33301 -41.333 -20.5 -77 -33.5 -107s-32.5 -55.333 -58.5 -76c4 -1.33301 8 -2 12 -2c4 -1.33301 8.33301 -2.66602 13 -3.99902h2c0 -1.33301 0.666992 -2 2 -2c64 -16 123.333 -39 178 -69c53.333 -30 82 -95 86 -195v-4v-6
c-1.33301 -1.33301 -2 -2.66602 -2 -3.99902v-6c1.33301 -28.667 7.16602 -54 17.499 -76s21.5 -36.333 33.5 -43c2.66699 -1.33301 5.33398 -2 8.00098 -2c1.33301 -1.33301 3.33301 -2 6 -2c6 0 12.333 1.33301 19 4c6.66699 1.33301 13.334 4 20.001 8
c10 6.66699 19.667 14.334 29 23.001c9.33301 6.66699 16.666 14.667 21.999 24l27 -18c-16 -24.667 -32.333 -45.334 -49 -62.001c-18 -16 -35 -29 -51 -39c-20.667 -9.33301 -40.667 -15.666 -60 -18.999c-18.667 -4 -37 -6 -55 -6c-50.667 0 -87.667 14.667 -111 44
c-22.667 28.667 -38.334 60.667 -47.001 96c-5.33301 19.333 -8.66602 38.333 -9.99902 57c-2.66699 18 -4.66699 33.667 -6 47v7c0 1.33301 -0.666992 2.66602 -2 3.99902c-6.66699 53.333 -23 101.5 -49 144.5s-78.667 64.5 -158 64.5h-8h-23c-8 0 -16 -0.666992 -24 -2
v-406h129v-35h-459v35h129v406h-24c-97.333 0 -158.333 -15 -183 -45c-27.333 -33.333 -46.333 -91 -57 -173c-1.33301 -13.333 -2.66602 -29 -3.99902 -47c-2.66699 -17.333 -6.66699 -35 -12 -53c-8.66699 -36.667 -24 -69.334 -46 -98.001
c-22.667 -30.667 -60 -46 -112 -46c-18 0 -36.5 1.83301 -55.5 5.5s-38.833 10.167 -59.5 19.5c-16 10 -32.333 23 -49 39c-18 15.333 -35 36 -51 62l24 18c0 -1.33301 0.666992 -2 2 -2c0 -1.33301 0.666992 -2.66602 2 -3.99902
c7.33301 -6.66699 15.666 -13.334 24.999 -20.001c8 -8.66699 17 -15.667 27 -21c5.33301 -4 11.333 -6.66699 18 -8c6.66699 -2.66699 13 -4 19 -4c2.66699 0 5.33398 0.666992 8.00098 2c2.66699 0 5.33398 1.33301 8.00098 4c12 6.66699 23.667 21.667 35 45
c9.33301 22 14 46.667 14 74v4v6c-1.33301 1.33301 -2 2.66602 -2 3.99902v4c4 100 33.333 165 88 195c53.333 30 112 53 176 69c1.33301 0 2.66602 0.666992 3.99902 2c4 1.33301 8.33301 2.66602 13 3.99902c4 0 8 0.666992 12 2c-16.667 14 -30.334 30.667 -41.001 50
c-12.667 18.667 -24.334 45.334 -35.001 80.001c-5.33301 14.667 -10 31.667 -14 51c-5.33301 18.667 -11 40.334 -17 65.001c0 4 -0.666992 9.66699 -2 17c-2.66699 6.66699 -4.66699 13.334 -6 20.001l-12 29c-5.33301 8 -10.666 13.333 -15.999 16
c-3.33301 2.66699 -7 4.66699 -11 6h-12h-2h-4c-2.66699 -1.33301 -4.66699 -2 -6 -2c-2.66699 -1.33301 -4.83398 -2.66602 -6.50098 -3.99902s-3.16699 -3.33301 -4.5 -6c-1.33301 -4 -2.66602 -7.33301 -3.99902 -10v-4v-4c0 -3.33301 0.666992 -6.33301 2 -9
c0 -2.66699 0.666992 -5.33398 2 -8.00098c0 -1.33301 0.666992 -2.66602 2 -3.99902v-4c3.33301 -6.66699 5 -13.334 5 -20.001v-25c0 -26 -9 -45.833 -27 -59.5s-37.667 -22.5 -59 -26.5h-13c-4 -1.33301 -8 -2 -12 -2h-4h-6c-24.667 4 -46.834 17 -66.501 39
s-29.5 51.333 -29.5 88s14.333 70 43 100c28.667 28.667 68 43 118 43c66 0 110.167 -22.5 132.5 -67.5s40.5 -94.833 54.5 -149.5c0 -1.33301 0.666992 -2.66602 2 -3.99902v-6l8 -29l8 -28c16.667 -53.333 38 -89.666 64 -108.999c24 -18 69 -27 135 -27h14v363h-129v35
h459v-35h-129z" />
    <glyph glyph-name="florin" unicode="&#xe7;" horiz-adv-x="803" 
d="M113 570l-35.001 -0.000976562l31 325h37l4 -4c1.33301 -1.33301 2.66602 -3.33301 3.99902 -6c4 -4 10 -7.33301 18 -10c7.33301 -4 16.333 -6 27 -6c13.333 0 24.166 0.666992 32.499 2s15.833 3.33301 22.5 6c2.66699 0 5.33398 0.666992 8.00098 2
s6.33398 2.66602 11.001 3.99902c10.667 2.66699 26.334 5.33398 47.001 8.00098c18.667 2.66699 47.334 4 86.001 4c94 0 164.167 -15.667 210.5 -47s75.833 -65.333 88.5 -102c4 -10 6.66699 -19.667 8 -29c2 -9.33301 3 -18.333 3 -27v-6v-8
c-4.66699 -44.667 -26 -87 -64 -127c-40 -39.333 -101 -63.333 -183 -72l2 -10c16.667 -1.33301 35.334 -4 56.001 -8c18.667 -5.33301 38.334 -13 59.001 -23c42 -16 81 -40.333 117 -73c34 -32.667 51 -77 51 -133c0 -72.667 -32.833 -132.5 -98.5 -179.5
s-157.834 -70.5 -276.501 -70.5c-116 0 -204.833 21.5 -266.5 64.5s-92.5 95.833 -92.5 158.5c0 35.333 11 65.333 33 90c20.667 23.333 48 35 82 35c30 0 56 -10.333 78 -31s33 -48.667 33 -84c0 -8 -1.33301 -16.167 -4 -24.5s-6 -15.833 -10 -22.5
c-2.66699 -5.33301 -6.33398 -10 -11.001 -14l-12 -12c-2.66699 -3.33301 -5.66699 -6.33301 -9 -9c-2.66699 -2.66699 -4.66699 -5.33398 -6 -8.00098c-5.33301 -5.33301 -9.33301 -10.666 -12 -15.999c-4 -5.33301 -6 -11.666 -6 -18.999c0 -4 1.33301 -8.66699 4 -14
c1.33301 -5.33301 4.66602 -10.666 9.99902 -15.999c11.333 -12.667 30 -23.667 56 -33c24.667 -10 59.334 -15 104.001 -15c52 0 90.333 11 115 33c23.333 22 39 46.667 47 74c5.33301 13.333 8.66602 27.666 9.99902 42.999c2 13.333 3 25 3 35
c0 6.66699 0.666992 14 2 22v23v22c-1.33301 7.33301 -2 14.333 -2 21c0 9.33301 -1.16699 20.166 -3.5 32.499s-6.16602 24.833 -11.499 37.5c-9.33301 25.333 -26.333 49 -51 71c-24.667 20.667 -63 31 -115 31h-94v33h84c52 0 89.667 9.83301 113 29.5
s38.333 41.834 45 66.501c4 10.667 6.66699 22.334 8 35.001c1.33301 10.667 2 20 2 28c0 7.33301 0.666992 14.333 2 21v18v21c-1.33301 5.33301 -2 11.333 -2 18c-4 48 -16.333 81.667 -37 101c-20.667 17.333 -42.334 28 -65.001 32c-6 0 -11 0.666992 -15 2h-16
c-14 0 -29.167 -1.33301 -45.5 -4s-31.833 -7.33398 -46.5 -14.001c-34 -14 -66.333 -41.333 -97 -82c-30 -40.667 -52.333 -104 -67 -190z" />
    <glyph glyph-name="comma.0" unicode="&#xe8;" 
d="M371 187l348 587v64h-115v35h445v-35h-129v-803h129v-35h-445v35h115v670l-348 -588v-82h115v-35h-445v35h129v803h-129v35h445v-35h-115v-651z" />
    <glyph glyph-name="L.0" unicode="&#xe9;" 
d="M371 187l348 587v64h-115v35h445v-35h-129v-803h129v-35h-445v35h115v670l-348 -588v-82h115v-35h-445v35h129v803h-129v35h445v-35h-115v-651zM547 989c-95.333 0 -171.002 22.001 -227.002 66.001c-56 42 -84 95.333 -84 160c0 31.333 10 55 30 71
c20.667 16.667 42.667 27 66 31c4 0 8.66699 0.666992 14 2h13c32.667 0 57.667 -10.333 75 -31c18 -21.333 27 -45.666 27 -72.999c0 -4 -0.666992 -9.83301 -2 -17.5s-4 -15.5 -8 -23.5c-4 -10 -10.667 -19 -20 -27c-11.333 -8 -26.333 -13.333 -45 -16h-4
c-1.33301 0 -2.66602 -0.666992 -3.99902 -2c-7.33301 0 -13.666 -2 -18.999 -6c-6.66699 -6 -10 -16.333 -10 -31c0 -18 17 -33 51 -45c32.667 -14 70 -21.667 112 -23h17h16h16h17c6.66699 0 13.334 0.666992 20.001 2c7.33301 0 14.333 0.666992 21 2
c30 2.66699 58 9.5 84 20.5s39 25.5 39 43.5c0 16 -3 26.333 -9 31c-6.66699 2.66699 -13.334 4.66699 -20.001 6c-1.33301 0 -2.66602 0.666992 -3.99902 2h-4c-4 1.33301 -9 2.66602 -15 3.99902c-5.33301 1.33301 -10.666 3.33301 -15.999 6
c-10.667 5.33301 -21 14.333 -31 27c-9.33301 10.667 -14 26.334 -14 47.001c0 27.333 9.66699 51.666 29 72.999c17.333 20.667 42.333 31 75 31h9h6c27.333 -2.66699 51.666 -12.334 72.999 -29.001c22.667 -16 34 -41 34 -75c0 -74 -27.667 -128 -83 -162
c-56 -35.333 -117.333 -56 -184 -62c-6.66699 -1.33301 -13.334 -2 -20.001 -2h-21z" />
    <glyph glyph-name="asterisk.0" unicode="&#xea;" horiz-adv-x="1057" 
d="M371 479l73.9961 0.00292969c53.333 0 91 14.333 113 43c22 27.333 37.667 57.666 47 90.999c1.33301 8 3.33301 16 6 24l4 21c14.667 73.333 33.667 131.333 57 174c22 42 66.333 63 133 63c41.333 0 78.333 -12.333 111 -37c32.667 -26 49 -61.333 49 -106
c0 -32.667 -9.16699 -62 -27.5 -88s-46.166 -39 -83.499 -39c-31.333 0 -56.666 9 -75.999 27c-20 16 -30 36.333 -30 61c0 8 0.666992 16.333 2 25l4 20c0 1.33301 0.666992 2.66602 2 3.99902v4l4 8v9c0 13.333 -4.16699 21.333 -12.5 24s-17.833 4 -28.5 4h-4h-2h-2
c-9.33301 0 -17.666 -8 -24.999 -24c-6.66699 -18 -12.667 -37.333 -18 -58c-4 -16 -6.66699 -31 -8 -45c-2.66699 -14.667 -4.66699 -25.334 -6 -32.001v-9c-1.33301 -2.66699 -3 -5.33398 -5 -8.00098c-10.667 -52 -23.5 -89.833 -38.5 -113.5
s-36.833 -39.834 -65.5 -48.501v-6c102.667 -5.33301 174.334 -25 215.001 -59c40.667 -35.333 67.334 -73.666 80.001 -114.999c4 -14.667 7.33301 -29.167 10 -43.5s4.66699 -28.5 6 -42.5v-4v-4c4 -35.333 10.333 -66.666 19 -93.999c6.66699 -27.333 23 -41 49 -41
c18 0 34.333 6 49 18c15.333 11.333 27 23.666 35 36.999l26 -14c-17.333 -38.667 -44.333 -68.667 -81 -90c-37.333 -24 -80.333 -36 -129 -36c-70 0 -114.667 22 -134 66c-18.667 44 -32.334 92.667 -41.001 146v8c0 2.66699 -0.666992 5.33398 -2 8.00098v10
c-1.33301 2.66699 -2 5.66699 -2 9c-13.333 100 -34.333 162 -63 186c-30 23.333 -71 35 -123 35h-43l-45 -2v-410h129v-35h-459v35h129v803h-129v35h459v-35h-129v-359z" />
    <glyph glyph-name="ellipsis" unicode="&#xed;" 
d="M371 455v-420h115v-35h-445v35h129v803h-129v35h445v-35h-115v-350h348v350h-115v35h445v-35h-129v-803h129v-35h-445v35h115v420h-348z" />
    <glyph glyph-name="percent.0" unicode="&#xee;" horiz-adv-x="977" 
d="M45 436c0 123.333 42.334 230.668 127.001 322.001c83.333 91.333 188.666 137 315.999 137c129.333 0 235.666 -46.333 318.999 -139c83.333 -94 125 -200.667 125 -320c0 -118.667 -41.667 -224.334 -125 -317.001s-189.666 -139 -318.999 -139
c-130 0 -236 46.333 -318 139c-83.333 91.333 -125 197 -125 317zM277.001 584.002c-1.33301 -26 -2 -51.335 -2 -76.002v-78c0 -139.333 13 -243.666 39 -312.999s84.667 -104 176 -104c82 0 137.833 32 167.5 96s44.5 171.667 44.5 323v4v3
c0 104.667 -10 201.334 -30 290.001c-22 87.333 -82.667 131 -182 131h-11c-4 0 -8 -0.666992 -12 -2c-46 -4 -88.333 -26.333 -127 -67c-38 -42.667 -59 -111.667 -63 -207z" />
    <glyph glyph-name="C.0" unicode="&#xef;" 
d="M371 838v-803h115v-35h-445v35h129v803h-129v35h1008v-35h-129v-803h129v-35h-445v35h115v803h-348z" />
    <glyph glyph-name="exclam.1" unicode="&#xf0;" horiz-adv-x="1026" 
d="M365 883l-0.00195312 -123.001c2.66699 6.66699 7.66699 16.334 15 29.001c6.66699 10.667 15.334 22.334 26.001 35.001c16 18 37.667 34.333 65 49c26 14.667 59 22 99 22h4h2c100.667 -1.33301 193.334 -44.333 278.001 -129s127 -195.334 127 -332.001
c0 -124 -41.667 -230.333 -125 -319c-84.667 -90.667 -185 -136 -301 -136c-39.333 0 -71.333 5.66699 -96 17s-44.334 24.333 -59.001 39c-8 6.66699 -14.667 14.334 -20 23.001c-6 6.66699 -11 12.667 -15 18v-478h129v-34h-459v34h129v1240h-129v35h203h26h21
c10.667 1.33301 22.334 2.66602 35.001 3.99902s27.667 3.33301 45 6zM750.998 317.999l-0.000976562 272.001c0 105.333 -18 176.333 -54 213c-38.667 36 -81.667 54 -129 54c-54.667 0 -102 -20.667 -142 -62c-40.667 -42.667 -61 -94.667 -61 -156v-456
c0 -42.667 15.667 -78.334 47 -107.001c30 -30 64 -49.667 102 -59c7.33301 -2.66699 15 -4 23 -4c8 -2 15.333 -3 22 -3c11.333 0 23.5 1.5 36.5 4.5s26.833 8.5 41.5 16.5c28.667 14.667 55.334 44 80.001 88c22.667 42.667 34 109 34 199z" />
    <glyph glyph-name="quotedblleft" unicode="&#xf1;" horiz-adv-x="846" 
d="M768 228l32.999 -14.998c-23.333 -62.667 -51.333 -110.334 -84 -143.001s-66.667 -55.667 -102 -69c-20.667 -8.66699 -41.334 -14.334 -62.001 -17.001s-40.334 -4 -59.001 -4c-128.667 0 -235.334 43.667 -320.001 131c-86 86 -129 194.333 -129 325v23
c0 6.66699 0.666992 13.334 2 20.001c10 104 53 199.667 129 287c76.667 86 182.667 129 318 129c83.333 0 154.333 -20.5 213 -61.5s88 -91.5 88 -151.5c0 -36.667 -10.333 -68 -31 -94c-22 -26 -50.667 -39 -86 -39c-42 0 -73.333 13.667 -94 41c-22 26 -33 54.667 -33 86
c0 8 1.33301 16.167 4 24.5s5.33398 15.833 8.00098 22.5c3.33301 6.66699 6.33301 13 9 19c2.66699 4 5.33398 8.66699 8.00098 14c6.66699 12 13.334 22.333 20.001 31c7.33301 8 11 15.333 11 22c0 2.66699 -0.666992 6 -2 10l-9 13c-8 8 -19.667 15.333 -35 22
c-16 5.33301 -37.667 8 -65 8h-18c-7.33301 0 -13.666 -0.666992 -18.999 -2c-48 -2.66699 -91 -21.667 -129 -57c-39.333 -36.667 -59 -114.334 -59 -233.001v-258c0 -92 15.667 -164.667 47 -218c31.333 -52.667 90.666 -79 177.999 -79
c72.667 0 129.334 19.667 170.001 59c39.333 38 72 89.333 98 154z" />
    <glyph glyph-name="two.0" unicode="&#xf2;" horiz-adv-x="893" 
d="M858 873l18.999 -332h-43c-19.333 95.333 -50.666 170.333 -93.999 225c-41.333 48 -98 72 -170 72h-23v-803h129v-35h-459v35h129v803h-24c-82 0 -138.667 -24.667 -170 -74c-34 -54.667 -62.667 -121 -86 -199c-1.33301 -4 -2 -8 -2 -12l-4 -12h-43l18 332h823z" />
    <glyph glyph-name="three.0" unicode="&#xf3;" horiz-adv-x="957" 
d="M516 -60l-423.998 897.998h-93v35h443l1 -35h-130l302 -631l163 465c3.33301 9.33301 6.33301 20.333 9 33c2.66699 10.667 4 22.334 4 35.001c0 24 -7.83301 46.333 -23.5 67s-46.834 31 -93.501 31h-19l1 35h329v-35c-38 -2.66699 -67.333 -16.334 -88 -41.001
c-21.333 -24 -39 -50.333 -53 -79l-12 -29c-4 -11.333 -7.66699 -21 -11 -29l-362 -976c-16.667 -43.333 -38.667 -76 -66 -98c-28.667 -22 -58.667 -36.333 -90 -43c-6.66699 -1.33301 -13.334 -2 -20.001 -2c-8 -1.33301 -15.667 -2 -23 -2c-62.667 0 -112 14.333 -148 43
c-35.333 28.667 -55.333 60 -60 94v6v4c0 38.667 10.5 72.334 31.5 101.001s47.167 43 78.5 43h23c6.66699 -1.33301 14 -3.33301 22 -6c19.333 -6 37 -15.667 53 -29c14.667 -15.333 22 -36.666 22 -63.999c0 -6.66699 -0.666992 -13.334 -2 -20.001
c-1.33301 -8 -3.33301 -15.667 -6 -23l-4 -12l-4 -12c-1.33301 -2.66699 -2 -6 -2 -10c-1.33301 -4.66699 -2 -9 -2 -13c0 -10.667 6.33301 -18.667 19 -24c12 -6.66699 29 -10 51 -10c15.333 0 29 4.66699 41 14c10.667 8 19.667 17.667 27 29c5.33301 8 10 16 14 24
c2.66699 6.66699 4.66699 12.334 6 17.001z" />
    <glyph glyph-name="hyphen.1" unicode="&#xf4;" horiz-adv-x="1491" 
d="M846 1295l-0.00390625 -522.998c23.333 38.667 53.333 68.667 90 90c36.667 22 78.334 33 125.001 33c105.333 0 196 -45.667 272 -137c75.333 -92.667 113 -202 113 -328c0 -16 -0.666992 -32.333 -2 -49c-2.66699 -16 -6 -32.333 -10 -49
c-19.333 -88.667 -63 -169.334 -131 -242.001c-70 -74 -160.333 -111 -271 -111c-10.667 0 -21.334 1.33301 -32.001 4c-12.667 1.33301 -25 4.33301 -37 9c-20.667 5.33301 -40.667 17 -60 35c-20 16 -39 39.333 -57 70v-499h129v-34h-459v34h129v499
c-13.333 -26 -29 -47.333 -47 -64c-17.333 -16.667 -35 -28.334 -53 -35.001c-15.333 -7.33301 -29.666 -12.333 -42.999 -15c-15.333 -2.66699 -29 -4 -41 -4c-109.333 0 -198.166 35.667 -266.499 107s-113.166 149.333 -134.499 234c-6 18.667 -9.66699 37.667 -11 57
c-2.66699 18 -4 35.667 -4 53c0 126 34.167 229.167 102.5 309.5s143.5 129.5 225.5 147.5c10.667 2.66699 21.5 4.66699 32.5 6s22.167 2 33.5 2c6.66699 0 22.334 -2 47.001 -6c22.667 -4 47.667 -14.333 75 -31c15.333 -8 30.333 -18.667 45 -32
c14 -15.333 27 -33.333 39 -54v475h-129v35h205c26 0 47.833 0.666992 65.5 2s34.834 4.33301 51.501 9c1.33301 0 2.66602 0.666992 3.99902 2h4zM644.996 266.002l-0.000976562 357.001c0 66.667 -16.333 122 -49 166c-34 42 -75 63 -123 63h-16
c-5.33301 -1.33301 -10.666 -2 -15.999 -2c-42.667 -8 -81 -32 -115 -72c-34 -39.333 -51 -102 -51 -188v-315c0 -88.667 19.667 -153.834 59 -195.501s84.333 -62.5 135 -62.5c10 0 21.667 1.33301 35 4c12 1.33301 25 5.33301 39 12c26 12 50 36 72 72
c20 35.333 30 89 30 161zM1216 275.003v314.999c0 91.333 -18.333 157 -55 197c-36.667 38 -76.667 59 -120 63c-2.66699 1.33301 -5.66699 2 -9 2h-12c-49.333 0 -90.333 -21 -123 -63c-34 -44 -51 -98.667 -51 -164v-359c0 -84 18.333 -146.667 55 -188
c36 -40.667 77 -61 123 -61c10 0 19.667 0.666992 29 2s19 4 29 8c34 10.667 65.333 35.334 94 74.001c26.667 36.667 40 94.667 40 174z" />
    <glyph glyph-name="period.1" unicode="&#xf5;" horiz-adv-x="1028" 
d="M422 406l-297 431.999h-109v35h445v-35h-92l209 -299l92 135c2.66699 2.66699 5.33398 6 8.00098 10c1.33301 2.66699 3.33301 5.33398 6 8.00098c0 2 0.666992 3.66699 2 5h2c7.33301 9.33301 14.333 19.833 21 31.5s10 26.834 10 45.501c0 18 -7.33301 33.667 -22 47
c-15.333 11.333 -40 17 -74 17h-12v35h354v-35h-31c-9.33301 0 -19 -1.33301 -29 -4c-9.33301 -2.66699 -18.666 -6 -27.999 -10c-23.333 -9.33301 -45.333 -23.666 -66 -42.999c-22 -19.333 -41 -40 -57 -62l-158 -219l324 -465h92v-35h-453v35h119l-235 334l-129 -178
c-1.33301 -1.33301 -3 -3.33301 -5 -6c-2.66699 -4.66699 -4.66699 -8.33398 -6 -11.001c-4 -9.33301 -8 -20 -12 -32c-4 -14 -6.66699 -28.333 -8 -43v-5v-4c0 -10.667 6.5 -20.834 19.5 -30.501s26.833 -16.5 41.5 -20.5c6 -1.33301 11.667 -2 17 -2
c4 -1.33301 8 -2 12 -2h16v-35h-373v35h17c38 0 73.333 10.333 106 31c31.333 20.667 58.666 43.667 81.999 69c13.333 14 25.666 27.667 36.999 41l24 33z" />
    <glyph glyph-name="question.0" unicode="&#xf9;" horiz-adv-x="1563" 
d="M1387 35h148l28 -334h-43v14c-1.33301 2.66699 -2 6 -2 10c-11.333 70 -42 133.667 -92 191c-52 56 -140.333 84 -265 84h-1120v35h129v803h-129v35h445v-35h-115v-803h307v803h-115v35h431v-35h-115v-803h307v803h-115v35h445v-35h-129v-803z" />
    <glyph glyph-name="A.0" unicode="&#xfa;" horiz-adv-x="1084" 
d="M559 509l99 -2c134.667 -3.33301 230 -24 286 -62c54.667 -40 89 -82.333 103 -127c2.66699 -12.667 4.66699 -24.334 6 -35.001c1.33301 -12.667 2 -24.334 2 -35.001c0 -13.333 -1.33301 -27.666 -4 -42.999c-2.66699 -16.667 -8.33398 -32.334 -17.001 -47.001
c-16 -39.333 -48 -75.666 -96 -108.999c-48.667 -32.667 -121.667 -49 -219 -49h-489v35h128v803h-42c-15.333 0 -34 -0.666992 -56 -2c-21.333 -1.33301 -43.666 -6.66602 -66.999 -15.999c-34 -14 -66 -40.667 -96 -80c-32 -41.333 -52.667 -106.333 -62 -195h-35l21 328
h667v-35h-129v-329zM559 35l80 -0.00195312c78 0 128 11.667 150 35c21.333 22 33.666 46.667 36.999 74v14v12v25v24v13v12v35v37v20c-1.33301 6.66699 -3 14.334 -5 23.001c-5.33301 28.667 -18.666 55.334 -39.999 80.001c-22 22.667 -63 34 -123 34h-99v-438z" />
    <glyph glyph-name="slash.0" unicode="&#xfb;" horiz-adv-x="1385" 
d="M371 508l97 -0.00195312c120 0 217 -21.667 291 -65c72 -44 108 -108.333 108 -193c0 -13.333 -1.66699 -27.666 -5 -42.999c-2.66699 -16 -8 -32.333 -16 -49c-16.667 -39.333 -48.667 -75.666 -96 -108.999c-49.333 -32.667 -122.333 -49 -219 -49h-490v35h129v803
h-129v35h459v-35h-129v-330zM371 34.998l79.999 -0.00195312c76.667 0 126.667 11.667 150 35c21.333 22 33.333 46.667 36 74v14v12v25v24v13v12v35v37v20c-1.33301 6.66699 -2.66602 14.334 -3.99902 23.001c-5.33301 28.667 -19 55.334 -41 80.001
c-22 22.667 -63 34 -123 34h-98v-438zM1215 34.9961h129v-35h-459v35h129v803h-129v35h459v-35h-129v-803z" />
    <glyph glyph-name="period.0" unicode="&#xfd;" horiz-adv-x="860" 
d="M119 588l-41 -0.00390625l10 307h45c7.33301 -13.333 15 -22.833 23 -28.5s17.667 -8.5 29 -8.5c8 0 17.333 1.33301 28 4c10 3.33301 21.667 7 35 11l12 4c4 1.33301 8.33301 2.66602 13 3.99902c14.667 4 30.834 7.33301 48.501 10s40.834 4 69.501 4
c126 0 225.667 -41.667 299 -125c74 -83.333 115 -174 123 -272c1.33301 -6.66699 2 -13 2 -19v-20c0 -124 -40 -234.667 -120 -332c-82 -98.667 -194.667 -148 -338 -148c-14 0 -27.833 0.666992 -41.5 2s-27.167 3.33301 -40.5 6c-60 11.333 -114.667 37 -164 77
c-50.667 38 -76 89.667 -76 155c0 30 8.33301 54 25 72c14.667 18 31.667 29.667 51 35c6.66699 2.66699 12.667 4.66699 18 6h17c26 0 47.667 -6.66699 65 -20c16.667 -15.333 28.334 -32 35.001 -50c1.33301 -5.33301 2.66602 -10 3.99902 -14
c1.33301 -5.33301 2 -10.666 2 -15.999c0 -15.333 -3.33301 -27.666 -10 -36.999c-6.66699 -11.333 -14.334 -21 -23.001 -29c-2.66699 -4 -5.33398 -7.33301 -8.00098 -10s-5.33398 -6 -8.00098 -10c-2.66699 -1.33301 -4.66699 -2.66602 -6 -3.99902
c-1.33301 -3.33301 -2.66602 -6.33301 -3.99902 -9c-2.66699 -5.33301 -4 -10.666 -4 -15.999c-1.33301 -5.33301 -2 -11.333 -2 -18v-5v-6v-4v-8c0 -18 10.667 -31 32 -39c20.667 -9.33301 43.334 -16 68.001 -20c13.333 -2.66699 26.333 -4 39 -4c12 -2 23 -3 33 -3
c69.333 0 119 18.5 149 55.5s50 77.5 60 121.5c4.66699 24 7.66699 47.667 9 71c1.33301 22 2.66602 41.333 3.99902 58v4v4l4 112h-357v35h357l-4 117c0 15.333 -0.666992 33 -2 53c-0.666992 20.667 -3 41.334 -7 62.001c-8.66699 39.333 -26.667 75.333 -54 108
c-28.667 32.667 -75 49 -139 49c-66.667 0 -124 -23.833 -172 -71.5s-77.333 -114.5 -88 -200.5z" />
    </font>
</defs>
</svg>
